G04 ================== begin FILE IDENTIFICATION RECORD ==================*
G04 Layout Name:  D:/Program/project/single-measure/PCB/single20210218.brd*
G04 Film Name:    adt*
G04 File Format:  Gerber RS274X*
G04 File Origin:  Cadence Allegro 17.2-S058*
G04 Origin Date:  Thu Feb 18 18:40:20 2021*
G04 *
G04 Layer:  REF DES/SILKSCREEN_TOP*
G04 Layer:  BOARD GEOMETRY/DESIGN_OUTLINE*
G04 Layer:  PIN/TOP*
G04 Layer:  PACKAGE GEOMETRY/SILKSCREEN_TOP*
G04 Layer:  BOARD GEOMETRY/SILKSCREEN_TOP*
G04 *
G04 Offset:    (0.0000 0.0000)*
G04 Mirror:    No*
G04 Mode:      Positive*
G04 Rotation:  0*
G04 FullContactRelief:  No*
G04 UndefLineWidth:     0.1520*
G04 ================== end FILE IDENTIFICATION RECORD ====================*
%FSLAX55Y55*MOMM*%
%IR0*IPPOS*OFA0.00000B0.00000*MIA0B0*SFA1.00000B1.00000*%
%ADD34R,1.X.3*%
%ADD16O,1.X.25*%
%ADD23O,.25X1.*%
%ADD27O,1.6X.3*%
%ADD26O,.3X1.6*%
%ADD44R,.7X1.*%
%ADD22R,.9X1.*%
%ADD31R,1.3X.7*%
%ADD29R,1.X.9*%
%ADD42R,.7X1.3*%
%ADD47R,2.2X.45*%
%ADD51R,1.85X.4*%
%ADD41R,1.2X.95*%
%ADD50C,.7*%
%ADD49R,.9X1.625*%
%ADD18R,.5X.5*%
%ADD10R,1.58X.58*%
%ADD46R,2.2X2.2*%
%ADD19R,2.1X1.4*%
%ADD30R,2.2X1.35*%
%ADD21R,.5X.4*%
%ADD48C,1.*%
%ADD14R,.4X.5*%
%ADD11R,.6X.5*%
%ADD33R,1.6X2.34*%
%ADD43R,.3X.45*%
%ADD40R,.8X.5*%
%ADD12R,.7X.6*%
%ADD52R,1.3X1.69*%
%ADD39R,.7X.7*%
%ADD17R,.8X.7*%
%ADD35R,.75X.4*%
%ADD32C,1.6*%
%ADD13R,.7X.8*%
%ADD38R,.4X.75*%
%ADD37R,.8X.9*%
%ADD15C,6.2*%
%ADD28R,2.X2.*%
%ADD20R,.9X.8*%
%ADD25R,.45X.28*%
%ADD45R,.65X.8*%
%AMMACRO36*
4,1,40,-.4,.9833,
-.4,-.9833,
-.395948,-1.029612,
-.383916,-1.074517,
-.364269,-1.11665,
-.337604,-1.154731,
-.304731,-1.187604,
-.26665,-1.214269,
-.224517,-1.233916,
-.179612,-1.245948,
-.1333,-1.25,
.1333,-1.25,
.179612,-1.245948,
.224517,-1.233916,
.26665,-1.214269,
.304731,-1.187604,
.337604,-1.154731,
.364269,-1.11665,
.383916,-1.074517,
.395948,-1.029612,
.4,-.9833,
.4,.9833,
.395948,1.029612,
.383916,1.074517,
.364269,1.11665,
.337604,1.154731,
.304731,1.187604,
.26665,1.214269,
.224517,1.233916,
.179612,1.245948,
.1333,1.25,
-.1333,1.25,
-.179612,1.245948,
-.224517,1.233916,
-.26665,1.214269,
-.304731,1.187604,
-.337604,1.154731,
-.364269,1.11665,
-.383916,1.074517,
-.395948,1.029612,
-.4,.9833,
0.0*
%
%ADD36MACRO36*%
%ADD24R,3.3X3.3*%
%ADD53C,.12*%
%ADD54C,.127*%
%ADD55C,.152*%
G75*
%LPD*%
G75*
G36*
G01X-2559920Y-2015120D02*
G03I-28280J0D01*
G37*
G36*
G01Y-1705120D02*
G03I-28280J0D01*
G37*
G36*
G01Y-1395120D02*
G03I-28280J0D01*
G37*
G36*
G01Y-1085120D02*
G03I-28280J0D01*
G37*
G36*
G01Y-775120D02*
G03I-28280J0D01*
G37*
G36*
G01Y-465120D02*
G03I-28280J0D01*
G37*
G36*
G01Y-155120D02*
G03I-28280J0D01*
G37*
G36*
G01Y154880D02*
G03I-28280J0D01*
G37*
G36*
G01Y464880D02*
G03I-28280J0D01*
G37*
G36*
G01Y774880D02*
G03I-28280J0D01*
G37*
G36*
G01Y1084880D02*
G03I-28280J0D01*
G37*
G36*
G01Y1394880D02*
G03I-28280J0D01*
G37*
G36*
G01Y2014880D02*
G03I-28280J0D01*
G37*
G36*
G01Y1704880D02*
G03I-28280J0D01*
G37*
G36*
G01X-1787600Y-4200D02*
X-1867600D01*
X-1827600Y-44200D01*
X-1787600Y-4200D01*
G37*
G36*
G01X-1681240Y311200D02*
G03I-22360J0D01*
G37*
G36*
G01X-1842380Y1301200D02*
G03I-31620J0D01*
G37*
G36*
G01X-1501200Y-1297200D02*
G03I-25000J0D01*
G37*
G36*
G01X-1257800Y946200D02*
G03I-25000J0D01*
G37*
G36*
G01X-992000Y1787600D02*
G03I-20000J0D01*
G37*
G36*
G01Y2087600D02*
G03I-20000J0D01*
G37*
G36*
G01X-404580Y-827200D02*
G03I-31620J0D01*
G37*
G36*
G01X-69400Y-1486200D02*
G03I-25000J0D01*
G37*
G36*
G01X484300Y677600D02*
G03I-20000J0D01*
G37*
G36*
G01X966730Y-1824600D02*
G03I-41230J0D01*
G37*
G36*
G01X836160Y-276200D02*
G03I-22360J0D01*
G37*
G36*
G01X999400Y1687200D02*
G03I-25000J0D01*
G37*
G36*
G01X1507830Y-2257600D02*
G03I-42430J0D01*
G37*
G36*
G01X1765900Y27600D02*
G03I-20000J0D01*
G37*
G54D10*
X-2758200Y-2111120D03*
Y-1801120D03*
Y-1609120D03*
Y-1919120D03*
Y-1491120D03*
Y-1299120D03*
Y-1181120D03*
Y-989120D03*
Y-561120D03*
Y-871120D03*
Y-679120D03*
Y-369120D03*
Y-251120D03*
Y58880D03*
Y-59120D03*
Y250880D03*
Y368880D03*
Y560880D03*
Y678880D03*
Y870880D03*
Y1298880D03*
Y988880D03*
Y1180880D03*
Y1490880D03*
Y1608880D03*
Y1918880D03*
Y1800880D03*
Y2110880D03*
G54D20*
X-1618600Y501200D03*
Y381200D03*
X-1468600Y501200D03*
Y381200D03*
G54D11*
X-2855700Y-2015120D03*
Y-1705120D03*
Y-1395120D03*
Y-1085120D03*
Y-775120D03*
Y-465120D03*
Y-155120D03*
Y154880D03*
Y464880D03*
Y774880D03*
Y1084880D03*
Y1394880D03*
Y2014880D03*
Y1704880D03*
G54D12*
X-2660700Y-2015120D03*
Y-1705120D03*
Y-1395120D03*
Y-1085120D03*
Y-775120D03*
Y-465120D03*
Y-155120D03*
Y154880D03*
Y464880D03*
Y774880D03*
Y1084880D03*
Y1394880D03*
Y2014880D03*
Y1704880D03*
G54D21*
X-1733600Y396200D03*
Y486200D03*
X-1391400Y-1559200D03*
Y-1479200D03*
X-1476800Y-1559200D03*
Y-1479200D03*
X-1318200Y631200D03*
Y711200D03*
X-1135800Y1340200D03*
Y1430200D03*
X-692200Y-636600D03*
Y-726600D03*
X-549400Y1327000D03*
Y1417000D03*
X-457000Y-1425200D03*
Y-1505200D03*
X-359400Y-1425200D03*
Y-1505200D03*
X-200000Y-932200D03*
Y-1012200D03*
X-295400Y-932200D03*
Y-1012200D03*
X-400800Y-927200D03*
Y-1017200D03*
X-328600Y-161800D03*
Y-251800D03*
X-173600Y1327000D03*
Y1417000D03*
X207200Y876200D03*
Y966200D03*
X413800Y-1455000D03*
Y-1375000D03*
X695200Y-1465000D03*
Y-1375000D03*
X640800Y-754200D03*
Y-664200D03*
X840200Y-424200D03*
Y-334200D03*
X921800Y849600D03*
Y929600D03*
Y681000D03*
Y601000D03*
X828200Y841200D03*
Y931200D03*
X707000Y1621400D03*
X611600D03*
X707000Y1701400D03*
X611600D03*
X1246200Y-2026400D03*
Y-1936400D03*
X1340800Y-2021400D03*
Y-1941400D03*
X1330200Y187400D03*
Y277400D03*
X1329500Y412600D03*
Y502600D03*
X1487600Y1688200D03*
Y1768200D03*
X1950000Y-1744200D03*
Y-1834200D03*
G54D30*
X-378000Y-1851400D03*
X-96000D03*
X688600Y1305400D03*
X970600D03*
G54D13*
X-2308200Y-2121600D03*
X-2158200D03*
X-1383600D03*
X-1233600D03*
X136000Y2095600D03*
X286000D03*
G54D40*
X1160000Y-270000D03*
X1360000D03*
G54D31*
X-216400Y-1320200D03*
Y-1520200D03*
X555000Y-1474000D03*
Y-1274000D03*
X842400Y1626400D03*
Y1826400D03*
X1632600Y1683200D03*
Y1883200D03*
G54D22*
X-1664000Y1206200D03*
Y1036200D03*
X-1794000D03*
Y1206200D03*
G54D32*
X-367000Y1676000D03*
X-113000D03*
X-367000Y1930000D03*
X-113000D03*
X-367000Y2184000D03*
X-113000D03*
X1534600Y157000D03*
Y411000D03*
Y665000D03*
X1788600Y157000D03*
Y411000D03*
Y665000D03*
X2350800Y960600D03*
Y706600D03*
Y1214600D03*
Y1722600D03*
Y1468600D03*
G54D14*
X-2008600Y611200D03*
Y721200D03*
X-1682600Y-376400D03*
Y-246400D03*
Y-117400D03*
X-1688600Y9600D03*
X-1898800Y393600D03*
X-1818800D03*
X-1898800Y483600D03*
X-1818800D03*
X-1918600Y611200D03*
Y721200D03*
X-1658600Y811200D03*
X-1748600D03*
X-1774000Y1321200D03*
X-1684000D03*
X-1270000Y-1330000D03*
X-1475200Y-1406200D03*
X-1565200D03*
X-1592600Y-376400D03*
Y-246400D03*
Y-117400D03*
X-1598600Y9600D03*
X-1463600Y711200D03*
X-1543600D03*
X-1463600Y921200D03*
X-1543600D03*
X-1548600Y611200D03*
X-1458600D03*
X-1548600Y1031200D03*
X-1458600D03*
X-1500000Y1410000D03*
X-1580000D03*
X-1499000Y1321200D03*
X-1579000D03*
X-1190000Y-1330000D03*
X-1070000D03*
X-990000D03*
X-906200Y-1136800D03*
X-911200Y-1037200D03*
Y-902200D03*
Y-767600D03*
Y-653000D03*
X-826200Y-1136800D03*
X-821200Y-1037200D03*
Y-902200D03*
Y-767600D03*
Y-653000D03*
X-262000Y-1668200D03*
X-182000D03*
X5400Y-1325000D03*
X85400D03*
X5400Y-1230400D03*
X85400D03*
X497600Y-1710400D03*
X417600D03*
X497600Y-1619600D03*
X417600D03*
X233800Y247200D03*
X323800D03*
X615400Y-1586200D03*
X705400D03*
X756200Y-1060800D03*
X676200D03*
X925800Y-545400D03*
X835800D03*
X924200Y288400D03*
X834200D03*
X816600Y1514200D03*
X896600D03*
X1220000Y-1839200D03*
X1300000D03*
X1030400Y-545400D03*
X1120400D03*
X1215000Y-400000D03*
X1305000D03*
X1013800Y288400D03*
X1093800D03*
X1091000Y1944000D03*
X1011000D03*
X1091000Y1848400D03*
X1011000D03*
X1405000Y-870000D03*
X1315000D03*
X1566600Y1534700D03*
X1486600D03*
X1566600Y1446400D03*
X1486600D03*
X1730000Y-1839200D03*
X1810000D03*
X1809600Y-825800D03*
X1899600D03*
X1714600Y-449800D03*
X1794600D03*
X1930200Y940200D03*
X1840200D03*
X1682600Y1567600D03*
X1772600D03*
X1933000Y1375800D03*
X1843000D03*
X1782600Y1685200D03*
X1872600D03*
G54D50*
X2656800Y-492900D03*
Y-92900D03*
G54D41*
X1475400Y-1970100D03*
X1695400D03*
Y-2145100D03*
X1475400D03*
G54D23*
X-1276200Y-1217200D03*
X-1326200D03*
X-1376200D03*
X-1426200D03*
X-1476200D03*
X-1526200D03*
Y-707200D03*
X-1476200D03*
X-1426200D03*
X-1376200D03*
X-1326200D03*
X-1276200D03*
X-1176200Y-1217200D03*
X-1226200D03*
Y-707200D03*
X-1176200D03*
G54D24*
X-1351200Y-962200D03*
G54D15*
X-1887400Y1874800D03*
G54D33*
X150600Y-1561200D03*
X1219400Y1612200D03*
G54D51*
X2598300Y-162900D03*
Y-227900D03*
Y-292900D03*
Y-357900D03*
Y-422900D03*
G54D42*
X1608400Y-563000D03*
X1808400D03*
G54D25*
X-1318200Y524200D03*
Y458200D03*
X1974900Y-388200D03*
Y-454200D03*
G54D52*
X2870800Y-619900D03*
Y34100D03*
G54D43*
X1645900Y-159900D03*
Y-24900D03*
X1745900Y-159900D03*
X1695900Y-24900D03*
X1745900D03*
G54D16*
X-1606200Y-1137200D03*
Y-1087200D03*
Y-1037200D03*
Y-987200D03*
Y-937200D03*
Y-887200D03*
Y-837200D03*
Y-787200D03*
X-1096200Y-887200D03*
Y-937200D03*
Y-987200D03*
Y-1037200D03*
Y-1087200D03*
Y-1137200D03*
Y-787200D03*
Y-837200D03*
G54D34*
X600Y-1636200D03*
Y-1486200D03*
Y-1536200D03*
Y-1586200D03*
X300600Y-1636200D03*
Y-1586200D03*
Y-1536200D03*
Y-1486200D03*
X1069400Y1637200D03*
Y1587200D03*
Y1537200D03*
Y1687200D03*
X1369400Y1537200D03*
Y1587200D03*
Y1637200D03*
Y1687200D03*
G54D53*
G01X875500Y-1564600D02*
X865500D01*
Y-1144600D01*
X875500D01*
G01X1875500D02*
X1885500D01*
Y-1564600D01*
X1875500D01*
G54D35*
X211800Y807600D03*
Y727600D03*
X396800Y807600D03*
Y727600D03*
G54D17*
X-1816200Y-677200D03*
Y-827200D03*
X-896200Y-1708000D03*
Y-1558000D03*
X1975800Y-1117000D03*
Y-967000D03*
G54D44*
X1983400Y-649600D03*
X2153400D03*
G54D26*
X-897800Y-23800D03*
X-947800D03*
Y1166200D03*
X-897800D03*
X-547800Y-23800D03*
X-597800D03*
X-647800D03*
X-697800D03*
X-747800D03*
X-797800D03*
X-847800D03*
Y1166200D03*
X-797800D03*
X-747800D03*
X-697800D03*
X-647800D03*
X-597800D03*
X-547800D03*
X-197800Y-23800D03*
X-247800D03*
X-297800D03*
X-347800D03*
X-397800D03*
X-447800D03*
X-497800D03*
Y1166200D03*
X-447800D03*
X-397800D03*
X-347800D03*
X-297800D03*
X-247800D03*
X-197800D03*
G54D54*
G01X-2848200Y-2125120D02*
X-2868200D01*
Y-2055120D01*
G01X-2848200Y-1815120D02*
X-2868200D01*
Y-1745120D01*
G01Y-1665120D02*
Y-1595120D01*
X-2848200D01*
G01X-2868200Y-1975120D02*
Y-1905120D01*
X-2848200D01*
G01Y-1505120D02*
X-2868200D01*
Y-1435120D01*
G01Y-1355120D02*
Y-1285120D01*
X-2848200D01*
G01Y-1195120D02*
X-2868200D01*
Y-1125120D01*
G01Y-1045120D02*
Y-975120D01*
X-2848200D01*
G01Y-575120D02*
X-2868200D01*
Y-505120D01*
G01X-2848200Y-885120D02*
X-2868200D01*
Y-815120D01*
G01Y-735120D02*
Y-665120D01*
X-2848200D01*
G01X-2868200Y-425120D02*
Y-355120D01*
X-2848200D01*
G01Y-265120D02*
X-2868200D01*
Y-195120D01*
G01X-2848200Y44880D02*
X-2868200D01*
Y114880D01*
G01Y194880D02*
Y264880D01*
X-2848200D01*
G01X-2868200Y-115120D02*
Y-45120D01*
X-2848200D01*
G01Y354880D02*
X-2868200D01*
Y424880D01*
G01Y504880D02*
Y574880D01*
X-2848200D01*
G01Y664880D02*
X-2868200D01*
Y734880D01*
G01Y814880D02*
Y884880D01*
X-2848200D01*
G01Y1284880D02*
X-2868200D01*
Y1354880D01*
G01X-2848200Y974880D02*
X-2868200D01*
Y1044880D01*
G01Y1124880D02*
Y1194880D01*
X-2848200D01*
G01X-2868200Y1434880D02*
Y1504880D01*
X-2848200D01*
G01Y1594880D02*
X-2868200D01*
Y1664880D01*
G01X-2848200Y1904880D02*
X-2868200D01*
Y1974880D01*
G01Y1744880D02*
Y1814880D01*
X-2848200D01*
G01X-2868200Y2054880D02*
Y2124880D01*
X-2848200D01*
G01X-2506050Y-1914620D02*
X-2513930Y-1919490D01*
X-2519180Y-1925330D01*
X-2521800Y-1932140D01*
X-2519180Y-1939930D01*
X-2513930Y-1945770D01*
X-2506050Y-1951620D01*
X-2495550Y-1953560D01*
X-2443060D01*
G01X-2521800Y-2012830D02*
X-2443060D01*
X-2458810Y-2001150D01*
G01X-2521800D02*
Y-2024510D01*
G01Y-2103250D02*
X-2443060D01*
X-2499490Y-2067230D01*
Y-2115910D01*
G01X-2668200Y-2125120D02*
X-2648200D01*
Y-2055120D01*
G01X-2113200Y-2171600D02*
X-2353200D01*
Y-2071600D01*
X-2113200D01*
Y-2171600D01*
G01X-2516050Y-1644620D02*
X-2523930Y-1649490D01*
X-2529180Y-1655330D01*
X-2531800Y-1662140D01*
X-2529180Y-1669930D01*
X-2523930Y-1675770D01*
X-2516050Y-1681620D01*
X-2505550Y-1683560D01*
X-2453060D01*
G01X-2531800Y-1740880D02*
X-2514740Y-1742830D01*
X-2500310Y-1745750D01*
X-2487180Y-1749650D01*
X-2472750Y-1754510D01*
X-2453060Y-1762300D01*
Y-1723360D01*
G01X-2668200Y-1815120D02*
X-2648200D01*
Y-1745120D01*
G01X-2668200Y-1595120D02*
X-2648200D01*
Y-1665120D01*
G01X-2668200Y-1905120D02*
X-2648200D01*
Y-1975120D01*
G01X-2506050Y-1294620D02*
X-2513930Y-1299490D01*
X-2519180Y-1305330D01*
X-2521800Y-1312140D01*
X-2519180Y-1319930D01*
X-2513930Y-1325770D01*
X-2506050Y-1331620D01*
X-2495550Y-1333560D01*
X-2443060D01*
G01X-2521800Y-1392830D02*
X-2443060D01*
X-2458810Y-1381150D01*
G01X-2521800D02*
Y-1404510D01*
G01X-2506050Y-1450150D02*
X-2515240Y-1455990D01*
X-2520490Y-1463780D01*
X-2521800Y-1472540D01*
X-2520490Y-1480330D01*
X-2513930Y-1488120D01*
X-2506050Y-1492990D01*
X-2498180Y-1493960D01*
X-2488990Y-1492020D01*
X-2482430Y-1485200D01*
X-2479800Y-1478390D01*
Y-1469620D01*
G01Y-1478390D02*
X-2475870Y-1484230D01*
X-2469310Y-1489100D01*
X-2461430Y-1491040D01*
X-2453560Y-1489100D01*
X-2447000Y-1484230D01*
X-2443060Y-1475460D01*
X-2444370Y-1466700D01*
X-2449620Y-1457940D01*
G01X-2668200Y-1505120D02*
X-2648200D01*
Y-1435120D01*
G01X-2668200Y-1285120D02*
X-2648200D01*
Y-1355120D01*
G01X-2506050Y-1034620D02*
X-2513930Y-1039490D01*
X-2519180Y-1045330D01*
X-2521800Y-1052140D01*
X-2519180Y-1059930D01*
X-2513930Y-1065770D01*
X-2506050Y-1071620D01*
X-2495550Y-1073560D01*
X-2443060D01*
G01X-2488990Y-1114330D02*
X-2479800Y-1121150D01*
X-2474560Y-1126990D01*
X-2471930Y-1134780D01*
X-2474560Y-1141590D01*
X-2479800Y-1146460D01*
X-2487680Y-1150360D01*
X-2496870Y-1151330D01*
X-2504740Y-1150360D01*
X-2512620Y-1146460D01*
X-2519180Y-1140620D01*
X-2521800Y-1133800D01*
X-2519180Y-1126010D01*
X-2511300Y-1119200D01*
X-2499490Y-1115300D01*
X-2486370Y-1114330D01*
X-2469310Y-1116280D01*
X-2460120Y-1119200D01*
X-2450930Y-1124070D01*
X-2444370Y-1130880D01*
X-2443060Y-1137700D01*
X-2445680Y-1144510D01*
X-2452250Y-1149380D01*
G01X-2668200Y-1195120D02*
X-2648200D01*
Y-1125120D01*
G01X-2668200Y-975120D02*
X-2648200D01*
Y-1045120D01*
G01X-2668200Y-575120D02*
X-2648200D01*
Y-505120D01*
G01X-2506050Y-674620D02*
X-2513930Y-679490D01*
X-2519180Y-685330D01*
X-2521800Y-692140D01*
X-2519180Y-699930D01*
X-2513930Y-705770D01*
X-2506050Y-711620D01*
X-2495550Y-713560D01*
X-2443060D01*
G01X-2521800Y-772830D02*
X-2443060D01*
X-2458810Y-761150D01*
G01X-2521800D02*
Y-784510D01*
G01X-2456180Y-833070D02*
X-2448310Y-838910D01*
X-2444370Y-845730D01*
X-2443060Y-853520D01*
X-2445680Y-863250D01*
X-2452250Y-870070D01*
X-2460120Y-872020D01*
X-2468000Y-871040D01*
X-2474560Y-867150D01*
X-2487680Y-847680D01*
X-2496870Y-838910D01*
X-2509990Y-833070D01*
X-2521800Y-831120D01*
Y-872020D01*
G01X-2668200Y-885120D02*
X-2648200D01*
Y-815120D01*
G01X-2668200Y-665120D02*
X-2648200D01*
Y-735120D01*
G01X-2506050Y-404620D02*
X-2513930Y-409490D01*
X-2519180Y-415330D01*
X-2521800Y-422140D01*
X-2519180Y-429930D01*
X-2513930Y-435770D01*
X-2506050Y-441620D01*
X-2495550Y-443560D01*
X-2443060D01*
G01X-2509990Y-481410D02*
X-2516550Y-487250D01*
X-2520490Y-494070D01*
X-2521800Y-502830D01*
X-2519180Y-511590D01*
X-2513930Y-518410D01*
X-2504740Y-523280D01*
X-2494240Y-524250D01*
X-2483740Y-522300D01*
X-2477180Y-517430D01*
X-2471930Y-510620D01*
X-2470620Y-503800D01*
X-2471930Y-496990D01*
X-2477180Y-488230D01*
X-2443060Y-491150D01*
Y-517430D01*
G01X-2668200Y-355120D02*
X-2648200D01*
Y-425120D01*
G01X-2506050Y-54620D02*
X-2513930Y-59490D01*
X-2519180Y-65330D01*
X-2521800Y-72140D01*
X-2519180Y-79930D01*
X-2513930Y-85770D01*
X-2506050Y-91620D01*
X-2495550Y-93560D01*
X-2443060D01*
G01X-2521800Y-152830D02*
X-2443060D01*
X-2458810Y-141150D01*
G01X-2521800D02*
Y-164510D01*
G01Y-231570D02*
X-2443060D01*
X-2458810Y-219890D01*
G01X-2521800D02*
Y-243250D01*
G01X-2668200Y-265120D02*
X-2648200D01*
Y-195120D01*
G01X-2506050Y215380D02*
X-2513930Y210510D01*
X-2519180Y204670D01*
X-2521800Y197860D01*
X-2519180Y190070D01*
X-2513930Y184230D01*
X-2506050Y178380D01*
X-2495550Y176440D01*
X-2443060D01*
G01X-2521800Y105490D02*
X-2443060D01*
X-2499490Y141510D01*
Y92830D01*
G01X-2668200Y44880D02*
X-2648200D01*
Y114880D01*
G01X-2668200Y264880D02*
X-2648200D01*
Y194880D01*
G01X-2668200Y-45120D02*
X-2648200D01*
Y-115120D01*
G01X-2506050Y565380D02*
X-2513930Y560510D01*
X-2519180Y554670D01*
X-2521800Y547860D01*
X-2519180Y540070D01*
X-2513930Y534230D01*
X-2506050Y528380D01*
X-2495550Y526440D01*
X-2443060D01*
G01X-2521800Y467170D02*
X-2443060D01*
X-2458810Y478850D01*
G01X-2521800D02*
Y455490D01*
G01X-2443060Y388430D02*
X-2445680Y396220D01*
X-2452250Y402060D01*
X-2460120Y405960D01*
X-2470620Y408880D01*
X-2482430Y409850D01*
X-2494240Y408880D01*
X-2504740Y405960D01*
X-2512620Y402060D01*
X-2519180Y396220D01*
X-2521800Y388430D01*
X-2519180Y380640D01*
X-2512620Y374800D01*
X-2504740Y370900D01*
X-2494240Y367980D01*
X-2482430Y367010D01*
X-2470620Y367980D01*
X-2460120Y370900D01*
X-2452250Y374800D01*
X-2445680Y380640D01*
X-2443060Y388430D01*
G01X-2668200Y354880D02*
X-2648200D01*
Y424880D01*
G01X-2668200Y574880D02*
X-2648200D01*
Y504880D01*
G01X-2506050Y825380D02*
X-2513930Y820510D01*
X-2519180Y814670D01*
X-2521800Y807860D01*
X-2519180Y800070D01*
X-2513930Y794230D01*
X-2506050Y788380D01*
X-2495550Y786440D01*
X-2443060D01*
G01X-2506050Y748590D02*
X-2515240Y742750D01*
X-2520490Y734960D01*
X-2521800Y726200D01*
X-2520490Y718410D01*
X-2513930Y710620D01*
X-2506050Y705750D01*
X-2498180Y704780D01*
X-2488990Y706720D01*
X-2482430Y713540D01*
X-2479800Y720350D01*
Y729120D01*
G01Y720350D02*
X-2475870Y714510D01*
X-2469310Y709640D01*
X-2461430Y707700D01*
X-2453560Y709640D01*
X-2447000Y714510D01*
X-2443060Y723280D01*
X-2444370Y732040D01*
X-2449620Y740800D01*
G01X-2668200Y664880D02*
X-2648200D01*
Y734880D01*
G01X-2668200Y884880D02*
X-2648200D01*
Y814880D01*
G01X-2668200Y1284880D02*
X-2648200D01*
Y1354880D01*
G01X-2506050Y1135380D02*
X-2513930Y1130510D01*
X-2519180Y1124670D01*
X-2521800Y1117860D01*
X-2519180Y1110070D01*
X-2513930Y1104230D01*
X-2506050Y1098380D01*
X-2495550Y1096440D01*
X-2443060D01*
G01X-2512620Y1053720D02*
X-2519180Y1046910D01*
X-2521800Y1039120D01*
X-2519180Y1031330D01*
X-2511300Y1024510D01*
X-2499490Y1019640D01*
X-2487680Y1017700D01*
X-2473240D01*
X-2461430Y1019640D01*
X-2450930Y1024510D01*
X-2445680Y1030350D01*
X-2443060Y1037170D01*
X-2445680Y1044960D01*
X-2450930Y1050800D01*
X-2458810Y1054700D01*
X-2469310Y1056640D01*
X-2478490Y1054700D01*
X-2487680Y1049830D01*
X-2492930Y1043990D01*
X-2494240Y1037170D01*
X-2491620Y1029380D01*
X-2485060Y1023540D01*
X-2473240Y1017700D01*
G01X-2668200Y974880D02*
X-2648200D01*
Y1044880D01*
G01X-2668200Y1194880D02*
X-2648200D01*
Y1124880D01*
G01X-2506050Y1445380D02*
X-2513930Y1440510D01*
X-2519180Y1434670D01*
X-2521800Y1427860D01*
X-2519180Y1420070D01*
X-2513930Y1414230D01*
X-2506050Y1408380D01*
X-2495550Y1406440D01*
X-2443060D01*
G01X-2456180Y1365670D02*
X-2448310Y1359830D01*
X-2444370Y1353010D01*
X-2443060Y1345220D01*
X-2445680Y1335490D01*
X-2452250Y1328670D01*
X-2460120Y1326720D01*
X-2468000Y1327700D01*
X-2474560Y1331590D01*
X-2487680Y1351060D01*
X-2496870Y1359830D01*
X-2509990Y1365670D01*
X-2521800Y1367620D01*
Y1326720D01*
G01X-2668200Y1504880D02*
X-2648200D01*
Y1434880D01*
G01X-2506050Y1765380D02*
X-2513930Y1760510D01*
X-2519180Y1754670D01*
X-2521800Y1747860D01*
X-2519180Y1740070D01*
X-2513930Y1734230D01*
X-2506050Y1728380D01*
X-2495550Y1726440D01*
X-2443060D01*
G01X-2521800Y1667170D02*
X-2520490Y1660350D01*
X-2516550Y1652570D01*
X-2509990Y1647700D01*
X-2500800Y1645750D01*
X-2491620Y1647700D01*
X-2483740Y1653540D01*
X-2479800Y1662300D01*
Y1672040D01*
X-2477180Y1677880D01*
X-2470620Y1682750D01*
X-2461430Y1684700D01*
X-2452250Y1681770D01*
X-2445680Y1674960D01*
X-2443060Y1667170D01*
X-2445680Y1659380D01*
X-2452250Y1652570D01*
X-2461430Y1649640D01*
X-2470620Y1651590D01*
X-2477180Y1656460D01*
X-2479800Y1662300D01*
Y1672040D01*
X-2483740Y1680800D01*
X-2491620Y1686640D01*
X-2500800Y1688590D01*
X-2509990Y1686640D01*
X-2516550Y1681770D01*
X-2520490Y1673990D01*
X-2521800Y1667170D01*
G01X-2668200Y1594880D02*
X-2648200D01*
Y1664880D01*
G01X-2506050Y2075380D02*
X-2513930Y2070510D01*
X-2519180Y2064670D01*
X-2521800Y2057860D01*
X-2519180Y2050070D01*
X-2513930Y2044230D01*
X-2506050Y2038380D01*
X-2495550Y2036440D01*
X-2443060D01*
G01X-2521800Y1977170D02*
X-2443060D01*
X-2458810Y1988850D01*
G01X-2521800D02*
Y1965490D01*
G01X-2668200Y1904880D02*
X-2648200D01*
Y1974880D01*
G01X-2668200Y1814880D02*
X-2648200D01*
Y1744880D01*
G01X-2668200Y2124880D02*
X-2648200D01*
Y2054880D01*
G01X-2290030Y-1964900D02*
Y-2028400D01*
X-2262930D01*
G01X-2233470Y-1975480D02*
X-2229410Y-1969130D01*
X-2224660Y-1965960D01*
X-2219250Y-1964900D01*
X-2212470Y-1967020D01*
X-2207730Y-1972310D01*
X-2206380Y-1978660D01*
X-2207050Y-1985010D01*
X-2209760Y-1990300D01*
X-2223310Y-2000880D01*
X-2229410Y-2008290D01*
X-2233470Y-2018880D01*
X-2234820Y-2028400D01*
X-2206380D01*
G01X-1925590Y-683020D02*
X-1922420Y-678960D01*
X-1920300Y-674220D01*
Y-668800D01*
X-1923480Y-662700D01*
X-1928770Y-657960D01*
X-1935120Y-654570D01*
X-1945700Y-651860D01*
X-1955230Y-651190D01*
X-1964750Y-652540D01*
X-1971100Y-654570D01*
X-1977450Y-658640D01*
X-1981680Y-663380D01*
X-1983800Y-668120D01*
Y-672860D01*
X-1981680Y-677600D01*
X-1978510Y-681670D01*
X-1974280Y-685050D01*
G01X-1971100Y-709100D02*
X-1978510Y-713160D01*
X-1982740Y-718580D01*
X-1983800Y-724680D01*
X-1982740Y-730100D01*
X-1977450Y-735520D01*
X-1971100Y-738900D01*
X-1964750Y-739580D01*
X-1957340Y-738220D01*
X-1952050Y-733480D01*
X-1949930Y-728740D01*
Y-722650D01*
G01Y-728740D02*
X-1946760Y-732810D01*
X-1941470Y-736190D01*
X-1935120Y-737550D01*
X-1928770Y-736190D01*
X-1923480Y-732810D01*
X-1920300Y-726710D01*
X-1921360Y-720610D01*
X-1925590Y-714520D01*
G01X-1930880Y-767010D02*
X-1924530Y-771070D01*
X-1921360Y-775820D01*
X-1920300Y-781230D01*
X-1922420Y-788010D01*
X-1927710Y-792750D01*
X-1934060Y-794100D01*
X-1940410Y-793430D01*
X-1945700Y-790720D01*
X-1956280Y-777170D01*
X-1963690Y-771070D01*
X-1974280Y-767010D01*
X-1983800Y-765660D01*
Y-794100D01*
G01X-2007600Y-169620D02*
X-1944100D01*
Y-183170D01*
X-1947280Y-188580D01*
X-1951510Y-192650D01*
X-1957860Y-196040D01*
X-1965270Y-198740D01*
X-1975850Y-199420D01*
X-1986430Y-198740D01*
X-1993840Y-196040D01*
X-2000190Y-192650D01*
X-2004430Y-188580D01*
X-2007600Y-183170D01*
Y-169620D01*
G01X-1998080Y-225500D02*
X-2003370Y-229560D01*
X-2006540Y-234300D01*
X-2007600Y-240400D01*
X-2005480Y-246500D01*
X-2001250Y-251240D01*
X-1993840Y-254620D01*
X-1985380Y-255300D01*
X-1976910Y-253950D01*
X-1971620Y-250560D01*
X-1967380Y-245820D01*
X-1966330Y-241080D01*
X-1967380Y-236340D01*
X-1971620Y-230240D01*
X-1944100Y-232270D01*
Y-250560D01*
G01X-2050980Y399610D02*
X-2055040Y402780D01*
X-2059780Y404900D01*
X-2065200D01*
X-2071300Y401720D01*
X-2076040Y396430D01*
X-2079430Y390080D01*
X-2082140Y379500D01*
X-2082810Y369970D01*
X-2081460Y360450D01*
X-2079430Y354100D01*
X-2075360Y347750D01*
X-2070620Y343520D01*
X-2065880Y341400D01*
X-2061140D01*
X-2056400Y343520D01*
X-2052330Y346690D01*
X-2048950Y350920D01*
G01X-2011350Y341400D02*
X-2010000Y355160D01*
X-2007970Y366800D01*
X-2005260Y377380D01*
X-2001870Y389020D01*
X-1996450Y404900D01*
X-2023550D01*
G01X-2050980Y509610D02*
X-2055040Y512780D01*
X-2059780Y514900D01*
X-2065200D01*
X-2071300Y511720D01*
X-2076040Y506430D01*
X-2079430Y500080D01*
X-2082140Y489500D01*
X-2082810Y479970D01*
X-2081460Y470450D01*
X-2079430Y464100D01*
X-2075360Y457750D01*
X-2070620Y453520D01*
X-2065880Y451400D01*
X-2061140D01*
X-2056400Y453520D01*
X-2052330Y456690D01*
X-2048950Y460920D01*
G01X-2022870Y477860D02*
X-2018130Y485270D01*
X-2014060Y489500D01*
X-2008650Y491620D01*
X-2003900Y489500D01*
X-2000520Y485270D01*
X-1997810Y478920D01*
X-1997130Y471510D01*
X-1997810Y465160D01*
X-2000520Y458810D01*
X-2004580Y453520D01*
X-2009320Y451400D01*
X-2014740Y453520D01*
X-2019480Y459860D01*
X-2022190Y469390D01*
X-2022870Y479970D01*
X-2021520Y493730D01*
X-2019480Y501140D01*
X-2016100Y508550D01*
X-2011350Y513840D01*
X-2006610Y514900D01*
X-2001870Y512780D01*
X-1998480Y507490D01*
G01X-2196830Y571200D02*
Y634700D01*
X-2179890D01*
X-2174470Y631520D01*
X-2171090Y627290D01*
X-2169730Y618820D01*
X-2171090Y610360D01*
X-2175150Y605070D01*
X-2179890Y601890D01*
X-2196830D01*
G01X-2179890D02*
X-2169730Y571200D01*
G01X-2140270Y597660D02*
X-2135530Y605070D01*
X-2131460Y609300D01*
X-2126050Y611420D01*
X-2121300Y609300D01*
X-2117920Y605070D01*
X-2115210Y598720D01*
X-2114530Y591310D01*
X-2115210Y584960D01*
X-2117920Y578610D01*
X-2121980Y573320D01*
X-2126720Y571200D01*
X-2132140Y573320D01*
X-2136880Y579660D01*
X-2139590Y589190D01*
X-2140270Y599770D01*
X-2138920Y613530D01*
X-2136880Y620940D01*
X-2133500Y628350D01*
X-2128750Y633640D01*
X-2124010Y634700D01*
X-2119270Y632580D01*
X-2115880Y627290D01*
G01X-1983600Y656200D02*
X-2048600D01*
Y566200D01*
X-1983600D01*
G01X-2196830Y681200D02*
Y744700D01*
X-2179890D01*
X-2174470Y741520D01*
X-2171090Y737290D01*
X-2169730Y728820D01*
X-2171090Y720360D01*
X-2175150Y715070D01*
X-2179890Y711890D01*
X-2196830D01*
G01X-2179890D02*
X-2169730Y681200D01*
G01X-2142300Y690720D02*
X-2138240Y685430D01*
X-2133500Y682260D01*
X-2127400Y681200D01*
X-2121300Y683320D01*
X-2116560Y687550D01*
X-2113180Y694960D01*
X-2112500Y703420D01*
X-2113850Y711890D01*
X-2117240Y717180D01*
X-2121980Y721420D01*
X-2126720Y722470D01*
X-2131460Y721420D01*
X-2137560Y717180D01*
X-2135530Y744700D01*
X-2117240D01*
G01X-1983600Y766200D02*
X-2048600D01*
Y676200D01*
X-1983600D01*
G01X-1484290Y1874800D02*
G03I-403110J0D01*
G01X-1715780Y-1258700D02*
Y-1304210D01*
X-1713070Y-1313740D01*
X-1707650Y-1320080D01*
X-1700880Y-1322200D01*
X-1694110Y-1320080D01*
X-1688690Y-1313740D01*
X-1685980Y-1304210D01*
Y-1258700D01*
G01X-1657870Y-1269280D02*
X-1653810Y-1262930D01*
X-1649060Y-1259760D01*
X-1643650Y-1258700D01*
X-1636870Y-1260820D01*
X-1632130Y-1266110D01*
X-1630780Y-1272460D01*
X-1631450Y-1278810D01*
X-1634160Y-1284100D01*
X-1647710Y-1294680D01*
X-1653810Y-1302090D01*
X-1657870Y-1312680D01*
X-1659220Y-1322200D01*
X-1630780D01*
G01X-1783430Y-1436200D02*
Y-1372700D01*
X-1766490D01*
X-1761070Y-1375880D01*
X-1757690Y-1380110D01*
X-1756330Y-1388580D01*
X-1757690Y-1397040D01*
X-1761750Y-1402330D01*
X-1766490Y-1405510D01*
X-1783430D01*
G01X-1766490D02*
X-1756330Y-1436200D01*
G01X-1714000D02*
Y-1372700D01*
X-1722130Y-1385400D01*
G01Y-1436200D02*
X-1705870D01*
G01X-1673020Y-1426680D02*
X-1668960Y-1431970D01*
X-1664220Y-1435140D01*
X-1658120Y-1436200D01*
X-1652020Y-1434080D01*
X-1647280Y-1429850D01*
X-1643900Y-1422440D01*
X-1643220Y-1413980D01*
X-1644570Y-1405510D01*
X-1647960Y-1400220D01*
X-1652700Y-1395980D01*
X-1657440Y-1394930D01*
X-1662180Y-1395980D01*
X-1668280Y-1400220D01*
X-1666250Y-1372700D01*
X-1647960D01*
G01X-1866200Y-872200D02*
Y-632200D01*
X-1766200D01*
Y-872200D01*
X-1866200D01*
G01X-1767600Y-54200D02*
Y-394200D01*
X-1887600D01*
Y-54200D01*
X-1767600D01*
G01X-1780830Y-506400D02*
Y-442900D01*
X-1763890D01*
X-1758470Y-446080D01*
X-1755090Y-450310D01*
X-1753730Y-458780D01*
X-1755090Y-467240D01*
X-1759150Y-472530D01*
X-1763890Y-475710D01*
X-1780830D01*
G01X-1763890D02*
X-1753730Y-506400D01*
G01X-1726300Y-493700D02*
X-1722240Y-501110D01*
X-1716820Y-505340D01*
X-1710720Y-506400D01*
X-1705300Y-505340D01*
X-1699880Y-500050D01*
X-1696500Y-493700D01*
X-1695820Y-487350D01*
X-1697180Y-479940D01*
X-1701920Y-474650D01*
X-1706660Y-472530D01*
X-1712750D01*
G01X-1706660D02*
X-1702590Y-469360D01*
X-1699210Y-464070D01*
X-1697850Y-457720D01*
X-1699210Y-451370D01*
X-1702590Y-446080D01*
X-1708690Y-442900D01*
X-1714790Y-443960D01*
X-1720880Y-448190D01*
G01X-1670420Y-496880D02*
X-1666360Y-502170D01*
X-1661620Y-505340D01*
X-1655520Y-506400D01*
X-1649420Y-504280D01*
X-1644680Y-500050D01*
X-1641300Y-492640D01*
X-1640620Y-484180D01*
X-1641970Y-475710D01*
X-1645360Y-470420D01*
X-1650100Y-466180D01*
X-1654840Y-465130D01*
X-1659580Y-466180D01*
X-1665680Y-470420D01*
X-1663650Y-442900D01*
X-1645360D01*
G01X-1657600Y-331400D02*
X-1722600D01*
Y-421400D01*
X-1657600D01*
G01Y-201400D02*
X-1722600D01*
Y-291400D01*
X-1657600D01*
G01X-1787420Y-4860D02*
X-1867420D01*
X-1827420Y-44860D01*
X-1787420Y-4860D01*
G01X-1657600Y-72400D02*
X-1722600D01*
Y-162400D01*
X-1657600D01*
G01X-1663600Y54600D02*
X-1728600D01*
Y-35400D01*
X-1663600D01*
G01X-1579800Y96200D02*
X-1819800D01*
Y266200D01*
X-1579800D01*
Y96200D01*
G01X-1653600Y452200D02*
Y431200D01*
G01X-1838800Y353600D02*
X-1783800D01*
Y433600D01*
X-1838800D01*
G01X-1878800Y353600D02*
X-1933800D01*
Y433600D01*
X-1878800D01*
G01X-1838800Y443600D02*
X-1783800D01*
Y523600D01*
X-1838800D01*
G01X-1878800Y443600D02*
X-1933800D01*
Y523600D01*
X-1878800D01*
G01X-1763600Y514430D02*
X-1700100D01*
Y497490D01*
X-1703280Y492070D01*
X-1707510Y488690D01*
X-1715980Y487330D01*
X-1724440Y488690D01*
X-1729730Y492750D01*
X-1732910Y497490D01*
Y514430D01*
G01Y497490D02*
X-1763600Y487330D01*
G01Y445000D02*
X-1700100D01*
X-1712800Y453130D01*
G01X-1763600D02*
Y436870D01*
G01X-1700100Y389120D02*
X-1702220Y394540D01*
X-1707510Y398600D01*
X-1713860Y401310D01*
X-1722330Y403340D01*
X-1731850Y404020D01*
X-1741380Y403340D01*
X-1749840Y401310D01*
X-1756190Y398600D01*
X-1761480Y394540D01*
X-1763600Y389120D01*
X-1761480Y383700D01*
X-1756190Y379640D01*
X-1749840Y376930D01*
X-1741380Y374900D01*
X-1731850Y374220D01*
X-1722330Y374900D01*
X-1713860Y376930D01*
X-1707510Y379640D01*
X-1702220Y383700D01*
X-1700100Y389120D01*
G01X-1688600Y421200D02*
Y356200D01*
X-1778600D01*
Y421200D01*
G01X-1688600Y461200D02*
Y526200D01*
X-1778600D01*
Y461200D01*
G01X-1943600Y656200D02*
X-1878600D01*
Y566200D01*
X-1943600D01*
G01Y766200D02*
X-1878600D01*
Y676200D01*
X-1943600D01*
G01X-1756830Y881200D02*
Y944700D01*
X-1739890D01*
X-1734470Y941520D01*
X-1731090Y937290D01*
X-1729730Y928820D01*
X-1731090Y920360D01*
X-1735150Y915070D01*
X-1739890Y911890D01*
X-1756830D01*
G01X-1739890D02*
X-1729730Y881200D01*
G01X-1679270D02*
Y944700D01*
X-1704330Y899190D01*
X-1670470D01*
G01X-1683600Y856200D02*
X-1618600D01*
Y766200D01*
X-1683600D01*
G01X-1723600Y856200D02*
X-1788600D01*
Y766200D01*
X-1723600D01*
G01X-1823600Y736200D02*
X-1583600D01*
Y566200D01*
X-1823600D01*
Y736200D01*
G01X-1954000Y1210880D02*
X-1925430D01*
X-1890500Y1224430D01*
G01Y1197330D02*
X-1925430Y1210880D01*
G01X-1901080Y1167870D02*
X-1894730Y1163810D01*
X-1891560Y1159060D01*
X-1890500Y1153650D01*
X-1892620Y1146870D01*
X-1897910Y1142130D01*
X-1904260Y1140780D01*
X-1910610Y1141450D01*
X-1915900Y1144160D01*
X-1926480Y1157710D01*
X-1933890Y1163810D01*
X-1944480Y1167870D01*
X-1954000Y1169220D01*
Y1140780D01*
G01X-1839000Y1146200D02*
Y1096200D01*
G01X-1719000Y986200D02*
X-1739000D01*
G01X-1719000Y1256200D02*
X-1739000D01*
G01X-1749000Y1276200D02*
X-1814000D01*
Y1366200D01*
X-1749000D01*
G01X-1709000Y1276200D02*
X-1644000D01*
Y1366200D01*
X-1709000D01*
G01X-1804230Y1398800D02*
Y1462300D01*
X-1787290D01*
X-1781870Y1459120D01*
X-1778490Y1454890D01*
X-1777130Y1446420D01*
X-1778490Y1437960D01*
X-1782550Y1432670D01*
X-1787290Y1429490D01*
X-1804230D01*
G01X-1787290D02*
X-1777130Y1398800D01*
G01X-1734800D02*
Y1462300D01*
X-1742930Y1449600D01*
G01Y1398800D02*
X-1726670D01*
G01X-1693820Y1411500D02*
X-1689760Y1404090D01*
X-1684340Y1399860D01*
X-1678240Y1398800D01*
X-1672820Y1399860D01*
X-1667400Y1405150D01*
X-1664020Y1411500D01*
X-1663340Y1417850D01*
X-1664700Y1425260D01*
X-1669440Y1430550D01*
X-1674180Y1432670D01*
X-1680270D01*
G01X-1674180D02*
X-1670110Y1435840D01*
X-1666730Y1441130D01*
X-1665370Y1447480D01*
X-1666730Y1453830D01*
X-1670110Y1459120D01*
X-1676210Y1462300D01*
X-1682310Y1461240D01*
X-1688400Y1457010D01*
G01X-1354630Y-1964900D02*
Y-2028400D01*
X-1327530D01*
G01X-1277070D02*
Y-1964900D01*
X-1302130Y-2010410D01*
X-1268270D01*
G01X-1188600Y-2171600D02*
X-1428600D01*
Y-2071600D01*
X-1188600D01*
Y-2171600D01*
G01X-1368190Y-1639420D02*
X-1365020Y-1635360D01*
X-1362900Y-1630620D01*
Y-1625200D01*
X-1366080Y-1619100D01*
X-1371370Y-1614360D01*
X-1377720Y-1610970D01*
X-1388300Y-1608260D01*
X-1397830Y-1607590D01*
X-1407350Y-1608940D01*
X-1413700Y-1610970D01*
X-1420050Y-1615040D01*
X-1424280Y-1619780D01*
X-1426400Y-1624520D01*
Y-1629260D01*
X-1424280Y-1634000D01*
X-1421110Y-1638070D01*
X-1416880Y-1641450D01*
G01X-1413700Y-1665500D02*
X-1421110Y-1669560D01*
X-1425340Y-1674980D01*
X-1426400Y-1681080D01*
X-1425340Y-1686500D01*
X-1420050Y-1691920D01*
X-1413700Y-1695300D01*
X-1407350Y-1695980D01*
X-1399940Y-1694620D01*
X-1394650Y-1689880D01*
X-1392530Y-1685140D01*
Y-1679050D01*
G01Y-1685140D02*
X-1389360Y-1689210D01*
X-1384070Y-1692590D01*
X-1377720Y-1693950D01*
X-1371370Y-1692590D01*
X-1366080Y-1689210D01*
X-1362900Y-1683110D01*
X-1363960Y-1677010D01*
X-1368190Y-1670920D01*
G01X-1426400Y-1744410D02*
X-1362900D01*
X-1408410Y-1719350D01*
Y-1753210D01*
G01X-1473590Y-1639420D02*
X-1470420Y-1635360D01*
X-1468300Y-1630620D01*
Y-1625200D01*
X-1471480Y-1619100D01*
X-1476770Y-1614360D01*
X-1483120Y-1610970D01*
X-1493700Y-1608260D01*
X-1503230Y-1607590D01*
X-1512750Y-1608940D01*
X-1519100Y-1610970D01*
X-1525450Y-1615040D01*
X-1529680Y-1619780D01*
X-1531800Y-1624520D01*
Y-1629260D01*
X-1529680Y-1634000D01*
X-1526510Y-1638070D01*
X-1522280Y-1641450D01*
G01X-1519100Y-1665500D02*
X-1526510Y-1669560D01*
X-1530740Y-1674980D01*
X-1531800Y-1681080D01*
X-1530740Y-1686500D01*
X-1525450Y-1691920D01*
X-1519100Y-1695300D01*
X-1512750Y-1695980D01*
X-1505340Y-1694620D01*
X-1500050Y-1689880D01*
X-1497930Y-1685140D01*
Y-1679050D01*
G01Y-1685140D02*
X-1494760Y-1689210D01*
X-1489470Y-1692590D01*
X-1483120Y-1693950D01*
X-1476770Y-1692590D01*
X-1471480Y-1689210D01*
X-1468300Y-1683110D01*
X-1469360Y-1677010D01*
X-1473590Y-1670920D01*
G01X-1519100Y-1721380D02*
X-1526510Y-1725440D01*
X-1530740Y-1730860D01*
X-1531800Y-1736960D01*
X-1530740Y-1742380D01*
X-1525450Y-1747800D01*
X-1519100Y-1751180D01*
X-1512750Y-1751860D01*
X-1505340Y-1750500D01*
X-1500050Y-1745760D01*
X-1497930Y-1741020D01*
Y-1734930D01*
G01Y-1741020D02*
X-1494760Y-1745090D01*
X-1489470Y-1748470D01*
X-1483120Y-1749830D01*
X-1476770Y-1748470D01*
X-1471480Y-1745090D01*
X-1468300Y-1738990D01*
X-1469360Y-1732890D01*
X-1473590Y-1726800D01*
G01X-1279780Y-1396790D02*
X-1283840Y-1393620D01*
X-1288580Y-1391500D01*
X-1294000D01*
X-1300100Y-1394680D01*
X-1304840Y-1399970D01*
X-1308230Y-1406320D01*
X-1310940Y-1416900D01*
X-1311610Y-1426430D01*
X-1310260Y-1435950D01*
X-1308230Y-1442300D01*
X-1304160Y-1448650D01*
X-1299420Y-1452880D01*
X-1294680Y-1455000D01*
X-1289940D01*
X-1285200Y-1452880D01*
X-1281130Y-1449710D01*
X-1277750Y-1445480D01*
G01X-1253700Y-1442300D02*
X-1249640Y-1449710D01*
X-1244220Y-1453940D01*
X-1238120Y-1455000D01*
X-1232700Y-1453940D01*
X-1227280Y-1448650D01*
X-1223900Y-1442300D01*
X-1223220Y-1435950D01*
X-1224580Y-1428540D01*
X-1229320Y-1423250D01*
X-1234060Y-1421130D01*
X-1240150D01*
G01X-1234060D02*
X-1229990Y-1417960D01*
X-1226610Y-1412670D01*
X-1225250Y-1406320D01*
X-1226610Y-1399970D01*
X-1229990Y-1394680D01*
X-1236090Y-1391500D01*
X-1242190Y-1392560D01*
X-1248280Y-1396790D01*
G01X-1194440Y-1447590D02*
X-1189690Y-1452880D01*
X-1184270Y-1455000D01*
X-1178860Y-1452880D01*
X-1174110Y-1446540D01*
X-1170730Y-1437010D01*
X-1169370Y-1427480D01*
Y-1415840D01*
X-1170730Y-1406320D01*
X-1174110Y-1397850D01*
X-1178180Y-1393620D01*
X-1182920Y-1391500D01*
X-1188340Y-1393620D01*
X-1192400Y-1397850D01*
X-1195110Y-1404200D01*
X-1196470Y-1412670D01*
X-1195110Y-1420070D01*
X-1191730Y-1427480D01*
X-1187660Y-1431720D01*
X-1182920Y-1432780D01*
X-1177500Y-1430660D01*
X-1173440Y-1425370D01*
X-1169370Y-1415840D01*
G01X-1250000Y-1370000D02*
X-1305000D01*
Y-1290000D01*
X-1250000D01*
G01X-1351400Y-1499200D02*
Y-1444200D01*
X-1431400D01*
Y-1499200D01*
G01X-1351400Y-1539200D02*
Y-1594200D01*
X-1431400D01*
Y-1539200D01*
G01X-1436800Y-1499200D02*
Y-1444200D01*
X-1516800D01*
Y-1499200D01*
G01X-1436800Y-1539200D02*
Y-1594200D01*
X-1516800D01*
Y-1539200D01*
G01X-1500200Y-1361200D02*
X-1435200D01*
Y-1451200D01*
X-1500200D01*
G01X-1540200Y-1361200D02*
X-1605200D01*
Y-1451200D01*
X-1540200D01*
G01X-1611200Y-1162200D02*
Y-1192200D01*
X-1581200Y-1222200D01*
X-1551200D01*
G01Y-702200D02*
X-1611200D01*
Y-762200D01*
G01X-1404880Y-509300D02*
Y-572800D01*
G01X-1420460Y-509300D02*
X-1389300D01*
G01X-1362550Y-572800D02*
Y-509300D01*
X-1346290D01*
X-1340870Y-512480D01*
X-1336810Y-519880D01*
X-1335450Y-528350D01*
X-1336810Y-536820D01*
X-1340190Y-543170D01*
X-1346290Y-546340D01*
X-1362550D01*
G01X-1284990Y-572800D02*
Y-509300D01*
X-1310050Y-554810D01*
X-1276190D01*
G01X-1617600Y-331400D02*
X-1552600D01*
Y-421400D01*
X-1617600D01*
G01X-1520830Y-276400D02*
Y-212900D01*
X-1503890D01*
X-1498470Y-216080D01*
X-1495090Y-220310D01*
X-1493730Y-228780D01*
X-1495090Y-237240D01*
X-1499150Y-242530D01*
X-1503890Y-245710D01*
X-1520830D01*
G01X-1503890D02*
X-1493730Y-276400D01*
G01X-1466300Y-263700D02*
X-1462240Y-271110D01*
X-1456820Y-275340D01*
X-1450720Y-276400D01*
X-1445300Y-275340D01*
X-1439880Y-270050D01*
X-1436500Y-263700D01*
X-1435820Y-257350D01*
X-1437180Y-249940D01*
X-1441920Y-244650D01*
X-1446660Y-242530D01*
X-1452750D01*
G01X-1446660D02*
X-1442590Y-239360D01*
X-1439210Y-234070D01*
X-1437850Y-227720D01*
X-1439210Y-221370D01*
X-1442590Y-216080D01*
X-1448690Y-212900D01*
X-1454790Y-213960D01*
X-1460880Y-218190D01*
G01X-1408390Y-249940D02*
X-1403650Y-242530D01*
X-1399580Y-238300D01*
X-1394170Y-236180D01*
X-1389420Y-238300D01*
X-1386040Y-242530D01*
X-1383330Y-248880D01*
X-1382650Y-256290D01*
X-1383330Y-262640D01*
X-1386040Y-268990D01*
X-1390100Y-274280D01*
X-1394840Y-276400D01*
X-1400260Y-274280D01*
X-1405000Y-267940D01*
X-1407710Y-258410D01*
X-1408390Y-247830D01*
X-1407040Y-234070D01*
X-1405000Y-226660D01*
X-1401620Y-219250D01*
X-1396870Y-213960D01*
X-1392130Y-212900D01*
X-1387390Y-215020D01*
X-1384000Y-220310D01*
G01X-1617600Y-201400D02*
X-1552600D01*
Y-291400D01*
X-1617600D01*
G01X-1224800Y-482200D02*
X-1464800D01*
Y-312200D01*
X-1224800D01*
Y-482200D01*
G01X-1520830Y-147400D02*
Y-83900D01*
X-1503890D01*
X-1498470Y-87080D01*
X-1495090Y-91310D01*
X-1493730Y-99780D01*
X-1495090Y-108240D01*
X-1499150Y-113530D01*
X-1503890Y-116710D01*
X-1520830D01*
G01X-1503890D02*
X-1493730Y-147400D01*
G01X-1466300Y-134700D02*
X-1462240Y-142110D01*
X-1456820Y-146340D01*
X-1450720Y-147400D01*
X-1445300Y-146340D01*
X-1439880Y-141050D01*
X-1436500Y-134700D01*
X-1435820Y-128350D01*
X-1437180Y-120940D01*
X-1441920Y-115650D01*
X-1446660Y-113530D01*
X-1452750D01*
G01X-1446660D02*
X-1442590Y-110360D01*
X-1439210Y-105070D01*
X-1437850Y-98720D01*
X-1439210Y-92370D01*
X-1442590Y-87080D01*
X-1448690Y-83900D01*
X-1454790Y-84960D01*
X-1460880Y-89190D01*
G01X-1396870Y-147400D02*
X-1395520Y-133640D01*
X-1393490Y-122000D01*
X-1390780Y-111420D01*
X-1387390Y-99780D01*
X-1381970Y-83900D01*
X-1409070D01*
G01X-1617600Y-72400D02*
X-1552600D01*
Y-162400D01*
X-1617600D01*
G01X-1526830Y-20400D02*
Y43100D01*
X-1509890D01*
X-1504470Y39920D01*
X-1501090Y35690D01*
X-1499730Y27220D01*
X-1501090Y18760D01*
X-1505150Y13470D01*
X-1509890Y10290D01*
X-1526830D01*
G01X-1509890D02*
X-1499730Y-20400D01*
G01X-1457400D02*
X-1452660Y-19340D01*
X-1447240Y-16170D01*
X-1443850Y-10880D01*
X-1442500Y-3470D01*
X-1443850Y3940D01*
X-1447920Y10290D01*
X-1454010Y13470D01*
X-1460790D01*
X-1464850Y15580D01*
X-1468240Y20870D01*
X-1469590Y28280D01*
X-1467560Y35690D01*
X-1462820Y40980D01*
X-1457400Y43100D01*
X-1451980Y40980D01*
X-1447240Y35690D01*
X-1445210Y28280D01*
X-1446560Y20870D01*
X-1449950Y15580D01*
X-1454010Y13470D01*
X-1460790D01*
X-1466880Y10290D01*
X-1470950Y3940D01*
X-1472300Y-3470D01*
X-1470950Y-10880D01*
X-1467560Y-16170D01*
X-1462140Y-19340D01*
X-1457400Y-20400D01*
G01X-1623600Y54600D02*
X-1558600D01*
Y-35400D01*
X-1623600D01*
G01X-1346800Y527380D02*
X-1283300D01*
Y513830D01*
X-1286480Y508420D01*
X-1290710Y504350D01*
X-1297060Y500960D01*
X-1304470Y498260D01*
X-1315050Y497580D01*
X-1325630Y498260D01*
X-1333040Y500960D01*
X-1339390Y504350D01*
X-1343630Y508420D01*
X-1346800Y513830D01*
Y527380D01*
G01Y456600D02*
X-1283300D01*
X-1296000Y464730D01*
G01X-1346800D02*
Y448470D01*
G01X-1358200Y434200D02*
X-1278200D01*
Y422200D01*
X-1358200D01*
Y434200D01*
G01X-1346200Y422200D02*
Y434200D01*
G01X-1320800Y422200D02*
Y434200D01*
G01X-1295400Y422200D02*
Y434200D01*
G01X-1358200Y431800D02*
X-1278200D01*
G01X-1358200Y412200D02*
X-1278200D01*
G01X-1358200D02*
Y475200D01*
G01X-1278200Y412200D02*
Y475200D01*
G01Y506200D02*
Y551200D01*
G01X-1358200Y506200D02*
Y551200D01*
G01D02*
X-1278200D01*
G01X-1563280Y251200D02*
Y279770D01*
X-1576830Y314700D01*
G01X-1549730D02*
X-1563280Y279770D01*
G01X-1507400Y251200D02*
Y314700D01*
X-1515530Y302000D01*
G01Y251200D02*
X-1499270D01*
G01X-1433600Y452200D02*
Y431200D01*
G01X-1522600Y351200D02*
X-1564600D01*
G01X-1522600Y531200D02*
X-1565600D01*
G01X-1549630Y568800D02*
Y632300D01*
X-1532690D01*
X-1527270Y629120D01*
X-1523890Y624890D01*
X-1522530Y616420D01*
X-1523890Y607960D01*
X-1527950Y602670D01*
X-1532690Y599490D01*
X-1549630D01*
G01X-1532690D02*
X-1522530Y568800D01*
G01X-1480200D02*
Y632300D01*
X-1488330Y619600D01*
G01Y568800D02*
X-1472070D01*
G01X-1437190Y621720D02*
X-1433130Y628070D01*
X-1428380Y631240D01*
X-1422970Y632300D01*
X-1416190Y630180D01*
X-1411450Y624890D01*
X-1410100Y618540D01*
X-1410770Y612190D01*
X-1413480Y606900D01*
X-1427030Y596320D01*
X-1433130Y588910D01*
X-1437190Y578320D01*
X-1438540Y568800D01*
X-1410100D01*
G01X-1294990Y680980D02*
X-1291820Y685040D01*
X-1289700Y689780D01*
Y695200D01*
X-1292880Y701300D01*
X-1298170Y706040D01*
X-1304520Y709430D01*
X-1315100Y712140D01*
X-1324630Y712810D01*
X-1334150Y711460D01*
X-1340500Y709430D01*
X-1346850Y705360D01*
X-1351080Y700620D01*
X-1353200Y695880D01*
Y691140D01*
X-1351080Y686400D01*
X-1347910Y682330D01*
X-1343680Y678950D01*
G01X-1353200Y640000D02*
X-1289700D01*
X-1302400Y648130D01*
G01X-1353200D02*
Y631870D01*
G01X-1278200Y691200D02*
Y746200D01*
X-1358200D01*
Y691200D01*
G01X-1278200Y651200D02*
Y596200D01*
X-1358200D01*
Y651200D01*
G01X-1533380Y834410D02*
X-1537440Y837580D01*
X-1542180Y839700D01*
X-1547600D01*
X-1553700Y836520D01*
X-1558440Y831230D01*
X-1561830Y824880D01*
X-1564540Y814300D01*
X-1565210Y804770D01*
X-1563860Y795250D01*
X-1561830Y788900D01*
X-1557760Y782550D01*
X-1553020Y778320D01*
X-1548280Y776200D01*
X-1543540D01*
X-1538800Y778320D01*
X-1534730Y781490D01*
X-1531350Y785720D01*
G01X-1492400Y776200D02*
X-1487660Y777260D01*
X-1482240Y780430D01*
X-1478850Y785720D01*
X-1477500Y793130D01*
X-1478850Y800540D01*
X-1482920Y806890D01*
X-1489010Y810070D01*
X-1495790D01*
X-1499850Y812180D01*
X-1503240Y817470D01*
X-1504590Y824880D01*
X-1502560Y832290D01*
X-1497820Y837580D01*
X-1492400Y839700D01*
X-1486980Y837580D01*
X-1482240Y832290D01*
X-1480210Y824880D01*
X-1481560Y817470D01*
X-1484950Y812180D01*
X-1489010Y810070D01*
X-1495790D01*
X-1501880Y806890D01*
X-1505950Y800540D01*
X-1507300Y793130D01*
X-1505950Y785720D01*
X-1502560Y780430D01*
X-1497140Y777260D01*
X-1492400Y776200D01*
G01X-1523600Y751200D02*
X-1578600D01*
Y671200D01*
X-1523600D01*
G01X-1483600Y751200D02*
X-1428600D01*
Y671200D01*
X-1483600D01*
G01X-1383380Y944410D02*
X-1387440Y947580D01*
X-1392180Y949700D01*
X-1397600D01*
X-1403700Y946520D01*
X-1408440Y941230D01*
X-1411830Y934880D01*
X-1414540Y924300D01*
X-1415210Y914770D01*
X-1413860Y905250D01*
X-1411830Y898900D01*
X-1407760Y892550D01*
X-1403020Y888320D01*
X-1398280Y886200D01*
X-1393540D01*
X-1388800Y888320D01*
X-1384730Y891490D01*
X-1381350Y895720D01*
G01X-1342400Y886200D02*
Y949700D01*
X-1350530Y937000D01*
G01Y886200D02*
X-1334270D01*
G01X-1301420Y898900D02*
X-1297360Y891490D01*
X-1291940Y887260D01*
X-1285840Y886200D01*
X-1280420Y887260D01*
X-1275000Y892550D01*
X-1271620Y898900D01*
X-1270940Y905250D01*
X-1272300Y912660D01*
X-1277040Y917950D01*
X-1281780Y920070D01*
X-1287870D01*
G01X-1281780D02*
X-1277710Y923240D01*
X-1274330Y928530D01*
X-1272970Y934880D01*
X-1274330Y941230D01*
X-1277710Y946520D01*
X-1283810Y949700D01*
X-1289910Y948640D01*
X-1296000Y944410D01*
G01X-1523600Y961200D02*
X-1578600D01*
Y881200D01*
X-1523600D01*
G01X-1483600Y961200D02*
X-1428600D01*
Y881200D01*
X-1483600D01*
G01X-1523600Y566200D02*
X-1588600D01*
Y656200D01*
X-1523600D01*
G01X-1483600Y566200D02*
X-1418600D01*
Y656200D01*
X-1483600D01*
G01X-1619000Y1146200D02*
Y1096200D01*
G01X-1559000Y1361200D02*
X-1614000D01*
Y1281200D01*
X-1559000D01*
G01X-1519000Y1361200D02*
X-1464000D01*
Y1281200D01*
X-1519000D01*
G01X-1399630Y998800D02*
Y1062300D01*
X-1382690D01*
X-1377270Y1059120D01*
X-1373890Y1054890D01*
X-1372530Y1046420D01*
X-1373890Y1037960D01*
X-1377950Y1032670D01*
X-1382690Y1029490D01*
X-1399630D01*
G01X-1382690D02*
X-1372530Y998800D01*
G01X-1330200D02*
Y1062300D01*
X-1338330Y1049600D01*
G01Y998800D02*
X-1322070D01*
G01X-1266190D02*
Y1062300D01*
X-1291250Y1016790D01*
X-1257390D01*
G01X-1523600Y986200D02*
X-1588600D01*
Y1076200D01*
X-1523600D01*
G01X-1483600Y986200D02*
X-1418600D01*
Y1076200D01*
X-1483600D01*
G01X-1492800Y1266200D02*
X-1252800D01*
Y1096200D01*
X-1492800D01*
Y1266200D01*
G01X-1132000Y1597600D02*
X-1312000D01*
Y2277600D01*
X-1132000D01*
G01X-1509780Y1653210D02*
X-1513840Y1656380D01*
X-1518580Y1658500D01*
X-1524000D01*
X-1530100Y1655320D01*
X-1534840Y1650030D01*
X-1538230Y1643680D01*
X-1540940Y1633100D01*
X-1541610Y1623570D01*
X-1540260Y1614050D01*
X-1538230Y1607700D01*
X-1534160Y1601350D01*
X-1529420Y1597120D01*
X-1524680Y1595000D01*
X-1519940D01*
X-1515200Y1597120D01*
X-1511130Y1600290D01*
X-1507750Y1604520D01*
G01X-1468800Y1595000D02*
Y1658500D01*
X-1476930Y1645800D01*
G01Y1595000D02*
X-1460670D01*
G01X-1425790Y1647920D02*
X-1421730Y1654270D01*
X-1416980Y1657440D01*
X-1411570Y1658500D01*
X-1404790Y1656380D01*
X-1400050Y1651090D01*
X-1398700Y1644740D01*
X-1399370Y1638390D01*
X-1402080Y1633100D01*
X-1415630Y1622520D01*
X-1421730Y1615110D01*
X-1425790Y1604520D01*
X-1427140Y1595000D01*
X-1398700D01*
G01X-1560000Y1450000D02*
X-1615000D01*
Y1370000D01*
X-1560000D01*
G01X-1520000Y1450000D02*
X-1465000D01*
Y1370000D01*
X-1520000D01*
G01X-1508780Y1554410D02*
X-1512840Y1557580D01*
X-1517580Y1559700D01*
X-1523000D01*
X-1529100Y1556520D01*
X-1533840Y1551230D01*
X-1537230Y1544880D01*
X-1539940Y1534300D01*
X-1540610Y1524770D01*
X-1539260Y1515250D01*
X-1537230Y1508900D01*
X-1533160Y1502550D01*
X-1528420Y1498320D01*
X-1523680Y1496200D01*
X-1518940D01*
X-1514200Y1498320D01*
X-1510130Y1501490D01*
X-1506750Y1505720D01*
G01X-1467800Y1496200D02*
Y1559700D01*
X-1475930Y1547000D01*
G01Y1496200D02*
X-1459670D01*
G01X-1411920D02*
Y1559700D01*
X-1420050Y1547000D01*
G01Y1496200D02*
X-1403790D01*
G01X-1442800Y1486200D02*
X-1202800D01*
Y1316200D01*
X-1442800D01*
Y1486200D01*
G01X-972700Y-1599770D02*
X-1036200D01*
Y-1626870D01*
G01X-1023500Y-1654300D02*
X-1030910Y-1658360D01*
X-1035140Y-1663780D01*
X-1036200Y-1669880D01*
X-1035140Y-1675300D01*
X-1029850Y-1680720D01*
X-1023500Y-1684100D01*
X-1017150Y-1684780D01*
X-1009740Y-1683420D01*
X-1004450Y-1678680D01*
X-1002330Y-1673940D01*
Y-1667850D01*
G01Y-1673940D02*
X-999160Y-1678010D01*
X-993870Y-1681390D01*
X-987520Y-1682750D01*
X-981170Y-1681390D01*
X-975880Y-1678010D01*
X-972700Y-1671910D01*
X-973760Y-1665810D01*
X-977990Y-1659720D01*
G01X-846200Y-1513000D02*
Y-1753000D01*
X-946200D01*
Y-1513000D01*
X-846200D01*
G01X-903580Y-1209990D02*
X-907640Y-1206820D01*
X-912380Y-1204700D01*
X-917800D01*
X-923900Y-1207880D01*
X-928640Y-1213170D01*
X-932030Y-1219520D01*
X-934740Y-1230100D01*
X-935410Y-1239630D01*
X-934060Y-1249150D01*
X-932030Y-1255500D01*
X-927960Y-1261850D01*
X-923220Y-1266080D01*
X-918480Y-1268200D01*
X-913740D01*
X-909000Y-1266080D01*
X-904930Y-1262910D01*
X-901550Y-1258680D01*
G01X-877500Y-1255500D02*
X-873440Y-1262910D01*
X-868020Y-1267140D01*
X-861920Y-1268200D01*
X-856500Y-1267140D01*
X-851080Y-1261850D01*
X-847700Y-1255500D01*
X-847020Y-1249150D01*
X-848380Y-1241740D01*
X-853120Y-1236450D01*
X-857860Y-1234330D01*
X-863950D01*
G01X-857860D02*
X-853790Y-1231160D01*
X-850410Y-1225870D01*
X-849050Y-1219520D01*
X-850410Y-1213170D01*
X-853790Y-1207880D01*
X-859890Y-1204700D01*
X-865990Y-1205760D01*
X-872080Y-1209990D01*
G01X-806720Y-1268200D02*
X-801980Y-1267140D01*
X-796560Y-1263970D01*
X-793170Y-1258680D01*
X-791820Y-1251270D01*
X-793170Y-1243860D01*
X-797240Y-1237510D01*
X-803330Y-1234330D01*
X-810110D01*
X-814170Y-1232220D01*
X-817560Y-1226930D01*
X-818910Y-1219520D01*
X-816880Y-1212110D01*
X-812140Y-1206820D01*
X-806720Y-1204700D01*
X-801300Y-1206820D01*
X-796560Y-1212110D01*
X-794530Y-1219520D01*
X-795880Y-1226930D01*
X-799270Y-1232220D01*
X-803330Y-1234330D01*
X-810110D01*
X-816200Y-1237510D01*
X-820270Y-1243860D01*
X-821620Y-1251270D01*
X-820270Y-1258680D01*
X-816880Y-1263970D01*
X-811460Y-1267140D01*
X-806720Y-1268200D01*
G01X-1210000Y-1370000D02*
X-1155000D01*
Y-1290000D01*
X-1210000D01*
G01X-1069780Y-1396790D02*
X-1073840Y-1393620D01*
X-1078580Y-1391500D01*
X-1084000D01*
X-1090100Y-1394680D01*
X-1094840Y-1399970D01*
X-1098230Y-1406320D01*
X-1100940Y-1416900D01*
X-1101610Y-1426430D01*
X-1100260Y-1435950D01*
X-1098230Y-1442300D01*
X-1094160Y-1448650D01*
X-1089420Y-1452880D01*
X-1084680Y-1455000D01*
X-1079940D01*
X-1075200Y-1452880D01*
X-1071130Y-1449710D01*
X-1067750Y-1445480D01*
G01X-1043700Y-1442300D02*
X-1039640Y-1449710D01*
X-1034220Y-1453940D01*
X-1028120Y-1455000D01*
X-1022700Y-1453940D01*
X-1017280Y-1448650D01*
X-1013900Y-1442300D01*
X-1013220Y-1435950D01*
X-1014580Y-1428540D01*
X-1019320Y-1423250D01*
X-1024060Y-1421130D01*
X-1030150D01*
G01X-1024060D02*
X-1019990Y-1417960D01*
X-1016610Y-1412670D01*
X-1015250Y-1406320D01*
X-1016610Y-1399970D01*
X-1019990Y-1394680D01*
X-1026090Y-1391500D01*
X-1032190Y-1392560D01*
X-1038280Y-1396790D01*
G01X-987820Y-1445480D02*
X-983760Y-1450770D01*
X-979020Y-1453940D01*
X-972920Y-1455000D01*
X-966820Y-1452880D01*
X-962080Y-1448650D01*
X-958700Y-1441240D01*
X-958020Y-1432780D01*
X-959370Y-1424310D01*
X-962760Y-1419020D01*
X-967500Y-1414780D01*
X-972240Y-1413730D01*
X-976980Y-1414780D01*
X-983080Y-1419020D01*
X-981050Y-1391500D01*
X-962760D01*
G01X-1010000Y-1370000D02*
X-955000D01*
Y-1290000D01*
X-1010000D01*
G01X-1050000Y-1370000D02*
X-1105000D01*
Y-1290000D01*
X-1050000D01*
G01X-1091200Y-1162200D02*
Y-1222200D01*
X-1151200D01*
G01X-886200Y-1176800D02*
X-941200D01*
Y-1096800D01*
X-886200D01*
G01X-1139430Y-1057200D02*
Y-993700D01*
X-1122490D01*
X-1117070Y-996880D01*
X-1113690Y-1001110D01*
X-1112330Y-1009580D01*
X-1113690Y-1018040D01*
X-1117750Y-1023330D01*
X-1122490Y-1026510D01*
X-1139430D01*
G01X-1122490D02*
X-1112330Y-1057200D01*
G01X-1082870Y-1004280D02*
X-1078810Y-997930D01*
X-1074060Y-994760D01*
X-1068650Y-993700D01*
X-1061870Y-995820D01*
X-1057130Y-1001110D01*
X-1055780Y-1007460D01*
X-1056450Y-1013810D01*
X-1059160Y-1019100D01*
X-1072710Y-1029680D01*
X-1078810Y-1037090D01*
X-1082870Y-1047680D01*
X-1084220Y-1057200D01*
X-1055780D01*
G01X-1014120D02*
Y-993700D01*
X-1022250Y-1006400D01*
G01Y-1057200D02*
X-1005990D01*
G01X-886200Y-992200D02*
X-951200D01*
Y-1082200D01*
X-886200D01*
G01X-1139430Y-922200D02*
Y-858700D01*
X-1122490D01*
X-1117070Y-861880D01*
X-1113690Y-866110D01*
X-1112330Y-874580D01*
X-1113690Y-883040D01*
X-1117750Y-888330D01*
X-1122490Y-891510D01*
X-1139430D01*
G01X-1122490D02*
X-1112330Y-922200D01*
G01X-1070000D02*
Y-858700D01*
X-1078130Y-871400D01*
G01Y-922200D02*
X-1061870D01*
G01X-1014120D02*
X-1009380Y-921140D01*
X-1003960Y-917970D01*
X-1000570Y-912680D01*
X-999220Y-905270D01*
X-1000570Y-897860D01*
X-1004640Y-891510D01*
X-1010730Y-888330D01*
X-1017510D01*
X-1021570Y-886220D01*
X-1024960Y-880930D01*
X-1026310Y-873520D01*
X-1024280Y-866110D01*
X-1019540Y-860820D01*
X-1014120Y-858700D01*
X-1008700Y-860820D01*
X-1003960Y-866110D01*
X-1001930Y-873520D01*
X-1003280Y-880930D01*
X-1006670Y-886220D01*
X-1010730Y-888330D01*
X-1017510D01*
X-1023600Y-891510D01*
X-1027670Y-897860D01*
X-1029020Y-905270D01*
X-1027670Y-912680D01*
X-1024280Y-917970D01*
X-1018860Y-921140D01*
X-1014120Y-922200D01*
G01X-886200Y-857200D02*
X-951200D01*
Y-947200D01*
X-886200D01*
G01X-1151200Y-702200D02*
X-1091200D01*
Y-762200D01*
G01X-1139430Y-797600D02*
Y-734100D01*
X-1122490D01*
X-1117070Y-737280D01*
X-1113690Y-741510D01*
X-1112330Y-749980D01*
X-1113690Y-758440D01*
X-1117750Y-763730D01*
X-1122490Y-766910D01*
X-1139430D01*
G01X-1122490D02*
X-1112330Y-797600D01*
G01X-1070000D02*
Y-734100D01*
X-1078130Y-746800D01*
G01Y-797600D02*
X-1061870D01*
G01X-1025640Y-790190D02*
X-1020890Y-795480D01*
X-1015470Y-797600D01*
X-1010060Y-795480D01*
X-1005310Y-789140D01*
X-1001930Y-779610D01*
X-1000570Y-770080D01*
Y-758440D01*
X-1001930Y-748920D01*
X-1005310Y-740450D01*
X-1009380Y-736220D01*
X-1014120Y-734100D01*
X-1019540Y-736220D01*
X-1023600Y-740450D01*
X-1026310Y-746800D01*
X-1027670Y-755270D01*
X-1026310Y-762670D01*
X-1022930Y-770080D01*
X-1018860Y-774320D01*
X-1014120Y-775380D01*
X-1008700Y-773260D01*
X-1004640Y-767970D01*
X-1000570Y-758440D01*
G01X-886200Y-722600D02*
X-951200D01*
Y-812600D01*
X-886200D01*
G01X-1139430Y-683000D02*
Y-619500D01*
X-1122490D01*
X-1117070Y-622680D01*
X-1113690Y-626910D01*
X-1112330Y-635380D01*
X-1113690Y-643840D01*
X-1117750Y-649130D01*
X-1122490Y-652310D01*
X-1139430D01*
G01X-1122490D02*
X-1112330Y-683000D01*
G01X-1070000D02*
Y-619500D01*
X-1078130Y-632200D01*
G01Y-683000D02*
X-1061870D01*
G01X-1015470D02*
X-1014120Y-669240D01*
X-1012090Y-657600D01*
X-1009380Y-647020D01*
X-1005990Y-635380D01*
X-1000570Y-619500D01*
X-1027670D01*
G01X-886200Y-608000D02*
X-951200D01*
Y-698000D01*
X-886200D01*
G01X-1124880Y-509300D02*
Y-572800D01*
G01X-1140460Y-509300D02*
X-1109300D01*
G01X-1082550Y-572800D02*
Y-509300D01*
X-1066290D01*
X-1060870Y-512480D01*
X-1056810Y-519880D01*
X-1055450Y-528350D01*
X-1056810Y-536820D01*
X-1060190Y-543170D01*
X-1066290Y-546340D01*
X-1082550D01*
G01X-1025990D02*
X-1021250Y-538930D01*
X-1017180Y-534700D01*
X-1011770Y-532580D01*
X-1007020Y-534700D01*
X-1003640Y-538930D01*
X-1000930Y-545280D01*
X-1000250Y-552690D01*
X-1000930Y-559040D01*
X-1003640Y-565390D01*
X-1007700Y-570680D01*
X-1012440Y-572800D01*
X-1017860Y-570680D01*
X-1022600Y-564340D01*
X-1025310Y-554810D01*
X-1025990Y-544230D01*
X-1024640Y-530470D01*
X-1022600Y-523060D01*
X-1019220Y-515650D01*
X-1014470Y-510360D01*
X-1009730Y-509300D01*
X-1004990Y-511420D01*
X-1001600Y-516710D01*
G01X-944800Y-482200D02*
X-1184800D01*
Y-312200D01*
X-944800D01*
Y-482200D01*
G01X-62800Y971200D02*
Y1081200D01*
X-1052800D01*
X-1082800Y1051200D01*
Y61200D01*
X-62800D01*
Y971200D01*
G01X-1205780Y1090700D02*
Y1045190D01*
X-1203070Y1035660D01*
X-1197650Y1029320D01*
X-1190880Y1027200D01*
X-1184110Y1029320D01*
X-1178690Y1035660D01*
X-1175980Y1045190D01*
Y1090700D01*
G01X-1135000Y1027200D02*
Y1090700D01*
X-1143130Y1078000D01*
G01Y1027200D02*
X-1126870D01*
G01X-1065800Y1428430D02*
X-1002300D01*
Y1411490D01*
X-1005480Y1406070D01*
X-1009710Y1402690D01*
X-1018180Y1401330D01*
X-1026640Y1402690D01*
X-1031930Y1406750D01*
X-1035110Y1411490D01*
Y1428430D01*
G01Y1411490D02*
X-1065800Y1401330D01*
G01X-1053100Y1373900D02*
X-1060510Y1369840D01*
X-1064740Y1364420D01*
X-1065800Y1358320D01*
X-1064740Y1352900D01*
X-1059450Y1347480D01*
X-1053100Y1344100D01*
X-1046750Y1343420D01*
X-1039340Y1344780D01*
X-1034050Y1349520D01*
X-1031930Y1354260D01*
Y1360350D01*
G01Y1354260D02*
X-1028760Y1350190D01*
X-1023470Y1346810D01*
X-1017120Y1345450D01*
X-1010770Y1346810D01*
X-1005480Y1350190D01*
X-1002300Y1356290D01*
X-1003360Y1362390D01*
X-1007590Y1368480D01*
G01X-1090800Y1365200D02*
Y1300200D01*
X-1180800D01*
Y1365200D01*
G01X-1090800Y1405200D02*
Y1470200D01*
X-1180800D01*
Y1405200D01*
G01X-992000Y2077600D02*
X-862000Y1817600D01*
G01X-314000Y-1729600D02*
X-554000D01*
Y-1559600D01*
X-314000D01*
Y-1729600D01*
G01X-619790Y-1415020D02*
X-616620Y-1410960D01*
X-614500Y-1406220D01*
Y-1400800D01*
X-617680Y-1394700D01*
X-622970Y-1389960D01*
X-629320Y-1386570D01*
X-639900Y-1383860D01*
X-649430Y-1383190D01*
X-658950Y-1384540D01*
X-665300Y-1386570D01*
X-671650Y-1390640D01*
X-675880Y-1395380D01*
X-678000Y-1400120D01*
Y-1404860D01*
X-675880Y-1409600D01*
X-672710Y-1413670D01*
X-668480Y-1417050D01*
G01X-651540Y-1443130D02*
X-644130Y-1447870D01*
X-639900Y-1451940D01*
X-637780Y-1457350D01*
X-639900Y-1462100D01*
X-644130Y-1465480D01*
X-650480Y-1468190D01*
X-657890Y-1468870D01*
X-664240Y-1468190D01*
X-670590Y-1465480D01*
X-675880Y-1461420D01*
X-678000Y-1456680D01*
X-675880Y-1451260D01*
X-669540Y-1446520D01*
X-660010Y-1443810D01*
X-649430Y-1443130D01*
X-635670Y-1444480D01*
X-628260Y-1446520D01*
X-620850Y-1449900D01*
X-615560Y-1454650D01*
X-614500Y-1459390D01*
X-616620Y-1464130D01*
X-621910Y-1467520D01*
G01X-651540Y-1499010D02*
X-644130Y-1503750D01*
X-639900Y-1507820D01*
X-637780Y-1513230D01*
X-639900Y-1517980D01*
X-644130Y-1521360D01*
X-650480Y-1524070D01*
X-657890Y-1524750D01*
X-664240Y-1524070D01*
X-670590Y-1521360D01*
X-675880Y-1517300D01*
X-678000Y-1512560D01*
X-675880Y-1507140D01*
X-669540Y-1502400D01*
X-660010Y-1499690D01*
X-649430Y-1499010D01*
X-635670Y-1500360D01*
X-628260Y-1502400D01*
X-620850Y-1505780D01*
X-615560Y-1510530D01*
X-614500Y-1515270D01*
X-616620Y-1520010D01*
X-621910Y-1523400D01*
G01X-527390Y-1415020D02*
X-524220Y-1410960D01*
X-522100Y-1406220D01*
Y-1400800D01*
X-525280Y-1394700D01*
X-530570Y-1389960D01*
X-536920Y-1386570D01*
X-547500Y-1383860D01*
X-557030Y-1383190D01*
X-566550Y-1384540D01*
X-572900Y-1386570D01*
X-579250Y-1390640D01*
X-583480Y-1395380D01*
X-585600Y-1400120D01*
Y-1404860D01*
X-583480Y-1409600D01*
X-580310Y-1413670D01*
X-576080Y-1417050D01*
G01X-559140Y-1443130D02*
X-551730Y-1447870D01*
X-547500Y-1451940D01*
X-545380Y-1457350D01*
X-547500Y-1462100D01*
X-551730Y-1465480D01*
X-558080Y-1468190D01*
X-565490Y-1468870D01*
X-571840Y-1468190D01*
X-578190Y-1465480D01*
X-583480Y-1461420D01*
X-585600Y-1456680D01*
X-583480Y-1451260D01*
X-577140Y-1446520D01*
X-567610Y-1443810D01*
X-557030Y-1443130D01*
X-543270Y-1444480D01*
X-535860Y-1446520D01*
X-528450Y-1449900D01*
X-523160Y-1454650D01*
X-522100Y-1459390D01*
X-524220Y-1464130D01*
X-529510Y-1467520D01*
G01X-585600Y-1511880D02*
X-584540Y-1516620D01*
X-581370Y-1522040D01*
X-576080Y-1525430D01*
X-568670Y-1526780D01*
X-561260Y-1525430D01*
X-554910Y-1521360D01*
X-551730Y-1515270D01*
Y-1508490D01*
X-549620Y-1504430D01*
X-544330Y-1501040D01*
X-536920Y-1499690D01*
X-529510Y-1501720D01*
X-524220Y-1506460D01*
X-522100Y-1511880D01*
X-524220Y-1517300D01*
X-529510Y-1522040D01*
X-536920Y-1524070D01*
X-544330Y-1522720D01*
X-549620Y-1519330D01*
X-551730Y-1515270D01*
Y-1508490D01*
X-554910Y-1502400D01*
X-561260Y-1498330D01*
X-568670Y-1496980D01*
X-576080Y-1498330D01*
X-581370Y-1501720D01*
X-584540Y-1507140D01*
X-585600Y-1511880D01*
G01X-716200Y-1117200D02*
X-476200D01*
Y-1287200D01*
X-716200D01*
Y-1117200D01*
G01X-591200Y-1082200D02*
X-641200D01*
G01X-751200Y-982200D02*
Y-962200D01*
G01X-846200Y-1176800D02*
X-791200D01*
Y-1096800D01*
X-846200D01*
G01Y-992200D02*
X-781200D01*
Y-1082200D01*
X-846200D01*
G01Y-857200D02*
X-781200D01*
Y-947200D01*
X-846200D01*
G01X-553480Y-842800D02*
Y-814230D01*
X-567030Y-779300D01*
G01X-539930D02*
X-553480Y-814230D01*
G01X-512500Y-830100D02*
X-508440Y-837510D01*
X-503020Y-841740D01*
X-496920Y-842800D01*
X-491500Y-841740D01*
X-486080Y-836450D01*
X-482700Y-830100D01*
X-482020Y-823750D01*
X-483380Y-816340D01*
X-488120Y-811050D01*
X-492860Y-808930D01*
X-498950D01*
G01X-492860D02*
X-488790Y-805760D01*
X-485410Y-800470D01*
X-484050Y-794120D01*
X-485410Y-787770D01*
X-488790Y-782480D01*
X-494890Y-779300D01*
X-500990Y-780360D01*
X-507080Y-784590D01*
G01X-591200Y-862200D02*
X-641200D01*
G01X-846200Y-722600D02*
X-781200D01*
Y-812600D01*
X-846200D01*
G01Y-608000D02*
X-781200D01*
Y-698000D01*
X-846200D01*
G01X-617800Y-625170D02*
X-554300D01*
Y-642110D01*
X-557480Y-647530D01*
X-561710Y-650910D01*
X-570180Y-652270D01*
X-578640Y-650910D01*
X-583930Y-646850D01*
X-587110Y-642110D01*
Y-625170D01*
G01Y-642110D02*
X-617800Y-652270D01*
G01Y-694600D02*
X-554300D01*
X-567000Y-686470D01*
G01X-617800D02*
Y-702730D01*
G01X-591340Y-737610D02*
X-583930Y-742350D01*
X-579700Y-746420D01*
X-577580Y-751830D01*
X-579700Y-756580D01*
X-583930Y-759960D01*
X-590280Y-762670D01*
X-597690Y-763350D01*
X-604040Y-762670D01*
X-610390Y-759960D01*
X-615680Y-755900D01*
X-617800Y-751160D01*
X-615680Y-745740D01*
X-609340Y-741000D01*
X-599810Y-738290D01*
X-589230Y-737610D01*
X-575470Y-738960D01*
X-568060Y-741000D01*
X-560650Y-744380D01*
X-555360Y-749130D01*
X-554300Y-753870D01*
X-556420Y-758610D01*
X-561710Y-762000D01*
G01X-737200Y-661600D02*
Y-596600D01*
X-647200D01*
Y-661600D01*
G01X-737200Y-701600D02*
Y-766600D01*
X-647200D01*
Y-701600D01*
G01X-574880Y-509300D02*
Y-572800D01*
G01X-590460Y-509300D02*
X-559300D01*
G01X-532550Y-572800D02*
Y-509300D01*
X-516290D01*
X-510870Y-512480D01*
X-506810Y-519880D01*
X-505450Y-528350D01*
X-506810Y-536820D01*
X-510190Y-543170D01*
X-516290Y-546340D01*
X-532550D01*
G01X-463120Y-572800D02*
X-458380Y-571740D01*
X-452960Y-568570D01*
X-449570Y-563280D01*
X-448220Y-555870D01*
X-449570Y-548460D01*
X-453640Y-542110D01*
X-459730Y-538930D01*
X-466510D01*
X-470570Y-536820D01*
X-473960Y-531530D01*
X-475310Y-524120D01*
X-473280Y-516710D01*
X-468540Y-511420D01*
X-463120Y-509300D01*
X-457700Y-511420D01*
X-452960Y-516710D01*
X-450930Y-524120D01*
X-452280Y-531530D01*
X-455670Y-536820D01*
X-459730Y-538930D01*
X-466510D01*
X-472600Y-542110D01*
X-476670Y-548460D01*
X-478020Y-555870D01*
X-476670Y-563280D01*
X-473280Y-568570D01*
X-467860Y-571740D01*
X-463120Y-572800D01*
G01X-864880Y-509300D02*
Y-572800D01*
G01X-880460Y-509300D02*
X-849300D01*
G01X-822550Y-572800D02*
Y-509300D01*
X-806290D01*
X-800870Y-512480D01*
X-796810Y-519880D01*
X-795450Y-528350D01*
X-796810Y-536820D01*
X-800190Y-543170D01*
X-806290Y-546340D01*
X-822550D01*
G01X-754470Y-572800D02*
X-753120Y-559040D01*
X-751090Y-547400D01*
X-748380Y-536820D01*
X-744990Y-525180D01*
X-739570Y-509300D01*
X-766670D01*
G01X-384800Y-482200D02*
X-624800D01*
Y-312200D01*
X-384800D01*
Y-482200D01*
G01X-654800D02*
X-894800D01*
Y-312200D01*
X-654800D01*
Y-482200D01*
G01X-692000Y2277600D02*
Y1597600D01*
X-872000D01*
G01X-504400Y1352000D02*
Y1287000D01*
X-594400D01*
Y1352000D01*
G01X-504400Y1392000D02*
Y1457000D01*
X-594400D01*
Y1392000D01*
G01X-623540Y1981500D02*
X-628830Y1976090D01*
X-632000Y1969990D01*
Y1964570D01*
X-628830Y1959150D01*
X-623540Y1955090D01*
X-616120Y1953060D01*
X-608720Y1954410D01*
X-602370Y1957800D01*
X-598130Y1963890D01*
X-596020Y1972020D01*
X-591780Y1976760D01*
X-584380Y1978800D01*
X-576970Y1977440D01*
X-571680Y1974050D01*
X-568500Y1969310D01*
Y1964570D01*
X-570620Y1959830D01*
X-575910Y1955760D01*
G01X-632000Y1911400D02*
X-568500D01*
X-581200Y1919530D01*
G01X-632000D02*
Y1903270D01*
G01X-692000Y2277600D02*
X-872000D01*
G01X-287780Y-1985390D02*
X-291840Y-1982220D01*
X-296580Y-1980100D01*
X-302000D01*
X-308100Y-1983280D01*
X-312840Y-1988570D01*
X-316230Y-1994920D01*
X-318940Y-2005500D01*
X-319610Y-2015030D01*
X-318260Y-2024550D01*
X-316230Y-2030900D01*
X-312160Y-2037250D01*
X-307420Y-2041480D01*
X-302680Y-2043600D01*
X-297940D01*
X-293200Y-2041480D01*
X-289130Y-2038310D01*
X-285750Y-2034080D01*
G01X-259670Y-2017140D02*
X-254930Y-2009730D01*
X-250860Y-2005500D01*
X-245450Y-2003380D01*
X-240700Y-2005500D01*
X-237320Y-2009730D01*
X-234610Y-2016080D01*
X-233930Y-2023490D01*
X-234610Y-2029840D01*
X-237320Y-2036190D01*
X-241380Y-2041480D01*
X-246120Y-2043600D01*
X-251540Y-2041480D01*
X-256280Y-2035140D01*
X-258990Y-2025610D01*
X-259670Y-2015030D01*
X-258320Y-2001270D01*
X-256280Y-1993860D01*
X-252900Y-1986450D01*
X-248150Y-1981160D01*
X-243410Y-1980100D01*
X-238670Y-1982220D01*
X-235280Y-1987510D01*
G01X-192270Y-2043600D02*
X-190920Y-2029840D01*
X-188890Y-2018200D01*
X-186180Y-2007620D01*
X-182790Y-1995980D01*
X-177370Y-1980100D01*
X-204470D01*
G01X-67000Y-1776400D02*
Y-1751400D01*
X-407000D01*
Y-1776400D01*
G01X-67000Y-1926400D02*
Y-1951400D01*
X-407000D01*
Y-1926400D01*
G01X-257780Y-1648590D02*
X-261840Y-1645420D01*
X-266580Y-1643300D01*
X-272000D01*
X-278100Y-1646480D01*
X-282840Y-1651770D01*
X-286230Y-1658120D01*
X-288940Y-1668700D01*
X-289610Y-1678230D01*
X-288260Y-1687750D01*
X-286230Y-1694100D01*
X-282160Y-1700450D01*
X-277420Y-1704680D01*
X-272680Y-1706800D01*
X-267940D01*
X-263200Y-1704680D01*
X-259130Y-1701510D01*
X-255750Y-1697280D01*
G01X-229670Y-1680340D02*
X-224930Y-1672930D01*
X-220860Y-1668700D01*
X-215450Y-1666580D01*
X-210700Y-1668700D01*
X-207320Y-1672930D01*
X-204610Y-1679280D01*
X-203930Y-1686690D01*
X-204610Y-1693040D01*
X-207320Y-1699390D01*
X-211380Y-1704680D01*
X-216120Y-1706800D01*
X-221540Y-1704680D01*
X-226280Y-1698340D01*
X-228990Y-1688810D01*
X-229670Y-1678230D01*
X-228320Y-1664470D01*
X-226280Y-1657060D01*
X-222900Y-1649650D01*
X-218150Y-1644360D01*
X-213410Y-1643300D01*
X-208670Y-1645420D01*
X-205280Y-1650710D01*
G01X-152790Y-1706800D02*
Y-1643300D01*
X-177850Y-1688810D01*
X-143990D01*
G01X-202000Y-1708200D02*
X-147000D01*
Y-1628200D01*
X-202000D01*
G01X-242000Y-1708200D02*
X-297000D01*
Y-1628200D01*
X-242000D01*
G01X-296400Y-1485200D02*
Y-1570200D01*
X-136400D01*
Y-1485200D01*
G01X-296400Y-1355200D02*
Y-1270200D01*
X-136400D01*
Y-1355200D01*
G01X-497000Y-1485200D02*
Y-1540200D01*
X-417000D01*
Y-1485200D01*
G01X-497000Y-1445200D02*
Y-1390200D01*
X-417000D01*
Y-1445200D01*
G01X-399400Y-1485200D02*
Y-1540200D01*
X-319400D01*
Y-1485200D01*
G01X-399400Y-1445200D02*
Y-1390200D01*
X-319400D01*
Y-1445200D01*
G01X-185390Y-1130020D02*
X-182220Y-1125960D01*
X-180100Y-1121220D01*
Y-1115800D01*
X-183280Y-1109700D01*
X-188570Y-1104960D01*
X-194920Y-1101570D01*
X-205500Y-1098860D01*
X-215030Y-1098190D01*
X-224550Y-1099540D01*
X-230900Y-1101570D01*
X-237250Y-1105640D01*
X-241480Y-1110380D01*
X-243600Y-1115120D01*
Y-1119860D01*
X-241480Y-1124600D01*
X-238310Y-1128670D01*
X-234080Y-1132050D01*
G01X-217140Y-1158130D02*
X-209730Y-1162870D01*
X-205500Y-1166940D01*
X-203380Y-1172350D01*
X-205500Y-1177100D01*
X-209730Y-1180480D01*
X-216080Y-1183190D01*
X-223490Y-1183870D01*
X-229840Y-1183190D01*
X-236190Y-1180480D01*
X-241480Y-1176420D01*
X-243600Y-1171680D01*
X-241480Y-1166260D01*
X-235140Y-1161520D01*
X-225610Y-1158810D01*
X-215030Y-1158130D01*
X-201270Y-1159480D01*
X-193860Y-1161520D01*
X-186450Y-1164900D01*
X-181160Y-1169650D01*
X-180100Y-1174390D01*
X-182220Y-1179130D01*
X-187510Y-1182520D01*
G01X-234080Y-1211980D02*
X-239370Y-1216040D01*
X-242540Y-1220780D01*
X-243600Y-1226880D01*
X-241480Y-1232980D01*
X-237250Y-1237720D01*
X-229840Y-1241100D01*
X-221380Y-1241780D01*
X-212910Y-1240430D01*
X-207620Y-1237040D01*
X-203380Y-1232300D01*
X-202330Y-1227560D01*
X-203380Y-1222820D01*
X-207620Y-1216720D01*
X-180100Y-1218750D01*
Y-1237040D01*
G01X-481200Y-982200D02*
Y-962200D01*
G01X-240000Y-992200D02*
Y-1047200D01*
X-160000D01*
Y-992200D01*
G01X-240000Y-952200D02*
Y-897200D01*
X-160000D01*
Y-952200D01*
G01X-335400Y-992200D02*
Y-1047200D01*
X-255400D01*
Y-992200D01*
G01X-335400Y-952200D02*
Y-897200D01*
X-255400D01*
Y-952200D01*
G01X-445800D02*
Y-887200D01*
X-355800D01*
Y-952200D01*
G01X-445800Y-992200D02*
Y-1057200D01*
X-355800D01*
Y-992200D01*
G01X-233210Y-731980D02*
X-236380Y-736040D01*
X-238500Y-740780D01*
Y-746200D01*
X-235320Y-752300D01*
X-230030Y-757040D01*
X-223680Y-760430D01*
X-213100Y-763140D01*
X-203570Y-763810D01*
X-194050Y-762460D01*
X-187700Y-760430D01*
X-181350Y-756360D01*
X-177120Y-751620D01*
X-175000Y-746880D01*
Y-742140D01*
X-177120Y-737400D01*
X-180290Y-733330D01*
X-184520Y-729950D01*
G01X-187700Y-705900D02*
X-180290Y-701840D01*
X-176060Y-696420D01*
X-175000Y-690320D01*
X-176060Y-684900D01*
X-181350Y-679480D01*
X-187700Y-676100D01*
X-194050Y-675420D01*
X-201460Y-676780D01*
X-206750Y-681520D01*
X-208870Y-686260D01*
Y-692350D01*
G01Y-686260D02*
X-212040Y-682190D01*
X-217330Y-678810D01*
X-223680Y-677450D01*
X-230030Y-678810D01*
X-235320Y-682190D01*
X-238500Y-688290D01*
X-237440Y-694390D01*
X-233210Y-700480D01*
G01X-175000Y-636470D02*
X-188760Y-635120D01*
X-200400Y-633090D01*
X-210980Y-630380D01*
X-222620Y-626990D01*
X-238500Y-621570D01*
Y-648670D01*
G01X-328610Y-731980D02*
X-331780Y-736040D01*
X-333900Y-740780D01*
Y-746200D01*
X-330720Y-752300D01*
X-325430Y-757040D01*
X-319080Y-760430D01*
X-308500Y-763140D01*
X-298970Y-763810D01*
X-289450Y-762460D01*
X-283100Y-760430D01*
X-276750Y-756360D01*
X-272520Y-751620D01*
X-270400Y-746880D01*
Y-742140D01*
X-272520Y-737400D01*
X-275690Y-733330D01*
X-279920Y-729950D01*
G01X-283100Y-705900D02*
X-275690Y-701840D01*
X-271460Y-696420D01*
X-270400Y-690320D01*
X-271460Y-684900D01*
X-276750Y-679480D01*
X-283100Y-676100D01*
X-289450Y-675420D01*
X-296860Y-676780D01*
X-302150Y-681520D01*
X-304270Y-686260D01*
Y-692350D01*
G01Y-686260D02*
X-307440Y-682190D01*
X-312730Y-678810D01*
X-319080Y-677450D01*
X-325430Y-678810D01*
X-330720Y-682190D01*
X-333900Y-688290D01*
X-332840Y-694390D01*
X-328610Y-700480D01*
G01X-296860Y-647990D02*
X-304270Y-643250D01*
X-308500Y-639180D01*
X-310620Y-633770D01*
X-308500Y-629020D01*
X-304270Y-625640D01*
X-297920Y-622930D01*
X-290510Y-622250D01*
X-284160Y-622930D01*
X-277810Y-625640D01*
X-272520Y-629700D01*
X-270400Y-634440D01*
X-272520Y-639860D01*
X-278860Y-644600D01*
X-288390Y-647310D01*
X-298970Y-647990D01*
X-312730Y-646640D01*
X-320140Y-644600D01*
X-327550Y-641220D01*
X-332840Y-636470D01*
X-333900Y-631730D01*
X-331780Y-626990D01*
X-326490Y-623600D01*
G01X-370800Y-765430D02*
X-434300D01*
Y-748490D01*
X-431120Y-743070D01*
X-426890Y-739690D01*
X-418420Y-738330D01*
X-409960Y-739690D01*
X-404670Y-743750D01*
X-401490Y-748490D01*
Y-765430D01*
G01Y-748490D02*
X-370800Y-738330D01*
G01X-423720Y-708870D02*
X-430070Y-704810D01*
X-433240Y-700060D01*
X-434300Y-694650D01*
X-432180Y-687870D01*
X-426890Y-683130D01*
X-420540Y-681780D01*
X-414190Y-682450D01*
X-408900Y-685160D01*
X-398320Y-698710D01*
X-390910Y-704810D01*
X-380320Y-708870D01*
X-370800Y-710220D01*
Y-681780D01*
G01X-434300Y-640120D02*
X-432180Y-645540D01*
X-426890Y-649600D01*
X-420540Y-652310D01*
X-412070Y-654340D01*
X-402550Y-655020D01*
X-393020Y-654340D01*
X-384560Y-652310D01*
X-378210Y-649600D01*
X-372920Y-645540D01*
X-370800Y-640120D01*
X-372920Y-634700D01*
X-378210Y-630640D01*
X-384560Y-627930D01*
X-393020Y-625900D01*
X-402550Y-625220D01*
X-412070Y-625900D01*
X-420540Y-627930D01*
X-426890Y-630640D01*
X-432180Y-634700D01*
X-434300Y-640120D01*
G01X-274880Y-509300D02*
Y-572800D01*
G01X-290460Y-509300D02*
X-259300D01*
G01X-232550Y-572800D02*
Y-509300D01*
X-216290D01*
X-210870Y-512480D01*
X-206810Y-519880D01*
X-205450Y-528350D01*
X-206810Y-536820D01*
X-210190Y-543170D01*
X-216290Y-546340D01*
X-232550D01*
G01X-174640Y-565390D02*
X-169890Y-570680D01*
X-164470Y-572800D01*
X-159060Y-570680D01*
X-154310Y-564340D01*
X-150930Y-554810D01*
X-149570Y-545280D01*
Y-533640D01*
X-150930Y-524120D01*
X-154310Y-515650D01*
X-158380Y-511420D01*
X-163120Y-509300D01*
X-168540Y-511420D01*
X-172600Y-515650D01*
X-175310Y-522000D01*
X-176670Y-530470D01*
X-175310Y-537870D01*
X-171930Y-545280D01*
X-167860Y-549520D01*
X-163120Y-550580D01*
X-157700Y-548460D01*
X-153640Y-543170D01*
X-149570Y-533640D01*
G01X-241400Y-149970D02*
X-177900D01*
Y-166910D01*
X-181080Y-172330D01*
X-185310Y-175710D01*
X-193780Y-177070D01*
X-202240Y-175710D01*
X-207530Y-171650D01*
X-210710Y-166910D01*
Y-149970D01*
G01Y-166910D02*
X-241400Y-177070D01*
G01Y-219400D02*
X-177900D01*
X-190600Y-211270D01*
G01X-241400D02*
Y-227530D01*
G01Y-275280D02*
X-177900D01*
X-190600Y-267150D01*
G01X-241400D02*
Y-283410D01*
G01X-373600Y-186800D02*
Y-121800D01*
X-283600D01*
Y-186800D01*
G01X-373600Y-226800D02*
Y-291800D01*
X-283600D01*
Y-226800D01*
G01X-104800Y-482200D02*
X-344800D01*
Y-312200D01*
X-104800D01*
Y-482200D01*
G01X-240000Y2311000D02*
Y1549000D01*
G01X14000Y2311000D02*
Y1549000D01*
X-494000D01*
Y2311000D01*
X14000D01*
G01X-323600Y1395230D02*
X-260100D01*
Y1378290D01*
X-263280Y1372870D01*
X-267510Y1369490D01*
X-275980Y1368130D01*
X-284440Y1369490D01*
X-289730Y1373550D01*
X-292910Y1378290D01*
Y1395230D01*
G01Y1378290D02*
X-323600Y1368130D01*
G01X-270680Y1338670D02*
X-264330Y1334610D01*
X-261160Y1329860D01*
X-260100Y1324450D01*
X-262220Y1317670D01*
X-267510Y1312930D01*
X-273860Y1311580D01*
X-280210Y1312250D01*
X-285500Y1314960D01*
X-296080Y1328510D01*
X-303490Y1334610D01*
X-314080Y1338670D01*
X-323600Y1340020D01*
Y1311580D01*
G01X-128600Y1352000D02*
Y1287000D01*
X-218600D01*
Y1352000D01*
G01X-128600Y1392000D02*
Y1457000D01*
X-218600D01*
Y1392000D01*
G01X-459400Y1405230D02*
X-395900D01*
Y1388290D01*
X-399080Y1382870D01*
X-403310Y1379490D01*
X-411780Y1378130D01*
X-420240Y1379490D01*
X-425530Y1383550D01*
X-428710Y1388290D01*
Y1405230D01*
G01Y1388290D02*
X-459400Y1378130D01*
G01Y1335800D02*
X-395900D01*
X-408600Y1343930D01*
G01X-459400D02*
Y1327670D01*
G01X-72000Y-2006400D02*
X-2000D01*
G01X-37000Y-2041400D02*
Y-1971400D01*
G01X-52100Y-1559220D02*
X-97610D01*
X-107140Y-1561930D01*
X-113480Y-1567350D01*
X-115600Y-1574120D01*
X-113480Y-1580890D01*
X-107140Y-1586310D01*
X-97610Y-1589020D01*
X-52100D01*
G01X-115600Y-1628650D02*
X-101840Y-1630000D01*
X-90200Y-1632030D01*
X-79620Y-1634740D01*
X-67980Y-1638130D01*
X-52100Y-1643550D01*
Y-1616450D01*
G01X-9400Y-1661200D02*
Y-1721200D01*
X310600D01*
Y-1661200D01*
G01X45800Y-1772600D02*
X285800D01*
Y-1942600D01*
X45800D01*
Y-1772600D01*
G01X310600Y-1461200D02*
Y-1401200D01*
X-9400D01*
Y-1461200D01*
G01X174820Y-1206390D02*
X170760Y-1203220D01*
X166020Y-1201100D01*
X160600D01*
X154500Y-1204280D01*
X149760Y-1209570D01*
X146370Y-1215920D01*
X143660Y-1226500D01*
X142990Y-1236030D01*
X144340Y-1245550D01*
X146370Y-1251900D01*
X150440Y-1258250D01*
X155180Y-1262480D01*
X159920Y-1264600D01*
X164660D01*
X169400Y-1262480D01*
X173470Y-1259310D01*
X176850Y-1255080D01*
G01X214450Y-1264600D02*
X215800Y-1250840D01*
X217830Y-1239200D01*
X220540Y-1228620D01*
X223930Y-1216980D01*
X229350Y-1201100D01*
X202250D01*
G01X271680D02*
X266260Y-1203220D01*
X262200Y-1208510D01*
X259490Y-1214860D01*
X257460Y-1223330D01*
X256780Y-1232850D01*
X257460Y-1242380D01*
X259490Y-1250840D01*
X262200Y-1257190D01*
X266260Y-1262480D01*
X271680Y-1264600D01*
X277100Y-1262480D01*
X281160Y-1257190D01*
X283870Y-1250840D01*
X285900Y-1242380D01*
X286580Y-1232850D01*
X285900Y-1223330D01*
X283870Y-1214860D01*
X281160Y-1208510D01*
X277100Y-1203220D01*
X271680Y-1201100D01*
G01X65400Y-1270400D02*
X120400D01*
Y-1190400D01*
X65400D01*
G01X25400Y-1270400D02*
X-29600D01*
Y-1190400D01*
X25400D01*
G01X174820Y-1301790D02*
X170760Y-1298620D01*
X166020Y-1296500D01*
X160600D01*
X154500Y-1299680D01*
X149760Y-1304970D01*
X146370Y-1311320D01*
X143660Y-1321900D01*
X142990Y-1331430D01*
X144340Y-1340950D01*
X146370Y-1347300D01*
X150440Y-1353650D01*
X155180Y-1357880D01*
X159920Y-1360000D01*
X164660D01*
X169400Y-1357880D01*
X173470Y-1354710D01*
X176850Y-1350480D01*
G01X202930Y-1333540D02*
X207670Y-1326130D01*
X211740Y-1321900D01*
X217150Y-1319780D01*
X221900Y-1321900D01*
X225280Y-1326130D01*
X227990Y-1332480D01*
X228670Y-1339890D01*
X227990Y-1346240D01*
X225280Y-1352590D01*
X221220Y-1357880D01*
X216480Y-1360000D01*
X211060Y-1357880D01*
X206320Y-1351540D01*
X203610Y-1342010D01*
X202930Y-1331430D01*
X204280Y-1317670D01*
X206320Y-1310260D01*
X209700Y-1302850D01*
X214450Y-1297560D01*
X219190Y-1296500D01*
X223930Y-1298620D01*
X227320Y-1303910D01*
G01X260160Y-1352590D02*
X264910Y-1357880D01*
X270330Y-1360000D01*
X275740Y-1357880D01*
X280490Y-1351540D01*
X283870Y-1342010D01*
X285230Y-1332480D01*
Y-1320840D01*
X283870Y-1311320D01*
X280490Y-1302850D01*
X276420Y-1298620D01*
X271680Y-1296500D01*
X266260Y-1298620D01*
X262200Y-1302850D01*
X259490Y-1309200D01*
X258130Y-1317670D01*
X259490Y-1325070D01*
X262870Y-1332480D01*
X266940Y-1336720D01*
X271680Y-1337780D01*
X277100Y-1335660D01*
X281160Y-1330370D01*
X285230Y-1320840D01*
G01X65400Y-1365000D02*
X120400D01*
Y-1285000D01*
X65400D01*
G01X25400Y-1365000D02*
X-29600D01*
Y-1285000D01*
X25400D01*
G01X193600Y-937200D02*
X-46400D01*
Y-767200D01*
X193600D01*
Y-937200D01*
G01X-44200Y-969600D02*
X195800D01*
Y-1139600D01*
X-44200D01*
Y-969600D01*
G01X-24880Y-509300D02*
Y-572800D01*
G01X-40460Y-509300D02*
X-9300D01*
G01X17450Y-572800D02*
Y-509300D01*
X33710D01*
X39130Y-512480D01*
X43190Y-519880D01*
X44550Y-528350D01*
X43190Y-536820D01*
X39810Y-543170D01*
X33710Y-546340D01*
X17450D01*
G01X86880Y-572800D02*
Y-509300D01*
X78750Y-522000D01*
G01Y-572800D02*
X95010D01*
G01X142760Y-509300D02*
X137340Y-511420D01*
X133280Y-516710D01*
X130570Y-523060D01*
X128540Y-531530D01*
X127860Y-541050D01*
X128540Y-550580D01*
X130570Y-559040D01*
X133280Y-565390D01*
X137340Y-570680D01*
X142760Y-572800D01*
X148180Y-570680D01*
X152240Y-565390D01*
X154950Y-559040D01*
X156980Y-550580D01*
X157660Y-541050D01*
X156980Y-531530D01*
X154950Y-523060D01*
X152240Y-516710D01*
X148180Y-511420D01*
X142760Y-509300D01*
G01X175200Y-482200D02*
X-64800D01*
Y-312200D01*
X175200D01*
Y-482200D01*
G01X258800Y202200D02*
X193800D01*
Y292200D01*
X258800D01*
G01X454300Y847600D02*
X154300D01*
Y687600D01*
X434300D01*
X454300Y707600D01*
Y847600D01*
G01X252200Y901200D02*
Y836200D01*
X162200D01*
Y901200D01*
G01X167200Y1114430D02*
X230700D01*
Y1097490D01*
X227520Y1092070D01*
X223290Y1088690D01*
X214820Y1087330D01*
X206360Y1088690D01*
X201070Y1092750D01*
X197890Y1097490D01*
Y1114430D01*
G01Y1097490D02*
X167200Y1087330D01*
G01Y1046350D02*
X180960Y1045000D01*
X192600Y1042970D01*
X203180Y1040260D01*
X214820Y1036870D01*
X230700Y1031450D01*
Y1058550D01*
G01X252200Y941200D02*
Y1006200D01*
X162200D01*
Y941200D01*
G01X197520Y1224700D02*
Y1161200D01*
G01X181940Y1224700D02*
X213100D01*
G01X239850Y1161200D02*
Y1224700D01*
X256110D01*
X261530Y1221520D01*
X265590Y1214120D01*
X266950Y1205650D01*
X265590Y1197180D01*
X262210Y1190830D01*
X256110Y1187660D01*
X239850D01*
G01X296410Y1214120D02*
X300470Y1220470D01*
X305220Y1223640D01*
X310630Y1224700D01*
X317410Y1222580D01*
X322150Y1217290D01*
X323500Y1210940D01*
X322830Y1204590D01*
X320120Y1199300D01*
X306570Y1188720D01*
X300470Y1181310D01*
X296410Y1170720D01*
X295060Y1161200D01*
X323500D01*
G01X196720Y1395500D02*
Y1332000D01*
G01X181140Y1395500D02*
X212300D01*
G01X239050Y1332000D02*
Y1395500D01*
X255310D01*
X260730Y1392320D01*
X264790Y1384920D01*
X266150Y1376450D01*
X264790Y1367980D01*
X261410Y1361630D01*
X255310Y1358460D01*
X239050D01*
G01X308480Y1332000D02*
Y1395500D01*
X300350Y1382800D01*
G01Y1332000D02*
X316610D01*
G01X-103600Y1457000D02*
X136400D01*
Y1287000D01*
X-103600D01*
Y1457000D01*
G01X56770Y1780000D02*
Y1843500D01*
X73030D01*
X78450Y1840320D01*
X82510Y1832920D01*
X83870Y1824450D01*
X82510Y1815980D01*
X79130Y1809630D01*
X73030Y1806460D01*
X56770D01*
G01X141100Y1838210D02*
X137040Y1841380D01*
X132300Y1843500D01*
X126880D01*
X120780Y1840320D01*
X116040Y1835030D01*
X112650Y1828680D01*
X109940Y1818100D01*
X109270Y1808570D01*
X110620Y1799050D01*
X112650Y1792700D01*
X116720Y1786350D01*
X121460Y1782120D01*
X126200Y1780000D01*
X130940D01*
X135680Y1782120D01*
X139750Y1785290D01*
X143130Y1789520D01*
G01X182080Y1780000D02*
Y1843500D01*
X173950Y1830800D01*
G01Y1780000D02*
X190210D01*
G01X225090Y1832920D02*
X229150Y1839270D01*
X233900Y1842440D01*
X239310Y1843500D01*
X246090Y1841380D01*
X250830Y1836090D01*
X252180Y1829740D01*
X251510Y1823390D01*
X248800Y1818100D01*
X235250Y1807520D01*
X229150Y1800110D01*
X225090Y1789520D01*
X223740Y1780000D01*
X252180D01*
G01X336170D02*
Y1843500D01*
X352430D01*
X357850Y1840320D01*
X361910Y1832920D01*
X363270Y1824450D01*
X361910Y1815980D01*
X358530Y1809630D01*
X352430Y1806460D01*
X336170D01*
G01X420500Y1838210D02*
X416440Y1841380D01*
X411700Y1843500D01*
X406280D01*
X400180Y1840320D01*
X395440Y1835030D01*
X392050Y1828680D01*
X389340Y1818100D01*
X388670Y1808570D01*
X390020Y1799050D01*
X392050Y1792700D01*
X396120Y1786350D01*
X400860Y1782120D01*
X405600Y1780000D01*
X410340D01*
X415080Y1782120D01*
X419150Y1785290D01*
X422530Y1789520D01*
G01X461480Y1780000D02*
Y1843500D01*
X453350Y1830800D01*
G01Y1780000D02*
X469610D01*
G01X517360D02*
Y1843500D01*
X509230Y1830800D01*
G01Y1780000D02*
X525490D01*
G01X46770Y2320000D02*
Y2383500D01*
X63030D01*
X68450Y2380320D01*
X72510Y2372920D01*
X73870Y2364450D01*
X72510Y2355980D01*
X69130Y2349630D01*
X63030Y2346460D01*
X46770D01*
G01X121620Y2353870D02*
X124330Y2357040D01*
X126360Y2362330D01*
X127720Y2369740D01*
X126360Y2376090D01*
X123650Y2380320D01*
X118910Y2383500D01*
X100620D01*
Y2320000D01*
X122970D01*
X127720Y2324230D01*
X130420Y2330580D01*
X131780Y2337990D01*
X130420Y2345400D01*
X126360Y2351750D01*
X121620Y2353870D01*
X100620D01*
G01X170730Y2320000D02*
X172080Y2333760D01*
X174110Y2345400D01*
X176820Y2355980D01*
X180210Y2367620D01*
X185630Y2383500D01*
X158530D01*
G01X270290Y2320000D02*
Y2383500D01*
X286550D01*
X291970Y2380320D01*
X296030Y2372920D01*
X297390Y2364450D01*
X296030Y2355980D01*
X292650Y2349630D01*
X286550Y2346460D01*
X270290D01*
G01X322790Y2320000D02*
X339720Y2383500D01*
X356650Y2320000D01*
G01X350560Y2342220D02*
X328880D01*
G01X395600Y2320000D02*
Y2383500D01*
X387470Y2370800D01*
G01Y2320000D02*
X403730D01*
G01X436580Y2329520D02*
X440640Y2324230D01*
X445380Y2321060D01*
X451480Y2320000D01*
X457580Y2322120D01*
X462320Y2326350D01*
X465700Y2333760D01*
X466380Y2342220D01*
X465030Y2350690D01*
X461640Y2355980D01*
X456900Y2360220D01*
X452160Y2361270D01*
X447420Y2360220D01*
X441320Y2355980D01*
X443350Y2383500D01*
X461640D01*
G01X46770Y2190000D02*
Y2253500D01*
X63030D01*
X68450Y2250320D01*
X72510Y2242920D01*
X73870Y2234450D01*
X72510Y2225980D01*
X69130Y2219630D01*
X63030Y2216460D01*
X46770D01*
G01X121620Y2223870D02*
X124330Y2227040D01*
X126360Y2232330D01*
X127720Y2239740D01*
X126360Y2246090D01*
X123650Y2250320D01*
X118910Y2253500D01*
X100620D01*
Y2190000D01*
X122970D01*
X127720Y2194230D01*
X130420Y2200580D01*
X131780Y2207990D01*
X130420Y2215400D01*
X126360Y2221750D01*
X121620Y2223870D01*
X100620D01*
G01X159210Y2216460D02*
X163950Y2223870D01*
X168020Y2228100D01*
X173430Y2230220D01*
X178180Y2228100D01*
X181560Y2223870D01*
X184270Y2217520D01*
X184950Y2210110D01*
X184270Y2203760D01*
X181560Y2197410D01*
X177500Y2192120D01*
X172760Y2190000D01*
X167340Y2192120D01*
X162600Y2198460D01*
X159890Y2207990D01*
X159210Y2218570D01*
X160560Y2232330D01*
X162600Y2239740D01*
X165980Y2247150D01*
X170730Y2252440D01*
X175470Y2253500D01*
X180210Y2251380D01*
X183600Y2246090D01*
G01X270290Y2190000D02*
Y2253500D01*
X286550D01*
X291970Y2250320D01*
X296030Y2242920D01*
X297390Y2234450D01*
X296030Y2225980D01*
X292650Y2219630D01*
X286550Y2216460D01*
X270290D01*
G01X354620Y2248210D02*
X350560Y2251380D01*
X345820Y2253500D01*
X340400D01*
X334300Y2250320D01*
X329560Y2245030D01*
X326170Y2238680D01*
X323460Y2228100D01*
X322790Y2218570D01*
X324140Y2209050D01*
X326170Y2202700D01*
X330240Y2196350D01*
X334980Y2192120D01*
X339720Y2190000D01*
X344460D01*
X349200Y2192120D01*
X353270Y2195290D01*
X356650Y2199520D01*
G01X395600Y2190000D02*
Y2253500D01*
X387470Y2240800D01*
G01Y2190000D02*
X403730D01*
G01X451480Y2253500D02*
X446060Y2251380D01*
X442000Y2246090D01*
X439290Y2239740D01*
X437260Y2231270D01*
X436580Y2221750D01*
X437260Y2212220D01*
X439290Y2203760D01*
X442000Y2197410D01*
X446060Y2192120D01*
X451480Y2190000D01*
X456900Y2192120D01*
X460960Y2197410D01*
X463670Y2203760D01*
X465700Y2212220D01*
X466380Y2221750D01*
X465700Y2231270D01*
X463670Y2239740D01*
X460960Y2246090D01*
X456900Y2251380D01*
X451480Y2253500D01*
G01X91000Y2145600D02*
X331000D01*
Y2045600D01*
X91000D01*
Y2145600D01*
G01X407820Y-2137190D02*
X403760Y-2134020D01*
X399020Y-2131900D01*
X393600D01*
X387500Y-2135080D01*
X382760Y-2140370D01*
X379370Y-2146720D01*
X376660Y-2157300D01*
X375990Y-2166830D01*
X377340Y-2176350D01*
X379370Y-2182700D01*
X383440Y-2189050D01*
X388180Y-2193280D01*
X392920Y-2195400D01*
X397660D01*
X402400Y-2193280D01*
X406470Y-2190110D01*
X409850Y-2185880D01*
G01X435930Y-2168940D02*
X440670Y-2161530D01*
X444740Y-2157300D01*
X450150Y-2155180D01*
X454900Y-2157300D01*
X458280Y-2161530D01*
X460990Y-2167880D01*
X461670Y-2175290D01*
X460990Y-2181640D01*
X458280Y-2187990D01*
X454220Y-2193280D01*
X449480Y-2195400D01*
X444060Y-2193280D01*
X439320Y-2186940D01*
X436610Y-2177410D01*
X435930Y-2166830D01*
X437280Y-2153070D01*
X439320Y-2145660D01*
X442700Y-2138250D01*
X447450Y-2132960D01*
X452190Y-2131900D01*
X456930Y-2134020D01*
X460320Y-2139310D01*
G01X489780Y-2182700D02*
X493840Y-2190110D01*
X499260Y-2194340D01*
X505360Y-2195400D01*
X510780Y-2194340D01*
X516200Y-2189050D01*
X519580Y-2182700D01*
X520260Y-2176350D01*
X518900Y-2168940D01*
X514160Y-2163650D01*
X509420Y-2161530D01*
X503330D01*
G01X509420D02*
X513490Y-2158360D01*
X516870Y-2153070D01*
X518230Y-2146720D01*
X516870Y-2140370D01*
X513490Y-2135080D01*
X507390Y-2131900D01*
X501290Y-2132960D01*
X495200Y-2137190D01*
G01X407820Y-2026390D02*
X403760Y-2023220D01*
X399020Y-2021100D01*
X393600D01*
X387500Y-2024280D01*
X382760Y-2029570D01*
X379370Y-2035920D01*
X376660Y-2046500D01*
X375990Y-2056030D01*
X377340Y-2065550D01*
X379370Y-2071900D01*
X383440Y-2078250D01*
X388180Y-2082480D01*
X392920Y-2084600D01*
X397660D01*
X402400Y-2082480D01*
X406470Y-2079310D01*
X409850Y-2075080D01*
G01X435930Y-2058140D02*
X440670Y-2050730D01*
X444740Y-2046500D01*
X450150Y-2044380D01*
X454900Y-2046500D01*
X458280Y-2050730D01*
X460990Y-2057080D01*
X461670Y-2064490D01*
X460990Y-2070840D01*
X458280Y-2077190D01*
X454220Y-2082480D01*
X449480Y-2084600D01*
X444060Y-2082480D01*
X439320Y-2076140D01*
X436610Y-2066610D01*
X435930Y-2056030D01*
X437280Y-2042270D01*
X439320Y-2034860D01*
X442700Y-2027450D01*
X447450Y-2022160D01*
X452190Y-2021100D01*
X456930Y-2023220D01*
X460320Y-2028510D01*
G01X491810Y-2031680D02*
X495870Y-2025330D01*
X500620Y-2022160D01*
X506030Y-2021100D01*
X512810Y-2023220D01*
X517550Y-2028510D01*
X518900Y-2034860D01*
X518230Y-2041210D01*
X515520Y-2046500D01*
X501970Y-2057080D01*
X495870Y-2064490D01*
X491810Y-2075080D01*
X490460Y-2084600D01*
X518900D01*
G01X437600Y-1670400D02*
X382600D01*
Y-1750400D01*
X437600D01*
G01X477600Y-1670400D02*
X532600D01*
Y-1750400D01*
X477600D01*
G01X437600Y-1579600D02*
X382600D01*
Y-1659600D01*
X437600D01*
G01X477600Y-1579600D02*
X532600D01*
Y-1659600D01*
X477600D01*
G01X323800Y-1772600D02*
X563800D01*
Y-1942600D01*
X323800D01*
Y-1772600D01*
G01X635000Y-1309000D02*
Y-1224000D01*
X475000D01*
Y-1309000D01*
G01X635000Y-1439000D02*
Y-1524000D01*
X475000D01*
Y-1439000D01*
G01X427010Y-1195220D02*
X430180Y-1191160D01*
X432300Y-1186420D01*
Y-1181000D01*
X429120Y-1174900D01*
X423830Y-1170160D01*
X417480Y-1166770D01*
X406900Y-1164060D01*
X397370Y-1163390D01*
X387850Y-1164740D01*
X381500Y-1166770D01*
X375150Y-1170840D01*
X370920Y-1175580D01*
X368800Y-1180320D01*
Y-1185060D01*
X370920Y-1189800D01*
X374090Y-1193870D01*
X378320Y-1197250D01*
G01X368800Y-1234850D02*
X382560Y-1236200D01*
X394200Y-1238230D01*
X404780Y-1240940D01*
X416420Y-1244330D01*
X432300Y-1249750D01*
Y-1222650D01*
G01X421720Y-1279210D02*
X428070Y-1283270D01*
X431240Y-1288020D01*
X432300Y-1293430D01*
X430180Y-1300210D01*
X424890Y-1304950D01*
X418540Y-1306300D01*
X412190Y-1305630D01*
X406900Y-1302920D01*
X396320Y-1289370D01*
X388910Y-1283270D01*
X378320Y-1279210D01*
X368800Y-1277860D01*
Y-1306300D01*
G01X453800Y-1395000D02*
Y-1340000D01*
X373800D01*
Y-1395000D01*
G01X453800Y-1435000D02*
Y-1490000D01*
X373800D01*
Y-1435000D01*
G01X583210Y-1084220D02*
X586380Y-1080160D01*
X588500Y-1075420D01*
Y-1070000D01*
X585320Y-1063900D01*
X580030Y-1059160D01*
X573680Y-1055770D01*
X563100Y-1053060D01*
X553570Y-1052390D01*
X544050Y-1053740D01*
X537700Y-1055770D01*
X531350Y-1059840D01*
X527120Y-1064580D01*
X525000Y-1069320D01*
Y-1074060D01*
X527120Y-1078800D01*
X530290Y-1082870D01*
X534520Y-1086250D01*
G01X525000Y-1123850D02*
X538760Y-1125200D01*
X550400Y-1127230D01*
X560980Y-1129940D01*
X572620Y-1133330D01*
X588500Y-1138750D01*
Y-1111650D01*
G01X525000Y-1181080D02*
X588500D01*
X575800Y-1172950D01*
G01X525000D02*
Y-1189210D01*
G01X222800Y-970400D02*
X462800D01*
Y-1140400D01*
X222800D01*
Y-970400D01*
G01X490800Y-635970D02*
X554300D01*
Y-652910D01*
X551120Y-658330D01*
X546890Y-661710D01*
X538420Y-663070D01*
X529960Y-661710D01*
X524670Y-657650D01*
X521490Y-652910D01*
Y-635970D01*
G01Y-652910D02*
X490800Y-663070D01*
G01X503500Y-690500D02*
X496090Y-694560D01*
X491860Y-699980D01*
X490800Y-706080D01*
X491860Y-711500D01*
X497150Y-716920D01*
X503500Y-720300D01*
X509850Y-720980D01*
X517260Y-719620D01*
X522550Y-714880D01*
X524670Y-710140D01*
Y-704050D01*
G01Y-710140D02*
X527840Y-714210D01*
X533130Y-717590D01*
X539480Y-718950D01*
X545830Y-717590D01*
X551120Y-714210D01*
X554300Y-708110D01*
X553240Y-702010D01*
X549010Y-695920D01*
G01X554300Y-761280D02*
X552180Y-755860D01*
X546890Y-751800D01*
X540540Y-749090D01*
X532070Y-747060D01*
X522550Y-746380D01*
X513020Y-747060D01*
X504560Y-749090D01*
X498210Y-751800D01*
X492920Y-755860D01*
X490800Y-761280D01*
X492920Y-766700D01*
X498210Y-770760D01*
X504560Y-773470D01*
X513020Y-775500D01*
X522550Y-776180D01*
X532070Y-775500D01*
X540540Y-773470D01*
X546890Y-770760D01*
X552180Y-766700D01*
X554300Y-761280D01*
G01X275120Y-509300D02*
Y-572800D01*
G01X259540Y-509300D02*
X290700D01*
G01X317450Y-572800D02*
Y-509300D01*
X333710D01*
X339130Y-512480D01*
X343190Y-519880D01*
X344550Y-528350D01*
X343190Y-536820D01*
X339810Y-543170D01*
X333710Y-546340D01*
X317450D01*
G01X386880Y-572800D02*
Y-509300D01*
X378750Y-522000D01*
G01Y-572800D02*
X395010D01*
G01X442760D02*
Y-509300D01*
X434630Y-522000D01*
G01Y-572800D02*
X450890D01*
G01X735200Y-482200D02*
X495200D01*
Y-312200D01*
X735200D01*
Y-482200D01*
G01X455200D02*
X215200D01*
Y-312200D01*
X455200D01*
Y-482200D01*
G01X247970Y322800D02*
Y386300D01*
X264910D01*
X270330Y383120D01*
X273710Y378890D01*
X275070Y370420D01*
X273710Y361960D01*
X269650Y356670D01*
X264910Y353490D01*
X247970D01*
G01X264910D02*
X275070Y322800D01*
G01X305880Y330210D02*
X310630Y324920D01*
X316050Y322800D01*
X321460Y324920D01*
X326210Y331260D01*
X329590Y340790D01*
X330950Y350320D01*
Y361960D01*
X329590Y371480D01*
X326210Y379950D01*
X322140Y384180D01*
X317400Y386300D01*
X311980Y384180D01*
X307920Y379950D01*
X305210Y373600D01*
X303850Y365130D01*
X305210Y357730D01*
X308590Y350320D01*
X312660Y346080D01*
X317400Y345020D01*
X322820Y347140D01*
X326880Y352430D01*
X330950Y361960D01*
G01X298800Y202200D02*
X363800D01*
Y292200D01*
X298800D01*
G01X252470Y655900D02*
Y592400D01*
X279570D01*
G01X309030Y618860D02*
X313770Y626270D01*
X317840Y630500D01*
X323250Y632620D01*
X328000Y630500D01*
X331380Y626270D01*
X334090Y619920D01*
X334770Y612510D01*
X334090Y606160D01*
X331380Y599810D01*
X327320Y594520D01*
X322580Y592400D01*
X317160Y594520D01*
X312420Y600860D01*
X309710Y610390D01*
X309030Y620970D01*
X310380Y634730D01*
X312420Y642140D01*
X315800Y649550D01*
X320550Y654840D01*
X325290Y655900D01*
X330030Y653780D01*
X333420Y648490D01*
G01X277200Y1116200D02*
X517200D01*
Y946200D01*
X277200D01*
Y1116200D01*
G01X321400Y1748400D02*
X561400D01*
Y1578400D01*
X321400D01*
Y1748400D01*
G01X631610Y1878380D02*
X634780Y1882440D01*
X636900Y1887180D01*
Y1892600D01*
X633720Y1898700D01*
X628430Y1903440D01*
X622080Y1906830D01*
X611500Y1909540D01*
X601970Y1910210D01*
X592450Y1908860D01*
X586100Y1906830D01*
X579750Y1902760D01*
X575520Y1898020D01*
X573400Y1893280D01*
Y1888540D01*
X575520Y1883800D01*
X578690Y1879730D01*
X582920Y1876350D01*
G01Y1852300D02*
X577630Y1848240D01*
X574460Y1843500D01*
X573400Y1837400D01*
X575520Y1831300D01*
X579750Y1826560D01*
X587160Y1823180D01*
X595620Y1822500D01*
X604090Y1823850D01*
X609380Y1827240D01*
X613620Y1831980D01*
X614670Y1836720D01*
X613620Y1841460D01*
X609380Y1847560D01*
X636900Y1845530D01*
Y1827240D01*
G01X573400Y1782870D02*
X587160Y1781520D01*
X598800Y1779490D01*
X609380Y1776780D01*
X621020Y1773390D01*
X636900Y1767970D01*
Y1795070D01*
G01X357770Y2129100D02*
Y2065600D01*
X384870D01*
G01X427200D02*
Y2129100D01*
X419070Y2116400D01*
G01Y2065600D02*
X435330D01*
G01X867000Y-2019600D02*
X627000D01*
Y-1849600D01*
X867000D01*
Y-2019600D01*
G01X859000Y-1650020D02*
X813490D01*
X803960Y-1652730D01*
X797620Y-1658150D01*
X795500Y-1664920D01*
X797620Y-1671690D01*
X803960Y-1677110D01*
X813490Y-1679820D01*
X859000D01*
G01X808200Y-1705900D02*
X800790Y-1709960D01*
X796560Y-1715380D01*
X795500Y-1721480D01*
X796560Y-1726900D01*
X801850Y-1732320D01*
X808200Y-1735700D01*
X814550Y-1736380D01*
X821960Y-1735020D01*
X827250Y-1730280D01*
X829370Y-1725540D01*
Y-1719450D01*
G01Y-1725540D02*
X832540Y-1729610D01*
X837830Y-1732990D01*
X844180Y-1734350D01*
X850530Y-1732990D01*
X855820Y-1729610D01*
X859000Y-1723510D01*
X857940Y-1717410D01*
X853710Y-1711320D01*
G01X596370Y-1723800D02*
Y-1660300D01*
X613310D01*
X618730Y-1663480D01*
X622110Y-1667710D01*
X623470Y-1676180D01*
X622110Y-1684640D01*
X618050Y-1689930D01*
X613310Y-1693110D01*
X596370D01*
G01X613310D02*
X623470Y-1723800D01*
G01X673930D02*
Y-1660300D01*
X648870Y-1705810D01*
X682730D01*
G01X721680Y-1723800D02*
Y-1660300D01*
X713550Y-1673000D01*
G01Y-1723800D02*
X729810D01*
G01X640400Y-1631200D02*
X575400D01*
Y-1541200D01*
X640400D01*
G01X680400Y-1631200D02*
X745400D01*
Y-1541200D01*
X680400D01*
G01X665200Y-1156770D02*
X728700D01*
Y-1173710D01*
X725520Y-1179130D01*
X721290Y-1182510D01*
X712820Y-1183870D01*
X704360Y-1182510D01*
X699070Y-1178450D01*
X695890Y-1173710D01*
Y-1156770D01*
G01Y-1173710D02*
X665200Y-1183870D01*
G01Y-1234330D02*
X728700D01*
X683190Y-1209270D01*
Y-1243130D01*
G01X718120Y-1269210D02*
X724470Y-1273270D01*
X727640Y-1278020D01*
X728700Y-1283430D01*
X726580Y-1290210D01*
X721290Y-1294950D01*
X714940Y-1296300D01*
X708590Y-1295630D01*
X703300Y-1292920D01*
X692720Y-1279370D01*
X685310Y-1273270D01*
X674720Y-1269210D01*
X665200Y-1267860D01*
Y-1296300D01*
G01X740200Y-1440000D02*
Y-1505000D01*
X650200D01*
Y-1440000D01*
G01X740200Y-1400000D02*
Y-1335000D01*
X650200D01*
Y-1400000D01*
G01X676420Y-937590D02*
X672360Y-934420D01*
X667620Y-932300D01*
X662200D01*
X656100Y-935480D01*
X651360Y-940770D01*
X647970Y-947120D01*
X645260Y-957700D01*
X644590Y-967230D01*
X645940Y-976750D01*
X647970Y-983100D01*
X652040Y-989450D01*
X656780Y-993680D01*
X661520Y-995800D01*
X666260D01*
X671000Y-993680D01*
X675070Y-990510D01*
X678450Y-986280D01*
G01X725530Y-995800D02*
Y-932300D01*
X700470Y-977810D01*
X734330D01*
G01X758380Y-983100D02*
X762440Y-990510D01*
X767860Y-994740D01*
X773960Y-995800D01*
X779380Y-994740D01*
X784800Y-989450D01*
X788180Y-983100D01*
X788860Y-976750D01*
X787500Y-969340D01*
X782760Y-964050D01*
X778020Y-961930D01*
X771930D01*
G01X778020D02*
X782090Y-958760D01*
X785470Y-953470D01*
X786830Y-947120D01*
X785470Y-940770D01*
X782090Y-935480D01*
X775990Y-932300D01*
X769890Y-933360D01*
X763800Y-937590D01*
G01X696200Y-1020800D02*
X641200D01*
Y-1100800D01*
X696200D01*
G01X736200Y-1020800D02*
X791200D01*
Y-1100800D01*
X736200D01*
G01X893520Y-800000D02*
X888100Y-798940D01*
X883360Y-794710D01*
X879300Y-788360D01*
X876590Y-780950D01*
X875230Y-772480D01*
Y-764020D01*
X876590Y-755550D01*
X879300Y-748140D01*
X883360Y-741790D01*
X888100Y-737560D01*
X893520Y-736500D01*
X898940Y-737560D01*
X903680Y-741790D01*
X907740Y-748140D01*
X910450Y-755550D01*
X911810Y-764020D01*
Y-772480D01*
X910450Y-780950D01*
X907740Y-788360D01*
X903680Y-794710D01*
X898940Y-798940D01*
X893520Y-800000D01*
G01X898940Y-783070D02*
X907070Y-800000D01*
G01X936530Y-747080D02*
X940590Y-740730D01*
X945340Y-737560D01*
X950750Y-736500D01*
X957530Y-738620D01*
X962270Y-743910D01*
X963620Y-750260D01*
X962950Y-756610D01*
X960240Y-761900D01*
X946690Y-772480D01*
X940590Y-779890D01*
X936530Y-790480D01*
X935180Y-800000D01*
X963620D01*
G01X873200Y-710000D02*
X953200D01*
G01X863200Y-830000D02*
X753200D01*
Y-710000D01*
X763200D01*
G01X685800Y-729200D02*
Y-794200D01*
X595800D01*
Y-729200D01*
G01X685800Y-689200D02*
Y-624200D01*
X595800D01*
Y-689200D01*
G01X627570Y-575400D02*
Y-511900D01*
X644510D01*
X649930Y-515080D01*
X653310Y-519310D01*
X654670Y-527780D01*
X653310Y-536240D01*
X649250Y-541530D01*
X644510Y-544710D01*
X627570D01*
G01X644510D02*
X654670Y-575400D01*
G01X684130Y-522480D02*
X688190Y-516130D01*
X692940Y-512960D01*
X698350Y-511900D01*
X705130Y-514020D01*
X709870Y-519310D01*
X711220Y-525660D01*
X710550Y-532010D01*
X707840Y-537300D01*
X694290Y-547880D01*
X688190Y-555290D01*
X684130Y-565880D01*
X682780Y-575400D01*
X711220D01*
G01X751530D02*
X752880Y-561640D01*
X754910Y-550000D01*
X757620Y-539420D01*
X761010Y-527780D01*
X766430Y-511900D01*
X739330D01*
G01X900800Y-500400D02*
X965800D01*
Y-590400D01*
X900800D01*
G01X860800Y-500400D02*
X795800D01*
Y-590400D01*
X860800D01*
G01X669220Y-162700D02*
Y-208210D01*
X671930Y-217740D01*
X677350Y-224080D01*
X684120Y-226200D01*
X690890Y-224080D01*
X696310Y-217740D01*
X699020Y-208210D01*
Y-162700D01*
G01X748130Y-226200D02*
Y-162700D01*
X723070Y-208210D01*
X756930D01*
G01X910200Y-305970D02*
X973700D01*
Y-322910D01*
X970520Y-328330D01*
X966290Y-331710D01*
X957820Y-333070D01*
X949360Y-331710D01*
X944070Y-327650D01*
X940890Y-322910D01*
Y-305970D01*
G01Y-322910D02*
X910200Y-333070D01*
G01X963120Y-362530D02*
X969470Y-366590D01*
X972640Y-371340D01*
X973700Y-376750D01*
X971580Y-383530D01*
X966290Y-388270D01*
X959940Y-389620D01*
X953590Y-388950D01*
X948300Y-386240D01*
X937720Y-372690D01*
X930310Y-366590D01*
X919720Y-362530D01*
X910200Y-361180D01*
Y-389620D01*
G01X922900Y-416380D02*
X915490Y-420440D01*
X911260Y-425860D01*
X910200Y-431960D01*
X911260Y-437380D01*
X916550Y-442800D01*
X922900Y-446180D01*
X929250Y-446860D01*
X936660Y-445500D01*
X941950Y-440760D01*
X944070Y-436020D01*
Y-429930D01*
G01Y-436020D02*
X947240Y-440090D01*
X952530Y-443470D01*
X958880Y-444830D01*
X965230Y-443470D01*
X970520Y-440090D01*
X973700Y-433990D01*
X972640Y-427890D01*
X968410Y-421800D01*
G01X885200Y-399200D02*
Y-464200D01*
X795200D01*
Y-399200D01*
G01X885200Y-359200D02*
Y-294200D01*
X795200D01*
Y-359200D01*
G01X853800Y-26200D02*
X913800D01*
G01X783800D02*
X768800D01*
Y-166200D01*
X783800D01*
G01X770400Y88400D02*
Y63400D01*
X960400D01*
Y88400D01*
G01Y188400D02*
Y213400D01*
X765400D01*
Y188400D01*
G01X795970Y358400D02*
Y421900D01*
X812910D01*
X818330Y418720D01*
X821710Y414490D01*
X823070Y406020D01*
X821710Y397560D01*
X817650Y392270D01*
X812910Y389090D01*
X795970D01*
G01X812910D02*
X823070Y358400D01*
G01X852530Y411320D02*
X856590Y417670D01*
X861340Y420840D01*
X866750Y421900D01*
X873530Y419780D01*
X878270Y414490D01*
X879620Y408140D01*
X878950Y401790D01*
X876240Y396500D01*
X862690Y385920D01*
X856590Y378510D01*
X852530Y367920D01*
X851180Y358400D01*
X879620D01*
G01X929410D02*
Y421900D01*
X904350Y376390D01*
X938210D01*
G01X899200Y333400D02*
X964200D01*
Y243400D01*
X899200D01*
G01X859200Y333400D02*
X794200D01*
Y243400D01*
X859200D01*
G01X961800Y909600D02*
Y964600D01*
X881800D01*
Y909600D01*
G01X961800Y869600D02*
Y814600D01*
X881800D01*
Y869600D01*
G01X851410Y678780D02*
X854580Y682840D01*
X856700Y687580D01*
Y693000D01*
X853520Y699100D01*
X848230Y703840D01*
X841880Y707230D01*
X831300Y709940D01*
X821770Y710610D01*
X812250Y709260D01*
X805900Y707230D01*
X799550Y703160D01*
X795320Y698420D01*
X793200Y693680D01*
Y688940D01*
X795320Y684200D01*
X798490Y680130D01*
X802720Y676750D01*
G01Y652700D02*
X797430Y648640D01*
X794260Y643900D01*
X793200Y637800D01*
X795320Y631700D01*
X799550Y626960D01*
X806960Y623580D01*
X815420Y622900D01*
X823890Y624250D01*
X829180Y627640D01*
X833420Y632380D01*
X834470Y637120D01*
X833420Y641860D01*
X829180Y647960D01*
X856700Y645930D01*
Y627640D01*
G01Y581920D02*
X854580Y587340D01*
X849290Y591400D01*
X842940Y594110D01*
X834470Y596140D01*
X824950Y596820D01*
X815420Y596140D01*
X806960Y594110D01*
X800610Y591400D01*
X795320Y587340D01*
X793200Y581920D01*
X795320Y576500D01*
X800610Y572440D01*
X806960Y569730D01*
X815420Y567700D01*
X824950Y567020D01*
X834470Y567700D01*
X842940Y569730D01*
X849290Y572440D01*
X854580Y576500D01*
X856700Y581920D01*
G01X881800Y621000D02*
Y566000D01*
X961800D01*
Y621000D01*
G01X881800Y661000D02*
Y716000D01*
X961800D01*
Y661000D01*
G01X873200Y866200D02*
Y801200D01*
X783200D01*
Y866200D01*
G01X873200Y906200D02*
Y971200D01*
X783200D01*
Y906200D01*
G01X845620Y1167810D02*
X841560Y1170980D01*
X836820Y1173100D01*
X831400D01*
X825300Y1169920D01*
X820560Y1164630D01*
X817170Y1158280D01*
X814460Y1147700D01*
X813790Y1138170D01*
X815140Y1128650D01*
X817170Y1122300D01*
X821240Y1115950D01*
X825980Y1111720D01*
X830720Y1109600D01*
X835460D01*
X840200Y1111720D01*
X844270Y1114890D01*
X847650Y1119120D01*
G01X871700D02*
X875760Y1113830D01*
X880500Y1110660D01*
X886600Y1109600D01*
X892700Y1111720D01*
X897440Y1115950D01*
X900820Y1123360D01*
X901500Y1131820D01*
X900150Y1140290D01*
X896760Y1145580D01*
X892020Y1149820D01*
X887280Y1150870D01*
X882540Y1149820D01*
X876440Y1145580D01*
X878470Y1173100D01*
X896760D01*
G01X927580Y1122300D02*
X931640Y1114890D01*
X937060Y1110660D01*
X943160Y1109600D01*
X948580Y1110660D01*
X954000Y1115950D01*
X957380Y1122300D01*
X958060Y1128650D01*
X956700Y1136060D01*
X951960Y1141350D01*
X947220Y1143470D01*
X941130D01*
G01X947220D02*
X951290Y1146640D01*
X954670Y1151930D01*
X956030Y1158280D01*
X954670Y1164630D01*
X951290Y1169920D01*
X945190Y1173100D01*
X939090Y1172040D01*
X933000Y1167810D01*
G01X999600Y1230400D02*
Y1205400D01*
X659600D01*
Y1230400D01*
G01X762400Y1661400D02*
Y1576400D01*
X922400D01*
Y1661400D01*
G01X999600Y1380400D02*
Y1405400D01*
X659600D01*
Y1380400D01*
G01X643620Y1539010D02*
X639560Y1542180D01*
X634820Y1544300D01*
X629400D01*
X623300Y1541120D01*
X618560Y1535830D01*
X615170Y1529480D01*
X612460Y1518900D01*
X611790Y1509370D01*
X613140Y1499850D01*
X615170Y1493500D01*
X619240Y1487150D01*
X623980Y1482920D01*
X628720Y1480800D01*
X633460D01*
X638200Y1482920D01*
X642270Y1486090D01*
X645650Y1490320D01*
G01X669700D02*
X673760Y1485030D01*
X678500Y1481860D01*
X684600Y1480800D01*
X690700Y1482920D01*
X695440Y1487150D01*
X698820Y1494560D01*
X699500Y1503020D01*
X698150Y1511490D01*
X694760Y1516780D01*
X690020Y1521020D01*
X685280Y1522070D01*
X680540Y1521020D01*
X674440Y1516780D01*
X676470Y1544300D01*
X694760D01*
G01X748610Y1480800D02*
Y1544300D01*
X723550Y1498790D01*
X757410D01*
G01X876600Y1474200D02*
X931600D01*
Y1554200D01*
X876600D01*
G01X836600Y1474200D02*
X781600D01*
Y1554200D01*
X836600D01*
G01X667000Y1641400D02*
Y1586400D01*
X747000D01*
Y1641400D01*
G01X571600D02*
Y1586400D01*
X651600D01*
Y1641400D01*
G01X865810Y2013380D02*
X868980Y2017440D01*
X871100Y2022180D01*
Y2027600D01*
X867920Y2033700D01*
X862630Y2038440D01*
X856280Y2041830D01*
X845700Y2044540D01*
X836170Y2045210D01*
X826650Y2043860D01*
X820300Y2041830D01*
X813950Y2037760D01*
X809720Y2033020D01*
X807600Y2028280D01*
Y2023540D01*
X809720Y2018800D01*
X812890Y2014730D01*
X817120Y2011350D01*
G01Y1987300D02*
X811830Y1983240D01*
X808660Y1978500D01*
X807600Y1972400D01*
X809720Y1966300D01*
X813950Y1961560D01*
X821360Y1958180D01*
X829820Y1957500D01*
X838290Y1958850D01*
X843580Y1962240D01*
X847820Y1966980D01*
X848870Y1971720D01*
X847820Y1976460D01*
X843580Y1982560D01*
X871100Y1980530D01*
Y1962240D01*
G01X817120Y1931420D02*
X811830Y1927360D01*
X808660Y1922620D01*
X807600Y1916520D01*
X809720Y1910420D01*
X813950Y1905680D01*
X821360Y1902300D01*
X829820Y1901620D01*
X838290Y1902970D01*
X843580Y1906360D01*
X847820Y1911100D01*
X848870Y1915840D01*
X847820Y1920580D01*
X843580Y1926680D01*
X871100Y1924650D01*
Y1906360D01*
G01X762400Y1791400D02*
Y1876400D01*
X922400D01*
Y1791400D01*
G01X736210Y1878380D02*
X739380Y1882440D01*
X741500Y1887180D01*
Y1892600D01*
X738320Y1898700D01*
X733030Y1903440D01*
X726680Y1906830D01*
X716100Y1909540D01*
X706570Y1910210D01*
X697050Y1908860D01*
X690700Y1906830D01*
X684350Y1902760D01*
X680120Y1898020D01*
X678000Y1893280D01*
Y1888540D01*
X680120Y1883800D01*
X683290Y1879730D01*
X687520Y1876350D01*
G01Y1852300D02*
X682230Y1848240D01*
X679060Y1843500D01*
X678000Y1837400D01*
X680120Y1831300D01*
X684350Y1826560D01*
X691760Y1823180D01*
X700220Y1822500D01*
X708690Y1823850D01*
X713980Y1827240D01*
X718220Y1831980D01*
X719270Y1836720D01*
X718220Y1841460D01*
X713980Y1847560D01*
X741500Y1845530D01*
Y1827240D01*
G01X704460Y1794390D02*
X711870Y1789650D01*
X716100Y1785580D01*
X718220Y1780170D01*
X716100Y1775420D01*
X711870Y1772040D01*
X705520Y1769330D01*
X698110Y1768650D01*
X691760Y1769330D01*
X685410Y1772040D01*
X680120Y1776100D01*
X678000Y1780840D01*
X680120Y1786260D01*
X686460Y1791000D01*
X695990Y1793710D01*
X706570Y1794390D01*
X720330Y1793040D01*
X727740Y1791000D01*
X735150Y1787620D01*
X740440Y1782870D01*
X741500Y1778130D01*
X739380Y1773390D01*
X734090Y1770000D01*
G01X667000Y1681400D02*
Y1736400D01*
X747000D01*
Y1681400D01*
G01X571600D02*
Y1736400D01*
X651600D01*
Y1681400D01*
G01X1364010Y-2121620D02*
X1367180Y-2117560D01*
X1369300Y-2112820D01*
Y-2107400D01*
X1366120Y-2101300D01*
X1360830Y-2096560D01*
X1354480Y-2093170D01*
X1343900Y-2090460D01*
X1334370Y-2089790D01*
X1324850Y-2091140D01*
X1318500Y-2093170D01*
X1312150Y-2097240D01*
X1307920Y-2101980D01*
X1305800Y-2106720D01*
Y-2111460D01*
X1307920Y-2116200D01*
X1311090Y-2120270D01*
X1315320Y-2123650D01*
G01X1305800Y-2170730D02*
X1369300D01*
X1323790Y-2145670D01*
Y-2179530D01*
G01X1332260Y-2205610D02*
X1339670Y-2210350D01*
X1343900Y-2214420D01*
X1346020Y-2219830D01*
X1343900Y-2224580D01*
X1339670Y-2227960D01*
X1333320Y-2230670D01*
X1325910Y-2231350D01*
X1319560Y-2230670D01*
X1313210Y-2227960D01*
X1307920Y-2223900D01*
X1305800Y-2219160D01*
X1307920Y-2213740D01*
X1314260Y-2209000D01*
X1323790Y-2206290D01*
X1334370Y-2205610D01*
X1348130Y-2206960D01*
X1355540Y-2209000D01*
X1362950Y-2212380D01*
X1368240Y-2217130D01*
X1369300Y-2221870D01*
X1367180Y-2226610D01*
X1361890Y-2230000D01*
G01X1216200Y-2098170D02*
X1279700D01*
Y-2115110D01*
X1276520Y-2120530D01*
X1272290Y-2123910D01*
X1263820Y-2125270D01*
X1255360Y-2123910D01*
X1250070Y-2119850D01*
X1246890Y-2115110D01*
Y-2098170D01*
G01Y-2115110D02*
X1216200Y-2125270D01*
G01X1269120Y-2154730D02*
X1275470Y-2158790D01*
X1278640Y-2163540D01*
X1279700Y-2168950D01*
X1277580Y-2175730D01*
X1272290Y-2180470D01*
X1265940Y-2181820D01*
X1259590Y-2181150D01*
X1254300Y-2178440D01*
X1243720Y-2164890D01*
X1236310Y-2158790D01*
X1225720Y-2154730D01*
X1216200Y-2153380D01*
Y-2181820D01*
G01X1223610Y-2211960D02*
X1218320Y-2216710D01*
X1216200Y-2222130D01*
X1218320Y-2227540D01*
X1224660Y-2232290D01*
X1234190Y-2235670D01*
X1243720Y-2237030D01*
X1255360D01*
X1264880Y-2235670D01*
X1273350Y-2232290D01*
X1277580Y-2228220D01*
X1279700Y-2223480D01*
X1277580Y-2218060D01*
X1273350Y-2214000D01*
X1267000Y-2211290D01*
X1258530Y-2209930D01*
X1251130Y-2211290D01*
X1243720Y-2214670D01*
X1239480Y-2218740D01*
X1238420Y-2223480D01*
X1240540Y-2228900D01*
X1245830Y-2232960D01*
X1255360Y-2237030D01*
G01X1291200Y-2001400D02*
Y-2066400D01*
X1201200D01*
Y-2001400D01*
G01X1280000Y-1879200D02*
X1335000D01*
Y-1799200D01*
X1280000D01*
G01X1240000Y-1879200D02*
X1185000D01*
Y-1799200D01*
X1240000D01*
G01X1291200Y-1961400D02*
Y-1896400D01*
X1201200D01*
Y-1961400D01*
G01X1096770Y-910000D02*
Y-846500D01*
X1113710D01*
X1119130Y-849680D01*
X1122510Y-853910D01*
X1123870Y-862380D01*
X1122510Y-870840D01*
X1118450Y-876130D01*
X1113710Y-879310D01*
X1096770D01*
G01X1113710D02*
X1123870Y-910000D01*
G01X1153330Y-857080D02*
X1157390Y-850730D01*
X1162140Y-847560D01*
X1167550Y-846500D01*
X1174330Y-848620D01*
X1179070Y-853910D01*
X1180420Y-860260D01*
X1179750Y-866610D01*
X1177040Y-871900D01*
X1163490Y-882480D01*
X1157390Y-889890D01*
X1153330Y-900480D01*
X1151980Y-910000D01*
X1180420D01*
G01X1209210Y-883540D02*
X1213950Y-876130D01*
X1218020Y-871900D01*
X1223430Y-869780D01*
X1228180Y-871900D01*
X1231560Y-876130D01*
X1234270Y-882480D01*
X1234950Y-889890D01*
X1234270Y-896240D01*
X1231560Y-902590D01*
X1227500Y-907880D01*
X1222760Y-910000D01*
X1217340Y-907880D01*
X1212600Y-901540D01*
X1209890Y-892010D01*
X1209210Y-881430D01*
X1210560Y-867670D01*
X1212600Y-860260D01*
X1215980Y-852850D01*
X1220730Y-847560D01*
X1225470Y-846500D01*
X1230210Y-848620D01*
X1233600Y-853910D01*
G01X1340000Y-825000D02*
X1275000D01*
Y-915000D01*
X1340000D01*
G01X1063200Y-710000D02*
X1073200D01*
Y-830000D01*
X963200D01*
G01X1290320Y-685400D02*
X1284900Y-684340D01*
X1280160Y-680110D01*
X1276100Y-673760D01*
X1273390Y-666350D01*
X1272030Y-657880D01*
Y-649420D01*
X1273390Y-640950D01*
X1276100Y-633540D01*
X1280160Y-627190D01*
X1284900Y-622960D01*
X1290320Y-621900D01*
X1295740Y-622960D01*
X1300480Y-627190D01*
X1304540Y-633540D01*
X1307250Y-640950D01*
X1308610Y-649420D01*
Y-657880D01*
X1307250Y-666350D01*
X1304540Y-673760D01*
X1300480Y-680110D01*
X1295740Y-684340D01*
X1290320Y-685400D01*
G01X1295740Y-668470D02*
X1303870Y-685400D01*
G01X1346200D02*
Y-621900D01*
X1338070Y-634600D01*
G01Y-685400D02*
X1354330D01*
G01X1270000Y-595400D02*
X1350000D01*
G01X1260000Y-715400D02*
X1150000D01*
Y-595400D01*
X1160000D01*
G01X1055400Y-590400D02*
X990400D01*
Y-500400D01*
X1055400D01*
G01X1095400Y-590400D02*
X1160400D01*
Y-500400D01*
X1095400D01*
G01X1080000Y-250000D02*
Y-290000D01*
G01X1060000Y-270000D02*
X1100000D01*
G01X1330000Y-230000D02*
Y-220000D01*
X1190000D01*
Y-230000D01*
G01X1330000Y-310000D02*
Y-320000D01*
X1190000D01*
Y-310000D01*
G01X1011370Y-474600D02*
Y-411100D01*
X1028310D01*
X1033730Y-414280D01*
X1037110Y-418510D01*
X1038470Y-426980D01*
X1037110Y-435440D01*
X1033050Y-440730D01*
X1028310Y-443910D01*
X1011370D01*
G01X1028310D02*
X1038470Y-474600D01*
G01X1067930Y-421680D02*
X1071990Y-415330D01*
X1076740Y-412160D01*
X1082150Y-411100D01*
X1088930Y-413220D01*
X1093670Y-418510D01*
X1095020Y-424860D01*
X1094350Y-431210D01*
X1091640Y-436500D01*
X1078090Y-447080D01*
X1071990Y-454490D01*
X1067930Y-465080D01*
X1066580Y-474600D01*
X1095020D01*
G01X1136680D02*
X1141420Y-473540D01*
X1146840Y-470370D01*
X1150230Y-465080D01*
X1151580Y-457670D01*
X1150230Y-450260D01*
X1146160Y-443910D01*
X1140070Y-440730D01*
X1133290D01*
X1129230Y-438620D01*
X1125840Y-433330D01*
X1124490Y-425920D01*
X1126520Y-418510D01*
X1131260Y-413220D01*
X1136680Y-411100D01*
X1142100Y-413220D01*
X1146840Y-418510D01*
X1148870Y-425920D01*
X1147520Y-433330D01*
X1144130Y-438620D01*
X1140070Y-440730D01*
X1133290D01*
X1127200Y-443910D01*
X1123130Y-450260D01*
X1121780Y-457670D01*
X1123130Y-465080D01*
X1126520Y-470370D01*
X1131940Y-473540D01*
X1136680Y-474600D01*
G01X1240000Y-445000D02*
X1175000D01*
Y-355000D01*
X1240000D01*
G01X1280000Y-445000D02*
X1345000D01*
Y-355000D01*
X1280000D01*
G01X983800Y-26200D02*
X998800D01*
Y-166200D01*
X983800D01*
G01X1090020Y111600D02*
Y175100D01*
X1103570D01*
X1108980Y171920D01*
X1113050Y167690D01*
X1116440Y161340D01*
X1119140Y153930D01*
X1119820Y143350D01*
X1119140Y132770D01*
X1116440Y125360D01*
X1113050Y119010D01*
X1108980Y114770D01*
X1103570Y111600D01*
X1090020D01*
G01X1147930Y164520D02*
X1151990Y170870D01*
X1156740Y174040D01*
X1162150Y175100D01*
X1168930Y172980D01*
X1173670Y167690D01*
X1175020Y161340D01*
X1174350Y154990D01*
X1171640Y149700D01*
X1158090Y139120D01*
X1151990Y131710D01*
X1147930Y121120D01*
X1146580Y111600D01*
X1175020D01*
G01X1045400Y118400D02*
Y158400D01*
G01X1065400Y138400D02*
X1025400D01*
G01X1200200Y295630D02*
X1263700D01*
Y278690D01*
X1260520Y273270D01*
X1256290Y269890D01*
X1247820Y268530D01*
X1239360Y269890D01*
X1234070Y273950D01*
X1230890Y278690D01*
Y295630D01*
G01Y278690D02*
X1200200Y268530D01*
G01X1212900Y241100D02*
X1205490Y237040D01*
X1201260Y231620D01*
X1200200Y225520D01*
X1201260Y220100D01*
X1206550Y214680D01*
X1212900Y211300D01*
X1219250Y210620D01*
X1226660Y211980D01*
X1231950Y216720D01*
X1234070Y221460D01*
Y227550D01*
G01Y221460D02*
X1237240Y217390D01*
X1242530Y214010D01*
X1248880Y212650D01*
X1255230Y214010D01*
X1260520Y217390D01*
X1263700Y223490D01*
X1262640Y229590D01*
X1258410Y235680D01*
G01X1200200Y162190D02*
X1263700D01*
X1218190Y187250D01*
Y153390D01*
G01X1375200Y212400D02*
Y147400D01*
X1285200D01*
Y212400D01*
G01X1016420Y414810D02*
X1012360Y417980D01*
X1007620Y420100D01*
X1002200D01*
X996100Y416920D01*
X991360Y411630D01*
X987970Y405280D01*
X985260Y394700D01*
X984590Y385170D01*
X985940Y375650D01*
X987970Y369300D01*
X992040Y362950D01*
X996780Y358720D01*
X1001520Y356600D01*
X1006260D01*
X1011000Y358720D01*
X1015070Y361890D01*
X1018450Y366120D01*
G01X1065530Y356600D02*
Y420100D01*
X1040470Y374590D01*
X1074330D01*
G01X1121410Y356600D02*
Y420100D01*
X1096350Y374590D01*
X1130210D01*
G01X1073800Y248400D02*
X1128800D01*
Y328400D01*
X1073800D01*
G01X1033800Y248400D02*
X978800D01*
Y328400D01*
X1033800D01*
G01X1375200Y252400D02*
Y317400D01*
X1285200D01*
Y252400D01*
G01X1199500Y520830D02*
X1263000D01*
Y503890D01*
X1259820Y498470D01*
X1255590Y495090D01*
X1247120Y493730D01*
X1238660Y495090D01*
X1233370Y499150D01*
X1230190Y503890D01*
Y520830D01*
G01Y503890D02*
X1199500Y493730D01*
G01X1212200Y466300D02*
X1204790Y462240D01*
X1200560Y456820D01*
X1199500Y450720D01*
X1200560Y445300D01*
X1205850Y439880D01*
X1212200Y436500D01*
X1218550Y435820D01*
X1225960Y437180D01*
X1231250Y441920D01*
X1233370Y446660D01*
Y452750D01*
G01Y446660D02*
X1236540Y442590D01*
X1241830Y439210D01*
X1248180Y437850D01*
X1254530Y439210D01*
X1259820Y442590D01*
X1263000Y448690D01*
X1261940Y454790D01*
X1257710Y460880D01*
G01X1212200Y410420D02*
X1204790Y406360D01*
X1200560Y400940D01*
X1199500Y394840D01*
X1200560Y389420D01*
X1205850Y384000D01*
X1212200Y380620D01*
X1218550Y379940D01*
X1225960Y381300D01*
X1231250Y386040D01*
X1233370Y390780D01*
Y396870D01*
G01Y390780D02*
X1236540Y386710D01*
X1241830Y383330D01*
X1248180Y381970D01*
X1254530Y383330D01*
X1259820Y386710D01*
X1263000Y392810D01*
X1261940Y398910D01*
X1257710Y405000D01*
G01X1374500Y437600D02*
Y372600D01*
X1284500D01*
Y437600D01*
G01X1374500Y477600D02*
Y542600D01*
X1284500D01*
Y477600D01*
G01X1155010Y929380D02*
X1158180Y933440D01*
X1160300Y938180D01*
Y943600D01*
X1157120Y949700D01*
X1151830Y954440D01*
X1145480Y957830D01*
X1134900Y960540D01*
X1125370Y961210D01*
X1115850Y959860D01*
X1109500Y957830D01*
X1103150Y953760D01*
X1098920Y949020D01*
X1096800Y944280D01*
Y939540D01*
X1098920Y934800D01*
X1102090Y930730D01*
X1106320Y927350D01*
G01X1096800Y880270D02*
X1160300D01*
X1114790Y905330D01*
Y871470D01*
G01X1104210Y844040D02*
X1098920Y839290D01*
X1096800Y833870D01*
X1098920Y828460D01*
X1105260Y823710D01*
X1114790Y820330D01*
X1124320Y818970D01*
X1135960D01*
X1145480Y820330D01*
X1153950Y823710D01*
X1158180Y827780D01*
X1160300Y832520D01*
X1158180Y837940D01*
X1153950Y842000D01*
X1147600Y844710D01*
X1139130Y846070D01*
X1131730Y844710D01*
X1124320Y841330D01*
X1120080Y837260D01*
X1119020Y832520D01*
X1121140Y827100D01*
X1126430Y823040D01*
X1135960Y818970D01*
G01X1008200Y959430D02*
X1071700D01*
Y942490D01*
X1068520Y937070D01*
X1064290Y933690D01*
X1055820Y932330D01*
X1047360Y933690D01*
X1042070Y937750D01*
X1038890Y942490D01*
Y959430D01*
G01Y942490D02*
X1008200Y932330D01*
G01X1020900Y904900D02*
X1013490Y900840D01*
X1009260Y895420D01*
X1008200Y889320D01*
X1009260Y883900D01*
X1014550Y878480D01*
X1020900Y875100D01*
X1027250Y874420D01*
X1034660Y875780D01*
X1039950Y880520D01*
X1042070Y885260D01*
Y891350D01*
G01Y885260D02*
X1045240Y881190D01*
X1050530Y877810D01*
X1056880Y876450D01*
X1063230Y877810D01*
X1068520Y881190D01*
X1071700Y887290D01*
X1070640Y893390D01*
X1066410Y899480D01*
G01X1061120Y846990D02*
X1067470Y842930D01*
X1070640Y838180D01*
X1071700Y832770D01*
X1069580Y825990D01*
X1064290Y821250D01*
X1057940Y819900D01*
X1051590Y820570D01*
X1046300Y823280D01*
X1035720Y836830D01*
X1028310Y842930D01*
X1017720Y846990D01*
X1008200Y848340D01*
Y819900D01*
G01X994600Y1150400D02*
X1064600D01*
G01X1029600Y1115400D02*
Y1185400D01*
G01X1122600Y1388400D02*
X1362600D01*
Y1218400D01*
X1122600D01*
Y1388400D01*
G01X1019100Y1617380D02*
X973590D01*
X964060Y1614670D01*
X957720Y1609250D01*
X955600Y1602480D01*
X957720Y1595710D01*
X964060Y1590290D01*
X973590Y1587580D01*
X1019100D01*
G01X982060Y1559470D02*
X989470Y1554730D01*
X993700Y1550660D01*
X995820Y1545250D01*
X993700Y1540500D01*
X989470Y1537120D01*
X983120Y1534410D01*
X975710Y1533730D01*
X969360Y1534410D01*
X963010Y1537120D01*
X957720Y1541180D01*
X955600Y1545920D01*
X957720Y1551340D01*
X964060Y1556080D01*
X973590Y1558790D01*
X984170Y1559470D01*
X997930Y1558120D01*
X1005340Y1556080D01*
X1012750Y1552700D01*
X1018040Y1547950D01*
X1019100Y1543210D01*
X1016980Y1538470D01*
X1011690Y1535080D01*
G01X1059400Y1512200D02*
Y1452200D01*
X1379400D01*
Y1512200D01*
G01Y1712200D02*
Y1772200D01*
X1059400D01*
Y1712200D01*
G01X1031000Y1984000D02*
X976000D01*
Y1904000D01*
X1031000D01*
G01X1071000Y1984000D02*
X1126000D01*
Y1904000D01*
X1071000D01*
G01X1031000Y1888400D02*
X976000D01*
Y1808400D01*
X1031000D01*
G01X1071000Y1888400D02*
X1126000D01*
Y1808400D01*
X1071000D01*
G01X1186800Y1973600D02*
X1426800D01*
Y1803600D01*
X1186800D01*
Y1973600D01*
G01X1011220Y2367210D02*
X1007160Y2370380D01*
X1002420Y2372500D01*
X997000D01*
X990900Y2369320D01*
X986160Y2364030D01*
X982770Y2357680D01*
X980060Y2347100D01*
X979390Y2337570D01*
X980740Y2328050D01*
X982770Y2321700D01*
X986840Y2315350D01*
X991580Y2311120D01*
X996320Y2309000D01*
X1001060D01*
X1005800Y2311120D01*
X1009870Y2314290D01*
X1013250Y2318520D01*
G01X1037300D02*
X1041360Y2313230D01*
X1046100Y2310060D01*
X1052200Y2309000D01*
X1058300Y2311120D01*
X1063040Y2315350D01*
X1066420Y2322760D01*
X1067100Y2331220D01*
X1065750Y2339690D01*
X1062360Y2344980D01*
X1057620Y2349220D01*
X1052880Y2350270D01*
X1048140Y2349220D01*
X1042040Y2344980D01*
X1044070Y2372500D01*
X1062360D01*
G01X1096560Y2316410D02*
X1101310Y2311120D01*
X1106730Y2309000D01*
X1112140Y2311120D01*
X1116890Y2317460D01*
X1120270Y2326990D01*
X1121630Y2336520D01*
Y2348160D01*
X1120270Y2357680D01*
X1116890Y2366150D01*
X1112820Y2370380D01*
X1108080Y2372500D01*
X1102660Y2370380D01*
X1098600Y2366150D01*
X1095890Y2359800D01*
X1094530Y2351330D01*
X1095890Y2343930D01*
X1099270Y2336520D01*
X1103340Y2332280D01*
X1108080Y2331220D01*
X1113500Y2333340D01*
X1117560Y2338630D01*
X1121630Y2348160D01*
G01X1011220Y2271610D02*
X1007160Y2274780D01*
X1002420Y2276900D01*
X997000D01*
X990900Y2273720D01*
X986160Y2268430D01*
X982770Y2262080D01*
X980060Y2251500D01*
X979390Y2241970D01*
X980740Y2232450D01*
X982770Y2226100D01*
X986840Y2219750D01*
X991580Y2215520D01*
X996320Y2213400D01*
X1001060D01*
X1005800Y2215520D01*
X1009870Y2218690D01*
X1013250Y2222920D01*
G01X1037300D02*
X1041360Y2217630D01*
X1046100Y2214460D01*
X1052200Y2213400D01*
X1058300Y2215520D01*
X1063040Y2219750D01*
X1066420Y2227160D01*
X1067100Y2235620D01*
X1065750Y2244090D01*
X1062360Y2249380D01*
X1057620Y2253620D01*
X1052880Y2254670D01*
X1048140Y2253620D01*
X1042040Y2249380D01*
X1044070Y2276900D01*
X1062360D01*
G01X1108080Y2213400D02*
X1112820Y2214460D01*
X1118240Y2217630D01*
X1121630Y2222920D01*
X1122980Y2230330D01*
X1121630Y2237740D01*
X1117560Y2244090D01*
X1111470Y2247270D01*
X1104690D01*
X1100630Y2249380D01*
X1097240Y2254670D01*
X1095890Y2262080D01*
X1097920Y2269490D01*
X1102660Y2274780D01*
X1108080Y2276900D01*
X1113500Y2274780D01*
X1118240Y2269490D01*
X1120270Y2262080D01*
X1118920Y2254670D01*
X1115530Y2249380D01*
X1111470Y2247270D01*
X1104690D01*
X1098600Y2244090D01*
X1094530Y2237740D01*
X1093180Y2230330D01*
X1094530Y2222920D01*
X1097920Y2217630D01*
X1103340Y2214460D01*
X1108080Y2213400D01*
G01X936400Y2188400D02*
X1176400D01*
Y2018400D01*
X936400D01*
Y2188400D01*
G01X1565720Y-2307600D02*
Y-2279030D01*
X1552170Y-2244100D01*
G01X1579270D02*
X1565720Y-2279030D01*
G01X1629730Y-2307600D02*
Y-2244100D01*
X1604670Y-2289610D01*
X1638530D01*
G01X1395400Y-1907600D02*
X1775400D01*
Y-2207600D01*
X1395400D01*
Y-1907600D01*
G01X1380800Y-2001400D02*
Y-2056400D01*
X1300800D01*
Y-2001400D01*
G01X1380800Y-1961400D02*
Y-1906400D01*
X1300800D01*
Y-1961400D01*
G01X1400220Y-1807590D02*
X1396160Y-1804420D01*
X1391420Y-1802300D01*
X1386000D01*
X1379900Y-1805480D01*
X1375160Y-1810770D01*
X1371770Y-1817120D01*
X1369060Y-1827700D01*
X1368390Y-1837230D01*
X1369740Y-1846750D01*
X1371770Y-1853100D01*
X1375840Y-1859450D01*
X1380580Y-1863680D01*
X1385320Y-1865800D01*
X1390060D01*
X1394800Y-1863680D01*
X1398870Y-1860510D01*
X1402250Y-1856280D01*
G01X1449330Y-1865800D02*
Y-1802300D01*
X1424270Y-1847810D01*
X1458130D01*
G01X1484210Y-1812880D02*
X1488270Y-1806530D01*
X1493020Y-1803360D01*
X1498430Y-1802300D01*
X1505210Y-1804420D01*
X1509950Y-1809710D01*
X1511300Y-1816060D01*
X1510630Y-1822410D01*
X1507920Y-1827700D01*
X1494370Y-1838280D01*
X1488270Y-1845690D01*
X1484210Y-1856280D01*
X1482860Y-1865800D01*
X1511300D01*
G01X1380000Y-825000D02*
X1445000D01*
Y-915000D01*
X1380000D01*
G01X1730800Y-929200D02*
X1490800D01*
Y-759200D01*
X1730800D01*
Y-929200D01*
G01X1460000Y-595400D02*
X1470000D01*
Y-715400D01*
X1360000D01*
G01X1671820Y-538790D02*
X1667760Y-535620D01*
X1663020Y-533500D01*
X1657600D01*
X1651500Y-536680D01*
X1646760Y-541970D01*
X1643370Y-548320D01*
X1640660Y-558900D01*
X1639990Y-568430D01*
X1641340Y-577950D01*
X1643370Y-584300D01*
X1647440Y-590650D01*
X1652180Y-594880D01*
X1656920Y-597000D01*
X1661660D01*
X1666400Y-594880D01*
X1670470Y-591710D01*
X1673850Y-587480D01*
G01X1720930Y-597000D02*
Y-533500D01*
X1695870Y-579010D01*
X1729730D01*
G01X1767330Y-597000D02*
X1768680Y-583240D01*
X1770710Y-571600D01*
X1773420Y-561020D01*
X1776810Y-549380D01*
X1782230Y-533500D01*
X1755130D01*
G01X1643400Y-643000D02*
X1558400D01*
Y-483000D01*
X1643400D01*
G01X1415420Y-300000D02*
Y-236500D01*
X1428970D01*
X1434380Y-239680D01*
X1438450Y-243910D01*
X1441840Y-250260D01*
X1444540Y-257670D01*
X1445220Y-268250D01*
X1444540Y-278830D01*
X1441840Y-286240D01*
X1438450Y-292590D01*
X1434380Y-296830D01*
X1428970Y-300000D01*
X1415420D01*
G01X1471300Y-287300D02*
X1475360Y-294710D01*
X1480780Y-298940D01*
X1486880Y-300000D01*
X1492300Y-298940D01*
X1497720Y-293650D01*
X1501100Y-287300D01*
X1501780Y-280950D01*
X1500420Y-273540D01*
X1495680Y-268250D01*
X1490940Y-266130D01*
X1484850D01*
G01X1490940D02*
X1495010Y-262960D01*
X1498390Y-257670D01*
X1499750Y-251320D01*
X1498390Y-244970D01*
X1495010Y-239680D01*
X1488910Y-236500D01*
X1482810Y-237560D01*
X1476720Y-241790D01*
G01X1366770Y-430000D02*
Y-366500D01*
X1383710D01*
X1389130Y-369680D01*
X1392510Y-373910D01*
X1393870Y-382380D01*
X1392510Y-390840D01*
X1388450Y-396130D01*
X1383710Y-399310D01*
X1366770D01*
G01X1383710D02*
X1393870Y-430000D01*
G01X1423330Y-377080D02*
X1427390Y-370730D01*
X1432140Y-367560D01*
X1437550Y-366500D01*
X1444330Y-368620D01*
X1449070Y-373910D01*
X1450420Y-380260D01*
X1449750Y-386610D01*
X1447040Y-391900D01*
X1433490Y-402480D01*
X1427390Y-409890D01*
X1423330Y-420480D01*
X1421980Y-430000D01*
X1450420D01*
G01X1479210Y-377080D02*
X1483270Y-370730D01*
X1488020Y-367560D01*
X1493430Y-366500D01*
X1500210Y-368620D01*
X1504950Y-373910D01*
X1506300Y-380260D01*
X1505630Y-386610D01*
X1502920Y-391900D01*
X1489370Y-402480D01*
X1483270Y-409890D01*
X1479210Y-420480D01*
X1477860Y-430000D01*
X1506300D01*
G01X1407600Y284000D02*
X1915600D01*
Y30000D01*
X1407600D01*
Y284000D01*
G01X1619520Y70900D02*
Y25390D01*
X1622230Y15860D01*
X1627650Y9520D01*
X1634420Y7400D01*
X1641190Y9520D01*
X1646610Y15860D01*
X1649320Y25390D01*
Y70900D01*
G01X1675400Y16920D02*
X1679460Y11630D01*
X1684200Y8460D01*
X1690300Y7400D01*
X1696400Y9520D01*
X1701140Y13750D01*
X1704520Y21160D01*
X1705200Y29620D01*
X1703850Y38090D01*
X1700460Y43380D01*
X1695720Y47620D01*
X1690980Y48670D01*
X1686240Y47620D01*
X1680140Y43380D01*
X1682170Y70900D01*
X1700460D01*
G01X1620900Y-167400D02*
X1600900D01*
Y-17400D01*
X1620900D01*
G01X1407600Y792000D02*
X1915600D01*
Y538000D01*
X1407600D01*
Y792000D01*
G01Y538000D02*
X1915600D01*
Y284000D01*
X1407600D01*
Y538000D01*
G01X1486820Y1177910D02*
X1482760Y1181080D01*
X1478020Y1183200D01*
X1472600D01*
X1466500Y1180020D01*
X1461760Y1174730D01*
X1458370Y1168380D01*
X1455660Y1157800D01*
X1454990Y1148270D01*
X1456340Y1138750D01*
X1458370Y1132400D01*
X1462440Y1126050D01*
X1467180Y1121820D01*
X1471920Y1119700D01*
X1476660D01*
X1481400Y1121820D01*
X1485470Y1124990D01*
X1488850Y1129220D01*
G01X1512900D02*
X1516960Y1123930D01*
X1521700Y1120760D01*
X1527800Y1119700D01*
X1533900Y1121820D01*
X1538640Y1126050D01*
X1542020Y1133460D01*
X1542700Y1141920D01*
X1541350Y1150390D01*
X1537960Y1155680D01*
X1533220Y1159920D01*
X1528480Y1160970D01*
X1523740Y1159920D01*
X1517640Y1155680D01*
X1519670Y1183200D01*
X1537960D01*
G01X1583680Y1119700D02*
Y1183200D01*
X1575550Y1170500D01*
G01Y1119700D02*
X1591810D01*
G01X1486820Y1079610D02*
X1482760Y1082780D01*
X1478020Y1084900D01*
X1472600D01*
X1466500Y1081720D01*
X1461760Y1076430D01*
X1458370Y1070080D01*
X1455660Y1059500D01*
X1454990Y1049970D01*
X1456340Y1040450D01*
X1458370Y1034100D01*
X1462440Y1027750D01*
X1467180Y1023520D01*
X1471920Y1021400D01*
X1476660D01*
X1481400Y1023520D01*
X1485470Y1026690D01*
X1488850Y1030920D01*
G01X1512900D02*
X1516960Y1025630D01*
X1521700Y1022460D01*
X1527800Y1021400D01*
X1533900Y1023520D01*
X1538640Y1027750D01*
X1542020Y1035160D01*
X1542700Y1043620D01*
X1541350Y1052090D01*
X1537960Y1057380D01*
X1533220Y1061620D01*
X1528480Y1062670D01*
X1523740Y1061620D01*
X1517640Y1057380D01*
X1519670Y1084900D01*
X1537960D01*
G01X1570810Y1074320D02*
X1574870Y1080670D01*
X1579620Y1083840D01*
X1585030Y1084900D01*
X1591810Y1082780D01*
X1596550Y1077490D01*
X1597900Y1071140D01*
X1597230Y1064790D01*
X1594520Y1059500D01*
X1580970Y1048920D01*
X1574870Y1041510D01*
X1570810Y1030920D01*
X1569460Y1021400D01*
X1597900D01*
G01X1390000Y1390400D02*
X1630000D01*
Y1220400D01*
X1390000D01*
Y1390400D01*
G01X1712600Y1718200D02*
Y1633200D01*
X1552600D01*
Y1718200D01*
G01X1506600Y1574700D02*
X1451600D01*
Y1494700D01*
X1506600D01*
G01X1546600Y1574700D02*
X1601600D01*
Y1494700D01*
X1546600D01*
G01X1506600Y1486400D02*
X1451600D01*
Y1406400D01*
X1506600D01*
G01X1546600Y1486400D02*
X1601600D01*
Y1406400D01*
X1546600D01*
G01X1707600Y1522600D02*
X1642600D01*
Y1612600D01*
X1707600D01*
G01X1670810Y2092980D02*
X1673980Y2097040D01*
X1676100Y2101780D01*
Y2107200D01*
X1672920Y2113300D01*
X1667630Y2118040D01*
X1661280Y2121430D01*
X1650700Y2124140D01*
X1641170Y2124810D01*
X1631650Y2123460D01*
X1625300Y2121430D01*
X1618950Y2117360D01*
X1614720Y2112620D01*
X1612600Y2107880D01*
Y2103140D01*
X1614720Y2098400D01*
X1617890Y2094330D01*
X1622120Y2090950D01*
G01X1639060Y2064870D02*
X1646470Y2060130D01*
X1650700Y2056060D01*
X1652820Y2050650D01*
X1650700Y2045900D01*
X1646470Y2042520D01*
X1640120Y2039810D01*
X1632710Y2039130D01*
X1626360Y2039810D01*
X1620010Y2042520D01*
X1614720Y2046580D01*
X1612600Y2051320D01*
X1614720Y2056740D01*
X1621060Y2061480D01*
X1630590Y2064190D01*
X1641170Y2064870D01*
X1654930Y2063520D01*
X1662340Y2061480D01*
X1669750Y2058100D01*
X1675040Y2053350D01*
X1676100Y2048610D01*
X1673980Y2043870D01*
X1668690Y2040480D01*
G01X1676100Y1996120D02*
X1673980Y2001540D01*
X1668690Y2005600D01*
X1662340Y2008310D01*
X1653870Y2010340D01*
X1644350Y2011020D01*
X1634820Y2010340D01*
X1626360Y2008310D01*
X1620010Y2005600D01*
X1614720Y2001540D01*
X1612600Y1996120D01*
X1614720Y1990700D01*
X1620010Y1986640D01*
X1626360Y1983930D01*
X1634820Y1981900D01*
X1644350Y1981220D01*
X1653870Y1981900D01*
X1662340Y1983930D01*
X1668690Y1986640D01*
X1673980Y1990700D01*
X1676100Y1996120D01*
G01X1712600Y1848200D02*
Y1933200D01*
X1552600D01*
Y1848200D01*
G01X1510810Y1947980D02*
X1513980Y1952040D01*
X1516100Y1956780D01*
Y1962200D01*
X1512920Y1968300D01*
X1507630Y1973040D01*
X1501280Y1976430D01*
X1490700Y1979140D01*
X1481170Y1979810D01*
X1471650Y1978460D01*
X1465300Y1976430D01*
X1458950Y1972360D01*
X1454720Y1967620D01*
X1452600Y1962880D01*
Y1958140D01*
X1454720Y1953400D01*
X1457890Y1949330D01*
X1462120Y1945950D01*
G01X1479060Y1919870D02*
X1486470Y1915130D01*
X1490700Y1911060D01*
X1492820Y1905650D01*
X1490700Y1900900D01*
X1486470Y1897520D01*
X1480120Y1894810D01*
X1472710Y1894130D01*
X1466360Y1894810D01*
X1460010Y1897520D01*
X1454720Y1901580D01*
X1452600Y1906320D01*
X1454720Y1911740D01*
X1461060Y1916480D01*
X1470590Y1919190D01*
X1481170Y1919870D01*
X1494930Y1918520D01*
X1502340Y1916480D01*
X1509750Y1913100D01*
X1515040Y1908350D01*
X1516100Y1903610D01*
X1513980Y1898870D01*
X1508690Y1895480D01*
G01X1452600Y1851120D02*
X1516100D01*
X1503400Y1859250D01*
G01X1452600D02*
Y1842990D01*
G01X1527600Y1748200D02*
Y1803200D01*
X1447600D01*
Y1748200D01*
G01X1527600Y1708200D02*
Y1653200D01*
X1447600D01*
Y1708200D01*
G01X2074800Y-2155400D02*
X1834800D01*
Y-1985400D01*
X2074800D01*
Y-2155400D01*
G01X1850220Y-1907590D02*
X1846160Y-1904420D01*
X1841420Y-1902300D01*
X1836000D01*
X1829900Y-1905480D01*
X1825160Y-1910770D01*
X1821770Y-1917120D01*
X1819060Y-1927700D01*
X1818390Y-1937230D01*
X1819740Y-1946750D01*
X1821770Y-1953100D01*
X1825840Y-1959450D01*
X1830580Y-1963680D01*
X1835320Y-1965800D01*
X1840060D01*
X1844800Y-1963680D01*
X1848870Y-1960510D01*
X1852250Y-1956280D01*
G01X1899330Y-1965800D02*
Y-1902300D01*
X1874270Y-1947810D01*
X1908130D01*
G01X1932180Y-1956280D02*
X1936240Y-1961570D01*
X1940980Y-1964740D01*
X1947080Y-1965800D01*
X1953180Y-1963680D01*
X1957920Y-1959450D01*
X1961300Y-1952040D01*
X1961980Y-1943580D01*
X1960630Y-1935110D01*
X1957240Y-1929820D01*
X1952500Y-1925580D01*
X1947760Y-1924530D01*
X1943020Y-1925580D01*
X1936920Y-1929820D01*
X1938950Y-1902300D01*
X1957240D01*
G01X1790000Y-1879200D02*
X1845000D01*
Y-1799200D01*
X1790000D01*
G01X1750000Y-1879200D02*
X1695000D01*
Y-1799200D01*
X1750000D01*
G01X2020000Y-1727570D02*
X2083500D01*
Y-1744510D01*
X2080320Y-1749930D01*
X2076090Y-1753310D01*
X2067620Y-1754670D01*
X2059160Y-1753310D01*
X2053870Y-1749250D01*
X2050690Y-1744510D01*
Y-1727570D01*
G01Y-1744510D02*
X2020000Y-1754670D01*
G01X2072920Y-1784130D02*
X2079270Y-1788190D01*
X2082440Y-1792940D01*
X2083500Y-1798350D01*
X2081380Y-1805130D01*
X2076090Y-1809870D01*
X2069740Y-1811220D01*
X2063390Y-1810550D01*
X2058100Y-1807840D01*
X2047520Y-1794290D01*
X2040110Y-1788190D01*
X2029520Y-1784130D01*
X2020000Y-1782780D01*
Y-1811220D01*
G01X2029520Y-1837980D02*
X2024230Y-1842040D01*
X2021060Y-1846780D01*
X2020000Y-1852880D01*
X2022120Y-1858980D01*
X2026350Y-1863720D01*
X2033760Y-1867100D01*
X2042220Y-1867780D01*
X2050690Y-1866430D01*
X2055980Y-1863040D01*
X2060220Y-1858300D01*
X2061270Y-1853560D01*
X2060220Y-1848820D01*
X2055980Y-1842720D01*
X2083500Y-1844750D01*
Y-1863040D01*
G01X1905000Y-1769200D02*
Y-1704200D01*
X1995000D01*
Y-1769200D01*
G01X1905000Y-1809200D02*
Y-1874200D01*
X1995000D01*
Y-1809200D01*
G01X2009300Y-1208770D02*
X1945800D01*
Y-1235870D01*
G01X1955320Y-1263300D02*
X1950030Y-1267360D01*
X1946860Y-1272100D01*
X1945800Y-1278200D01*
X1947920Y-1284300D01*
X1952150Y-1289040D01*
X1959560Y-1292420D01*
X1968020Y-1293100D01*
X1976490Y-1291750D01*
X1981780Y-1288360D01*
X1986020Y-1283620D01*
X1987070Y-1278880D01*
X1986020Y-1274140D01*
X1981780Y-1268040D01*
X2009300Y-1270070D01*
Y-1288360D01*
G01X2025800Y-922000D02*
Y-1162000D01*
X1925800D01*
Y-922000D01*
X2025800D01*
G01X2023400Y-719600D02*
X1933400D01*
Y-579600D01*
X2023400D01*
G01X1773400Y-643000D02*
X1858400D01*
Y-483000D01*
X1773400D01*
G01X1972170Y-864200D02*
Y-800700D01*
X1989110D01*
X1994530Y-803880D01*
X1997910Y-808110D01*
X1999270Y-816580D01*
X1997910Y-825040D01*
X1993850Y-830330D01*
X1989110Y-833510D01*
X1972170D01*
G01X1989110D02*
X1999270Y-864200D01*
G01X2026700Y-851500D02*
X2030760Y-858910D01*
X2036180Y-863140D01*
X2042280Y-864200D01*
X2047700Y-863140D01*
X2053120Y-857850D01*
X2056500Y-851500D01*
X2057180Y-845150D01*
X2055820Y-837740D01*
X2051080Y-832450D01*
X2046340Y-830330D01*
X2040250D01*
G01X2046340D02*
X2050410Y-827160D01*
X2053790Y-821870D01*
X2055150Y-815520D01*
X2053790Y-809170D01*
X2050410Y-803880D01*
X2044310Y-800700D01*
X2038210Y-801760D01*
X2032120Y-805990D01*
G01X2097480Y-864200D02*
Y-800700D01*
X2089350Y-813400D01*
G01Y-864200D02*
X2105610D01*
G01X1834600Y-870800D02*
X1769600D01*
Y-780800D01*
X1834600D01*
G01X1874600Y-870800D02*
X1939600D01*
Y-780800D01*
X1874600D01*
G01X2030100Y-370220D02*
X2093600D01*
Y-383770D01*
X2090420Y-389180D01*
X2086190Y-393250D01*
X2079840Y-396640D01*
X2072430Y-399340D01*
X2061850Y-400020D01*
X2051270Y-399340D01*
X2043860Y-396640D01*
X2037510Y-393250D01*
X2033270Y-389180D01*
X2030100Y-383770D01*
Y-370220D01*
G01Y-449130D02*
X2093600D01*
X2048090Y-424070D01*
Y-457930D01*
G01X1934900Y-478200D02*
X2014900D01*
Y-490200D01*
X1934900D01*
Y-478200D01*
G01X1955800Y-490200D02*
Y-478200D01*
G01X1981200Y-490200D02*
Y-478200D01*
G01X2006600Y-490200D02*
Y-478200D01*
G01X1934900Y-482600D02*
X2014900D01*
G01X1934900Y-500200D02*
X2014900D01*
G01X1934900D02*
Y-437200D01*
G01Y-406200D02*
Y-361200D01*
G01D02*
X2014900D01*
G01X1715620Y-326990D02*
X1711560Y-323820D01*
X1706820Y-321700D01*
X1701400D01*
X1695300Y-324880D01*
X1690560Y-330170D01*
X1687170Y-336520D01*
X1684460Y-347100D01*
X1683790Y-356630D01*
X1685140Y-366150D01*
X1687170Y-372500D01*
X1691240Y-378850D01*
X1695980Y-383080D01*
X1700720Y-385200D01*
X1705460D01*
X1710200Y-383080D01*
X1714270Y-379910D01*
X1717650Y-375680D01*
G01X1764730Y-385200D02*
Y-321700D01*
X1739670Y-367210D01*
X1773530D01*
G01X1812480Y-385200D02*
X1817220Y-384140D01*
X1822640Y-380970D01*
X1826030Y-375680D01*
X1827380Y-368270D01*
X1826030Y-360860D01*
X1821960Y-354510D01*
X1815870Y-351330D01*
X1809090D01*
X1805030Y-349220D01*
X1801640Y-343930D01*
X1800290Y-336520D01*
X1802320Y-329110D01*
X1807060Y-323820D01*
X1812480Y-321700D01*
X1817900Y-323820D01*
X1822640Y-329110D01*
X1824670Y-336520D01*
X1823320Y-343930D01*
X1819930Y-349220D01*
X1815870Y-351330D01*
X1809090D01*
X1803000Y-354510D01*
X1798930Y-360860D01*
X1797580Y-368270D01*
X1798930Y-375680D01*
X1802320Y-380970D01*
X1807740Y-384140D01*
X1812480Y-385200D01*
G01X1774600Y-489800D02*
X1829600D01*
Y-409800D01*
X1774600D01*
G01X1734600Y-489800D02*
X1679600D01*
Y-409800D01*
X1734600D01*
G01X1948370Y119700D02*
X1951760Y113350D01*
X1955820Y109120D01*
X1960570Y107000D01*
X1965980Y109120D01*
X1970050Y113350D01*
X1974110Y119700D01*
X1975470Y128170D01*
Y170500D01*
G01X2017800Y107000D02*
Y170500D01*
X2009670Y157800D01*
G01Y107000D02*
X2025930D01*
G01X2062160Y114410D02*
X2066910Y109120D01*
X2072330Y107000D01*
X2077740Y109120D01*
X2082490Y115460D01*
X2085870Y124990D01*
X2087230Y134520D01*
Y146160D01*
X2085870Y155680D01*
X2082490Y164150D01*
X2078420Y168380D01*
X2073680Y170500D01*
X2068260Y168380D01*
X2064200Y164150D01*
X2061490Y157800D01*
X2060130Y149330D01*
X2061490Y141930D01*
X2064870Y134520D01*
X2068940Y130280D01*
X2073680Y129220D01*
X2079100Y131340D01*
X2083160Y136630D01*
X2087230Y146160D01*
G01X1720900Y-167400D02*
X1670900D01*
G01X1770900D02*
X1790900D01*
Y-17400D01*
X1770900D01*
G01X1948370Y383700D02*
X1951760Y377350D01*
X1955820Y373120D01*
X1960570Y371000D01*
X1965980Y373120D01*
X1970050Y377350D01*
X1974110Y383700D01*
X1975470Y392170D01*
Y434500D01*
G01X2017800Y371000D02*
Y434500D01*
X2009670Y421800D01*
G01Y371000D02*
X2025930D01*
G01X2073680D02*
X2078420Y372060D01*
X2083840Y375230D01*
X2087230Y380520D01*
X2088580Y387930D01*
X2087230Y395340D01*
X2083160Y401690D01*
X2077070Y404870D01*
X2070290D01*
X2066230Y406980D01*
X2062840Y412270D01*
X2061490Y419680D01*
X2063520Y427090D01*
X2068260Y432380D01*
X2073680Y434500D01*
X2079100Y432380D01*
X2083840Y427090D01*
X2085870Y419680D01*
X2084520Y412270D01*
X2081130Y406980D01*
X2077070Y404870D01*
X2070290D01*
X2064200Y401690D01*
X2060130Y395340D01*
X2058780Y387930D01*
X2060130Y380520D01*
X2063520Y375230D01*
X2068940Y372060D01*
X2073680Y371000D01*
G01X1958370Y647700D02*
X1961760Y641350D01*
X1965820Y637120D01*
X1970570Y635000D01*
X1975980Y637120D01*
X1980050Y641350D01*
X1984110Y647700D01*
X1985470Y656170D01*
Y698500D01*
G01X2027800Y635000D02*
Y698500D01*
X2019670Y685800D01*
G01Y635000D02*
X2035930D01*
G01X2082330D02*
X2083680Y648760D01*
X2085710Y660400D01*
X2088420Y670980D01*
X2091810Y682620D01*
X2097230Y698500D01*
X2070130D01*
G01X1905200Y985200D02*
X1970200D01*
Y895200D01*
X1905200D01*
G01X1865200Y985200D02*
X1800200D01*
Y895200D01*
X1865200D01*
G01X1993000Y1022400D02*
Y1132400D01*
X2005000D01*
Y1022400D01*
X1993000D01*
G01Y1117600D02*
X2005000D01*
G01X1993000Y1092200D02*
X2005000D01*
G01X1993000Y1066800D02*
X2005000D01*
G01X1993000Y1041400D02*
X2005000D01*
G01X1907000Y1132400D02*
X1992000D01*
Y1022400D01*
X1907000D01*
X2015000D01*
Y1132400D01*
X1907000D01*
G01X1817000Y1022400D02*
X1732000D01*
Y1132400D01*
X1817000D01*
G01X1993000Y1185400D02*
Y1295400D01*
X2005000D01*
Y1185400D01*
X1993000D01*
G01Y1295400D02*
X2005000D01*
G01X1993000Y1270000D02*
X2005000D01*
G01X1993000Y1244600D02*
X2005000D01*
G01X1993000Y1219200D02*
X2005000D01*
G01X1993000Y1193800D02*
X2005000D01*
G01X1907000Y1295400D02*
X1992000D01*
Y1185400D01*
X1907000D01*
X2015000D01*
Y1295400D01*
X1907000D01*
G01X1817000Y1185400D02*
X1732000D01*
Y1295400D01*
X1817000D01*
G01X1849170Y1532400D02*
Y1595900D01*
X1866110D01*
X1871530Y1592720D01*
X1874910Y1588490D01*
X1876270Y1580020D01*
X1874910Y1571560D01*
X1870850Y1566270D01*
X1866110Y1563090D01*
X1849170D01*
G01X1866110D02*
X1876270Y1532400D01*
G01X1903700Y1545100D02*
X1907760Y1537690D01*
X1913180Y1533460D01*
X1919280Y1532400D01*
X1924700Y1533460D01*
X1930120Y1538750D01*
X1933500Y1545100D01*
X1934180Y1551450D01*
X1932820Y1558860D01*
X1928080Y1564150D01*
X1923340Y1566270D01*
X1917250D01*
G01X1923340D02*
X1927410Y1569440D01*
X1930790Y1574730D01*
X1932150Y1581080D01*
X1930790Y1587430D01*
X1927410Y1592720D01*
X1921310Y1595900D01*
X1915210Y1594840D01*
X1909120Y1590610D01*
G01X1974480Y1532400D02*
X1979220Y1533460D01*
X1984640Y1536630D01*
X1988030Y1541920D01*
X1989380Y1549330D01*
X1988030Y1556740D01*
X1983960Y1563090D01*
X1977870Y1566270D01*
X1971090D01*
X1967030Y1568380D01*
X1963640Y1573670D01*
X1962290Y1581080D01*
X1964320Y1588490D01*
X1969060Y1593780D01*
X1974480Y1595900D01*
X1979900Y1593780D01*
X1984640Y1588490D01*
X1986670Y1581080D01*
X1985320Y1573670D01*
X1981930Y1568380D01*
X1977870Y1566270D01*
X1971090D01*
X1965000Y1563090D01*
X1960930Y1556740D01*
X1959580Y1549330D01*
X1960930Y1541920D01*
X1964320Y1536630D01*
X1969740Y1533460D01*
X1974480Y1532400D01*
G01X1747600Y1522600D02*
X1812600D01*
Y1612600D01*
X1747600D01*
G01X1908000Y1420800D02*
X1973000D01*
Y1330800D01*
X1908000D01*
G01X1868000Y1420800D02*
X1803000D01*
Y1330800D01*
X1868000D01*
G01X1807600Y1640200D02*
X1742600D01*
Y1730200D01*
X1807600D01*
G01X1847600Y1640200D02*
X1912600D01*
Y1730200D01*
X1847600D01*
G01X1769170Y1764800D02*
Y1828300D01*
X1786110D01*
X1791530Y1825120D01*
X1794910Y1820890D01*
X1796270Y1812420D01*
X1794910Y1803960D01*
X1790850Y1798670D01*
X1786110Y1795490D01*
X1769170D01*
G01X1786110D02*
X1796270Y1764800D01*
G01X1823700Y1777500D02*
X1827760Y1770090D01*
X1833180Y1765860D01*
X1839280Y1764800D01*
X1844700Y1765860D01*
X1850120Y1771150D01*
X1853500Y1777500D01*
X1854180Y1783850D01*
X1852820Y1791260D01*
X1848080Y1796550D01*
X1843340Y1798670D01*
X1837250D01*
G01X1843340D02*
X1847410Y1801840D01*
X1850790Y1807130D01*
X1852150Y1813480D01*
X1850790Y1819830D01*
X1847410Y1825120D01*
X1841310Y1828300D01*
X1835210Y1827240D01*
X1829120Y1823010D01*
G01X1882960Y1772210D02*
X1887710Y1766920D01*
X1893130Y1764800D01*
X1898540Y1766920D01*
X1903290Y1773260D01*
X1906670Y1782790D01*
X1908030Y1792320D01*
Y1803960D01*
X1906670Y1813480D01*
X1903290Y1821950D01*
X1899220Y1826180D01*
X1894480Y1828300D01*
X1889060Y1826180D01*
X1885000Y1821950D01*
X1882290Y1815600D01*
X1880930Y1807130D01*
X1882290Y1799730D01*
X1885670Y1792320D01*
X1889740Y1788080D01*
X1894480Y1787020D01*
X1899900Y1789140D01*
X1903960Y1794430D01*
X1908030Y1803960D01*
G01X2369200Y-1907000D02*
X2679200D01*
G01X2129200Y-1107000D02*
X2109200D01*
Y-1907000D01*
X2129200D01*
G01X2369200Y-1107000D02*
X2679200D01*
G01X2029050Y-690400D02*
Y-626900D01*
X2054790D01*
G01X2045310Y-657590D02*
X2029050D01*
G01X2097800Y-690400D02*
Y-626900D01*
X2089670Y-639600D01*
G01Y-690400D02*
X2105930D01*
G01X2113400Y-719600D02*
X2203400D01*
Y-579600D01*
X2113400D01*
G01X2466600Y-724600D02*
X2226600D01*
Y-554600D01*
X2466600D01*
Y-724600D01*
G01X2014900Y-500200D02*
Y-437200D01*
G01Y-406200D02*
Y-361200D01*
G01X2359600Y-299300D02*
X2119600D01*
Y-129300D01*
X2359600D01*
Y-299300D01*
G01Y-530100D02*
X2119600D01*
Y-360100D01*
X2359600D01*
Y-530100D01*
G01X2119600Y101500D02*
X2359600D01*
Y-68500D01*
X2119600D01*
Y101500D01*
G01X2350800Y604600D02*
Y214600D01*
X3000800D01*
Y2214600D01*
X2350800D01*
Y1824600D01*
G01X2041970Y910200D02*
Y973700D01*
X2058910D01*
X2064330Y970520D01*
X2067710Y966290D01*
X2069070Y957820D01*
X2067710Y949360D01*
X2063650Y944070D01*
X2058910Y940890D01*
X2041970D01*
G01X2058910D02*
X2069070Y910200D01*
G01X2119530D02*
Y973700D01*
X2094470Y928190D01*
X2128330D01*
G01X2152380Y922900D02*
X2156440Y915490D01*
X2161860Y911260D01*
X2167960Y910200D01*
X2173380Y911260D01*
X2178800Y916550D01*
X2182180Y922900D01*
X2182860Y929250D01*
X2181500Y936660D01*
X2176760Y941950D01*
X2172020Y944070D01*
X2165930D01*
G01X2172020D02*
X2176090Y947240D01*
X2179470Y952530D01*
X2180830Y958880D01*
X2179470Y965230D01*
X2176090Y970520D01*
X2169990Y973700D01*
X2163890Y972640D01*
X2157800Y968410D01*
G01X2039420Y1041600D02*
Y1105100D01*
X2052970D01*
X2058380Y1101920D01*
X2062450Y1097690D01*
X2065840Y1091340D01*
X2068540Y1083930D01*
X2069220Y1073350D01*
X2068540Y1062770D01*
X2065840Y1055360D01*
X2062450Y1049010D01*
X2058380Y1044770D01*
X2052970Y1041600D01*
X2039420D01*
G01X2108850D02*
X2110200Y1055360D01*
X2112230Y1067000D01*
X2114940Y1077580D01*
X2118330Y1089220D01*
X2123750Y1105100D01*
X2096650D01*
G01X2039420Y1208600D02*
Y1272100D01*
X2052970D01*
X2058380Y1268920D01*
X2062450Y1264690D01*
X2065840Y1258340D01*
X2068540Y1250930D01*
X2069220Y1240350D01*
X2068540Y1229770D01*
X2065840Y1222360D01*
X2062450Y1216010D01*
X2058380Y1211770D01*
X2052970Y1208600D01*
X2039420D01*
G01X2097330Y1235060D02*
X2102070Y1242470D01*
X2106140Y1246700D01*
X2111550Y1248820D01*
X2116300Y1246700D01*
X2119680Y1242470D01*
X2122390Y1236120D01*
X2123070Y1228710D01*
X2122390Y1222360D01*
X2119680Y1216010D01*
X2115620Y1210720D01*
X2110880Y1208600D01*
X2105460Y1210720D01*
X2100720Y1217060D01*
X2098010Y1226590D01*
X2097330Y1237170D01*
X2098680Y1250930D01*
X2100720Y1258340D01*
X2104100Y1265750D01*
X2108850Y1271040D01*
X2113590Y1272100D01*
X2118330Y1269980D01*
X2121720Y1264690D01*
G01X2034770Y1345800D02*
Y1409300D01*
X2051710D01*
X2057130Y1406120D01*
X2060510Y1401890D01*
X2061870Y1393420D01*
X2060510Y1384960D01*
X2056450Y1379670D01*
X2051710Y1376490D01*
X2034770D01*
G01X2051710D02*
X2061870Y1345800D01*
G01X2112330D02*
Y1409300D01*
X2087270Y1363790D01*
X2121130D01*
G01X2160080Y1409300D02*
X2154660Y1407180D01*
X2150600Y1401890D01*
X2147890Y1395540D01*
X2145860Y1387070D01*
X2145180Y1377550D01*
X2145860Y1368020D01*
X2147890Y1359560D01*
X2150600Y1353210D01*
X2154660Y1347920D01*
X2160080Y1345800D01*
X2165500Y1347920D01*
X2169560Y1353210D01*
X2172270Y1359560D01*
X2174300Y1368020D01*
X2174980Y1377550D01*
X2174300Y1387070D01*
X2172270Y1395540D01*
X2169560Y1401890D01*
X2165500Y1407180D01*
X2160080Y1409300D01*
G01X2575800Y-677900D02*
X2520800D01*
Y-457900D01*
G01X2790800Y-677900D02*
X2695800D01*
G01X2575800Y92100D02*
X2520800D01*
Y-127900D01*
G01X2790800Y92100D02*
X2695800D01*
G01X2919200Y-1107000D02*
X3049200D01*
Y-1907000D01*
X2919200D01*
G01X2950800Y92100D02*
X3040800D01*
Y-677900D01*
X2950800D01*
G54D36*
X931000Y-1641600D03*
Y-1067600D03*
X1312000Y-1641600D03*
X1185000D03*
X1058000D03*
Y-1067600D03*
X1185000D03*
X1312000D03*
X1566000Y-1641600D03*
X1439000D03*
Y-1067600D03*
X1566000D03*
X1820000Y-1641600D03*
X1693000D03*
Y-1067600D03*
X1820000D03*
G54D45*
X1779500Y1077400D03*
X1944500D03*
X1779500Y1240400D03*
X1944500D03*
G54D18*
X-1797600Y-264200D03*
Y-359200D03*
Y-184200D03*
Y-89200D03*
G54D27*
X-1167800Y196200D03*
Y246200D03*
Y296200D03*
Y346200D03*
Y396200D03*
Y446200D03*
Y496200D03*
Y546200D03*
Y596200D03*
Y646200D03*
Y696200D03*
Y746200D03*
Y796200D03*
Y846200D03*
Y896200D03*
Y946200D03*
X22200Y196200D03*
Y546200D03*
Y496200D03*
Y446200D03*
Y396200D03*
Y346200D03*
Y296200D03*
Y246200D03*
Y896200D03*
Y846200D03*
Y796200D03*
Y746200D03*
Y696200D03*
Y646200D03*
Y596200D03*
Y946200D03*
G54D55*
G01X-3000000Y-2300000D02*
Y2300000D01*
G02X-2800000Y2500000I200000J0D01*
G01X2800000D01*
G02X3000000Y2300000I0J-200000D01*
G01Y-2300000D01*
G02X2800000Y-2500000I-200000J0D01*
G01X-2800000D01*
G02X-3000000Y-2300000I0J200000D01*
G54D28*
X-1002000Y1637600D03*
Y2237600D03*
G54D37*
X913200Y-870000D03*
X818200Y-670000D03*
X1008200D03*
X1215000Y-555400D03*
X1310000Y-755400D03*
X1405000Y-555400D03*
G54D19*
X-1699800Y181200D03*
X-1703600Y651200D03*
X-1344800Y-397200D03*
X-1372800Y1181200D03*
X-1322800Y1401200D03*
X-1064800Y-397200D03*
X-434000Y-1644600D03*
X-596200Y-1202200D03*
X-504800Y-397200D03*
X-774800D03*
X-224800D03*
X165800Y-1857600D03*
X73600Y-852200D03*
X75800Y-1054600D03*
X55200Y-397200D03*
X16400Y1372000D03*
X443800Y-1857600D03*
X342800Y-1055400D03*
X615200Y-397200D03*
X335200D03*
X397200Y1031200D03*
X441400Y1663400D03*
X747000Y-1934600D03*
X1242600Y1303400D03*
X1306800Y1888600D03*
X1056400Y2103400D03*
X1610800Y-844200D03*
X1510000Y1305400D03*
X1954800Y-2070400D03*
X2346600Y-639600D03*
X2239600Y-214300D03*
Y-445100D03*
Y16500D03*
G54D46*
X2249200Y-1999500D03*
Y-1014500D03*
X2799200Y-1999500D03*
Y-1014500D03*
G54D38*
X883800Y-196200D03*
X818800D03*
Y3800D03*
X948800Y-196200D03*
Y3800D03*
G54D47*
X2149200Y-1667000D03*
Y-1347000D03*
Y-1427000D03*
Y-1507000D03*
Y-1587000D03*
G54D29*
X-531200Y-1037200D03*
X-701200D03*
Y-907200D03*
X-531200D03*
G54D39*
X757900Y138400D03*
X972900D03*
G54D48*
X2499200Y-1727000D03*
Y-1287000D03*
G54D49*
X2635800Y-637900D03*
Y52100D03*
M02*
