G04 ================== begin FILE IDENTIFICATION RECORD ==================*
G04 Layout Name:  D:/Program/project/single-measure/PCB/single20210218.brd*
G04 Film Name:    drill*
G04 File Format:  Gerber RS274X*
G04 File Origin:  Cadence Allegro 17.2-S058*
G04 Origin Date:  Thu Feb 18 18:40:20 2021*
G04 *
G04 Layer:  BOARD GEOMETRY/DIMENSION*
G04 Layer:  MANUFACTURING/NCLEGEND-1-4*
G04 Layer:  MANUFACTURING/NCDRILL_LEGEND*
G04 Layer:  MANUFACTURING/NCDRILL_FIGURE*
G04 Layer:  BOARD GEOMETRY/DESIGN_OUTLINE*
G04 *
G04 Offset:    (0.0000 0.0000)*
G04 Mirror:    No*
G04 Mode:      Positive*
G04 Rotation:  0*
G04 FullContactRelief:  No*
G04 UndefLineWidth:     0.1520*
G04 ================== end FILE IDENTIFICATION RECORD ====================*
%FSLAX55Y55*MOMM*%
%IR0*IPPOS*OFA0.00000B0.00000*MIA0B0*SFA1.00000B1.00000*%
%AMMACRO16*
1,1,.152,0.0,.45*
20,1,.152,0.0,.45,-.389711,.225,0.0*
1,1,.152,-.389711,.225*
20,1,.152,-.389711,.225,-.389711,-.225,0.0*
1,1,.152,-.389711,-.225*
20,1,.152,-.389711,-.225,0.0,-.45,0.0*
1,1,.152,0.0,-.45*
20,1,.152,0.0,-.45,.389711,-.225,0.0*
1,1,.152,.389711,-.225*
20,1,.152,.389711,-.225,.389711,.225,0.0*
1,1,.152,.389711,.225*
20,1,.152,.389711,.225,0.0,.45,0.0*
1,1,.152,0.0,.45*
1,1,.152,-.165,-.225*
20,1,.152,-.165,-.225,-.165,.225,0.0*
1,1,.152,-.165,.225*
20,1,.152,-.165,.225,-.015,.225,0.0*
1,1,.152,-.015,.225*
20,1,.152,-.015,.225,.045,.2025,0.0*
1,1,.152,.045,.2025*
20,1,.152,.045,.2025,.09,.1725,0.0*
1,1,.152,.09,.1725*
20,1,.152,.09,.1725,.1275,.1275,0.0*
1,1,.152,.1275,.1275*
20,1,.152,.1275,.1275,.1575,.075,0.0*
1,1,.152,.1575,.075*
20,1,.152,.1575,.075,.165,0.0,0.0*
1,1,.152,.165,0.0*
20,1,.152,.165,0.0,.1575,-.075,0.0*
1,1,.152,.1575,-.075*
20,1,.152,.1575,-.075,.1275,-.1275,0.0*
1,1,.152,.1275,-.1275*
20,1,.152,.1275,-.1275,.09,-.1725,0.0*
1,1,.152,.09,-.1725*
20,1,.152,.09,-.1725,.045,-.2025,0.0*
1,1,.152,.045,-.2025*
20,1,.152,.045,-.2025,-.015,-.225,0.0*
1,1,.152,-.015,-.225*
20,1,.152,-.015,-.225,-.165,-.225,0.0*
1,1,.152,-.165,-.225*
%
%ADD16MACRO16*%
%AMMACRO17*
1,1,.152,0.0,.45*
20,1,.152,0.0,.45,.45,-.45,0.0*
1,1,.152,.45,-.45*
20,1,.152,.45,-.45,-.45,-.45,0.0*
1,1,.152,-.45,-.45*
20,1,.152,-.45,-.45,0.0,.45,0.0*
1,1,.152,0.0,.45*
1,1,.152,.045,0.0*
20,1,.152,.045,0.0,.195,0.0,0.0*
1,1,.152,.195,0.0*
20,1,.152,.195,0.0,.195,-.135,0.0*
1,1,.152,.195,-.135*
20,1,.152,.195,-.135,.15,-.18,0.0*
1,1,.152,.15,-.18*
20,1,.152,.15,-.18,.0975,-.21,0.0*
1,1,.152,.0975,-.21*
20,1,.152,.0975,-.21,.0225,-.225,0.0*
1,1,.152,.0225,-.225*
20,1,.152,.0225,-.225,-.0525,-.21,0.0*
1,1,.152,-.0525,-.21*
20,1,.152,-.0525,-.21,-.105,-.18,0.0*
1,1,.152,-.105,-.18*
20,1,.152,-.105,-.18,-.15,-.135,0.0*
1,1,.152,-.15,-.135*
20,1,.152,-.15,-.135,-.18,-.0825,0.0*
1,1,.152,-.18,-.0825*
20,1,.152,-.18,-.0825,-.195,-.0225,0.0*
1,1,.152,-.195,-.0225*
20,1,.152,-.195,-.0225,-.195,.03,0.0*
1,1,.152,-.195,.03*
20,1,.152,-.195,.03,-.18,.075,0.0*
1,1,.152,-.18,.075*
20,1,.152,-.18,.075,-.15,.1275,0.0*
1,1,.152,-.15,.1275*
20,1,.152,-.15,.1275,-.105,.1725,0.0*
1,1,.152,-.105,.1725*
20,1,.152,-.105,.1725,-.06,.2025,0.0*
1,1,.152,-.06,.2025*
20,1,.152,-.06,.2025,0.0,.225,0.0*
1,1,.152,0.0,.225*
20,1,.152,0.0,.225,.0525,.225,0.0*
1,1,.152,.0525,.225*
20,1,.152,.0525,.225,.1125,.21,0.0*
1,1,.152,.1125,.21*
20,1,.152,.1125,.21,.1575,.18,0.0*
1,1,.152,.1575,.18*
%
%ADD17MACRO17*%
%AMMACRO15*
1,1,.152,.1524,0.0*
20,1,.152,.1524,0.0,.0762,.131982,0.0*
1,1,.152,.0762,.131982*
20,1,.152,.0762,.131982,-.0762,.131982,0.0*
1,1,.152,-.0762,.131982*
20,1,.152,-.0762,.131982,-.1524,0.0,0.0*
1,1,.152,-.1524,0.0*
20,1,.152,-.1524,0.0,-.0762,-.131982,0.0*
1,1,.152,-.0762,-.131982*
20,1,.152,-.0762,-.131982,.0762,-.131982,0.0*
1,1,.152,.0762,-.131982*
20,1,.152,.0762,-.131982,.1524,0.0,0.0*
1,1,.152,.1524,0.0*
1,1,.152,.0559,.0635*
20,1,.152,.0559,.0635,.0406,.0711,0.0*
1,1,.152,.0406,.0711*
20,1,.152,.0406,.0711,.0229,.0762,0.0*
1,1,.152,.0229,.0762*
20,1,.152,.0229,.0762,.0025,.0762,0.0*
1,1,.152,.0025,.0762*
20,1,.152,.0025,.0762,-.0203,.0686,0.0*
1,1,.152,-.0203,.0686*
20,1,.152,-.0203,.0686,-.0381,.0559,0.0*
1,1,.152,-.0381,.0559*
20,1,.152,-.0381,.0559,-.0508,.0406,0.0*
1,1,.152,-.0508,.0406*
20,1,.152,-.0508,.0406,-.061,.0152,0.0*
1,1,.152,-.061,.0152*
20,1,.152,-.061,.0152,-.0635,-.0076,0.0*
1,1,.152,-.0635,-.0076*
20,1,.152,-.0635,-.0076,-.0584,-.0305,0.0*
1,1,.152,-.0584,-.0305*
20,1,.152,-.0584,-.0305,-.0508,-.0457,0.0*
1,1,.152,-.0508,-.0457*
20,1,.152,-.0508,-.0457,-.0356,-.061,0.0*
1,1,.152,-.0356,-.061*
20,1,.152,-.0356,-.061,-.0178,-.0711,0.0*
1,1,.152,-.0178,-.0711*
20,1,.152,-.0178,-.0711,0.0,-.0762,0.0*
1,1,.152,0.0,-.0762*
20,1,.152,0.0,-.0762,.0178,-.0762,0.0*
1,1,.152,.0178,-.0762*
20,1,.152,.0178,-.0762,.0356,-.0711,0.0*
1,1,.152,.0356,-.0711*
20,1,.152,.0356,-.0711,.0508,-.0635,0.0*
1,1,.152,.0508,-.0635*
20,1,.152,.0508,-.0635,.0635,-.0533,0.0*
1,1,.152,.0635,-.0533*
%
%ADD15MACRO15*%
%AMMACRO14*
1,1,.152,.207107,-.5*
20,1,.152,.207107,-.5,-.207107,-.5,0.0*
1,1,.152,-.207107,-.5*
20,1,.152,-.207107,-.5,-.5,-.207107,0.0*
1,1,.152,-.5,-.207107*
20,1,.152,-.5,-.207107,-.5,.207107,0.0*
1,1,.152,-.5,.207107*
20,1,.152,-.5,.207107,-.207107,.5,0.0*
1,1,.152,-.207107,.5*
20,1,.152,-.207107,.5,.207107,.5,0.0*
1,1,.152,.207107,.5*
20,1,.152,.207107,.5,.5,.207107,0.0*
1,1,.152,.5,.207107*
20,1,.152,.5,.207107,.5,-.207107,0.0*
1,1,.152,.5,-.207107*
20,1,.152,.5,-.207107,.207107,-.5,0.0*
1,1,.152,.207107,-.5*
1,1,.152,.1667,-.25*
20,1,.152,.1667,-.25,-.1667,-.25,0.0*
1,1,.152,-.1667,-.25*
20,1,.152,-.1667,-.25,-.1667,.25,0.0*
1,1,.152,-.1667,.25*
20,1,.152,-.1667,.25,.1667,.25,0.0*
1,1,.152,.1667,.25*
1,1,.152,.0333,.0083*
20,1,.152,.0333,.0083,-.1667,.0083,0.0*
1,1,.152,-.1667,.0083*
%
%ADD14MACRO14*%
%AMMACRO13*
1,1,.152,-.125,.375*
20,1,.152,-.125,.375,.125,.375,0.0*
1,1,.152,.125,.375*
20,1,.152,.125,.375,.190118,.369303,0.0*
1,1,.152,.190118,.369303*
20,1,.152,.190118,.369303,.253258,.352385,0.0*
1,1,.152,.253258,.352385*
20,1,.152,.253258,.352385,.3125,.32476,0.0*
1,1,.152,.3125,.32476*
20,1,.152,.3125,.32476,.366045,.287267,0.0*
1,1,.152,.366045,.287267*
20,1,.152,.366045,.287267,.412267,.241045,0.0*
1,1,.152,.412267,.241045*
20,1,.152,.412267,.241045,.44976,.1875,0.0*
1,1,.152,.44976,.1875*
20,1,.152,.44976,.1875,.477385,.128258,0.0*
1,1,.152,.477385,.128258*
20,1,.152,.477385,.128258,.494303,.065118,0.0*
1,1,.152,.494303,.065118*
20,1,.152,.494303,.065118,.5,0.0,0.0*
1,1,.152,.5,0.0*
20,1,.152,.5,0.0,.494303,-.065118,0.0*
1,1,.152,.494303,-.065118*
20,1,.152,.494303,-.065118,.477385,-.128258,0.0*
1,1,.152,.477385,-.128258*
20,1,.152,.477385,-.128258,.44976,-.1875,0.0*
1,1,.152,.44976,-.1875*
20,1,.152,.44976,-.1875,.412267,-.241045,0.0*
1,1,.152,.412267,-.241045*
20,1,.152,.412267,-.241045,.366045,-.287267,0.0*
1,1,.152,.366045,-.287267*
20,1,.152,.366045,-.287267,.3125,-.32476,0.0*
1,1,.152,.3125,-.32476*
20,1,.152,.3125,-.32476,.253258,-.352385,0.0*
1,1,.152,.253258,-.352385*
20,1,.152,.253258,-.352385,.190118,-.369303,0.0*
1,1,.152,.190118,-.369303*
20,1,.152,.190118,-.369303,.125,-.375,0.0*
1,1,.152,.125,-.375*
20,1,.152,.125,-.375,-.125,-.375,0.0*
1,1,.152,-.125,-.375*
20,1,.152,-.125,-.375,-.190118,-.369303,0.0*
1,1,.152,-.190118,-.369303*
20,1,.152,-.190118,-.369303,-.253258,-.352385,0.0*
1,1,.152,-.253258,-.352385*
20,1,.152,-.253258,-.352385,-.3125,-.32476,0.0*
1,1,.152,-.3125,-.32476*
20,1,.152,-.3125,-.32476,-.366045,-.287267,0.0*
1,1,.152,-.366045,-.287267*
20,1,.152,-.366045,-.287267,-.412267,-.241045,0.0*
1,1,.152,-.412267,-.241045*
20,1,.152,-.412267,-.241045,-.44976,-.1875,0.0*
1,1,.152,-.44976,-.1875*
20,1,.152,-.44976,-.1875,-.477385,-.128258,0.0*
1,1,.152,-.477385,-.128258*
20,1,.152,-.477385,-.128258,-.494303,-.065118,0.0*
1,1,.152,-.494303,-.065118*
20,1,.152,-.494303,-.065118,-.5,0.0,0.0*
1,1,.152,-.5,0.0*
20,1,.152,-.5,0.0,-.494303,.065118,0.0*
1,1,.152,-.494303,.065118*
20,1,.152,-.494303,.065118,-.477385,.128258,0.0*
1,1,.152,-.477385,.128258*
20,1,.152,-.477385,.128258,-.44976,.1875,0.0*
1,1,.152,-.44976,.1875*
20,1,.152,-.44976,.1875,-.412267,.241045,0.0*
1,1,.152,-.412267,.241045*
20,1,.152,-.412267,.241045,-.366045,.287267,0.0*
1,1,.152,-.366045,.287267*
20,1,.152,-.366045,.287267,-.3125,.32476,0.0*
1,1,.152,-.3125,.32476*
20,1,.152,-.3125,.32476,-.253258,.352385,0.0*
1,1,.152,-.253258,.352385*
20,1,.152,-.253258,.352385,-.190118,.369303,0.0*
1,1,.152,-.190118,.369303*
20,1,.152,-.190118,.369303,-.125,.375,0.0*
1,1,.152,-.125,.375*
1,1,.152,-.1313,-.1875*
20,1,.152,-.1313,-.1875,-.1313,.1875,0.0*
1,1,.152,-.1313,.1875*
1,1,.152,.1313,.1875*
20,1,.152,.1313,.1875,.1313,-.1875,0.0*
1,1,.152,.1313,-.1875*
1,1,.152,.1313,0.0*
20,1,.152,.1313,0.0,-.1313,0.0,0.0*
1,1,.152,-.1313,0.0*
%
%ADD13MACRO13*%
%AMMACRO12*
1,1,.152,.745584,-1.8*
20,1,.152,.745584,-1.8,-.745584,-1.8,0.0*
1,1,.152,-.745584,-1.8*
20,1,.152,-.745584,-1.8,-1.8,-.745584,0.0*
1,1,.152,-1.8,-.745584*
20,1,.152,-1.8,-.745584,-1.8,.745584,0.0*
1,1,.152,-1.8,.745584*
20,1,.152,-1.8,.745584,-.745584,1.8,0.0*
1,1,.152,-.745584,1.8*
20,1,.152,-.745584,1.8,.745584,1.8,0.0*
1,1,.152,.745584,1.8*
20,1,.152,.745584,1.8,1.8,.745584,0.0*
1,1,.152,1.8,.745584*
20,1,.152,1.8,.745584,1.8,-.745584,0.0*
1,1,.152,1.8,-.745584*
20,1,.152,1.8,-.745584,.745584,-1.8,0.0*
1,1,.152,.745584,-1.8*
1,1,.152,.6,-.9*
20,1,.152,.6,-.9,-.6,-.9,0.0*
1,1,.152,-.6,-.9*
20,1,.152,-.6,-.9,-.6,.9,0.0*
1,1,.152,-.6,.9*
20,1,.152,-.6,.9,.6,.9,0.0*
1,1,.152,.6,.9*
1,1,.152,.12,.03*
20,1,.152,.12,.03,-.6,.03,0.0*
1,1,.152,-.6,.03*
%
%ADD12MACRO12*%
%AMMACRO18*
1,1,.152,.3,0.0*
20,1,.152,.3,0.0,0.0,-.3,0.0*
1,1,.152,0.0,-.3*
20,1,.152,0.0,-.3,-.3,0.0,0.0*
1,1,.152,-.3,0.0*
20,1,.152,-.3,0.0,0.0,.3,0.0*
1,1,.152,0.0,.3*
20,1,.152,0.0,.3,.3,0.0,0.0*
1,1,.152,.3,0.0*
1,1,.152,-.095,-.15*
20,1,.152,-.095,-.15,-.095,.15,0.0*
1,1,.152,-.095,.15*
20,1,.152,-.095,.15,.095,.15,0.0*
1,1,.152,.095,.15*
1,1,.152,.025,.005*
20,1,.152,.025,.005,-.095,.005,0.0*
1,1,.152,-.095,.005*
%
%ADD18MACRO18*%
%AMMACRO10*
1,1,.152,.127,.127*
20,1,.152,.127,.127,.127,-.127,0.0*
1,1,.152,.127,-.127*
20,1,.152,.127,-.127,-.127,-.127,0.0*
1,1,.152,-.127,-.127*
20,1,.152,-.127,-.127,-.127,.127,0.0*
1,1,.152,-.127,.127*
20,1,.152,-.127,.127,.127,.127,0.0*
1,1,.152,.127,.127*
1,1,.152,.0169,.0042*
20,1,.152,.0169,.0042,.0254,.0106,0.0*
1,1,.152,.0254,.0106*
20,1,.152,.0254,.0106,.0317,.0212,0.0*
1,1,.152,.0317,.0212*
20,1,.152,.0317,.0212,.036,.036,0.0*
1,1,.152,.036,.036*
20,1,.152,.036,.036,.0317,.0487,0.0*
1,1,.152,.0317,.0487*
20,1,.152,.0317,.0487,.0233,.0571,0.0*
1,1,.152,.0233,.0571*
20,1,.152,.0233,.0571,.0085,.0635,0.0*
1,1,.152,.0085,.0635*
20,1,.152,.0085,.0635,-.0487,.0635,0.0*
1,1,.152,-.0487,.0635*
20,1,.152,-.0487,.0635,-.0487,-.0635,0.0*
1,1,.152,-.0487,-.0635*
20,1,.152,-.0487,-.0635,.0212,-.0635,0.0*
1,1,.152,.0212,-.0635*
20,1,.152,.0212,-.0635,.036,-.055,0.0*
1,1,.152,.036,-.055*
20,1,.152,.036,-.055,.0445,-.0423,0.0*
1,1,.152,.0445,-.0423*
20,1,.152,.0445,-.0423,.0487,-.0275,0.0*
1,1,.152,.0487,-.0275*
20,1,.152,.0487,-.0275,.0445,-.0127,0.0*
1,1,.152,.0445,-.0127*
20,1,.152,.0445,-.0127,.0317,0.0,0.0*
1,1,.152,.0317,0.0*
20,1,.152,.0317,0.0,.0169,.0042,0.0*
1,1,.152,.0169,.0042*
20,1,.152,.0169,.0042,-.0487,.0042,0.0*
1,1,.152,-.0487,.0042*
%
%ADD10MACRO10*%
%AMMACRO11*
1,1,.152,.127,0.0*
20,1,.152,.127,0.0,.125071,-.022053,0.0*
1,1,.152,.125071,-.022053*
20,1,.152,.125071,-.022053,.119341,-.043437,0.0*
1,1,.152,.119341,-.043437*
20,1,.152,.119341,-.043437,.109985,-.0635,0.0*
1,1,.152,.109985,-.0635*
20,1,.152,.109985,-.0635,.097288,-.081634,0.0*
1,1,.152,.097288,-.081634*
20,1,.152,.097288,-.081634,.081634,-.097288,0.0*
1,1,.152,.081634,-.097288*
20,1,.152,.081634,-.097288,.0635,-.109985,0.0*
1,1,.152,.0635,-.109985*
20,1,.152,.0635,-.109985,.043437,-.119341,0.0*
1,1,.152,.043437,-.119341*
20,1,.152,.043437,-.119341,.022053,-.125071,0.0*
1,1,.152,.022053,-.125071*
20,1,.152,.022053,-.125071,0.0,-.127,0.0*
1,1,.152,0.0,-.127*
20,1,.152,0.0,-.127,-.022053,-.125071,0.0*
1,1,.152,-.022053,-.125071*
20,1,.152,-.022053,-.125071,-.043437,-.119341,0.0*
1,1,.152,-.043437,-.119341*
20,1,.152,-.043437,-.119341,-.0635,-.109985,0.0*
1,1,.152,-.0635,-.109985*
20,1,.152,-.0635,-.109985,-.081634,-.097288,0.0*
1,1,.152,-.081634,-.097288*
20,1,.152,-.081634,-.097288,-.097288,-.081634,0.0*
1,1,.152,-.097288,-.081634*
20,1,.152,-.097288,-.081634,-.109985,-.0635,0.0*
1,1,.152,-.109985,-.0635*
20,1,.152,-.109985,-.0635,-.119341,-.043437,0.0*
1,1,.152,-.119341,-.043437*
20,1,.152,-.119341,-.043437,-.125071,-.022053,0.0*
1,1,.152,-.125071,-.022053*
20,1,.152,-.125071,-.022053,-.127,0.0,0.0*
1,1,.152,-.127,0.0*
20,1,.152,-.127,0.0,-.125071,.022053,0.0*
1,1,.152,-.125071,.022053*
20,1,.152,-.125071,.022053,-.119341,.043437,0.0*
1,1,.152,-.119341,.043437*
20,1,.152,-.119341,.043437,-.109985,.0635,0.0*
1,1,.152,-.109985,.0635*
20,1,.152,-.109985,.0635,-.097288,.081634,0.0*
1,1,.152,-.097288,.081634*
20,1,.152,-.097288,.081634,-.081634,.097288,0.0*
1,1,.152,-.081634,.097288*
20,1,.152,-.081634,.097288,-.0635,.109985,0.0*
1,1,.152,-.0635,.109985*
20,1,.152,-.0635,.109985,-.043437,.119341,0.0*
1,1,.152,-.043437,.119341*
20,1,.152,-.043437,.119341,-.022053,.125071,0.0*
1,1,.152,-.022053,.125071*
20,1,.152,-.022053,.125071,0.0,.127,0.0*
1,1,.152,0.0,.127*
20,1,.152,0.0,.127,.022053,.125071,0.0*
1,1,.152,.022053,.125071*
20,1,.152,.022053,.125071,.043437,.119341,0.0*
1,1,.152,.043437,.119341*
20,1,.152,.043437,.119341,.0635,.109985,0.0*
1,1,.152,.0635,.109985*
20,1,.152,.0635,.109985,.081634,.097288,0.0*
1,1,.152,.081634,.097288*
20,1,.152,.081634,.097288,.097288,.081634,0.0*
1,1,.152,.097288,.081634*
20,1,.152,.097288,.081634,.109985,.0635,0.0*
1,1,.152,.109985,.0635*
20,1,.152,.109985,.0635,.119341,.043437,0.0*
1,1,.152,.119341,.043437*
20,1,.152,.119341,.043437,.125071,.022053,0.0*
1,1,.152,.125071,.022053*
20,1,.152,.125071,.022053,.127,0.0,0.0*
1,1,.152,.127,0.0*
1,1,.152,-.1069,.0378*
20,1,.152,-.1069,.0378,-.0755,-.0377,0.0*
1,1,.152,-.0755,-.0377*
20,1,.152,-.0755,-.0377,-.044,.0378,0.0*
1,1,.152,-.044,.0378*
1,1,.152,.0001,.0126*
20,1,.152,.0001,.0126,.0001,-.0377,0.0*
1,1,.152,.0001,-.0377*
1,1,.152,.0001,.0328*
20,1,.152,.0001,.0328,-.0024,.034,0.0*
1,1,.152,-.0024,.034*
20,1,.152,-.0024,.034,-.0024,.0365,0.0*
1,1,.152,-.0024,.0365*
20,1,.152,-.0024,.0365,.0001,.0378,0.0*
1,1,.152,.0001,.0378*
20,1,.152,.0001,.0378,.0027,.0365,0.0*
1,1,.152,.0027,.0365*
20,1,.152,.0027,.0365,.0027,.034,0.0*
1,1,.152,.0027,.034*
20,1,.152,.0027,.034,.0001,.0328,0.0*
1,1,.152,.0001,.0328*
1,1,.152,.0984,-.0377*
20,1,.152,.0984,-.0377,.0984,.0126,0.0*
1,1,.152,.0984,.0126*
1,1,.152,.0984,.0038*
20,1,.152,.0984,.0038,.0934,.0089,0.0*
1,1,.152,.0934,.0089*
20,1,.152,.0934,.0089,.0858,.0114,0.0*
1,1,.152,.0858,.0114*
20,1,.152,.0858,.0114,.077,.0126,0.0*
1,1,.152,.077,.0126*
20,1,.152,.077,.0126,.0682,.0101,0.0*
1,1,.152,.0682,.0101*
20,1,.152,.0682,.0101,.0606,.0051,0.0*
1,1,.152,.0606,.0051*
20,1,.152,.0606,.0051,.0556,-.0025,0.0*
1,1,.152,.0556,-.0025*
20,1,.152,.0556,-.0025,.0531,-.0125,0.0*
1,1,.152,.0531,-.0125*
20,1,.152,.0531,-.0125,.0556,-.0226,0.0*
1,1,.152,.0556,-.0226*
20,1,.152,.0556,-.0226,.0606,-.0302,0.0*
1,1,.152,.0606,-.0302*
20,1,.152,.0606,-.0302,.0682,-.0352,0.0*
1,1,.152,.0682,-.0352*
20,1,.152,.0682,-.0352,.077,-.0377,0.0*
1,1,.152,.077,-.0377*
20,1,.152,.077,-.0377,.0858,-.0364,0.0*
1,1,.152,.0858,-.0364*
20,1,.152,.0858,-.0364,.0934,-.0327,0.0*
1,1,.152,.0934,-.0327*
20,1,.152,.0934,-.0327,.0984,-.0276,0.0*
1,1,.152,.0984,-.0276*
%
%ADD11MACRO11*%
%ADD19C,.152*%
G75*
%LPD*%
G75*
G54D10*
X-2760000Y-2450000D03*
X-2820000Y-2448000D03*
X-2880000Y-2426000D03*
X-2700000Y-2450000D03*
X-2950000Y1280000D03*
Y1340000D03*
Y1520000D03*
Y1460000D03*
Y1400000D03*
Y1640000D03*
Y1580000D03*
Y1760000D03*
Y1700000D03*
Y2000000D03*
Y1940000D03*
Y1880000D03*
Y1820000D03*
X-2930000Y2370000D03*
X-2950000Y2300000D03*
Y2060000D03*
Y2120000D03*
Y2180000D03*
Y2240000D03*
X-2710000Y2450000D03*
X-2770000D03*
X-2830000Y2440000D03*
X-2890000Y2420000D03*
X-2520000Y-2450000D03*
X-2460000D03*
X-2400000D03*
X-2340000D03*
X-2640000D03*
X-2580000D03*
X-2540000Y-2015120D03*
X-2480000Y-1630000D03*
X-2360000Y-1670000D03*
X-2430000Y-1740000D03*
X-2520000Y-1760000D03*
X-2570000Y-1700000D03*
X-2540000Y-1395120D03*
X-2360000Y-1510000D03*
X-2420000Y-1570000D03*
X-2350000Y-1290000D03*
X-2410000Y-1230000D03*
X-2350000Y-1140000D03*
X-2470000Y-1170000D03*
X-2530000Y-1150000D03*
Y-1030000D03*
X-2350000Y-950000D03*
X-2460000Y-1000000D03*
Y-910000D03*
X-2410000Y-1080000D03*
X-2570000Y-1090000D03*
X-2540000Y-775120D03*
X-2350000Y-680000D03*
Y-770000D03*
X-2460000Y-730000D03*
X-2350000Y-590000D03*
X-2460000Y-640000D03*
Y-550000D03*
X-2530000Y-530000D03*
X-2350000Y-860000D03*
X-2460000Y-820000D03*
X-2350000Y-320000D03*
Y-410000D03*
Y-500000D03*
X-2440000Y-410000D03*
X-2520000D03*
X-2570000Y-470000D03*
X-2350000Y2450000D03*
X-2410000D03*
X-2470000D03*
X-2530000D03*
X-2590000D03*
X-2650000D03*
X-2280000Y-2450000D03*
X-2220000D03*
X-2100000D03*
X-2160000D03*
X-1980000D03*
X-2040000D03*
X-2060000Y-2120000D03*
X-2300000Y-1610000D03*
X-2220000Y-1400000D03*
X-2140000D03*
X-2060000D03*
X-1980000D03*
X-2090000Y-1510000D03*
X-2010000D03*
X-2290000Y-1350000D03*
X-2170000Y-1510000D03*
X-2240000Y-1550000D03*
X-2300000Y-1450000D03*
X-2140000Y-1290000D03*
X-2060000D03*
X-1980000D03*
X-2050000Y-890000D03*
X-2120000Y-960000D03*
X-2220000Y-990000D03*
X-2250000Y-900000D03*
X-2040000Y-1200000D03*
X-2120000D03*
X-2200000D03*
X-2280000D03*
X-2310000Y-1030000D03*
X-2050000Y-800000D03*
Y-710000D03*
Y-620000D03*
Y-530000D03*
X-2150000Y-580000D03*
Y-670000D03*
Y-760000D03*
Y-850000D03*
X-2250000Y-810000D03*
Y-720000D03*
Y-630000D03*
Y-540000D03*
X-2050000Y-440000D03*
Y-350000D03*
X-2150000Y-310000D03*
Y-400000D03*
Y-490000D03*
X-2250000Y-360000D03*
Y-450000D03*
X-1990000Y2450000D03*
X-2050000D03*
X-2110000D03*
X-2170000D03*
X-2230000D03*
X-2290000D03*
X-1740000Y-2450000D03*
X-1800000D03*
X-1860000D03*
X-1620000D03*
X-1680000D03*
X-1920000D03*
X-1900000Y-1400000D03*
X-1820000D03*
X-1930000Y-1510000D03*
X-1770000D03*
X-1690000D03*
X-1850000D03*
X-1740000Y-1400000D03*
X-1820000Y-1290000D03*
X-1740000D03*
X-1900000D03*
X-1880000Y-1200000D03*
X-1740000D03*
X-1960000D03*
X-1807200Y-937200D03*
X-1740000Y-987200D03*
X-1810000Y-1037200D03*
X-1742800Y-1087200D03*
X-1807200Y-1137200D03*
X-1697200Y-787200D03*
X-1700000Y-680000D03*
X-1816200Y-596200D03*
X-1940000Y-840000D03*
Y-750000D03*
Y-660000D03*
Y-570000D03*
Y-300000D03*
Y-390000D03*
Y-480000D03*
X-1610000Y300000D03*
X-1750000Y930000D03*
X-1628800Y921200D03*
X-1630000Y2450000D03*
X-1690000D03*
X-1750000D03*
X-1810000D03*
X-1870000D03*
X-1930000D03*
X-1320000Y-2450000D03*
X-1380000D03*
X-1440000D03*
X-1500000D03*
X-1560000D03*
X-1260000D03*
X-1480000Y-2120000D03*
X-1476200Y-556200D03*
X-1328420Y-590000D03*
X-1530000Y-600000D03*
X-1592600Y-467400D03*
X-1283360Y346200D03*
X-1500000Y270000D03*
X-1423760Y290000D03*
X-1316200Y246200D03*
X-1318200Y770000D03*
X-1590000D03*
X-1490000Y811200D03*
X-1510000Y1480000D03*
X-1330000Y2450000D03*
X-1390000D03*
X-1450000D03*
X-1510000D03*
X-1570000D03*
X-1270000D03*
X-1140000Y-2450000D03*
X-1200000D03*
X-900000D03*
X-960000D03*
X-1020000D03*
X-1080000D03*
X-1131600Y-2121600D03*
X-1226200Y-603800D03*
X-1120000Y-710000D03*
X-1051910Y-707360D03*
X-920000Y-420000D03*
X-910000Y91760D03*
X-993800Y396200D03*
X-970000Y510000D03*
X-980000Y580000D03*
X-973800Y646200D03*
X-1036200Y796200D03*
Y696200D03*
X-970000Y1280000D03*
X-1190000Y1120000D03*
X-897800Y1281760D03*
X-1140000Y1250000D03*
X-1180000Y1620000D03*
X-980000Y1860000D03*
Y1800000D03*
X-1150000Y2450000D03*
X-1090000D03*
X-1030000D03*
X-970000D03*
X-910000D03*
X-1210000D03*
X-720000Y-2450000D03*
X-660000D03*
X-780000D03*
X-840000D03*
X-540000D03*
X-600000D03*
X-540000Y-1860000D03*
X-701200Y-821200D03*
X-603400Y-636600D03*
X-600000Y-520000D03*
X-597800Y-270000D03*
X-830000Y100000D03*
X-680000Y560000D03*
X-750000D03*
X-747800Y1297800D03*
X-820000Y1580000D03*
X-830000Y1700000D03*
X-782400Y2237600D03*
X-850000Y2450000D03*
X-730000D03*
X-790000D03*
X-670000D03*
X-550000D03*
X-610000D03*
X-480000Y-2450000D03*
X-240000D03*
X-180000D03*
X-420000D03*
X-360000D03*
X-300000D03*
X-200000Y-840000D03*
X-497800Y-200000D03*
X-224800Y-502760D03*
X-197800Y97800D03*
X-247800Y-137800D03*
X-360000Y160000D03*
X-446740Y-149410D03*
X-505460Y1500000D03*
X-370000Y2450000D03*
X-430000D03*
X-490000D03*
X-250000D03*
X-310000D03*
X-190000D03*
X-120000Y-2450000D03*
X-60000D03*
X0D03*
X120000D03*
X180000D03*
X60000D03*
X-95720Y-1636200D03*
X-100000Y-1310000D03*
X-120000Y-1040000D03*
X190000Y-1230000D03*
X-90000Y-530000D03*
X-106200Y896200D03*
X133800Y946200D03*
X-70000Y1480000D03*
X180000Y1640000D03*
X90000Y1690000D03*
X54400Y2095600D03*
X-10000Y2450000D03*
X-70000D03*
X-130000D03*
X170000D03*
X110000D03*
X50000D03*
X300000Y-2450000D03*
X240000D03*
X540000D03*
X480000D03*
X420000D03*
X360000D03*
X514580Y-900000D03*
X440030D03*
X550000Y-1190000D03*
X390000Y-570000D03*
X234640Y-205350D03*
X300000Y-110000D03*
X390000Y430000D03*
Y320000D03*
X370000Y2095600D03*
X290000Y2450000D03*
X350000D03*
X410000D03*
X470000D03*
X530000D03*
X660000Y-2450000D03*
X600000D03*
X840000D03*
X900000D03*
X780000D03*
X720000D03*
X579600Y-1710400D03*
X780000Y-980000D03*
X720000Y-720000D03*
X700000Y-120000D03*
X660000Y280000D03*
X790000Y451910D03*
X928090D03*
X615200Y220000D03*
X780000Y1060000D03*
X690000Y1200000D03*
X860000Y1940000D03*
X590000Y2450000D03*
X650000D03*
X710000D03*
X890000D03*
X830000D03*
X770000D03*
X960000Y-2450000D03*
X1200000D03*
X1260000D03*
X1020000D03*
X1080000D03*
X1140000D03*
X1042200Y-1837800D03*
X1085450Y-1340000D03*
X1160000D03*
X1026200Y-196200D03*
X1015000Y-335000D03*
X1093800Y206200D03*
X1090000Y-120000D03*
X1100000Y410000D03*
X1009000Y601000D03*
X1009600Y929600D03*
X1010000Y1470000D03*
X1070000Y2450000D03*
X1010000D03*
X950000D03*
X1190000D03*
X1130000D03*
X1250000D03*
X1320000Y-2450000D03*
X1440000D03*
X1500000D03*
X1560000D03*
X1620000D03*
X1380000D03*
X1580000Y-2060000D03*
X1610000Y-690000D03*
X1570100Y-159900D03*
X1330200Y60000D03*
X1660000Y470000D03*
X1330000Y800000D03*
X1530000Y1100000D03*
X1630000Y1960000D03*
X1530000Y2050000D03*
X1310000Y2450000D03*
X1610000D03*
X1550000D03*
X1490000D03*
X1430000D03*
X1370000D03*
X1980000Y-2450000D03*
X1920000D03*
X1860000D03*
X1800000D03*
X1740000D03*
X1680000D03*
X1695400Y-2254600D03*
X1810000Y-1920000D03*
X1950000D03*
X1977000Y-1347000D03*
X1881800Y-388200D03*
X2020000Y-80000D03*
X1990000Y50000D03*
X1840200Y860200D03*
X1843000Y1460000D03*
X1696400Y1446400D03*
X1730000Y2450000D03*
X1790000D03*
X1850000D03*
X1910000D03*
X1970000D03*
X1670000D03*
X2030000D03*
X2280000Y-2450000D03*
X2340000D03*
X2160000D03*
X2220000D03*
X2100000D03*
X2040000D03*
X2390000Y2450000D03*
X2150000D03*
X2090000D03*
X2330000D03*
X2270000D03*
X2210000D03*
X2400000Y-2450000D03*
X2640000D03*
X2460000D03*
X2520000D03*
X2580000D03*
X2700000D03*
X2452900Y-162900D03*
X2410000Y-230000D03*
X2510000Y2450000D03*
X2450000D03*
X2630000D03*
X2570000D03*
X2750000D03*
X2690000D03*
X2840000Y-2440000D03*
X2900000Y-2410000D03*
X2940000Y-2350000D03*
X2760000Y-2450000D03*
X2950000Y-2290000D03*
Y290000D03*
Y230000D03*
Y530000D03*
Y470000D03*
Y410000D03*
Y350000D03*
Y590000D03*
Y650000D03*
Y890000D03*
Y830000D03*
Y710000D03*
Y770000D03*
Y1010000D03*
Y950000D03*
Y1250000D03*
Y1190000D03*
Y1130000D03*
Y1070000D03*
Y1310000D03*
Y1550000D03*
Y1610000D03*
Y1370000D03*
Y1430000D03*
Y1490000D03*
Y1790000D03*
Y1850000D03*
Y1910000D03*
Y1970000D03*
Y1670000D03*
Y1730000D03*
Y2030000D03*
Y2270000D03*
X2948000Y2330000D03*
X2920000Y2390000D03*
X2950000Y2210000D03*
Y2150000D03*
Y2090000D03*
X2870000Y2430000D03*
X2810000Y2450000D03*
X5881730Y557500D03*
G54D11*
X-2926000Y-2380000D03*
X-2948000Y-2320000D03*
X-2950000Y-2080000D03*
Y-2140000D03*
Y-2200000D03*
Y-2260000D03*
Y-2020000D03*
Y-1780000D03*
Y-1720000D03*
Y-1660000D03*
Y-1960000D03*
Y-1900000D03*
Y-1840000D03*
Y-1360000D03*
Y-1420000D03*
Y-1480000D03*
Y-1540000D03*
Y-1600000D03*
Y-1300000D03*
Y-1060000D03*
Y-1000000D03*
Y-940000D03*
Y-1240000D03*
Y-1180000D03*
Y-1120000D03*
Y-880000D03*
Y-700000D03*
Y-760000D03*
Y-820000D03*
Y-640000D03*
Y-580000D03*
Y-520000D03*
Y-340000D03*
Y-280000D03*
Y-220000D03*
Y-160000D03*
Y-460000D03*
Y-400000D03*
Y20000D03*
Y-40000D03*
Y-100000D03*
Y80000D03*
Y140000D03*
Y200000D03*
Y380000D03*
Y440000D03*
Y500000D03*
Y560000D03*
Y260000D03*
Y320000D03*
Y680000D03*
Y620000D03*
Y800000D03*
Y740000D03*
Y860000D03*
Y920000D03*
Y1100000D03*
Y1160000D03*
Y1220000D03*
Y980000D03*
Y1040000D03*
X-2540000Y-155120D03*
X-2350000Y-230000D03*
Y-50000D03*
Y-140000D03*
Y40000D03*
X-2420000Y90000D03*
X-2510000D03*
X-2360000Y210000D03*
X-2470000D03*
X-2560000Y150000D03*
X-2545120Y464880D03*
X-2380000Y390000D03*
X-2420000Y270000D03*
X-2490000Y320000D03*
X-2530000Y390000D03*
X-2420000Y560000D03*
Y470000D03*
X-2530000Y550000D03*
X-2420000Y650000D03*
Y920000D03*
Y830000D03*
Y740000D03*
X-2530000Y630000D03*
Y700000D03*
X-2510000Y830000D03*
X-2570000Y770000D03*
X-2545120Y1084880D03*
X-2420000Y1100000D03*
Y1010000D03*
Y1190000D03*
Y1280000D03*
X-2480000Y1330000D03*
X-2420000Y1440000D03*
X-2510000Y1450000D03*
X-2570000Y1390000D03*
X-2545120Y1704880D03*
X-2380000Y1950000D03*
X-2470000D03*
X-2570000Y2010000D03*
X-2430000Y2070000D03*
X-2520000D03*
X-2050000Y-260000D03*
Y-170000D03*
X-2150000Y-220000D03*
X-2250000Y-180000D03*
Y-270000D03*
X-2050000Y-80000D03*
X-2150000Y-40000D03*
Y-130000D03*
X-2250000Y-90000D03*
X-2050000Y10000D03*
Y100000D03*
Y190000D03*
X-2150000Y140000D03*
Y50000D03*
X-2250000Y0D03*
Y90000D03*
X-2300000Y150000D03*
X-2200000Y210000D03*
X-2020000Y500000D03*
X-2090000Y270000D03*
X-2150000Y330000D03*
X-2210000Y390000D03*
X-2040000Y380000D03*
X-1980000Y320000D03*
X-2320000Y330000D03*
X-2260000Y270000D03*
X-2270000Y450000D03*
X-2320000Y520000D03*
X-2210000Y560000D03*
X-2160000Y500000D03*
X-2100000Y440000D03*
X-2320000Y610000D03*
X-2210000Y650000D03*
X-2320000Y700000D03*
Y790000D03*
Y880000D03*
X-2210000Y920000D03*
Y830000D03*
Y740000D03*
X-2320000Y970000D03*
Y1060000D03*
X-2210000Y1100000D03*
Y1010000D03*
X-2320000Y1150000D03*
Y1240000D03*
X-2210000Y1280000D03*
Y1190000D03*
X-2320000Y1330000D03*
Y1420000D03*
X-2210000Y1460000D03*
Y1370000D03*
X-2320000Y1510000D03*
Y1600000D03*
X-2210000Y1640000D03*
Y1550000D03*
X-2320000Y1690000D03*
Y1780000D03*
Y1870000D03*
X-2250000Y2000000D03*
X-2210000Y1730000D03*
X-2320000Y2060000D03*
X-1940000Y-210000D03*
Y-30000D03*
Y-120000D03*
Y150000D03*
Y60000D03*
Y240000D03*
X-1820200Y310000D03*
X-1850000Y560000D03*
X-1820000Y870000D03*
X-1850000Y696200D03*
X-1380000Y-1910000D03*
Y-1810000D03*
X-1391400Y-1620000D03*
X-1570000Y-1670000D03*
X-1568090Y-1510000D03*
X-1426200Y-1306200D03*
X-1376200Y-1340000D03*
X-896200Y-1796200D03*
X-1070000Y-1510000D03*
X-1200000Y-1570000D03*
X-1180000Y-1420000D03*
X-896200Y-1466200D03*
X-980000Y-1420000D03*
X-826200Y-1213800D03*
X5881730Y1192500D03*
G54D12*
X-1887400Y1874800D03*
X5881730Y-1982500D03*
G54D13*
X-1351200Y-962200D03*
G54D14*
D03*
X5881730Y-1347500D03*
G54D15*
X-710000Y-1690000D03*
X-640000D03*
X-710000Y-1510000D03*
Y-1600000D03*
X-640000Y-1510000D03*
Y-1600000D03*
X150600Y-1561200D03*
X20000Y1550000D03*
Y1490000D03*
X320000Y-20000D03*
X380000D03*
X320000Y100000D03*
X380000D03*
X320000Y40000D03*
X380000D03*
X270000Y1450000D03*
X340000D03*
X480000D03*
X410000D03*
Y1520000D03*
X480000D03*
X340000D03*
X270000D03*
Y1640000D03*
X690000Y-1310000D03*
X750000D03*
X690000Y-1250000D03*
X750000D03*
X690000Y-1190000D03*
X750000D03*
X1219400Y1612200D03*
X1650000Y-280000D03*
Y-350000D03*
X1580000Y-280000D03*
Y-350000D03*
X1510000Y-280000D03*
Y-350000D03*
X1790000Y-280000D03*
Y-350000D03*
X1720000Y-280000D03*
Y-350000D03*
X1950000Y1600000D03*
X2020000D03*
X1950000Y1530000D03*
X2020000D03*
X1950000Y1670000D03*
X2020000D03*
X1950000Y1810000D03*
X2020000D03*
X1950000Y1740000D03*
X2020000D03*
X2100000Y-1800000D03*
Y-1740000D03*
X2160000Y-1800000D03*
Y-1740000D03*
X2220000Y-1800000D03*
Y-1740000D03*
X2460000Y-530000D03*
X2400000D03*
X2460000Y-470000D03*
X2400000D03*
X2460000Y-410000D03*
X2400000D03*
X5881730Y-77500D03*
G54D16*
X-367000Y1676000D03*
X-113000D03*
X-367000Y1930000D03*
X-113000D03*
X-367000Y2184000D03*
X-113000D03*
X1534600Y157000D03*
Y411000D03*
Y665000D03*
X1788600Y157000D03*
Y411000D03*
Y665000D03*
X2350800Y960600D03*
Y706600D03*
Y1214600D03*
Y1722600D03*
Y1468600D03*
X5881730Y-712500D03*
G54D17*
X2499200Y-1727000D03*
Y-1287000D03*
X5881730Y-3252500D03*
G54D18*
X2656800Y-492900D03*
Y-92900D03*
X5881730Y-2617500D03*
G54D19*
G01X-3000000Y-2300000D02*
Y2300000D01*
G02X-2800000Y2500000I200000J0D01*
G01X2800000D01*
G02X3000000Y2300000I0J-200000D01*
G01Y-2300000D01*
G02X2800000Y-2500000I-200000J0D01*
G01X-2800000D01*
G02X-3000000Y-2300000I0J200000D01*
G01X4740000Y-3570000D02*
Y3430000D01*
X17338400D01*
Y-3570000D01*
X4740000D01*
G01Y-2935000D02*
X17338400D01*
G01X4740000Y-2300000D02*
X17338400D01*
G01X4740000Y-1665000D02*
X17338400D01*
G01X4740000Y-1030000D02*
X17338400D01*
G01X4740000Y-395000D02*
X17338400D01*
G01X4740000Y240000D02*
X17338400D01*
G01X4740000Y875000D02*
X17338400D01*
G01X4740000Y1510000D02*
X17338400D01*
G01X4740000Y2145000D02*
X17338400D01*
G01X4740000Y2780000D02*
X17338400D01*
G01X5019520Y1668750D02*
Y1986250D01*
X5169140D01*
G01X5114010Y1832800D02*
X5019520D01*
G01X5362050Y1986250D02*
X5456530D01*
G01X5409290D02*
Y1668750D01*
G01X5362050D02*
X5456530D01*
G01X5747870Y1827500D02*
X5826620D01*
Y1732250D01*
X5802990Y1700490D01*
X5775430Y1679330D01*
X5736060Y1668750D01*
X5696690Y1679330D01*
X5669130Y1700490D01*
X5645510Y1732250D01*
X5629760Y1769290D01*
X5621880Y1811620D01*
Y1848670D01*
X5629760Y1880410D01*
X5645510Y1917460D01*
X5669130Y1949210D01*
X5692750Y1970370D01*
X5724250Y1986250D01*
X5751810D01*
X5783300Y1975670D01*
X5806930Y1954500D01*
G01X5952600Y1986250D02*
Y1758710D01*
X5968340Y1711070D01*
X5999840Y1679330D01*
X6039210Y1668750D01*
X6078580Y1679330D01*
X6110080Y1711070D01*
X6125820Y1758710D01*
Y1986250D01*
G01X6275430Y1668750D02*
Y1986250D01*
X6373850D01*
X6405350Y1970370D01*
X6425040Y1949210D01*
X6432910Y1906870D01*
X6425040Y1864540D01*
X6401410Y1838090D01*
X6373850Y1822200D01*
X6275430D01*
G01X6373850D02*
X6432910Y1668750D01*
G01X6747870D02*
X6590390D01*
Y1986250D01*
X6747870D01*
G01X6684880Y1832800D02*
X6590390D01*
G01X6688810Y2303750D02*
X6787240Y2621250D01*
X6885670Y2303750D01*
G01X6850230Y2414870D02*
X6724240D01*
G01X7023460Y2621250D02*
Y2303750D01*
X7180940D01*
G01X7338420Y2621250D02*
Y2303750D01*
X7495900D01*
G01X7960470Y2621250D02*
Y2393710D01*
X7976210Y2346070D01*
X8007710Y2314330D01*
X8047080Y2303750D01*
X8086450Y2314330D01*
X8117950Y2346070D01*
X8133690Y2393710D01*
Y2621250D01*
G01X8271490Y2303750D02*
Y2621250D01*
X8452590Y2303750D01*
Y2621250D01*
G01X8629760D02*
X8724240D01*
G01X8677000D02*
Y2303750D01*
G01X8629760D02*
X8724240D01*
G01X8991960Y2621250D02*
Y2303750D01*
G01X8901410Y2621250D02*
X9082510D01*
G01X9224240Y2346070D02*
X9255740Y2319620D01*
X9291170Y2303750D01*
X9322670D01*
X9354160Y2319620D01*
X9377790Y2346070D01*
X9389600Y2383130D01*
X9381730Y2420160D01*
X9362040Y2451910D01*
X9326600Y2473090D01*
X9279360Y2483670D01*
X9251800Y2504830D01*
X9239990Y2541870D01*
X9247870Y2578920D01*
X9267550Y2605370D01*
X9295110Y2621250D01*
X9322670D01*
X9350230Y2610670D01*
X9373850Y2584210D01*
G01X9838410Y2303750D02*
X9936840Y2621250D01*
X10035270Y2303750D01*
G01X9999830Y2414870D02*
X9873840D01*
G01X10173060Y2303750D02*
Y2621250D01*
X10271480D01*
X10302980Y2605370D01*
X10322670Y2584210D01*
X10330540Y2541870D01*
X10322670Y2499540D01*
X10299040Y2473090D01*
X10271480Y2457200D01*
X10173060D01*
G01X10271480D02*
X10330540Y2303750D01*
G01X10645500D02*
X10488020D01*
Y2621250D01*
X10645500D01*
G01X10582510Y2467800D02*
X10488020D01*
G01X11149440Y2621250D02*
X11243920D01*
G01X11196680D02*
Y2303750D01*
G01X11149440D02*
X11243920D01*
G01X11421090D02*
Y2621250D01*
X11602190Y2303750D01*
Y2621250D01*
G01X12039190Y2303750D02*
Y2621250D01*
X12141560Y2356670D01*
X12243930Y2621250D01*
Y2303750D01*
G01X12409280Y2621250D02*
X12503760D01*
G01X12456520D02*
Y2303750D01*
G01X12409280D02*
X12503760D01*
G01X12692740Y2621250D02*
Y2303750D01*
X12850220D01*
G01X13007700Y2621250D02*
Y2303750D01*
X13165180D01*
G01X13354160Y2621250D02*
X13448640D01*
G01X13401400D02*
Y2303750D01*
G01X13354160D02*
X13448640D01*
G01X13613990D02*
Y2621250D01*
X13716360Y2356670D01*
X13818730Y2621250D01*
Y2303750D01*
G01X14110060D02*
X13952580D01*
Y2621250D01*
X14110060D01*
G01X14047070Y2467800D02*
X13952580D01*
G01X14346280Y2621250D02*
Y2303750D01*
G01X14255730Y2621250D02*
X14436830D01*
G01X14739980Y2303750D02*
X14582500D01*
Y2621250D01*
X14739980D01*
G01X14676990Y2467800D02*
X14582500D01*
G01X14897460Y2303750D02*
Y2621250D01*
X14995880D01*
X15027380Y2605370D01*
X15047070Y2584210D01*
X15054940Y2541870D01*
X15047070Y2499540D01*
X15023440Y2473090D01*
X14995880Y2457200D01*
X14897460D01*
G01X14995880D02*
X15054940Y2303750D01*
G01X15208480Y2346070D02*
X15239980Y2319620D01*
X15275410Y2303750D01*
X15306910D01*
X15338400Y2319620D01*
X15362030Y2346070D01*
X15373840Y2383130D01*
X15365970Y2420160D01*
X15346280Y2451910D01*
X15310840Y2473090D01*
X15263600Y2483670D01*
X15236040Y2504830D01*
X15224230Y2541870D01*
X15232110Y2578920D01*
X15251790Y2605370D01*
X15279350Y2621250D01*
X15306910D01*
X15334470Y2610670D01*
X15358090Y2584210D01*
G01X7023460Y2145000D02*
Y-3570000D01*
G01X7015590Y2953750D02*
Y3271250D01*
X7094320D01*
X7125820Y3255370D01*
X7149440Y3234210D01*
X7169130Y3202460D01*
X7184880Y3165410D01*
X7188810Y3112500D01*
X7184880Y3059580D01*
X7169130Y3022540D01*
X7149440Y2990780D01*
X7125820Y2969620D01*
X7094320Y2953750D01*
X7015590D01*
G01X7338420D02*
Y3271250D01*
X7436840D01*
X7468340Y3255370D01*
X7488030Y3234210D01*
X7495900Y3191870D01*
X7488030Y3149540D01*
X7464400Y3123090D01*
X7436840Y3107200D01*
X7338420D01*
G01X7436840D02*
X7495900Y2953750D01*
G01X7684880Y3271250D02*
X7779360D01*
G01X7732120D02*
Y2953750D01*
G01X7684880D02*
X7779360D01*
G01X7968340Y3271250D02*
Y2953750D01*
X8125820D01*
G01X8283300Y3271250D02*
Y2953750D01*
X8440780D01*
G01X9078570Y3244790D02*
X9054950Y3260670D01*
X9027400Y3271250D01*
X8995900D01*
X8960460Y3255370D01*
X8932910Y3228920D01*
X8913220Y3197160D01*
X8897470Y3144250D01*
X8893530Y3096620D01*
X8901410Y3049000D01*
X8913220Y3017250D01*
X8936840Y2985490D01*
X8964400Y2964330D01*
X8991960Y2953750D01*
X9019520D01*
X9047080Y2964330D01*
X9070700Y2980200D01*
X9090390Y3001360D01*
G01X9224240Y2953750D02*
Y3271250D01*
G01X9389600D02*
Y2953750D01*
G01Y3112500D02*
X9224240D01*
G01X9523450Y2953750D02*
X9621880Y3271250D01*
X9720310Y2953750D01*
G01X9684870Y3064870D02*
X9558880D01*
G01X9858100Y2953750D02*
Y3271250D01*
X9956520D01*
X9988020Y3255370D01*
X10007710Y3234210D01*
X10015580Y3191870D01*
X10007710Y3149540D01*
X9984080Y3123090D01*
X9956520Y3107200D01*
X9858100D01*
G01X9956520D02*
X10015580Y2953750D01*
G01X10251800Y3271250D02*
Y2953750D01*
G01X10161250Y3271250D02*
X10342350D01*
G01X10566760Y2943170D02*
X10558880Y2948460D01*
Y2959040D01*
X10566760Y2964330D01*
X10574640Y2959040D01*
Y2948460D01*
X10566760Y2943170D01*
G01Y3086030D02*
X10558880Y3091330D01*
Y3101910D01*
X10566760Y3107200D01*
X10574640Y3101910D01*
Y3091330D01*
X10566760Y3086030D01*
G01X11196680Y3271250D02*
Y2953750D01*
G01X11106130Y3271250D02*
X11287230D01*
G01X11511640Y2953750D02*
X11480140Y2959040D01*
X11452590Y2980200D01*
X11428960Y3011960D01*
X11413210Y3049000D01*
X11405340Y3091330D01*
Y3133670D01*
X11413210Y3176000D01*
X11428960Y3213040D01*
X11452590Y3244790D01*
X11480140Y3265960D01*
X11511640Y3271250D01*
X11543130Y3265960D01*
X11570690Y3244790D01*
X11594320Y3213040D01*
X11610070Y3176000D01*
X11617940Y3133670D01*
Y3091330D01*
X11610070Y3049000D01*
X11594320Y3011960D01*
X11570690Y2980200D01*
X11543130Y2959040D01*
X11511640Y2953750D01*
G01X11747860D02*
Y3271250D01*
X11842350D01*
X11873840Y3255370D01*
X11897470Y3218330D01*
X11905340Y3176000D01*
X11897470Y3133670D01*
X11877780Y3101910D01*
X11842350Y3086030D01*
X11747860D01*
G01X12456520Y3271250D02*
Y2953750D01*
G01X12401400Y3165410D02*
X12511640D01*
G01X12771480Y2953750D02*
X12747860Y2959040D01*
X12724240Y2980200D01*
X12708480Y3017250D01*
X12700610Y3059580D01*
X12708480Y3101910D01*
X12724240Y3138960D01*
X12747860Y3160120D01*
X12771480Y3165410D01*
X12795100Y3160120D01*
X12818720Y3138960D01*
X12834470Y3101910D01*
X12838410Y3059580D01*
X12834470Y3017250D01*
X12818720Y2980200D01*
X12795100Y2959040D01*
X12771480Y2953750D01*
G01X13432890Y3123090D02*
X13448640Y3138960D01*
X13460450Y3165410D01*
X13468330Y3202460D01*
X13460450Y3234210D01*
X13444710Y3255370D01*
X13417150Y3271250D01*
X13310850D01*
Y2953750D01*
X13440770D01*
X13468330Y2974910D01*
X13484080Y3006670D01*
X13491950Y3043710D01*
X13484080Y3080740D01*
X13460450Y3112500D01*
X13432890Y3123090D01*
X13310850D01*
G01X13716360Y2953750D02*
X13684860Y2959040D01*
X13657310Y2980200D01*
X13633680Y3011960D01*
X13617930Y3049000D01*
X13610060Y3091330D01*
Y3133670D01*
X13617930Y3176000D01*
X13633680Y3213040D01*
X13657310Y3244790D01*
X13684860Y3265960D01*
X13716360Y3271250D01*
X13747850Y3265960D01*
X13775410Y3244790D01*
X13799040Y3213040D01*
X13814790Y3176000D01*
X13822660Y3133670D01*
Y3091330D01*
X13814790Y3049000D01*
X13799040Y3011960D01*
X13775410Y2980200D01*
X13747850Y2959040D01*
X13716360Y2953750D01*
G01X14031320Y3271250D02*
Y2953750D01*
G01X13940770Y3271250D02*
X14121870D01*
G01X14346280D02*
Y2953750D01*
G01X14255730Y3271250D02*
X14436830D01*
G01X14661240Y2953750D02*
X14629740Y2959040D01*
X14602190Y2980200D01*
X14578560Y3011960D01*
X14562810Y3049000D01*
X14554940Y3091330D01*
Y3133670D01*
X14562810Y3176000D01*
X14578560Y3213040D01*
X14602190Y3244790D01*
X14629740Y3265960D01*
X14661240Y3271250D01*
X14692730Y3265960D01*
X14720290Y3244790D01*
X14743920Y3213040D01*
X14759670Y3176000D01*
X14767540Y3133670D01*
Y3091330D01*
X14759670Y3049000D01*
X14743920Y3011960D01*
X14720290Y2980200D01*
X14692730Y2959040D01*
X14661240Y2953750D01*
G01X14873830D02*
Y3271250D01*
X14976200Y3006670D01*
X15078570Y3271250D01*
Y2953750D01*
G01X7617940Y1668750D02*
Y1986250D01*
X7767560D01*
G01X7712430Y1832800D02*
X7617940D01*
G01X7960470Y1986250D02*
X8054950D01*
G01X8007710D02*
Y1668750D01*
G01X7960470D02*
X8054950D01*
G01X8232120D02*
Y1986250D01*
X8413220Y1668750D01*
Y1986250D01*
G01X8590390D02*
X8684870D01*
G01X8637630D02*
Y1668750D01*
G01X8590390D02*
X8684870D01*
G01X8869910Y1711070D02*
X8901410Y1684620D01*
X8936840Y1668750D01*
X8968340D01*
X8999830Y1684620D01*
X9023460Y1711070D01*
X9035270Y1748130D01*
X9027400Y1785160D01*
X9007710Y1816910D01*
X8972270Y1838090D01*
X8925030Y1848670D01*
X8897470Y1869830D01*
X8885660Y1906870D01*
X8893540Y1943920D01*
X8913220Y1970370D01*
X8940780Y1986250D01*
X8968340D01*
X8995900Y1975670D01*
X9019520Y1949210D01*
G01X9184870Y1668750D02*
Y1986250D01*
G01X9350230D02*
Y1668750D01*
G01Y1827500D02*
X9184870D01*
G01X9661250Y1668750D02*
X9503770D01*
Y1986250D01*
X9661250D01*
G01X9598260Y1832800D02*
X9503770D01*
G01X9810860Y1668750D02*
Y1986250D01*
X9889590D01*
X9921090Y1970370D01*
X9944710Y1949210D01*
X9964400Y1917460D01*
X9980150Y1880410D01*
X9984080Y1827500D01*
X9980150Y1774580D01*
X9964400Y1737540D01*
X9944710Y1705780D01*
X9921090Y1684620D01*
X9889590Y1668750D01*
X9810860D01*
G01X10094320Y1562920D02*
X10330540D01*
G01X10444710Y1711070D02*
X10476210Y1684620D01*
X10511640Y1668750D01*
X10543140D01*
X10574630Y1684620D01*
X10598260Y1711070D01*
X10610070Y1748130D01*
X10602200Y1785160D01*
X10582510Y1816910D01*
X10547070Y1838090D01*
X10499830Y1848670D01*
X10472270Y1869830D01*
X10460460Y1906870D01*
X10468340Y1943920D01*
X10488020Y1970370D01*
X10515580Y1986250D01*
X10543140D01*
X10570700Y1975670D01*
X10594320Y1949210D01*
G01X10795110Y1986250D02*
X10889590D01*
G01X10842350D02*
Y1668750D01*
G01X10795110D02*
X10889590D01*
G01X11082500Y1986250D02*
X11232120D01*
X11082500Y1668750D01*
X11232120D01*
G01X11551010D02*
X11393530D01*
Y1986250D01*
X11551010D01*
G01X11488020Y1832800D02*
X11393530D01*
G01X8795110Y81250D02*
X8763610Y70670D01*
X8739990Y44210D01*
X8724240Y12460D01*
X8712430Y-29880D01*
X8708500Y-77500D01*
X8712430Y-125130D01*
X8724240Y-167460D01*
X8739990Y-199220D01*
X8763610Y-225670D01*
X8795110Y-236250D01*
X8826600Y-225670D01*
X8850230Y-199220D01*
X8865980Y-167460D01*
X8877790Y-125130D01*
X8881720Y-77500D01*
X8877790Y-29880D01*
X8865980Y12460D01*
X8850230Y44210D01*
X8826600Y70670D01*
X8795110Y81250D01*
G01X9110070Y-246830D02*
X9102190Y-241540D01*
Y-230960D01*
X9110070Y-225670D01*
X9117950Y-230960D01*
Y-241540D01*
X9110070Y-246830D01*
G01X9338420Y-172750D02*
X9362030Y-209800D01*
X9393530Y-230960D01*
X9428970Y-236250D01*
X9460470Y-230960D01*
X9491960Y-204510D01*
X9511640Y-172750D01*
X9515580Y-141000D01*
X9507710Y-103970D01*
X9480150Y-77500D01*
X9452590Y-66910D01*
X9417150D01*
G01X9452590D02*
X9476210Y-51040D01*
X9495900Y-24590D01*
X9503770Y7160D01*
X9495900Y38920D01*
X9476210Y65370D01*
X9440780Y81250D01*
X9405350Y75960D01*
X9369910Y54790D01*
G01X9739990Y81250D02*
X9708490Y70670D01*
X9684870Y44210D01*
X9669120Y12460D01*
X9657310Y-29880D01*
X9653380Y-77500D01*
X9657310Y-125130D01*
X9669120Y-167460D01*
X9684870Y-199220D01*
X9708490Y-225670D01*
X9739990Y-236250D01*
X9771480Y-225670D01*
X9795110Y-199220D01*
X9810860Y-167460D01*
X9822670Y-125130D01*
X9826600Y-77500D01*
X9822670Y-29880D01*
X9810860Y12460D01*
X9795110Y44210D01*
X9771480Y70670D01*
X9739990Y81250D01*
G01X10102190Y-236250D02*
Y81250D01*
X9956520Y-146290D01*
X10153380D01*
G01X10369910Y-236250D02*
X10397470Y-230960D01*
X10428960Y-215090D01*
X10448650Y-188640D01*
X10456520Y-151580D01*
X10448650Y-114550D01*
X10425030Y-82800D01*
X10389590Y-66910D01*
X10350230D01*
X10326600Y-56330D01*
X10306910Y-29880D01*
X10299040Y7160D01*
X10310860Y44210D01*
X10338410Y70670D01*
X10369910Y81250D01*
X10401400Y70670D01*
X10428960Y44210D01*
X10440780Y7160D01*
X10432900Y-29880D01*
X10413220Y-56330D01*
X10389590Y-66910D01*
X10350230D01*
X10314790Y-82800D01*
X10291170Y-114550D01*
X10283300Y-151580D01*
X10291170Y-188640D01*
X10310860Y-215090D01*
X10342350Y-230960D01*
X10369910Y-236250D01*
G01X8952590Y716250D02*
X8921090Y705670D01*
X8897470Y679210D01*
X8881720Y647460D01*
X8869910Y605120D01*
X8865980Y557500D01*
X8869910Y509870D01*
X8881720Y467540D01*
X8897470Y435780D01*
X8921090Y409330D01*
X8952590Y398750D01*
X8984080Y409330D01*
X9007710Y435780D01*
X9023460Y467540D01*
X9035270Y509870D01*
X9039200Y557500D01*
X9035270Y605120D01*
X9023460Y647460D01*
X9007710Y679210D01*
X8984080Y705670D01*
X8952590Y716250D01*
G01X9267550Y388170D02*
X9259670Y393460D01*
Y404040D01*
X9267550Y409330D01*
X9275430Y404040D01*
Y393460D01*
X9267550Y388170D01*
G01X9507700Y663330D02*
X9531330Y695080D01*
X9558890Y710960D01*
X9590390Y716250D01*
X9629750Y705670D01*
X9657320Y679210D01*
X9665190Y647460D01*
X9661250Y615700D01*
X9645500Y589250D01*
X9566760Y536330D01*
X9531330Y499290D01*
X9507700Y446360D01*
X9499830Y398750D01*
X9665190D01*
G01X9810860Y446360D02*
X9834470Y419910D01*
X9862030Y404040D01*
X9897470Y398750D01*
X9932910Y409330D01*
X9960460Y430490D01*
X9980150Y467540D01*
X9984080Y509870D01*
X9976210Y552200D01*
X9956520Y578670D01*
X9928960Y599830D01*
X9901410Y605120D01*
X9873850Y599830D01*
X9838420Y578670D01*
X9850230Y716250D01*
X9956520D01*
G01X10259670Y398750D02*
Y716250D01*
X10114000Y488710D01*
X10310860D01*
G01X8952590Y1351250D02*
X8921090Y1340670D01*
X8897470Y1314210D01*
X8881720Y1282460D01*
X8869910Y1240120D01*
X8865980Y1192500D01*
X8869910Y1144870D01*
X8881720Y1102540D01*
X8897470Y1070780D01*
X8921090Y1044330D01*
X8952590Y1033750D01*
X8984080Y1044330D01*
X9007710Y1070780D01*
X9023460Y1102540D01*
X9035270Y1144870D01*
X9039200Y1192500D01*
X9035270Y1240120D01*
X9023460Y1282460D01*
X9007710Y1314210D01*
X8984080Y1340670D01*
X8952590Y1351250D01*
G01X9267550Y1023170D02*
X9259670Y1028460D01*
Y1039040D01*
X9267550Y1044330D01*
X9275430Y1039040D01*
Y1028460D01*
X9267550Y1023170D01*
G01X9507700Y1298330D02*
X9531330Y1330080D01*
X9558890Y1345960D01*
X9590390Y1351250D01*
X9629750Y1340670D01*
X9657320Y1314210D01*
X9665190Y1282460D01*
X9661250Y1250700D01*
X9645500Y1224250D01*
X9566760Y1171330D01*
X9531330Y1134290D01*
X9507700Y1081360D01*
X9499830Y1033750D01*
X9665190D01*
G01X9810860Y1081360D02*
X9834470Y1054910D01*
X9862030Y1039040D01*
X9897470Y1033750D01*
X9932910Y1044330D01*
X9960460Y1065490D01*
X9980150Y1102540D01*
X9984080Y1144870D01*
X9976210Y1187200D01*
X9956520Y1213670D01*
X9928960Y1234830D01*
X9901410Y1240120D01*
X9873850Y1234830D01*
X9838420Y1213670D01*
X9850230Y1351250D01*
X9956520D01*
G01X10259670Y1033750D02*
Y1351250D01*
X10114000Y1123710D01*
X10310860D01*
G01X9267550Y-3093750D02*
X9236050Y-3104330D01*
X9212430Y-3130790D01*
X9196680Y-3162540D01*
X9184870Y-3204880D01*
X9180940Y-3252500D01*
X9184870Y-3300130D01*
X9196680Y-3342460D01*
X9212430Y-3374220D01*
X9236050Y-3400670D01*
X9267550Y-3411250D01*
X9299040Y-3400670D01*
X9322670Y-3374220D01*
X9338420Y-3342460D01*
X9350230Y-3300130D01*
X9354160Y-3252500D01*
X9350230Y-3204880D01*
X9338420Y-3162540D01*
X9322670Y-3130790D01*
X9299040Y-3104330D01*
X9267550Y-3093750D01*
G01X9582510Y-3421830D02*
X9574630Y-3416540D01*
Y-3405960D01*
X9582510Y-3400670D01*
X9590390Y-3405960D01*
Y-3416540D01*
X9582510Y-3421830D01*
G01X9830540Y-3374220D02*
X9858100Y-3400670D01*
X9889590Y-3411250D01*
X9921090Y-3400670D01*
X9948650Y-3368930D01*
X9968340Y-3321290D01*
X9976210Y-3273670D01*
Y-3215460D01*
X9968340Y-3167840D01*
X9948650Y-3125500D01*
X9925030Y-3104330D01*
X9897470Y-3093750D01*
X9865970Y-3104330D01*
X9842350Y-3125500D01*
X9826600Y-3157250D01*
X9818730Y-3199590D01*
X9826600Y-3236620D01*
X9846290Y-3273670D01*
X9869910Y-3294840D01*
X9897470Y-3300130D01*
X9928960Y-3289550D01*
X9952590Y-3263090D01*
X9976210Y-3215460D01*
G01X9267550Y-2458750D02*
X9236050Y-2469330D01*
X9212430Y-2495790D01*
X9196680Y-2527540D01*
X9184870Y-2569880D01*
X9180940Y-2617500D01*
X9184870Y-2665130D01*
X9196680Y-2707460D01*
X9212430Y-2739220D01*
X9236050Y-2765670D01*
X9267550Y-2776250D01*
X9299040Y-2765670D01*
X9322670Y-2739220D01*
X9338420Y-2707460D01*
X9350230Y-2665130D01*
X9354160Y-2617500D01*
X9350230Y-2569880D01*
X9338420Y-2527540D01*
X9322670Y-2495790D01*
X9299040Y-2469330D01*
X9267550Y-2458750D01*
G01X9582510Y-2786830D02*
X9574630Y-2781540D01*
Y-2770960D01*
X9582510Y-2765670D01*
X9590390Y-2770960D01*
Y-2781540D01*
X9582510Y-2786830D01*
G01X9822660Y-2643970D02*
X9850230Y-2606910D01*
X9873850Y-2585750D01*
X9905350Y-2575170D01*
X9932910Y-2585750D01*
X9952590Y-2606910D01*
X9968340Y-2638670D01*
X9972280Y-2675710D01*
X9968340Y-2707460D01*
X9952590Y-2739220D01*
X9928960Y-2765670D01*
X9901410Y-2776250D01*
X9869910Y-2765670D01*
X9842350Y-2733930D01*
X9826600Y-2686290D01*
X9822660Y-2633380D01*
X9830540Y-2564590D01*
X9842350Y-2527540D01*
X9862030Y-2490500D01*
X9889590Y-2464040D01*
X9917150Y-2458750D01*
X9944710Y-2469330D01*
X9964400Y-2495790D01*
G01X9180940Y-2077750D02*
X9204550Y-2114800D01*
X9236050Y-2135960D01*
X9271490Y-2141250D01*
X9302990Y-2135960D01*
X9334480Y-2109510D01*
X9354160Y-2077750D01*
X9358100Y-2046000D01*
X9350230Y-2008970D01*
X9322670Y-1982500D01*
X9295110Y-1971910D01*
X9259670D01*
G01X9295110D02*
X9318730Y-1956040D01*
X9338420Y-1929590D01*
X9346290Y-1897840D01*
X9338420Y-1866080D01*
X9318730Y-1839630D01*
X9283300Y-1823750D01*
X9247870Y-1829040D01*
X9212430Y-1850210D01*
G01X9582510Y-2151830D02*
X9574630Y-2146540D01*
Y-2135960D01*
X9582510Y-2130670D01*
X9590390Y-2135960D01*
Y-2146540D01*
X9582510Y-2151830D01*
G01X9822660Y-2008970D02*
X9850230Y-1971910D01*
X9873850Y-1950750D01*
X9905350Y-1940170D01*
X9932910Y-1950750D01*
X9952590Y-1971910D01*
X9968340Y-2003670D01*
X9972280Y-2040710D01*
X9968340Y-2072460D01*
X9952590Y-2104220D01*
X9928960Y-2130670D01*
X9901410Y-2141250D01*
X9869910Y-2130670D01*
X9842350Y-2098930D01*
X9826600Y-2051290D01*
X9822660Y-1998380D01*
X9830540Y-1929590D01*
X9842350Y-1892540D01*
X9862030Y-1855500D01*
X9889590Y-1829040D01*
X9917150Y-1823750D01*
X9944710Y-1834330D01*
X9964400Y-1860790D01*
G01X9267550Y-1506250D02*
Y-1188750D01*
X9220310Y-1252250D01*
G01Y-1506250D02*
X9314790D01*
G01X9582510Y-1516830D02*
X9574630Y-1511540D01*
Y-1500960D01*
X9582510Y-1495670D01*
X9590390Y-1500960D01*
Y-1511540D01*
X9582510Y-1516830D01*
G01X9897470Y-1188750D02*
X9865970Y-1199330D01*
X9842350Y-1225790D01*
X9826600Y-1257540D01*
X9814790Y-1299880D01*
X9810860Y-1347500D01*
X9814790Y-1395130D01*
X9826600Y-1437460D01*
X9842350Y-1469220D01*
X9865970Y-1495670D01*
X9897470Y-1506250D01*
X9928960Y-1495670D01*
X9952590Y-1469220D01*
X9968340Y-1437460D01*
X9980150Y-1395130D01*
X9984080Y-1347500D01*
X9980150Y-1299880D01*
X9968340Y-1257540D01*
X9952590Y-1225790D01*
X9928960Y-1199330D01*
X9897470Y-1188750D01*
G01X9267550Y-553750D02*
X9236050Y-564330D01*
X9212430Y-590790D01*
X9196680Y-622540D01*
X9184870Y-664880D01*
X9180940Y-712500D01*
X9184870Y-760130D01*
X9196680Y-802460D01*
X9212430Y-834220D01*
X9236050Y-860670D01*
X9267550Y-871250D01*
X9299040Y-860670D01*
X9322670Y-834220D01*
X9338420Y-802460D01*
X9350230Y-760130D01*
X9354160Y-712500D01*
X9350230Y-664880D01*
X9338420Y-622540D01*
X9322670Y-590790D01*
X9299040Y-564330D01*
X9267550Y-553750D01*
G01X9582510Y-881830D02*
X9574630Y-876540D01*
Y-865960D01*
X9582510Y-860670D01*
X9590390Y-865960D01*
Y-876540D01*
X9582510Y-881830D01*
G01X9830540Y-834220D02*
X9858100Y-860670D01*
X9889590Y-871250D01*
X9921090Y-860670D01*
X9948650Y-828930D01*
X9968340Y-781290D01*
X9976210Y-733670D01*
Y-675460D01*
X9968340Y-627840D01*
X9948650Y-585500D01*
X9925030Y-564330D01*
X9897470Y-553750D01*
X9865970Y-564330D01*
X9842350Y-585500D01*
X9826600Y-617250D01*
X9818730Y-659590D01*
X9826600Y-696620D01*
X9846290Y-733670D01*
X9869910Y-754840D01*
X9897470Y-760130D01*
X9928960Y-749550D01*
X9952590Y-723090D01*
X9976210Y-675460D01*
G01X11469730Y-3728750D02*
Y-4046250D01*
G01X11379180Y-3728750D02*
X11560280D01*
G01X11784690Y-4046250D02*
X11753190Y-4040960D01*
X11725640Y-4019800D01*
X11702010Y-3988040D01*
X11686260Y-3951000D01*
X11678390Y-3908670D01*
Y-3866330D01*
X11686260Y-3824000D01*
X11702010Y-3786960D01*
X11725640Y-3755210D01*
X11753190Y-3734040D01*
X11784690Y-3728750D01*
X11816180Y-3734040D01*
X11843740Y-3755210D01*
X11867370Y-3786960D01*
X11883120Y-3824000D01*
X11890990Y-3866330D01*
Y-3908670D01*
X11883120Y-3951000D01*
X11867370Y-3988040D01*
X11843740Y-4019800D01*
X11816180Y-4040960D01*
X11784690Y-4046250D01*
G01X12099650Y-3728750D02*
Y-4046250D01*
G01X12009100Y-3728750D02*
X12190200D01*
G01X12316180Y-4046250D02*
X12414610Y-3728750D01*
X12513040Y-4046250D01*
G01X12477600Y-3935130D02*
X12351610D01*
G01X12650830Y-3728750D02*
Y-4046250D01*
X12808310D01*
G01X13276810D02*
Y-3728750D01*
G01X13442170D02*
Y-4046250D01*
G01Y-3887500D02*
X13276810D01*
G01X13674450Y-4046250D02*
X13642950Y-4040960D01*
X13615400Y-4019800D01*
X13591770Y-3988040D01*
X13576020Y-3951000D01*
X13568150Y-3908670D01*
Y-3866330D01*
X13576020Y-3824000D01*
X13591770Y-3786960D01*
X13615400Y-3755210D01*
X13642950Y-3734040D01*
X13674450Y-3728750D01*
X13705940Y-3734040D01*
X13733500Y-3755210D01*
X13757130Y-3786960D01*
X13772880Y-3824000D01*
X13780750Y-3866330D01*
Y-3908670D01*
X13772880Y-3951000D01*
X13757130Y-3988040D01*
X13733500Y-4019800D01*
X13705940Y-4040960D01*
X13674450Y-4046250D01*
G01X13910670Y-3728750D02*
Y-4046250D01*
X14068150D01*
G01X14383110D02*
X14225630D01*
Y-3728750D01*
X14383110D01*
G01X14320120Y-3882200D02*
X14225630D01*
G01X14536650Y-4003930D02*
X14568150Y-4030380D01*
X14603580Y-4046250D01*
X14635080D01*
X14666570Y-4030380D01*
X14690200Y-4003930D01*
X14702010Y-3966870D01*
X14694140Y-3929840D01*
X14674450Y-3898090D01*
X14639010Y-3876910D01*
X14591770Y-3866330D01*
X14564210Y-3845170D01*
X14552400Y-3808130D01*
X14560280Y-3771080D01*
X14579960Y-3744630D01*
X14607520Y-3728750D01*
X14635080D01*
X14662640Y-3739330D01*
X14686260Y-3765790D01*
G01X14934290Y-4056830D02*
X14926410Y-4051540D01*
Y-4040960D01*
X14934290Y-4035670D01*
X14942170Y-4040960D01*
Y-4051540D01*
X14934290Y-4056830D01*
G01Y-3913970D02*
X14926410Y-3908670D01*
Y-3898090D01*
X14934290Y-3892800D01*
X14942170Y-3898090D01*
Y-3908670D01*
X14934290Y-3913970D01*
G01X12141560Y2145000D02*
Y-3570000D01*
G01X12247860Y-3411250D02*
Y-3093750D01*
X12428960Y-3411250D01*
Y-3093750D01*
G01X12653370Y-3411250D02*
X12621870Y-3405960D01*
X12594320Y-3384800D01*
X12570690Y-3353040D01*
X12554940Y-3316000D01*
X12547070Y-3273670D01*
Y-3231330D01*
X12554940Y-3189000D01*
X12570690Y-3151960D01*
X12594320Y-3120210D01*
X12621870Y-3099040D01*
X12653370Y-3093750D01*
X12684860Y-3099040D01*
X12712420Y-3120210D01*
X12736050Y-3151960D01*
X12751800Y-3189000D01*
X12759670Y-3231330D01*
Y-3273670D01*
X12751800Y-3316000D01*
X12736050Y-3353040D01*
X12712420Y-3384800D01*
X12684860Y-3405960D01*
X12653370Y-3411250D01*
G01X12877780D02*
Y-3093750D01*
X13058880Y-3411250D01*
Y-3093750D01*
G01X13232110Y-3305420D02*
X13334470D01*
G01X13519510Y-3411250D02*
Y-3093750D01*
X13614000D01*
X13645490Y-3109630D01*
X13669120Y-3146670D01*
X13676990Y-3189000D01*
X13669120Y-3231330D01*
X13649430Y-3263090D01*
X13614000Y-3278970D01*
X13519510D01*
G01X13834470Y-3093750D02*
Y-3411250D01*
X13991950D01*
G01X14129740D02*
X14228170Y-3093750D01*
X14326600Y-3411250D01*
G01X14291160Y-3300130D02*
X14165170D01*
G01X14543130Y-3093750D02*
Y-3411250D01*
G01X14452580Y-3093750D02*
X14633680D01*
G01X14936830Y-3411250D02*
X14779350D01*
Y-3093750D01*
X14936830D01*
G01X14873840Y-3247200D02*
X14779350D01*
G01X15086440Y-3411250D02*
Y-3093750D01*
X15165170D01*
X15196670Y-3109630D01*
X15220290Y-3130790D01*
X15239980Y-3162540D01*
X15255730Y-3199590D01*
X15259660Y-3252500D01*
X15255730Y-3305420D01*
X15239980Y-3342460D01*
X15220290Y-3374220D01*
X15196670Y-3395380D01*
X15165170Y-3411250D01*
X15086440D01*
G01X12247860Y-2776250D02*
Y-2458750D01*
X12428960Y-2776250D01*
Y-2458750D01*
G01X12653370Y-2776250D02*
X12621870Y-2770960D01*
X12594320Y-2749800D01*
X12570690Y-2718040D01*
X12554940Y-2681000D01*
X12547070Y-2638670D01*
Y-2596330D01*
X12554940Y-2554000D01*
X12570690Y-2516960D01*
X12594320Y-2485210D01*
X12621870Y-2464040D01*
X12653370Y-2458750D01*
X12684860Y-2464040D01*
X12712420Y-2485210D01*
X12736050Y-2516960D01*
X12751800Y-2554000D01*
X12759670Y-2596330D01*
Y-2638670D01*
X12751800Y-2681000D01*
X12736050Y-2718040D01*
X12712420Y-2749800D01*
X12684860Y-2770960D01*
X12653370Y-2776250D01*
G01X12877780D02*
Y-2458750D01*
X13058880Y-2776250D01*
Y-2458750D01*
G01X13232110Y-2670420D02*
X13334470D01*
G01X13519510Y-2776250D02*
Y-2458750D01*
X13614000D01*
X13645490Y-2474630D01*
X13669120Y-2511670D01*
X13676990Y-2554000D01*
X13669120Y-2596330D01*
X13649430Y-2628090D01*
X13614000Y-2643970D01*
X13519510D01*
G01X13834470Y-2458750D02*
Y-2776250D01*
X13991950D01*
G01X14129740D02*
X14228170Y-2458750D01*
X14326600Y-2776250D01*
G01X14291160Y-2665130D02*
X14165170D01*
G01X14543130Y-2458750D02*
Y-2776250D01*
G01X14452580Y-2458750D02*
X14633680D01*
G01X14936830Y-2776250D02*
X14779350D01*
Y-2458750D01*
X14936830D01*
G01X14873840Y-2612200D02*
X14779350D01*
G01X15086440Y-2776250D02*
Y-2458750D01*
X15165170D01*
X15196670Y-2474630D01*
X15220290Y-2495790D01*
X15239980Y-2527540D01*
X15255730Y-2564590D01*
X15259660Y-2617500D01*
X15255730Y-2670420D01*
X15239980Y-2707460D01*
X15220290Y-2739220D01*
X15196670Y-2760380D01*
X15165170Y-2776250D01*
X15086440D01*
G01X12889590Y-2141250D02*
Y-1823750D01*
X12984080D01*
X13015570Y-1839630D01*
X13039200Y-1876670D01*
X13047070Y-1919000D01*
X13039200Y-1961330D01*
X13019510Y-1993090D01*
X12984080Y-2008970D01*
X12889590D01*
G01X13204550Y-1823750D02*
Y-2141250D01*
X13362030D01*
G01X13499820D02*
X13598250Y-1823750D01*
X13696680Y-2141250D01*
G01X13661240Y-2030130D02*
X13535250D01*
G01X13913210Y-1823750D02*
Y-2141250D01*
G01X13822660Y-1823750D02*
X14003760D01*
G01X14306910Y-2141250D02*
X14149430D01*
Y-1823750D01*
X14306910D01*
G01X14243920Y-1977200D02*
X14149430D01*
G01X14456520Y-2141250D02*
Y-1823750D01*
X14535250D01*
X14566750Y-1839630D01*
X14590370Y-1860790D01*
X14610060Y-1892540D01*
X14625810Y-1929590D01*
X14629740Y-1982500D01*
X14625810Y-2035420D01*
X14610060Y-2072460D01*
X14590370Y-2104220D01*
X14566750Y-2125380D01*
X14535250Y-2141250D01*
X14456520D01*
G01X12889590Y-1506250D02*
Y-1188750D01*
X12984080D01*
X13015570Y-1204630D01*
X13039200Y-1241670D01*
X13047070Y-1284000D01*
X13039200Y-1326330D01*
X13019510Y-1358090D01*
X12984080Y-1373970D01*
X12889590D01*
G01X13204550Y-1188750D02*
Y-1506250D01*
X13362030D01*
G01X13499820D02*
X13598250Y-1188750D01*
X13696680Y-1506250D01*
G01X13661240Y-1395130D02*
X13535250D01*
G01X13913210Y-1188750D02*
Y-1506250D01*
G01X13822660Y-1188750D02*
X14003760D01*
G01X14306910Y-1506250D02*
X14149430D01*
Y-1188750D01*
X14306910D01*
G01X14243920Y-1342200D02*
X14149430D01*
G01X14456520Y-1506250D02*
Y-1188750D01*
X14535250D01*
X14566750Y-1204630D01*
X14590370Y-1225790D01*
X14610060Y-1257540D01*
X14625810Y-1294590D01*
X14629740Y-1347500D01*
X14625810Y-1400420D01*
X14610060Y-1437460D01*
X14590370Y-1469220D01*
X14566750Y-1490380D01*
X14535250Y-1506250D01*
X14456520D01*
G01X12889590Y-871250D02*
Y-553750D01*
X12984080D01*
X13015570Y-569630D01*
X13039200Y-606670D01*
X13047070Y-649000D01*
X13039200Y-691330D01*
X13019510Y-723090D01*
X12984080Y-738970D01*
X12889590D01*
G01X13204550Y-553750D02*
Y-871250D01*
X13362030D01*
G01X13499820D02*
X13598250Y-553750D01*
X13696680Y-871250D01*
G01X13661240Y-760130D02*
X13535250D01*
G01X13913210Y-553750D02*
Y-871250D01*
G01X13822660Y-553750D02*
X14003760D01*
G01X14306910Y-871250D02*
X14149430D01*
Y-553750D01*
X14306910D01*
G01X14243920Y-707200D02*
X14149430D01*
G01X14456520Y-871250D02*
Y-553750D01*
X14535250D01*
X14566750Y-569630D01*
X14590370Y-590790D01*
X14610060Y-622540D01*
X14625810Y-659590D01*
X14629740Y-712500D01*
X14625810Y-765420D01*
X14610060Y-802460D01*
X14590370Y-834220D01*
X14566750Y-855380D01*
X14535250Y-871250D01*
X14456520D01*
G01X12889590Y-236250D02*
Y81250D01*
X12984080D01*
X13015570Y65370D01*
X13039200Y28330D01*
X13047070Y-14000D01*
X13039200Y-56330D01*
X13019510Y-88090D01*
X12984080Y-103970D01*
X12889590D01*
G01X13204550Y81250D02*
Y-236250D01*
X13362030D01*
G01X13499820D02*
X13598250Y81250D01*
X13696680Y-236250D01*
G01X13661240Y-125130D02*
X13535250D01*
G01X13913210Y81250D02*
Y-236250D01*
G01X13822660Y81250D02*
X14003760D01*
G01X14306910Y-236250D02*
X14149430D01*
Y81250D01*
X14306910D01*
G01X14243920Y-72200D02*
X14149430D01*
G01X14456520Y-236250D02*
Y81250D01*
X14535250D01*
X14566750Y65370D01*
X14590370Y44210D01*
X14610060Y12460D01*
X14625810Y-24590D01*
X14629740Y-77500D01*
X14625810Y-130420D01*
X14610060Y-167460D01*
X14590370Y-199220D01*
X14566750Y-220380D01*
X14535250Y-236250D01*
X14456520D01*
G01X12889590Y398750D02*
Y716250D01*
X12984080D01*
X13015570Y700370D01*
X13039200Y663330D01*
X13047070Y621000D01*
X13039200Y578670D01*
X13019510Y546910D01*
X12984080Y531030D01*
X12889590D01*
G01X13204550Y716250D02*
Y398750D01*
X13362030D01*
G01X13499820D02*
X13598250Y716250D01*
X13696680Y398750D01*
G01X13661240Y509870D02*
X13535250D01*
G01X13913210Y716250D02*
Y398750D01*
G01X13822660Y716250D02*
X14003760D01*
G01X14306910Y398750D02*
X14149430D01*
Y716250D01*
X14306910D01*
G01X14243920Y562800D02*
X14149430D01*
G01X14456520Y398750D02*
Y716250D01*
X14535250D01*
X14566750Y700370D01*
X14590370Y679210D01*
X14610060Y647460D01*
X14625810Y610410D01*
X14629740Y557500D01*
X14625810Y504580D01*
X14610060Y467540D01*
X14590370Y435780D01*
X14566750Y414620D01*
X14535250Y398750D01*
X14456520D01*
G01X12889590Y1033750D02*
Y1351250D01*
X12984080D01*
X13015570Y1335370D01*
X13039200Y1298330D01*
X13047070Y1256000D01*
X13039200Y1213670D01*
X13019510Y1181910D01*
X12984080Y1166030D01*
X12889590D01*
G01X13204550Y1351250D02*
Y1033750D01*
X13362030D01*
G01X13499820D02*
X13598250Y1351250D01*
X13696680Y1033750D01*
G01X13661240Y1144870D02*
X13535250D01*
G01X13913210Y1351250D02*
Y1033750D01*
G01X13822660Y1351250D02*
X14003760D01*
G01X14306910Y1033750D02*
X14149430D01*
Y1351250D01*
X14306910D01*
G01X14243920Y1197800D02*
X14149430D01*
G01X14456520Y1033750D02*
Y1351250D01*
X14535250D01*
X14566750Y1335370D01*
X14590370Y1314210D01*
X14610060Y1282460D01*
X14625810Y1245410D01*
X14629740Y1192500D01*
X14625810Y1139580D01*
X14610060Y1102540D01*
X14590370Y1070780D01*
X14566750Y1049620D01*
X14535250Y1033750D01*
X14456520D01*
G01X12889590Y1668750D02*
Y1986250D01*
X12984080D01*
X13015570Y1970370D01*
X13039200Y1933330D01*
X13047070Y1891000D01*
X13039200Y1848670D01*
X13019510Y1816910D01*
X12984080Y1801030D01*
X12889590D01*
G01X13204550Y1986250D02*
Y1668750D01*
X13362030D01*
G01X13499820D02*
X13598250Y1986250D01*
X13696680Y1668750D01*
G01X13661240Y1779870D02*
X13535250D01*
G01X13913210Y1986250D02*
Y1668750D01*
G01X13822660Y1986250D02*
X14003760D01*
G01X14306910Y1668750D02*
X14149430D01*
Y1986250D01*
X14306910D01*
G01X14243920Y1832800D02*
X14149430D01*
G01X14456520Y1668750D02*
Y1986250D01*
X14535250D01*
X14566750Y1970370D01*
X14590370Y1949210D01*
X14610060Y1917460D01*
X14625810Y1880410D01*
X14629740Y1827500D01*
X14625810Y1774580D01*
X14610060Y1737540D01*
X14590370Y1705780D01*
X14566750Y1684620D01*
X14535250Y1668750D01*
X14456520D01*
G01X15369900Y2145000D02*
Y-3570000D01*
G01X16031310Y-4046250D02*
X16039190Y-3977460D01*
X16051000Y-3919260D01*
X16066750Y-3866330D01*
X16086430Y-3808130D01*
X16117930Y-3728750D01*
X15960450D01*
G01X16401390Y-4046250D02*
Y-3728750D01*
X16255720Y-3956290D01*
X16452580D01*
G01X16602180Y-4009220D02*
X16629740Y-4035670D01*
X16661230Y-4046250D01*
X16692730Y-4035670D01*
X16720290Y-4003930D01*
X16739980Y-3956290D01*
X16747850Y-3908670D01*
Y-3850460D01*
X16739980Y-3802840D01*
X16720290Y-3760500D01*
X16696670Y-3739330D01*
X16669110Y-3728750D01*
X16637610Y-3739330D01*
X16613990Y-3760500D01*
X16598240Y-3792250D01*
X16590370Y-3834590D01*
X16598240Y-3871620D01*
X16617930Y-3908670D01*
X16641550Y-3929840D01*
X16669110Y-3935130D01*
X16700600Y-3924550D01*
X16724230Y-3898090D01*
X16747850Y-3850460D01*
G01X16196670Y-871250D02*
Y-553750D01*
X16149430Y-617250D01*
G01Y-871250D02*
X16243910D01*
G01X16503750D02*
X16511630Y-802460D01*
X16523440Y-744260D01*
X16539190Y-691330D01*
X16558870Y-633130D01*
X16590370Y-553750D01*
X16432890D01*
G01X16121860Y-103970D02*
X16149430Y-66910D01*
X16173050Y-45750D01*
X16204550Y-35170D01*
X16232110Y-45750D01*
X16251790Y-66910D01*
X16267540Y-98670D01*
X16271480Y-135710D01*
X16267540Y-167460D01*
X16251790Y-199220D01*
X16228160Y-225670D01*
X16200610Y-236250D01*
X16169110Y-225670D01*
X16141550Y-193930D01*
X16125800Y-146290D01*
X16121860Y-93380D01*
X16129740Y-24590D01*
X16141550Y12460D01*
X16161230Y49500D01*
X16188790Y75960D01*
X16216350Y81250D01*
X16243910Y70670D01*
X16263600Y44210D01*
G01X16425020Y-172750D02*
X16448630Y-209800D01*
X16480130Y-230960D01*
X16515570Y-236250D01*
X16547070Y-230960D01*
X16578560Y-204510D01*
X16598240Y-172750D01*
X16602180Y-141000D01*
X16594310Y-103970D01*
X16566750Y-77500D01*
X16539190Y-66910D01*
X16503750D01*
G01X16539190D02*
X16562810Y-51040D01*
X16582500Y-24590D01*
X16590370Y7160D01*
X16582500Y38920D01*
X16562810Y65370D01*
X16527380Y81250D01*
X16491950Y75960D01*
X16456510Y54790D01*
G01X16086430Y398750D02*
Y716250D01*
X15940760Y488710D01*
X16137620D01*
G01X16346270Y398750D02*
X16354150Y467540D01*
X16365960Y525740D01*
X16381710Y578670D01*
X16401390Y636870D01*
X16432890Y716250D01*
X16275410D01*
G01X16594300Y531030D02*
X16621870Y568090D01*
X16645490Y589250D01*
X16676990Y599830D01*
X16704550Y589250D01*
X16724230Y568090D01*
X16739980Y536330D01*
X16743920Y499290D01*
X16739980Y467540D01*
X16724230Y435780D01*
X16700600Y409330D01*
X16673050Y398750D01*
X16641550Y409330D01*
X16613990Y441070D01*
X16598240Y488710D01*
X16594300Y541620D01*
X16602180Y610410D01*
X16613990Y647460D01*
X16633670Y684500D01*
X16661230Y710960D01*
X16688790Y716250D01*
X16716350Y705670D01*
X16736040Y679210D01*
G01X16039190Y1033750D02*
Y1351250D01*
X15991950Y1287750D01*
G01Y1033750D02*
X16086430D01*
G01X16354150D02*
X16381710Y1039040D01*
X16413200Y1054910D01*
X16432890Y1081360D01*
X16440760Y1118420D01*
X16432890Y1155450D01*
X16409270Y1187200D01*
X16373830Y1203090D01*
X16334470D01*
X16310840Y1213670D01*
X16291150Y1240120D01*
X16283280Y1277160D01*
X16295100Y1314210D01*
X16322650Y1340670D01*
X16354150Y1351250D01*
X16385640Y1340670D01*
X16413200Y1314210D01*
X16425020Y1277160D01*
X16417140Y1240120D01*
X16397460Y1213670D01*
X16373830Y1203090D01*
X16334470D01*
X16299030Y1187200D01*
X16275410Y1155450D01*
X16267540Y1118420D01*
X16275410Y1081360D01*
X16295100Y1054910D01*
X16326590Y1039040D01*
X16354150Y1033750D01*
G01X16661230D02*
X16669110Y1102540D01*
X16680920Y1160740D01*
X16696670Y1213670D01*
X16716350Y1271870D01*
X16747850Y1351250D01*
X16590370D01*
G01X16039190Y1668750D02*
X16007690Y1674040D01*
X15980140Y1695200D01*
X15956510Y1726960D01*
X15940760Y1764000D01*
X15932890Y1806330D01*
Y1848670D01*
X15940760Y1891000D01*
X15956510Y1928040D01*
X15980140Y1959790D01*
X16007690Y1980960D01*
X16039190Y1986250D01*
X16070680Y1980960D01*
X16098240Y1959790D01*
X16121870Y1928040D01*
X16137620Y1891000D01*
X16145490Y1848670D01*
Y1806330D01*
X16137620Y1764000D01*
X16121870Y1726960D01*
X16098240Y1695200D01*
X16070680Y1674040D01*
X16039190Y1668750D01*
G01X16070680Y1753420D02*
X16117930Y1668750D01*
G01X16354150Y1986250D02*
Y1668750D01*
G01X16263600Y1986250D02*
X16444700D01*
G01X16669110Y1668750D02*
Y1811620D01*
X16590370Y1986250D01*
G01X16747850D02*
X16669110Y1811620D01*
G01X16279340Y-3146670D02*
X16302970Y-3114920D01*
X16330530Y-3099040D01*
X16362030Y-3093750D01*
X16401390Y-3104330D01*
X16428960Y-3130790D01*
X16436830Y-3162540D01*
X16432890Y-3194300D01*
X16417140Y-3220750D01*
X16338400Y-3273670D01*
X16302970Y-3310710D01*
X16279340Y-3363640D01*
X16271470Y-3411250D01*
X16436830D01*
G01X16279340Y-2511670D02*
X16302970Y-2479920D01*
X16330530Y-2464040D01*
X16362030Y-2458750D01*
X16401390Y-2469330D01*
X16428960Y-2495790D01*
X16436830Y-2527540D01*
X16432890Y-2559300D01*
X16417140Y-2585750D01*
X16338400Y-2638670D01*
X16302970Y-2675710D01*
X16279340Y-2728640D01*
X16271470Y-2776250D01*
X16436830D01*
G01X16354150Y-2141250D02*
Y-1823750D01*
X16306910Y-1887250D01*
G01Y-2141250D02*
X16401390D01*
G01X16354150Y-1506250D02*
Y-1188750D01*
X16306910Y-1252250D01*
G01Y-1506250D02*
X16401390D01*
M02*
