M48
METRIC,TZ
T01C.254
T02C.3048
T03C.9
T04C1.
T05C3.6
T06C.6
T07C.9
T08C1.
;LEADER: 12 
;HEADER: 
;CODE  : ASCII 
;FILE  : single210218-1-4.drl for board D:/Program/project/single-measure/PCB/#Taaaadt13164.tmp ... layers TOP and BOTTOM
;T01 Holesize 1. = 0.254000 Tolerance = +0.000000/-0.000000 PLATED MM Quantity = 663
;T02 Holesize 2. = 0.304800 Tolerance = +0.000000/-0.000000 PLATED MM Quantity = 63
;T03 Holesize 3. = 0.900000 Tolerance = +0.000000/-0.000000 PLATED MM Quantity = 17
;T04 Holesize 4. = 1.000000 Tolerance = +0.000000/-0.000000 PLATED MM Quantity = 1
;T05 Holesize 5. = 3.600000 Tolerance = +0.000000/-0.000000 PLATED MM Quantity = 1
%
G90
T01
X2950000Y-2290000
X2940000Y-2350000
X2900000Y-2410000
X2840000Y-2440000
X2760000Y-2450000
R17X-60000
X1695400Y-2254600
X1680000Y-2450000
X1620000
X1580000Y-2060000
X1560000Y-2450000
R44X-60000
X-1131600Y-2121600
X-1140000Y-2450000
X-1200000
R04X-60000
X-1480000Y-2120000
X-1500000Y-2450000
X-1560000
R08X-60000
X-2060000Y-2120000
X-2100000Y-2450000
X-2160000
R10X-60000
X-2820000Y-2448000
X-2880000Y-2426000
X-2926000Y-2380000
X-2950000Y-2080000
Y-2140000
R02Y-60000
X-2948000Y-2320000
X-2950000Y-2020000
Y-1960000
R07Y60000
X-2570000Y-1700000
X-2540000Y-2015120
X-2520000Y-1760000
X-2480000Y-1630000
X-2430000Y-1740000
X-2420000Y-1570000
X-2360000Y-1670000
X-2300000Y-1610000
X-2240000Y-1550000
X-1570000Y-1670000
X-1391400Y-1620000
X-1380000Y-1910000
Y-1810000
X-1200000Y-1570000
X-896200Y-1796200
X-540000Y-1860000
X-95720Y-1636200
X579600Y-1710400
X1042200Y-1837800
X1810000Y-1920000
X1950000
X1977000Y-1347000
X1160000Y-1340000
X1085450
X550000Y-1190000
X190000Y-1230000
X-100000Y-1310000
X-120000Y-1040000
X-826200Y-1213800
X-896200Y-1466200
X-980000Y-1420000
X-1070000Y-1510000
X-1180000Y-1420000
X-1376200Y-1340000
X-1426200Y-1306200
X-1568090Y-1510000
X-1690000
X-1740000Y-1200000
Y-1290000
Y-1400000
X-1742800Y-1087200
X-1770000Y-1510000
X-1807200Y-1137200
X-1810000Y-1037200
X-1820000Y-1290000
Y-1400000
X-1850000Y-1510000
X-1880000Y-1200000
X-1900000Y-1290000
Y-1400000
X-1930000Y-1510000
X-1960000Y-1200000
X-1980000Y-1290000
Y-1400000
X-2010000Y-1510000
X-2040000Y-1200000
X-2060000Y-1290000
Y-1400000
X-2090000Y-1510000
X-2120000Y-1200000
X-2140000Y-1290000
Y-1400000
X-2170000Y-1510000
X-2200000Y-1200000
X-2220000Y-1400000
X-2280000Y-1200000
X-2290000Y-1350000
X-2300000Y-1450000
X-2310000Y-1030000
X-2350000Y-1140000
Y-1290000
X-2360000Y-1510000
X-2410000Y-1080000
Y-1230000
X-2470000Y-1170000
X-2530000Y-1030000
Y-1150000
X-2540000Y-1395120
X-2570000Y-1090000
X-2950000Y-1060000
Y-1120000
R06Y-60000
Y-1000000
R08Y60000
X-2540000Y-775120
X-2530000Y-530000
X-2460000Y-1000000
R05Y90000
X-2350000Y-950000
R04Y90000
X-2250000Y-900000
R04Y90000
X-2220000Y-990000
X-2150000Y-850000
Y-760000
R02Y90000
X-2120000Y-960000
X-2050000Y-890000
Y-800000
R03Y90000
X-1940000Y-840000
R03Y90000
X-1816200Y-596200
X-1807200Y-937200
X-1740000Y-987200
X-1700000Y-680000
X-1697200Y-787200
X-1530000Y-600000
X-1476200Y-556200
X-1328420Y-590000
X-1226200Y-603800
X-1120000Y-710000
X-1051910Y-707360
X-701200Y-821200
X-603400Y-636600
X-600000Y-520000
X-200000Y-840000
X-90000Y-530000
X390000Y-570000
X440030Y-900000
X514580
X720000Y-720000
X780000Y-980000
X1610000Y-690000
X2452900Y-162900
X2410000Y-230000
X2020000Y-80000
X1881800Y-388200
X1570100Y-159900
X1090000Y-120000
X1026200Y-196200
X1015000Y-335000
X700000Y-120000
X300000Y-110000
X234640Y-205350
X-224800Y-502760
X-247800Y-137800
X-446740Y-149410
X-497800Y-200000
X-597800Y-270000
X-920000Y-420000
X-1592600Y-467400
X-1940000Y-30000
R05Y-90000
X-2050000Y-80000
R04Y-90000
X-2150000Y-40000
R05Y-90000
X-2250000Y-90000
R04Y-90000
X-2350000Y-50000
R05Y-90000
X-2440000Y-410000
X-2520000
X-2540000Y-155120
X-2570000Y-470000
X-2950000Y-40000
R07Y-60000
Y20000
R08Y60000
X-2560000Y150000
X-2545120Y464880
X-2530000Y390000
X-2510000Y90000
X-2490000Y320000
X-2470000Y210000
X-2420000Y90000
Y270000
Y470000
X-2380000Y390000
X-2360000Y210000
X-2350000Y40000
X-2320000Y330000
X-2300000Y150000
X-2270000Y450000
X-2260000Y270000
X-2250000Y0
Y90000
X-2210000Y390000
X-2200000Y210000
X-2160000Y500000
X-2150000Y50000
Y140000
Y330000
X-2100000Y440000
X-2090000Y270000
X-2050000Y10000
R02Y90000
X-2040000Y380000
X-2020000Y500000
X-1980000Y320000
X-1940000Y60000
Y150000
Y240000
X-1820200Y310000
X-1610000Y300000
X-1500000Y270000
X-1423760Y290000
X-1316200Y246200
X-1283360Y346200
X-993800Y396200
X-910000Y91760
X-830000Y100000
X-360000Y160000
X-197800Y97800
X390000Y320000
Y430000
X615200Y220000
X660000Y280000
X790000Y451910
X928090
X1093800Y206200
X1100000Y410000
X1330200Y60000
X1660000Y470000
X1990000Y50000
X2950000Y230000
R04Y60000
Y1010000
R08Y-60000
X1840200Y860200
X1330000Y800000
X1009600Y929600
X1009000Y601000
X133800Y946200
X-106200Y896200
X-680000Y560000
X-750000
X-970000Y510000
X-973800Y646200
X-980000Y580000
X-1036200Y796200
Y696200
X-1318200Y770000
X-1490000Y811200
X-1590000Y770000
X-1628800Y921200
X-1750000Y930000
X-1820000Y870000
X-1850000Y696200
Y560000
X-2210000Y1010000
Y920000
R04Y-90000
X-2320000Y970000
R05Y-90000
X-2420000Y1010000
R05Y-90000
X-2510000Y830000
X-2530000Y700000
Y630000
Y550000
X-2570000Y770000
X-2950000Y980000
Y920000
R06Y-60000
Y1040000
R08Y60000
X-2570000Y1390000
X-2545120Y1084880
X-2510000Y1450000
X-2480000Y1330000
X-2420000Y1100000
R02Y90000
Y1440000
X-2320000Y1060000
Y1150000
R04Y90000
X-2210000Y1100000
R04Y90000
X-1510000Y1480000
X-1190000Y1120000
X-1140000Y1250000
X-970000Y1280000
X-897800Y1281760
X-747800Y1297800
X-505460Y1500000
X-70000Y1480000
X690000Y1200000
X780000Y1060000
X1010000Y1470000
X1530000Y1100000
X1696400Y1446400
X1843000Y1460000
X2950000Y1070000
R07Y60000
Y2030000
R08Y-60000
X1630000Y1960000
X860000Y1940000
X180000Y1640000
X90000Y1690000
X-820000Y1580000
X-830000Y1700000
X-980000Y1860000
Y1800000
X-1180000Y1620000
X-2210000Y1730000
Y1640000
Y1550000
X-2250000Y2000000
X-2320000Y1870000
Y1780000
R02Y-90000
X-2380000Y1950000
X-2470000
X-2545120Y1704880
X-2570000Y2010000
X-2950000Y2000000
R07Y-60000
Y2060000
R04Y60000
X-2930000Y2370000
X-2890000Y2420000
X-2830000Y2440000
X-2770000Y2450000
X-2710000
R03X60000
X-2520000Y2070000
X-2470000Y2450000
X-2430000Y2070000
X-2410000Y2450000
X-2350000
X-2320000Y2060000
X-2290000Y2450000
R25X60000
X-782400Y2237600
X-730000Y2450000
X-670000
R12X60000
X54400Y2095600
X110000Y2450000
X170000
X290000
X350000
X370000Y2095600
X410000Y2450000
R18X60000
X1530000Y2050000
X1550000Y2450000
X1610000
R20X60000
X2870000Y2430000
X2920000Y2390000
X2950000Y2090000
R03Y60000
X2948000Y2330000
T02
X-710000Y-1690000
R02Y90000
X-640000Y-1690000
R02Y90000
X150600Y-1561200
X690000Y-1310000
Y-1250000
Y-1190000
X750000Y-1310000
R02Y60000
X2100000Y-1800000
Y-1740000
X2160000Y-1800000
Y-1740000
X2220000Y-1800000
Y-1740000
X2460000Y-410000
R02Y-60000
X2400000Y-410000
R02Y-60000
X1790000Y-280000
Y-350000
X1720000Y-280000
Y-350000
X1650000Y-280000
Y-350000
X1580000Y-280000
Y-350000
X1510000Y-280000
Y-350000
X380000Y-20000
X320000
Y40000
Y100000
X380000Y40000
Y100000
X20000Y1490000
Y1550000
X270000Y1450000
Y1520000
Y1640000
X340000Y1450000
Y1520000
X410000Y1450000
Y1520000
X480000Y1450000
Y1520000
X1219400Y1612200
X1950000Y1530000
R04Y70000
X2020000Y1530000
R04Y70000
T03
X-367000Y1676000
R02Y254000
X-113000
R02Y-254000
X1534600Y665000
R02Y-254000
X1788600
R02Y254000
X2350800Y706600
R04Y254000
T04
X-1351200Y-962200
T05
X-1887400Y1874800
M30
