G04 ================== begin FILE IDENTIFICATION RECORD ==================*
G04 Layout Name:  E:/application/Cadence/project/single-measure/PCB/single20210120.brd*
G04 Film Name:    art04*
G04 File Format:  Gerber RS274X*
G04 File Origin:  Cadence Allegro 17.2-S058*
G04 Origin Date:  Wed Jan 20 22:19:32 2021*
G04 *
G04 Layer:  VIA CLASS/BOTTOM*
G04 Layer:  PIN/BOTTOM*
G04 Layer:  ETCH/BOTTOM*
G04 Layer:  BOARD GEOMETRY/DESIGN_OUTLINE*
G04 *
G04 Offset:    (0.0000 0.0000)*
G04 Mirror:    No*
G04 Mode:      Positive*
G04 Rotation:  0*
G04 FullContactRelief:  No*
G04 UndefLineWidth:     0.1520*
G04 ================== end FILE IDENTIFICATION RECORD ====================*
%FSLAX55Y55*MOMM*%
%IR0*IPPOS*OFA0.00000B0.00000*MIA0B0*SFA1.00000B1.00000*%
%ADD19C,.7*%
%ADD11C,.508*%
%ADD10C,.4064*%
%ADD12C,.4572*%
%ADD15R,.5X.4*%
%ADD18C,1.*%
%ADD16R,.4X.5*%
%ADD14C,1.4*%
%ADD17C,1.6*%
%ADD13C,6.2*%
%ADD20C,.127*%
%ADD21C,.152*%
%ADD24C,.7116*%
%ADD23C,.7624*%
%ADD22C,.6608*%
%ADD27C,.9544*%
%ADD26C,1.2544*%
%ADD25C,1.8544*%
G75*
%LPD*%
G75*
G36*
G01X-1370730Y2474590D02*
G02X-1361150Y2461040I1J-10161D01*
G03X-1363050Y2450010I31146J-11044D01*
G01Y2450000D01*
G03X-1350000Y2423690I33047J0D01*
G01Y1680000D01*
X-1900000Y1330000D01*
Y456530D01*
X-1953150D01*
X-1985950Y489330D01*
X-1985320Y492070D01*
G03X-1984420Y500000I-34674J7951D01*
G03X-2020000Y464420I-35580J0D01*
G03X-2012060Y465320I-12J35579D01*
G01X-2009320Y465940D01*
X-1971690Y428310D01*
G03X-1960000Y423470I11690J11697D01*
G01X-1900000D01*
Y-400000D01*
X-1860000Y-440000D01*
X-1710000D01*
X-1660000Y-490000D01*
Y-525340D01*
G02X-1676790Y-533030I-10159J6D01*
G03X-1700000Y-524420I-23210J-26979D01*
G03Y-595580I0J-35580D01*
G03X-1676790Y-586970I0J35589D01*
G02X-1660000Y-594660I6631J-7696D01*
G01Y-750310D01*
G02X-1676170Y-758500I-10160J1D01*
G03X-1697200Y-751620I-21030J-28701D01*
G03X-1732780Y-787200I0J-35580D01*
G03X-1713730Y-818710I35585J0D01*
G01Y-947120D01*
G02X-1727680Y-956540I-10159J5D01*
G03X-1739990Y-954160I-12313J-30661D01*
G01X-1740000D01*
G03Y-1020240I0J-33040D01*
G01X-1739990D01*
G03X-1727680Y-1017860I-3J33041D01*
G02X-1713730Y-1027280I3791J-9425D01*
G01Y-1048360D01*
G02X-1728340Y-1057490I-10159J2D01*
G03X-1742790Y-1054160I-14456J-29711D01*
G01X-1742800D01*
G03Y-1120240I0J-33040D01*
G01X-1742790D01*
G03X-1728340Y-1116910I-6J33041D01*
G02X-1713730Y-1126040I4451J-9132D01*
G01Y-1432800D01*
G03X-1708890Y-1444490I16537J0D01*
G01X-1631690Y-1521690D01*
G03X-1620000Y-1526530I11690J11697D01*
G01X-1599600D01*
G03X-1536580I31510J16535D01*
G01X-1330000D01*
Y-2415660D01*
X-1333200Y-2416940D01*
G03X-1355590Y-2450000I13212J-33060D01*
G03X-1353770Y-2461230I35595J6D01*
G02X-1363410Y-2474590I-9643J-3200D01*
G01X-2800000D01*
G02X-2974590Y-2300000I0J174590D01*
G01Y2300000D01*
G02X-2800000Y2474590I174590J0D01*
G01X-1370730D01*
G37*
G36*
G01X-1818490Y679670D02*
X-1067710D01*
G03X-1036200Y660620I31510J16535D01*
G03X-1022740Y663270I-14J35577D01*
G02X-1008880Y652160I3843J-9406D01*
G03X-1009380Y646230I35081J-5944D01*
G01Y646200D01*
G03X-973800Y610620I35580J0D01*
G03X-965860Y611520I-12J35579D01*
G01X-963120Y612140D01*
X-950490Y599510D01*
G03X-938800Y594670I11690J11697D01*
G01X-885580D01*
G02X-881990Y586000I-4J-5080D01*
G01X-882720Y585270D01*
Y-95270D01*
X-855270Y-122720D01*
X-804730D01*
X-777280Y-95270D01*
Y494730D01*
X-764730Y507280D01*
X-654730D01*
X-627280Y534730D01*
Y585270D01*
X-628010Y586000D01*
G02X-624420Y594670I3594J3590D01*
G01X820000D01*
Y560000D01*
X900000Y480000D01*
X953470D01*
Y-290000D01*
G03X958310Y-301690I16537J0D01*
G01X980940Y-324320D01*
X980380Y-326780D01*
Y-326810D01*
X980320Y-327090D01*
G03X979420Y-335000I34676J-7952D01*
G03X1015000Y-299420I35580J0D01*
G03X1007060Y-300320I12J-35579D01*
G01X1004320Y-300940D01*
X986530Y-283150D01*
Y480000D01*
X1340000D01*
X1370000Y450000D01*
Y94840D01*
G02X1353260Y87100I-10159J-2D01*
G03X1330200Y95580I-23060J-27114D01*
G03Y24420I0J-35580D01*
G03X1353260Y32900I0J35594D01*
G02X1370000Y25160I6581J-7738D01*
G01Y-276620D01*
X1096620Y-550000D01*
X530000D01*
X526530Y-553470D01*
X421510D01*
G03X390000Y-534420I-31510J-16535D01*
G03Y-605580I0J-35580D01*
G03X421510Y-586530I0J35585D01*
G01X468940D01*
G02X476130Y-603870I2J-10160D01*
G01X-120000Y-1200000D01*
X-530000D01*
X-800000Y-1470000D01*
Y-1580000D01*
X-830000Y-1610000D01*
X-1165340D01*
G02X-1173030Y-1593210I6J10159D01*
G03X-1164420Y-1570000I-26979J23210D01*
G03X-1175620Y-1544090I-35570J0D01*
G02X-1168660Y-1526530I6964J7399D01*
G01X-1101510D01*
G03X-1070000Y-1545580I31510J16535D01*
G03Y-1474420I0J35580D01*
G03X-1101510Y-1493470I0J-35585D01*
G01X-1290000D01*
Y-1490000D01*
X-1317280D01*
Y-1257280D01*
X-1614730D01*
X-1620000Y-1252010D01*
Y-509770D01*
G02X-1606010Y-500360I10159J2D01*
G03X-1592600Y-502980I13401J32962D01*
G03Y-431820I0J35580D01*
G03X-1623090Y-449070I0J-35571D01*
G02X-1638980Y-451020I-8707J5237D01*
G01X-1690000Y-400000D01*
X-1840000D01*
X-1860000Y-380000D01*
Y423470D01*
X-1542720D01*
Y404730D01*
X-1522990Y385000D01*
X-1542720Y365270D01*
Y234730D01*
X-1515270Y207280D01*
X-1474730D01*
X-1447280Y234730D01*
Y284730D01*
X-1434730Y297280D01*
X-1254730D01*
X-1227280Y324730D01*
Y365270D01*
X-1242010Y380000D01*
X-1217280Y404730D01*
Y445270D01*
X-1244730Y472720D01*
X-1515270D01*
X-1531460Y456530D01*
X-1860000D01*
Y514260D01*
G02X-1849880Y524420I10160J0D01*
G03X-1818490Y543470I-118J35581D01*
G01X-1026850D01*
X-1004060Y520680D01*
X-1004620Y518220D01*
Y518190D01*
X-1004680Y517910D01*
G03X-1005580Y510000I34676J-7952D01*
G03X-970000Y545580I35580J0D01*
G03X-977940Y544680I12J-35579D01*
G01X-980680Y544060D01*
X-1008310Y571690D01*
G03X-1020000Y576530I-11690J-11697D01*
G01X-1818490D01*
G03X-1849880Y595580I-31508J-16531D01*
G02X-1860000Y605740I40J10160D01*
G01Y650460D01*
G02X-1849880Y660620I10160J0D01*
G03X-1818490Y679670I-118J35581D01*
G37*
G36*
G01X250000Y1390000D02*
X370000D01*
X490000Y1270000D01*
Y1190000D01*
X570000Y1110000D01*
X770000D01*
X779980Y1100020D01*
X775270Y1095300D01*
X773700Y1095020D01*
G03X744420Y1060000I6303J-35020D01*
G03X780000Y1024420I35580J0D01*
G03X803210Y1033030I0J35589D01*
G02X820000Y1025340I6631J-7696D01*
G01Y627730D01*
X-931950D01*
X-939740Y635520D01*
X-939120Y638260D01*
G03X-938220Y646200I-34679J7952D01*
G03X-973800Y681780I-35580J0D01*
G03X-987260Y679130I14J-35577D01*
G02X-1001120Y690240I-3843J9406D01*
G03X-1000620Y696170I-35081J5944D01*
G01Y696200D01*
G03X-1036200Y731780I-35580J0D01*
G03X-1067710Y712730I0J-35585D01*
G01X-1818490D01*
G03X-1849880Y731780I-31508J-16531D01*
G02X-1860000Y741940I40J10160D01*
G01Y1310000D01*
X-1559200Y1501420D01*
G02X-1544170Y1489900I5270J-8690D01*
G03X-1545580Y1480000I34168J-9917D01*
G03X-1474420I35580J0D01*
G03X-1504490Y1515150I-35579J0D01*
G02X-1508530Y1533660I1568J10038D01*
G01X-1310000Y1660000D01*
Y2423690D01*
G03X-1296950Y2450000I-19997J26310D01*
G01Y2450010D01*
G03X-1301600Y2466910I-33047J-3D01*
G02X-1297240Y2474590I4362J2601D01*
G01X190000D01*
Y1685740D01*
G02X179880Y1675580I-10160J0D01*
G03Y1604420I120J-35580D01*
G02X190000Y1594260I-40J-10160D01*
G01Y1450000D01*
X250000Y1390000D01*
G37*
G36*
G01X-1278090Y-2474590D02*
G02X-1282700Y-2467370I-2J5080D01*
G03X-1278850Y-2450000I-37298J17379D01*
G03X-1290000Y-2421830I-41160J0D01*
G01Y-1700000D01*
X-1240000Y-1650000D01*
X-820000D01*
X-760000Y-1590000D01*
Y-1490000D01*
X-510000Y-1240000D01*
X-100000D01*
X550000Y-590000D01*
X1290000D01*
X1410000Y-470000D01*
Y-283380D01*
X1671690Y-21690D01*
G03X1676530Y-10000I-11697J11690D01*
G01Y438490D01*
G03X1695580Y470000I-16535J31510D01*
G03X1684380Y495910I-35570J0D01*
G02X1691340Y513470I6964J7399D01*
G01X1743180D01*
G02X1747660Y494190I1J-10160D01*
G03X1695880Y411000I40937J-83190D01*
G03X1881320I92720J0D01*
G03X1829540Y494190I-92717J0D01*
G02X1834020Y513470I4479J9120D01*
G01X2174200D01*
G03X2185890Y518310I0J16537D01*
G01X2297910Y630340D01*
X2301340Y628170D01*
G03X2350790Y613880I49455J78432D01*
G01X2350800D01*
G03X2258080Y706600I0J92720D01*
G01Y706590D01*
G03X2272370Y657140I92722J5D01*
G01X2274540Y653710D01*
X2167350Y546530D01*
X976850D01*
X900490Y622890D01*
G03X888800Y627730I-11690J-11697D01*
G01X860000D01*
Y1060000D01*
X770000Y1150000D01*
X590000D01*
X530000Y1210000D01*
Y1520000D01*
X515100Y1534900D01*
X514720Y1535740D01*
G03X495740Y1554720I-34720J-15740D01*
G01X494900Y1555100D01*
X470000Y1580000D01*
X280000D01*
X274120Y1585880D01*
G02X278930Y1602940I7185J7182D01*
G03X308120Y1640000I-8931J37060D01*
G03X270000Y1678120I-38120J0D01*
G03X246440Y1669970I0J-38129D01*
G02X230000Y1677950I-6281J7985D01*
G01Y2474590D01*
X2800000D01*
G02X2974590Y2300000I0J-174590D01*
G01Y-2300000D01*
G02X2800000Y-2474590I-174590J0D01*
G01X-1278090D01*
G37*
G36*
G01X-1510000Y460000D02*
X-1250000D01*
X-1230000Y440000D01*
Y410000D01*
X-1250000Y390000D01*
X-1252010D01*
X-1254730Y392720D01*
X-1512720D01*
X-1530000Y410000D01*
Y440000D01*
X-1510000Y460000D01*
G37*
G36*
G01Y380000D02*
X-1260000D01*
X-1240000Y360000D01*
Y330000D01*
X-1260000Y310000D01*
X-1440000D01*
X-1460000Y290000D01*
Y240000D01*
X-1480000Y220000D01*
X-1510000D01*
X-1530000Y240000D01*
Y360000D01*
X-1510000Y380000D01*
G37*
G36*
G01X-935330Y594670D02*
X-894670D01*
X-882720Y582720D01*
Y147280D01*
X-900000Y130000D01*
X-930000D01*
X-950000Y150000D01*
Y480570D01*
G03Y539430I-20006J29430D01*
G01Y580000D01*
X-935330Y594670D01*
G37*
G36*
G01X-855330D02*
X-654670D01*
X-640000Y580000D01*
Y540000D01*
X-660000Y520000D01*
X-770000D01*
X-790000Y500000D01*
Y-90000D01*
X-810000Y-110000D01*
X-850000D01*
X-870000Y-90000D01*
Y580000D01*
X-855330Y594670D01*
G37*
G36*
G01X1580020Y513470D02*
X1628650D01*
G02X1635620Y495910I6J-10161D01*
G03X1624420Y470000I24370J-25910D01*
G03X1643470Y438490I35585J0D01*
G01Y-3150D01*
X1427340Y-219280D01*
G02X1410000Y-212100I-7181J7186D01*
G01Y470000D01*
X1383870Y496130D01*
G02X1391060Y513470I7188J7180D01*
G01X1489180D01*
G02X1493660Y494190I1J-10160D01*
G03X1441880Y411000I40937J-83190D01*
G03X1627320I92720J0D01*
G03X1575540Y494190I-92717J0D01*
G02X1580020Y513470I4479J9120D01*
G37*
%LPC*%
G75*
G36*
G01X-1461690Y124090D02*
X-1350260Y235520D01*
X-1350880Y238260D01*
G02X-1351780Y246200I34679J7952D01*
G02X-1316200Y210620I35580J0D01*
G02X-1324140Y211520I12J35579D01*
G01X-1326880Y212140D01*
X-1433470Y105550D01*
Y-7600D01*
G02X-1438310Y-19290I-16537J0D01*
G01X-1599510Y-180490D01*
G02X-1611200Y-185330I-11690J11697D01*
G02X-1627730Y-168800I0J16530D01*
G02X-1622890Y-157110I16537J0D01*
G01X-1466530Y-750D01*
Y112400D01*
G02X-1461690Y124090I16537J0D01*
G37*
G36*
G01X-1523720Y-564980D02*
G03X-1511770Y-555250I1794J10000D01*
G02X-1476200Y-520620I35570J-953D01*
G02Y-591780I0J-35580D01*
G02X-1482480Y-591220I8J35579D01*
G03X-1494430Y-600950I-1794J-10000D01*
G02X-1530000Y-635580I-35570J953D01*
G02Y-564420I0J35580D01*
G02X-1523720Y-564980I-8J-35579D01*
G37*
G36*
G01X267280Y45270D02*
Y125270D01*
X294730Y152720D01*
X405270D01*
X432720Y125270D01*
Y-45270D01*
X405270Y-72720D01*
X-174760D01*
G03X-181950Y-90060I-3J-10159D01*
G01X-177280Y-94730D01*
Y-355270D01*
X-204730Y-382720D01*
X-275270D01*
X-302720Y-355270D01*
Y-94730D01*
X-275270Y-67280D01*
X-245240D01*
G03X-238050Y-49940I3J10159D01*
G01X-242720Y-45270D01*
Y125270D01*
X-215270Y152720D01*
X-134730D01*
X-107280Y125270D01*
Y32720D01*
X254730D01*
X267280Y45270D01*
G37*
G36*
G01X-1292720Y-534730D02*
X-1265270Y-507280D01*
X-1114730D01*
X-1087280Y-534730D01*
Y-695990D01*
X-1086920Y-696890D01*
G02X-1084420Y-710000I-33082J-13102D01*
G02X-1086920Y-723110I-35582J-8D01*
G01X-1087280Y-724010D01*
Y-755270D01*
X-1114730Y-782720D01*
X-1155270D01*
X-1182720Y-755270D01*
Y-665270D01*
X-1195270Y-652720D01*
X-1265270D01*
X-1292720Y-625270D01*
Y-616750D01*
X-1301630Y-613410D01*
G02X-1328420Y-625580I-26790J23402D01*
G02Y-554420I0J35580D01*
G02X-1308550Y-560480I7J-35582D01*
G03X-1292720Y-552060I5672J8427D01*
G01Y-534730D01*
G37*
G36*
G01X-482090Y-153450D02*
G02X-482320Y-149410I35350J4039D01*
G02X-446740Y-184990I35580J0D01*
G02X-451110Y-184720I5J35580D01*
G03X-462450Y-195960I-1246J-10083D01*
G02X-462220Y-200000I-35350J-4039D01*
G02X-497800Y-164420I-35580J0D01*
G02X-493430Y-164690I-5J-35580D01*
G03X-482090Y-153450I1246J10083D01*
G37*
G36*
G01X421510Y413470D02*
G02X390000Y394420I-31510J16535D01*
G02Y465580I0J35580D01*
G02X421510Y446530I0J-35585D01*
G01X510000D01*
G02X521690Y441690I0J-16537D01*
G01X649320Y314060D01*
X652060Y314680D01*
G02X660000Y315580I7952J-34679D01*
G02Y244420I0J-35580D01*
G02X658950Y244440I152J35577D01*
G03X649000Y231110I-297J-10157D01*
G02X650780Y220000I-33800J-11113D01*
G02X615200Y255580I-35580J0D01*
G02X616250Y255560I-152J-35577D01*
G03X626200Y268890I297J10157D01*
G02X624420Y280000I33800J11113D01*
G02X625320Y287940I35579J-12D01*
G01X625940Y290680D01*
X503150Y413470D01*
X421510D01*
G37*
G36*
G01X192720Y934730D02*
X165270Y907280D01*
X-5270D01*
X-32720Y934730D01*
Y1595270D01*
X-5270Y1622720D01*
X45270D01*
X72720Y1595270D01*
Y1045270D01*
X85270Y1032720D01*
X165270D01*
X192720Y1005270D01*
Y934730D01*
G37*
G36*
G01X-47280Y844730D02*
X-84730Y807280D01*
X-415270D01*
X-452720Y844730D01*
Y915270D01*
X-415270Y952720D01*
X-84730D01*
X-47280Y915270D01*
Y844730D01*
G37*
G36*
G01X-954730Y1187280D02*
X-1005270D01*
X-1032720Y1214730D01*
Y1885270D01*
X-1005270Y1912720D01*
X-954730D01*
X-927280Y1885270D01*
Y1214730D01*
X-954730Y1187280D01*
G37*
G36*
G01X-1156530Y1120000D02*
Y1218490D01*
G02X-1175580Y1250000I16535J31510D01*
G02X-1104420I35580J0D01*
G02X-1123470Y1218490I-35585J0D01*
G01Y1126850D01*
X-988310Y991690D01*
G02X-983470Y980000I-11697J-11690D01*
G01Y832400D01*
G02X-988310Y820710I-16537J0D01*
G01X-1002140Y806880D01*
X-1001520Y804140D01*
G02X-1000620Y796200I-34679J-7952D01*
G02X-1036200Y831780I-35580J0D01*
G02X-1028260Y830880I-12J-35579D01*
G01X-1025520Y830260D01*
X-1016530Y839250D01*
Y973150D01*
X-1151690Y1108310D01*
G02X-1156530Y1120000I11697J11690D01*
G37*
G36*
G01X2126470Y-1712570D02*
G03X2133530I3530J3654D01*
G02X2186470I26470J-27427D01*
G03X2193530I3530J3654D01*
G02X2220000Y-1701880I26470J-27427D01*
G02X2258120Y-1740000I0J-38120D01*
G02X2247430Y-1766470I-38117J0D01*
G03Y-1773530I3654J-3530D01*
G02X2258120Y-1800000I-27427J-26470D01*
G02X2220000Y-1838120I-38120J0D01*
G02X2193530Y-1827430I0J38117D01*
G03X2186470I-3530J-3654D01*
G02X2133530I-26470J27427D01*
G03X2126470I-3530J-3654D01*
G02X2100000Y-1838120I-26470J27427D01*
G02X2061880Y-1800000I0J38120D01*
G02X2072570Y-1773530I38117J0D01*
G03Y-1766470I-3654J3530D01*
G02X2061880Y-1740000I27427J26470D01*
G02X2100000Y-1701880I38120J0D01*
G02X2126470Y-1712570I0J-38117D01*
G37*
G36*
G01X-667630Y-1716260D02*
G03X-682370I-7370J-6995D01*
G02X-710000Y-1728120I-27630J26255D01*
G02Y-1651880I0J38120D01*
G02X-682370Y-1663740I0J-38115D01*
G03X-667630I7370J6995D01*
G02X-640000Y-1651880I27630J-26255D01*
G02Y-1728120I0J-38120D01*
G02X-667630Y-1716260I0J38115D01*
G37*
G36*
G01Y-1626260D02*
G03X-682370I-7370J-6995D01*
G02X-710000Y-1638120I-27630J26255D01*
G02Y-1561880I0J38120D01*
G02X-682370Y-1573740I0J-38115D01*
G03X-667630I7370J6995D01*
G02X-640000Y-1561880I27630J-26255D01*
G02Y-1638120I0J-38120D01*
G02X-667630Y-1626260I0J38115D01*
G37*
G36*
G01Y-1536260D02*
G03X-682370I-7370J-6995D01*
G02X-710000Y-1548120I-27630J26255D01*
G02Y-1471880I0J38120D01*
G02X-682370Y-1483740I0J-38115D01*
G03X-667630I7370J6995D01*
G02X-640000Y-1471880I27630J-26255D01*
G02Y-1548120I0J-38120D01*
G02X-667630Y-1536260I0J38115D01*
G37*
G36*
G01X662570Y-1223530D02*
G03Y-1216470I-3654J3530D01*
G02X651880Y-1190000I27427J26470D01*
G02X690000Y-1151880I38120J0D01*
G02X716470Y-1162570I0J-38117D01*
G03X723530I3530J3654D01*
G02X750000Y-1151880I26470J-27427D01*
G02X788120Y-1190000I0J-38120D01*
G02X777430Y-1216470I-38117J0D01*
G03Y-1223530I3654J-3530D01*
G02Y-1276470I-27427J-26470D01*
G03Y-1283530I3654J-3530D01*
G02X788120Y-1310000I-27427J-26470D01*
G02X750000Y-1348120I-38120J0D01*
G02X723530Y-1337430I0J38117D01*
G03X716470I-3530J-3654D01*
G02X690000Y-1348120I-26470J27427D01*
G02X651880Y-1310000I0J38120D01*
G02X662570Y-1283530I38117J0D01*
G03Y-1276470I-3654J3530D01*
G02Y-1223530I27427J26470D01*
G37*
G36*
G01X2372570Y-443530D02*
G03Y-436470I-3654J3530D01*
G02X2361880Y-410000I27427J26470D01*
G02X2400000Y-371880I38120J0D01*
G02X2426470Y-382570I0J-38117D01*
G03X2433530I3530J3654D01*
G02X2460000Y-371880I26470J-27427D01*
G02X2498120Y-410000I0J-38120D01*
G02X2487430Y-436470I-38117J0D01*
G03Y-443530I3654J-3530D01*
G02Y-496470I-27427J-26470D01*
G03Y-503530I3654J-3530D01*
G02X2498120Y-530000I-27427J-26470D01*
G02X2460000Y-568120I-38120J0D01*
G02X2433530Y-557430I0J38117D01*
G03X2426470I-3530J-3654D01*
G02X2400000Y-568120I-26470J27427D01*
G02X2361880Y-530000I0J38120D01*
G02X2372570Y-503530I38117J0D01*
G03Y-496470I-3654J3530D01*
G02Y-443530I27427J26470D01*
G37*
G36*
G01X1677630Y-253740D02*
G03X1692370I7370J6995D01*
G02X1747630I27630J-26255D01*
G03X1762370I7370J6995D01*
G02X1790000Y-241880I27630J-26255D01*
G02X1828120Y-280000I0J-38120D01*
G02X1816260Y-307630I-38115J0D01*
G03Y-322370I6995J-7370D01*
G02X1828120Y-350000I-26255J-27630D01*
G02X1790000Y-388120I-38120J0D01*
G02X1762370Y-376260I0J38115D01*
G03X1747630I-7370J-6995D01*
G02X1692370I-27630J26255D01*
G03X1677630I-7370J-6995D01*
G02X1622370I-27630J26255D01*
G03X1607630I-7370J-6995D01*
G02X1552370I-27630J26255D01*
G03X1537630I-7370J-6995D01*
G02X1510000Y-388120I-27630J26255D01*
G02X1471880Y-350000I0J38120D01*
G02X1483740Y-322370I38115J0D01*
G03Y-307630I-6995J7370D01*
G02X1471880Y-280000I26255J27630D01*
G02X1510000Y-241880I38120J0D01*
G02X1537630Y-253740I0J-38115D01*
G03X1552370I7370J6995D01*
G02X1607630I27630J-26255D01*
G03X1622370I7370J6995D01*
G02X1677630I27630J-26255D01*
G37*
G36*
G01X1923740Y1767630D02*
G03Y1782370I-6995J7370D01*
G02X1911880Y1810000I26255J27630D01*
G02X1950000Y1848120I38120J0D01*
G02X1977630Y1836260I0J-38115D01*
G03X1992370I7370J6995D01*
G02X2020000Y1848120I27630J-26255D01*
G02X2058120Y1810000I0J-38120D01*
G02X2046260Y1782370I-38115J0D01*
G03Y1767630I6995J-7370D01*
G02Y1712370I-26255J-27630D01*
G03Y1697630I6995J-7370D01*
G02Y1642370I-26255J-27630D01*
G03Y1627630I6995J-7370D01*
G02Y1572370I-26255J-27630D01*
G03Y1557630I6995J-7370D01*
G02X2058120Y1530000I-26255J-27630D01*
G02X2020000Y1491880I-38120J0D01*
G02X1992370Y1503740I0J38115D01*
G03X1977630I-7370J-6995D01*
G02X1950000Y1491880I-27630J26255D01*
G02X1911880Y1530000I0J38120D01*
G02X1923740Y1557630I38115J0D01*
G03Y1572370I-6995J7370D01*
G02Y1627630I26255J27630D01*
G03Y1642370I-6995J7370D01*
G02Y1697630I26255J27630D01*
G03Y1712370I-6995J7370D01*
G02Y1767630I26255J27630D01*
G37*
G36*
G01X1114450Y-1360620D02*
G02X1085450Y-1375580I-29000J20628D01*
G02Y-1304420I0J35580D01*
G02X1114450Y-1319380I0J-35588D01*
G03X1131000I8275J5888D01*
G02X1160000Y-1304420I29000J-20628D01*
G02Y-1375580I0J-35580D01*
G02X1131000Y-1360620I0J35588D01*
G03X1114450I-8275J-5888D01*
G37*
G36*
G01X469030Y-920620D02*
G02X440030Y-935580I-29000J20628D01*
G02Y-864420I0J35580D01*
G02X469030Y-879380I0J-35588D01*
G03X485580I8275J5888D01*
G02X514580Y-864420I29000J-20628D01*
G02Y-935580I0J-35580D01*
G02X485580Y-920620I0J35588D01*
G03X469030I-8275J-5888D01*
G37*
G54D24*
X-1380000Y-1910000D03*
X-1816200Y-596200D03*
X-1391400Y-1620000D03*
X-2060000Y-2120000D03*
X-1480000D03*
X-600000Y-520000D03*
X-920000Y-420000D03*
X-360000Y160000D03*
X-597800Y-270000D03*
X1100000Y410000D03*
X-224800Y-502760D03*
X1090000Y-120000D03*
X700000D03*
X234640Y-205350D03*
X-1610000Y300000D03*
X-120000Y-1040000D03*
X-747800Y1297800D03*
X90000Y1690000D03*
X-820000Y1580000D03*
X-1490000Y811200D03*
X-1750000Y930000D03*
X1330000Y800000D03*
X720000Y-720000D03*
X2410000Y-230000D03*
X1530000Y1100000D03*
X2080000Y-100000D03*
X780000Y-980000D03*
X1530000Y2050000D03*
G54D23*
X-2540000Y-1395120D03*
Y-155120D03*
X-2545120Y1704880D03*
Y1084880D03*
X-2540000Y-2015120D03*
X-2545120Y464880D03*
X-2540000Y-775120D03*
G54D22*
X-2570000Y1390000D03*
X-1570000Y-1670000D03*
X-1810000Y-1037200D03*
X-2570000Y770000D03*
X-1807200Y-937200D03*
X-2560000Y150000D03*
X-2570000Y2010000D03*
X-1807200Y-1137200D03*
X-2570000Y-1090000D03*
Y-1700000D03*
Y-470000D03*
G54D27*
X2656800Y-92900D03*
Y-492900D03*
G54D26*
X2499200Y-1287000D03*
Y-1727000D03*
G54D25*
X-113000Y2184000D03*
Y1930000D03*
Y1676000D03*
X-367000D03*
Y1930000D03*
Y2184000D03*
X2350800Y1468600D03*
Y960600D03*
Y1722600D03*
X1788600Y665000D03*
X1534600D03*
%LPD*%
G75*
G36*
G01X-1260000Y-520000D02*
X-1120000D01*
X-1100000Y-540000D01*
Y-750000D01*
X-1120000Y-770000D01*
X-1150000D01*
X-1170000Y-750000D01*
Y-660000D01*
X-1190000Y-640000D01*
X-1260000D01*
X-1280000Y-620000D01*
Y-540000D01*
X-1260000Y-520000D01*
G37*
G36*
G01X-1070000D02*
X-1040000D01*
X-1020000Y-540000D01*
Y-720000D01*
X-1040000Y-740000D01*
X-1070000D01*
X-1086810Y-723190D01*
X-1085940Y-720280D01*
G03X-1084420Y-710000I-34059J10288D01*
G03X-1086920Y-696890I-35582J8D01*
G01X-1087280Y-695990D01*
Y-537280D01*
X-1070000Y-520000D01*
G37*
G36*
G01X-1000000Y1900000D02*
X-960000D01*
X-940000Y1880000D01*
Y1220000D01*
X-960000Y1200000D01*
X-1000000D01*
X-1020000Y1220000D01*
Y1880000D01*
X-1000000Y1900000D01*
G37*
G36*
G01X-910000Y1740000D02*
X-790000D01*
X-770000Y1720000D01*
Y1680000D01*
X-790000Y1660000D01*
X-850000D01*
Y1599130D01*
G03Y1560870I30002J-19130D01*
G01Y1330000D01*
X-870000Y1310000D01*
X-910000D01*
X-927280Y1327280D01*
Y1722720D01*
X-910000Y1740000D01*
G37*
G36*
G01X-270000Y-80000D02*
X-210000D01*
X-190000Y-100000D01*
Y-350000D01*
X-210000Y-370000D01*
X-270000D01*
X-290000Y-350000D01*
Y-100000D01*
X-270000Y-80000D01*
G37*
G36*
G01X300000Y140000D02*
X400000D01*
X420000Y120000D01*
Y-40000D01*
X400000Y-60000D01*
X-210000D01*
X-230000Y-40000D01*
Y120000D01*
X-210000Y140000D01*
X-140000D01*
X-120000Y120000D01*
Y20000D01*
X260000D01*
X280000Y40000D01*
Y120000D01*
X300000Y140000D01*
G37*
G36*
G01X-410000Y940000D02*
X-90000D01*
X-60000Y910000D01*
Y850000D01*
X-90000Y820000D01*
X-410000D01*
X-440000Y850000D01*
Y910000D01*
X-410000Y940000D01*
G37*
G36*
G01X-90000Y1530000D02*
X-50000D01*
X-30000Y1510000D01*
Y980000D01*
X-60000Y950000D01*
X-82010D01*
X-84730Y952720D01*
X-412720D01*
X-440000Y980000D01*
Y1040000D01*
X-410000Y1070000D01*
X-110000D01*
Y1510000D01*
X-90000Y1530000D01*
G37*
G36*
G01X-152720Y-72720D02*
X322720D01*
X340000Y-90000D01*
Y-140000D01*
X320000Y-160000D01*
X-80000D01*
X-100000Y-180000D01*
Y-350000D01*
X-120000Y-370000D01*
X-150000D01*
X-170000Y-350000D01*
Y-90000D01*
X-152720Y-72720D01*
G37*
G36*
G01X0Y1610000D02*
X40000D01*
X60000Y1590000D01*
Y1040000D01*
X80000Y1020000D01*
X160000D01*
X180000Y1000000D01*
Y940000D01*
X160000Y920000D01*
X0D01*
X-20000Y940000D01*
Y972010D01*
X-17280Y974730D01*
Y1515270D01*
X-20000Y1517990D01*
Y1590000D01*
X0Y1610000D01*
G37*
G54D10*
X-2760000Y-2450000D03*
X-2820000D03*
X-2880000Y-2430000D03*
X-2930000Y-2380000D03*
X-2950000Y-2320000D03*
Y-2080000D03*
Y-2140000D03*
Y-2200000D03*
Y-2260000D03*
Y-2020000D03*
Y-1780000D03*
Y-1720000D03*
Y-1660000D03*
Y-1960000D03*
Y-1900000D03*
Y-1840000D03*
Y-1360000D03*
Y-1420000D03*
Y-1480000D03*
Y-1540000D03*
Y-1600000D03*
Y-1300000D03*
Y-1060000D03*
Y-1000000D03*
Y-940000D03*
Y-1240000D03*
Y-1180000D03*
Y-1120000D03*
Y-700000D03*
Y-760000D03*
Y-820000D03*
Y-880000D03*
Y-640000D03*
Y-580000D03*
Y-520000D03*
Y-340000D03*
Y-280000D03*
Y-220000D03*
Y-160000D03*
Y-460000D03*
Y-400000D03*
Y20000D03*
Y-40000D03*
Y-100000D03*
Y80000D03*
Y140000D03*
Y200000D03*
Y380000D03*
Y440000D03*
Y500000D03*
Y560000D03*
Y260000D03*
Y320000D03*
Y680000D03*
Y620000D03*
Y800000D03*
Y740000D03*
Y860000D03*
Y920000D03*
Y1100000D03*
Y1160000D03*
Y1220000D03*
Y1280000D03*
Y980000D03*
Y1040000D03*
Y1340000D03*
Y1520000D03*
Y1460000D03*
Y1400000D03*
Y1640000D03*
Y1580000D03*
Y1760000D03*
Y1700000D03*
Y2000000D03*
Y1940000D03*
Y1880000D03*
Y1820000D03*
Y2060000D03*
Y2120000D03*
Y2180000D03*
Y2240000D03*
X-2930000Y2370000D03*
X-2950000Y2300000D03*
X-2710000Y2450000D03*
X-2770000D03*
X-2830000Y2440000D03*
X-2890000Y2420000D03*
X-2700000Y-2450000D03*
X-2520000D03*
X-2460000D03*
X-2400000D03*
X-2340000D03*
X-2640000D03*
X-2580000D03*
X-2360000Y-1670000D03*
X-2430000Y-1740000D03*
X-2480000Y-1630000D03*
X-2520000Y-1760000D03*
X-2570000Y-1700000D03*
X-2360000Y-1510000D03*
X-2420000Y-1570000D03*
X-2350000Y-1290000D03*
X-2410000Y-1230000D03*
X-2350000Y-1140000D03*
X-2470000Y-1170000D03*
X-2530000Y-1150000D03*
Y-1030000D03*
X-2350000Y-950000D03*
X-2460000Y-1000000D03*
Y-910000D03*
X-2410000Y-1080000D03*
X-2570000Y-1090000D03*
X-2350000Y-680000D03*
Y-770000D03*
Y-860000D03*
X-2460000Y-820000D03*
Y-730000D03*
X-2350000Y-590000D03*
X-2460000Y-640000D03*
Y-550000D03*
X-2530000Y-530000D03*
X-2350000Y-230000D03*
Y-320000D03*
Y-410000D03*
Y-500000D03*
X-2440000Y-410000D03*
X-2520000D03*
X-2570000Y-470000D03*
X-2350000Y-50000D03*
Y-140000D03*
Y40000D03*
X-2420000Y90000D03*
X-2510000D03*
X-2560000Y150000D03*
X-2420000Y560000D03*
Y470000D03*
X-2380000Y390000D03*
X-2420000Y270000D03*
X-2360000Y210000D03*
X-2470000D03*
X-2490000Y320000D03*
X-2530000Y390000D03*
Y550000D03*
X-2420000Y650000D03*
Y920000D03*
Y830000D03*
Y740000D03*
X-2530000Y630000D03*
Y700000D03*
X-2510000Y830000D03*
X-2570000Y770000D03*
X-2420000Y1100000D03*
Y1010000D03*
Y1190000D03*
Y1280000D03*
X-2480000Y1330000D03*
X-2420000Y1440000D03*
X-2510000Y1450000D03*
X-2570000Y1390000D03*
X-2380000Y1950000D03*
X-2470000D03*
X-2570000Y2010000D03*
X-2430000Y2070000D03*
X-2520000D03*
X-2350000Y2450000D03*
X-2410000D03*
X-2470000D03*
X-2530000D03*
X-2590000D03*
X-2650000D03*
X-2280000Y-2450000D03*
X-2220000D03*
X-2100000D03*
X-2160000D03*
X-1980000D03*
X-2040000D03*
X-2220000Y-1400000D03*
X-2140000D03*
X-2060000D03*
X-1980000D03*
X-2090000Y-1510000D03*
X-2010000D03*
X-2290000Y-1350000D03*
X-2170000Y-1510000D03*
X-2240000Y-1550000D03*
X-2300000Y-1610000D03*
Y-1450000D03*
X-2140000Y-1290000D03*
X-2060000D03*
X-1980000D03*
X-2040000Y-1200000D03*
X-2120000D03*
X-2200000D03*
X-2280000D03*
X-2050000Y-890000D03*
X-2250000Y-900000D03*
X-2120000Y-960000D03*
X-2220000Y-990000D03*
X-2310000Y-1030000D03*
X-2050000Y-800000D03*
Y-710000D03*
X-2150000Y-670000D03*
Y-760000D03*
Y-850000D03*
X-2250000Y-720000D03*
Y-810000D03*
X-2050000Y-620000D03*
Y-530000D03*
X-2150000Y-580000D03*
X-2250000Y-540000D03*
Y-630000D03*
X-2050000Y-440000D03*
Y-350000D03*
Y-260000D03*
Y-170000D03*
X-2150000Y-220000D03*
Y-310000D03*
Y-400000D03*
Y-490000D03*
X-2250000Y-180000D03*
Y-270000D03*
Y-360000D03*
Y-450000D03*
X-2050000Y-80000D03*
X-2150000Y-40000D03*
Y-130000D03*
X-2250000Y-90000D03*
X-2050000Y10000D03*
Y100000D03*
Y190000D03*
X-2150000Y140000D03*
Y50000D03*
X-2250000Y0D03*
Y90000D03*
X-2300000Y150000D03*
X-2090000Y270000D03*
X-2150000Y330000D03*
X-2210000Y390000D03*
X-2270000Y450000D03*
X-2320000Y520000D03*
X-2210000Y560000D03*
X-2160000Y500000D03*
X-2100000Y440000D03*
X-2040000Y380000D03*
X-1980000Y320000D03*
X-2320000Y330000D03*
X-2260000Y270000D03*
X-2200000Y210000D03*
X-2320000Y610000D03*
X-2210000Y650000D03*
X-2320000Y700000D03*
Y790000D03*
Y880000D03*
X-2210000Y920000D03*
Y830000D03*
Y740000D03*
X-2320000Y970000D03*
Y1060000D03*
X-2210000Y1100000D03*
Y1010000D03*
X-2320000Y1150000D03*
Y1240000D03*
X-2210000Y1280000D03*
Y1190000D03*
X-2320000Y1330000D03*
Y1420000D03*
Y1510000D03*
Y1600000D03*
X-2210000Y1640000D03*
Y1550000D03*
Y1460000D03*
Y1370000D03*
X-2320000Y1690000D03*
Y1780000D03*
Y1870000D03*
X-2250000Y2000000D03*
X-2210000Y1730000D03*
X-2320000Y2060000D03*
X-1990000Y2450000D03*
X-2050000D03*
X-2110000D03*
X-2170000D03*
X-2230000D03*
X-2290000D03*
X-1740000Y-2450000D03*
X-1800000D03*
X-1860000D03*
X-1620000D03*
X-1680000D03*
X-1920000D03*
X-1900000Y-1400000D03*
X-1820000D03*
X-1930000Y-1510000D03*
X-1770000D03*
X-1690000D03*
X-1850000D03*
X-1740000Y-1400000D03*
X-1820000Y-1290000D03*
X-1740000D03*
X-1900000D03*
X-1880000Y-1200000D03*
X-1740000D03*
X-1960000D03*
X-1807200Y-937200D03*
X-1740000Y-987200D03*
X-1810000Y-1037200D03*
X-1742800Y-1087200D03*
X-1807200Y-1137200D03*
X-1940000Y-660000D03*
Y-750000D03*
Y-840000D03*
Y-570000D03*
Y-210000D03*
Y-300000D03*
Y-390000D03*
Y-480000D03*
Y-30000D03*
Y-120000D03*
Y150000D03*
Y60000D03*
Y240000D03*
X-1630000Y2450000D03*
X-1690000D03*
X-1750000D03*
X-1810000D03*
X-1870000D03*
X-1930000D03*
X-1380000Y-2450000D03*
X-1440000D03*
X-1500000D03*
X-1560000D03*
X-1260000D03*
X-1570000Y-1670000D03*
X-1426200Y-1306200D03*
X-1376200Y-1340000D03*
X-1330000Y2450000D03*
X-1390000D03*
X-1450000D03*
X-1510000D03*
X-1570000D03*
X-1270000D03*
X-1140000Y-2450000D03*
X-1200000D03*
X-900000D03*
X-960000D03*
X-1020000D03*
X-1080000D03*
X-1150000Y2450000D03*
X-1090000D03*
X-1030000D03*
X-970000D03*
X-910000D03*
X-1210000D03*
X-720000Y-2450000D03*
X-660000D03*
X-780000D03*
X-840000D03*
X-540000D03*
X-600000D03*
X-850000Y2450000D03*
X-730000D03*
X-790000D03*
X-670000D03*
X-550000D03*
X-610000D03*
X-480000Y-2450000D03*
X-240000D03*
X-180000D03*
X-420000D03*
X-360000D03*
X-300000D03*
X-370000Y2450000D03*
X-430000D03*
X-490000D03*
X-250000D03*
X-310000D03*
X-190000D03*
X-120000Y-2450000D03*
X-60000D03*
X0D03*
X120000D03*
X180000D03*
X60000D03*
X-10000Y2450000D03*
X-70000D03*
X-130000D03*
X170000D03*
X110000D03*
X50000D03*
X300000Y-2450000D03*
X240000D03*
X540000D03*
X480000D03*
X420000D03*
X360000D03*
X290000Y2450000D03*
X350000D03*
X410000D03*
X470000D03*
X530000D03*
X230000D03*
X660000Y-2450000D03*
X600000D03*
X840000D03*
X900000D03*
X780000D03*
X720000D03*
X590000Y2450000D03*
X650000D03*
X710000D03*
X890000D03*
X830000D03*
X770000D03*
X960000Y-2450000D03*
X1200000D03*
X1260000D03*
X1020000D03*
X1080000D03*
X1140000D03*
X1070000Y2450000D03*
X1010000D03*
X950000D03*
X1190000D03*
X1130000D03*
X1250000D03*
X1320000Y-2450000D03*
X1440000D03*
X1500000D03*
X1560000D03*
X1620000D03*
X1380000D03*
X1310000Y2450000D03*
X1610000D03*
X1550000D03*
X1490000D03*
X1430000D03*
X1370000D03*
X1980000Y-2450000D03*
X1920000D03*
X1860000D03*
X1800000D03*
X1740000D03*
X1680000D03*
X1730000Y2450000D03*
X1790000D03*
X1850000D03*
X1910000D03*
X1970000D03*
X1670000D03*
X2280000Y-2450000D03*
X2340000D03*
X2160000D03*
X2220000D03*
X2100000D03*
X2040000D03*
X2390000Y2450000D03*
X2030000D03*
X2150000D03*
X2090000D03*
X2330000D03*
X2270000D03*
X2210000D03*
X2400000Y-2450000D03*
X2640000D03*
X2460000D03*
X2520000D03*
X2580000D03*
X2700000D03*
X2510000Y2450000D03*
X2450000D03*
X2630000D03*
X2570000D03*
X2750000D03*
X2690000D03*
X2830000Y-2440000D03*
X2900000Y-2410000D03*
X2940000Y-2350000D03*
X2760000Y-2450000D03*
X2950000Y-2290000D03*
Y290000D03*
Y230000D03*
Y530000D03*
Y470000D03*
Y410000D03*
Y350000D03*
Y590000D03*
Y650000D03*
Y890000D03*
Y830000D03*
Y710000D03*
Y770000D03*
Y1010000D03*
Y950000D03*
Y1250000D03*
Y1190000D03*
Y1130000D03*
Y1070000D03*
Y1310000D03*
Y1550000D03*
Y1610000D03*
Y1370000D03*
Y1430000D03*
Y1490000D03*
Y1790000D03*
Y1850000D03*
Y1910000D03*
Y1970000D03*
Y1670000D03*
Y1730000D03*
Y2210000D03*
Y2150000D03*
Y2090000D03*
Y2030000D03*
Y2270000D03*
Y2330000D03*
X2920000Y2390000D03*
X2870000Y2430000D03*
X2810000Y2450000D03*
G54D20*
G01X-1526850Y440000D02*
X-1960000D01*
X-2020000Y500000D01*
G01X-1568090Y-1510000D02*
X-1620000D01*
X-1697200Y-1432800D01*
Y-787200D01*
G01X-970000Y510000D02*
X-1020000Y560000D01*
X-1850000D01*
G01X-1036200Y696200D02*
X-1850000D01*
G01X-1568090Y-1510000D02*
X-1070000D01*
G01X-1611200Y-168800D02*
X-1450000Y-7600D01*
Y112400D01*
X-1316200Y246200D01*
G01X-1487800Y346200D02*
X-1482800D01*
G01X-912800Y552800D02*
X-952800D01*
X-980000Y580000D01*
G01X-973800Y646200D02*
X-938800Y611200D01*
X888800D01*
X970000Y530000D01*
G01X-1140000Y1250000D02*
Y1120000D01*
X-1000000Y980000D01*
Y832400D01*
X-1036200Y796200D01*
G01X1660000Y470000D02*
Y-10000D01*
X1100000Y-570000D01*
X390000D01*
G01Y430000D02*
X510000D01*
X660000Y280000D01*
G01X1015000Y-335000D02*
X970000Y-290000D01*
Y530000D01*
G01D02*
X2174200D01*
X2350800Y706600D01*
G54D11*
X-2540000Y-2015120D03*
Y-1395120D03*
Y-775120D03*
Y-155120D03*
X-2545120Y464880D03*
Y1084880D03*
Y1704880D03*
X-710000Y-1690000D03*
X-640000D03*
X-710000Y-1510000D03*
Y-1600000D03*
X-640000Y-1510000D03*
Y-1600000D03*
X150600Y-1561200D03*
X20000Y1550000D03*
Y1490000D03*
X320000Y-20000D03*
X380000D03*
X320000Y100000D03*
X380000D03*
X320000Y40000D03*
X380000D03*
X270000Y1450000D03*
X340000D03*
X480000D03*
X410000D03*
Y1520000D03*
X480000D03*
X340000D03*
X270000D03*
Y1640000D03*
X690000Y-1310000D03*
X750000D03*
X690000Y-1250000D03*
X750000D03*
X690000Y-1190000D03*
X750000D03*
X1219400Y1612200D03*
X1650000Y-280000D03*
Y-350000D03*
X1580000Y-280000D03*
Y-350000D03*
X1510000Y-280000D03*
Y-350000D03*
X1993000Y-957000D03*
X1790000Y-280000D03*
Y-350000D03*
X1720000Y-280000D03*
Y-350000D03*
X1950000Y1600000D03*
X2020000D03*
X1950000Y1530000D03*
X2020000D03*
X1950000Y1670000D03*
X2020000D03*
X1950000Y1810000D03*
X2020000D03*
X1950000Y1740000D03*
X2020000D03*
X2100000Y-1800000D03*
Y-1740000D03*
X2160000Y-1800000D03*
Y-1740000D03*
X2220000Y-1800000D03*
Y-1740000D03*
X2460000Y-530000D03*
X2400000D03*
X2460000Y-470000D03*
X2400000D03*
X2460000Y-410000D03*
X2400000D03*
G54D21*
G01X-3000000Y-2300000D02*
Y2300000D01*
G02X-2800000Y2500000I200000J0D01*
G01X2800000D01*
G02X3000000Y2300000I0J-200000D01*
G01Y-2300000D01*
G02X2800000Y-2500000I-200000J0D01*
G01X-2800000D01*
G02X-3000000Y-2300000I0J200000D01*
G54D12*
X-2060000Y-2120000D03*
X-2020000Y500000D03*
X-1697200Y-787200D03*
X-1816200Y-596200D03*
X-1700000Y-560000D03*
X-1610000Y300000D03*
X-1820200Y310000D03*
X-1850000Y560000D03*
X-1750000Y930000D03*
X-1820000Y870000D03*
X-1628800Y921200D03*
X-1850000Y696200D03*
X-1320000Y-2450000D03*
X-1480000Y-2120000D03*
X-1380000Y-1910000D03*
X-1391400Y-1620000D03*
X-1568090Y-1510000D03*
X-1476200Y-556200D03*
X-1328420Y-590000D03*
X-1530000Y-600000D03*
X-1592600Y-467400D03*
X-1300000Y420000D03*
X-1306200Y346200D03*
X-1500000Y270000D03*
X-1421170Y271170D03*
X-1316200Y246200D03*
X-1318200Y770000D03*
X-1590000D03*
X-1490000Y811200D03*
X-1510000Y1480000D03*
X-1131600Y-2121600D03*
X-896200Y-1796200D03*
X-1070000Y-1510000D03*
X-1200000Y-1570000D03*
X-1180000Y-1420000D03*
X-896200Y-1466200D03*
X-980000Y-1420000D03*
X-1226200Y-603800D03*
X-1120000Y-710000D03*
X-1051910Y-707360D03*
X-920000Y-420000D03*
X-910000Y91760D03*
X-970000Y510000D03*
X-980000Y580000D03*
X-973800Y646200D03*
X-1036200Y796200D03*
Y696200D03*
X-970000Y1280000D03*
X-1190000Y1120000D03*
X-897800Y1281760D03*
X-1140000Y1250000D03*
X-1180000Y1620000D03*
X-980000Y1860000D03*
Y1800000D03*
X-540000Y-1860000D03*
X-826200Y-1213800D03*
X-701200Y-821200D03*
X-603400Y-636600D03*
X-600000Y-520000D03*
X-597800Y-270000D03*
X-830000Y100000D03*
X-680000Y560000D03*
X-750000D03*
X-747800Y1297800D03*
X-750000Y1417000D03*
X-820000Y1580000D03*
X-830000Y1700000D03*
X-782400Y2237600D03*
X-200000Y-840000D03*
X-497800Y-200000D03*
X-224800Y-502760D03*
X-197800Y97800D03*
X-247800Y-137800D03*
X-360000Y160000D03*
X-446740Y-149410D03*
X-95720Y-1636200D03*
X-100000Y-1310000D03*
X-120000Y-1040000D03*
X190000Y-1230000D03*
X-90000Y-530000D03*
X-106200Y896200D03*
X133800Y946200D03*
X-70000Y1480000D03*
X180000Y1640000D03*
X90000Y1690000D03*
X54400Y2095600D03*
X514580Y-900000D03*
X440030D03*
X550000Y-1190000D03*
X390000Y-570000D03*
X234640Y-205350D03*
X300000Y-110000D03*
X390000Y430000D03*
Y320000D03*
X370000Y2095600D03*
X579600Y-1710400D03*
X780000Y-980000D03*
X720000Y-720000D03*
X700000Y-120000D03*
X660000Y280000D03*
X790000Y451910D03*
X928090D03*
X615200Y220000D03*
X780000Y1060000D03*
X690000Y1200000D03*
X860000Y1940000D03*
X1042200Y-1837800D03*
X1085450Y-1340000D03*
X1160000D03*
X1026200Y-196200D03*
X1015000Y-335000D03*
X1093800Y206200D03*
X1090000Y-120000D03*
X1100000Y410000D03*
X1009000Y601000D03*
X1009600Y929600D03*
X1010000Y1470000D03*
X1580000Y-2060000D03*
X1610000Y-690000D03*
X1330200Y60000D03*
X1660000Y470000D03*
X1330000Y800000D03*
X1530000Y1100000D03*
X1630000Y1960000D03*
X1530000Y2050000D03*
X1695400Y-2254600D03*
X1810000Y-1920000D03*
X1950000D03*
X1977000Y-1347000D03*
X1984900Y-414900D03*
X1795900Y-175900D03*
X1990000Y50000D03*
X1840200Y860200D03*
X1843000Y1460000D03*
X1696400Y1446400D03*
X2080000Y-100000D03*
X2452900Y-162900D03*
X2410000Y-230000D03*
G54D13*
X-1887400Y1874800D03*
G54D14*
X-1351200Y-962200D03*
G54D15*
X-1382800Y346200D03*
Y426200D03*
X-1482800Y346200D03*
Y426200D03*
X-357400Y901200D03*
X-257400D03*
X-357400Y981200D03*
X-257400D03*
X-58800Y-27200D03*
Y-107200D03*
X36600Y-27200D03*
Y-107200D03*
X132000Y-27200D03*
Y-107200D03*
X227400Y-27200D03*
Y-107200D03*
G54D16*
X-1136200Y-562200D03*
X-1056200D03*
X-1136200Y-636800D03*
X-1056200D03*
X-912800Y171200D03*
Y266600D03*
Y362000D03*
Y457400D03*
Y552800D03*
X-972800Y1345800D03*
X-892800D03*
X-972800Y1441200D03*
X-892800D03*
X-972800Y1536600D03*
X-892800D03*
X-972800Y1632000D03*
X-892800D03*
X-832800Y171200D03*
Y266600D03*
Y362000D03*
Y457400D03*
Y552800D03*
X-222800Y-308800D03*
Y-208800D03*
X-142800Y-308800D03*
Y-208800D03*
X17200Y1031200D03*
X-62800D03*
X17200Y1126600D03*
X-62800D03*
X17200Y1222000D03*
X-62800D03*
X17200Y1317400D03*
X-62800D03*
X17200Y1412800D03*
X-62800D03*
G54D17*
X-367000Y1676000D03*
X-113000D03*
X-367000Y1930000D03*
X-113000D03*
X-367000Y2184000D03*
X-113000D03*
X1534600Y157000D03*
Y411000D03*
Y665000D03*
X1788600Y157000D03*
Y411000D03*
Y665000D03*
X2350800Y960600D03*
Y706600D03*
Y1214600D03*
Y1722600D03*
Y1468600D03*
G54D18*
X2499200Y-1727000D03*
Y-1287000D03*
G54D19*
X2656800Y-492900D03*
Y-92900D03*
M02*
