G04 ================== begin FILE IDENTIFICATION RECORD ==================*
G04 Layout Name:  E:/application/Cadence/project/single-measure/PCB/single20210120.brd*
G04 Film Name:    soldtop*
G04 File Format:  Gerber RS274X*
G04 File Origin:  Cadence Allegro 17.2-S058*
G04 Origin Date:  Wed Jan 20 22:19:32 2021*
G04 *
G04 Layer:  VIA CLASS/SOLDERMASK_TOP*
G04 Layer:  PIN/SOLDERMASK_TOP*
G04 Layer:  PACKAGE GEOMETRY/SOLDERMASK_TOP*
G04 Layer:  BOARD GEOMETRY/SOLDERMASK_TOP*
G04 Layer:  BOARD GEOMETRY/DESIGN_OUTLINE*
G04 *
G04 Offset:    (0.0000 0.0000)*
G04 Mirror:    No*
G04 Mode:      Positive*
G04 Rotation:  0*
G04 FullContactRelief:  No*
G04 UndefLineWidth:     0.1520*
G04 ================== end FILE IDENTIFICATION RECORD ====================*
%FSLAX55Y55*MOMM*%
%IR0*IPPOS*OFA0.00000B0.00000*MIA0B0*SFA1.00000B1.00000*%
%ADD35R,1.1X.4*%
%ADD51R,2.X.5*%
%ADD16O,1.1X.35*%
%ADD23O,.35X1.1*%
%ADD28O,1.7X.4*%
%ADD39R,.9X1.*%
%ADD27O,.4X1.7*%
%ADD49R,2.3X.5*%
%ADD45R,.8X1.1*%
%ADD20R,1.X.9*%
%ADD32R,1.4X.8*%
%ADD44R,.8X1.4*%
%ADD10R,1.6X.6*%
%ADD18R,.55X.55*%
%ADD36C,.6096*%
%ADD22R,1.X1.1*%
%ADD30R,1.1X1.*%
%ADD43R,1.3X1.*%
%ADD50R,1.X1.8*%
%ADD19R,2.2X1.5*%
%ADD52R,1.4X1.8*%
%ADD31R,2.3X1.45*%
%ADD21R,.6X.5*%
%ADD14R,.5X.6*%
%ADD48R,2.25X2.25*%
%ADD11R,.7X.6*%
%ADD46R,.55X.4*%
%ADD34R,1.7X2.44*%
%ADD42R,.9X.6*%
%ADD25C,1.5*%
%ADD12R,.8X.7*%
%ADD33C,1.7*%
%ADD37R,.85X.5*%
%ADD15C,6.3*%
%ADD40R,.5X.85*%
%ADD26R,.55X.38*%
%ADD47R,.75X.9*%
%AMMACRO38*
4,1,40,-.425,1.0167,
-.425,-1.0167,
-.420696,-1.065895,
-.407915,-1.113594,
-.387045,-1.15835,
-.35872,-1.198802,
-.323802,-1.23372,
-.28335,-1.262045,
-.238594,-1.282915,
-.190895,-1.295696,
-.1417,-1.3,
.1417,-1.3,
.190895,-1.295696,
.238594,-1.282915,
.28335,-1.262045,
.323802,-1.23372,
.35872,-1.198802,
.387045,-1.15835,
.407915,-1.113594,
.420696,-1.065895,
.425,-1.0167,
.425,1.0167,
.420696,1.065895,
.407915,1.113594,
.387045,1.15835,
.35872,1.198802,
.323802,1.23372,
.28335,1.262045,
.238594,1.282915,
.190895,1.295696,
.1417,1.3,
-.1417,1.3,
-.190895,1.295696,
-.238594,1.282915,
-.28335,1.262045,
-.323802,1.23372,
-.35872,1.198802,
-.387045,1.15835,
-.407915,1.113594,
-.420696,1.065895,
-.425,1.0167,
0.0*
%
%ADD38MACRO38*%
%ADD29R,2.5X2.5*%
%ADD24R,3.4X3.4*%
%ADD41R,.75X.75*%
%ADD17R,.85X.75*%
%ADD13R,.75X.85*%
%ADD53C,.152*%
G75*
%LPD*%
G75*
G54D10*
X-2758200Y-2111120D03*
Y-1801120D03*
Y-1609120D03*
Y-1919120D03*
Y-1491120D03*
Y-1299120D03*
Y-1181120D03*
Y-989120D03*
Y-561120D03*
Y-871120D03*
Y-679120D03*
Y-369120D03*
Y-251120D03*
Y58880D03*
Y-59120D03*
Y250880D03*
Y368880D03*
Y560880D03*
Y678880D03*
Y870880D03*
Y1298880D03*
Y988880D03*
Y1180880D03*
Y1490880D03*
Y1608880D03*
Y1918880D03*
Y1800880D03*
Y2110880D03*
G54D11*
X-2855700Y-2015120D03*
Y-1705120D03*
Y-1395120D03*
Y-1085120D03*
Y-775120D03*
Y-465120D03*
Y-155120D03*
Y154880D03*
Y464880D03*
Y774880D03*
Y1084880D03*
Y1394880D03*
Y2014880D03*
Y1704880D03*
G54D20*
X-1618600Y501200D03*
Y381200D03*
X-1468600Y501200D03*
Y381200D03*
G54D12*
X-2660700Y-2015120D03*
Y-1705120D03*
Y-1395120D03*
Y-1085120D03*
Y-775120D03*
Y-465120D03*
Y-155120D03*
Y154880D03*
Y464880D03*
Y774880D03*
Y1084880D03*
Y1394880D03*
Y2014880D03*
Y1704880D03*
G54D21*
X-1733600Y396200D03*
Y486200D03*
X-1391400Y-1559200D03*
Y-1479200D03*
X-1476800Y-1559200D03*
Y-1479200D03*
X-1318200Y631200D03*
Y711200D03*
X-1135800Y1340200D03*
Y1430200D03*
X-692200Y-636600D03*
Y-726600D03*
X-829400Y1327000D03*
Y1417000D03*
X-457000Y-1425200D03*
Y-1505200D03*
X-359400Y-1425200D03*
Y-1505200D03*
X-200000Y-932200D03*
Y-1012200D03*
X-295400Y-932200D03*
Y-1012200D03*
X-400800Y-927200D03*
Y-1017200D03*
X-328600Y-161800D03*
Y-251800D03*
X-173600Y1327000D03*
Y1417000D03*
X207200Y876200D03*
Y966200D03*
X413800Y-1455000D03*
Y-1375000D03*
X695200Y-1465000D03*
Y-1375000D03*
X640800Y-754200D03*
Y-664200D03*
X840200Y-424200D03*
Y-334200D03*
X921800Y849600D03*
Y929600D03*
Y681000D03*
Y601000D03*
X828200Y841200D03*
Y931200D03*
X707000Y1621400D03*
X611600D03*
X707000Y1701400D03*
X611600D03*
X1246200Y-2026400D03*
Y-1936400D03*
X1340800Y-2021400D03*
Y-1941400D03*
X1330200Y187400D03*
Y277400D03*
X1329500Y412600D03*
Y502600D03*
X1487600Y1688200D03*
Y1768200D03*
X1950000Y-1744200D03*
Y-1834200D03*
G54D30*
X-531200Y-1037200D03*
X-701200D03*
Y-907200D03*
X-531200D03*
G54D13*
X-2308200Y-2121600D03*
X-2158200D03*
X-1383600D03*
X-1233600D03*
X136000Y2095600D03*
X286000D03*
X1993000Y-815800D03*
X2143000D03*
G54D40*
X883800Y-196200D03*
X818800D03*
Y3800D03*
X948800Y-196200D03*
Y3800D03*
G54D31*
X-378000Y-1851400D03*
X-96000D03*
X688600Y1305400D03*
X970600D03*
G54D22*
X-1664000Y1206200D03*
Y1036200D03*
X-1794000D03*
Y1206200D03*
G54D41*
X757900Y138400D03*
X972900D03*
G54D14*
X-2008600Y611200D03*
Y721200D03*
X-1682600Y-376400D03*
Y-246400D03*
Y-117400D03*
X-1688600Y9600D03*
X-1898800Y393600D03*
X-1818800D03*
X-1898800Y483600D03*
X-1818800D03*
X-1918600Y611200D03*
Y721200D03*
X-1658600Y811200D03*
X-1748600D03*
X-1774000Y1321200D03*
X-1684000D03*
X-1270000Y-1330000D03*
X-1475200Y-1406200D03*
X-1565200D03*
X-1592600Y-376400D03*
Y-246400D03*
Y-117400D03*
X-1598600Y9600D03*
X-1463600Y711200D03*
X-1543600D03*
X-1463600Y921200D03*
X-1543600D03*
X-1548600Y611200D03*
X-1458600D03*
X-1548600Y1031200D03*
X-1458600D03*
X-1500000Y1410000D03*
X-1580000D03*
X-1499000Y1321200D03*
X-1579000D03*
X-1190000Y-1330000D03*
X-1070000D03*
X-990000D03*
X-906200Y-1136800D03*
X-911200Y-1037200D03*
Y-902200D03*
Y-767600D03*
Y-653000D03*
X-826200Y-1136800D03*
X-821200Y-1037200D03*
Y-902200D03*
Y-767600D03*
Y-653000D03*
X-262000Y-1668200D03*
X-182000D03*
X5400Y-1325000D03*
X85400D03*
X5400Y-1230400D03*
X85400D03*
X497600Y-1710400D03*
X417600D03*
X497600Y-1619600D03*
X417600D03*
X233800Y247200D03*
X323800D03*
X615400Y-1586200D03*
X705400D03*
X756200Y-1060800D03*
X676200D03*
X925800Y-545400D03*
X835800D03*
X924200Y288400D03*
X834200D03*
X816600Y1514200D03*
X896600D03*
X1220000Y-1839200D03*
X1300000D03*
X1030400Y-545400D03*
X1120400D03*
X1215000Y-400000D03*
X1305000D03*
X1013800Y288400D03*
X1093800D03*
X1091000Y1944000D03*
X1011000D03*
X1091000Y1848400D03*
X1011000D03*
X1405000Y-870000D03*
X1315000D03*
X1566600Y1534700D03*
X1486600D03*
X1566600Y1446400D03*
X1486600D03*
X1730000Y-1839200D03*
X1810000D03*
X1809600Y-675800D03*
X1899600D03*
X1714600Y-449800D03*
X1794600D03*
X1930200Y940200D03*
X1840200D03*
X1682600Y1567600D03*
X1772600D03*
X1933000Y1375800D03*
X1843000D03*
X1782600Y1685200D03*
X1872600D03*
G54D50*
X2635800Y-637900D03*
Y52100D03*
G54D32*
X-216400Y-1320200D03*
Y-1520200D03*
X555000Y-1474000D03*
Y-1274000D03*
X842400Y1626400D03*
Y1826400D03*
X1632600Y1683200D03*
Y1883200D03*
G54D23*
X-1276200Y-1217200D03*
X-1326200D03*
X-1376200D03*
X-1426200D03*
X-1476200D03*
X-1526200D03*
Y-707200D03*
X-1476200D03*
X-1426200D03*
X-1376200D03*
X-1326200D03*
X-1276200D03*
X-1176200Y-1217200D03*
X-1226200D03*
Y-707200D03*
X-1176200D03*
G54D24*
X-1351200Y-962200D03*
G54D15*
X-1887400Y1874800D03*
G54D33*
X-367000Y1676000D03*
X-113000D03*
X-367000Y1930000D03*
X-113000D03*
X-367000Y2184000D03*
X-113000D03*
X1534600Y157000D03*
Y411000D03*
Y665000D03*
X1788600Y157000D03*
Y411000D03*
Y665000D03*
X2350800Y960600D03*
Y706600D03*
Y1214600D03*
Y1722600D03*
Y1468600D03*
G54D42*
X1160000Y-270000D03*
X1360000D03*
G54D51*
X2598300Y-162900D03*
Y-227900D03*
Y-292900D03*
Y-357900D03*
Y-422900D03*
G54D25*
X-1351200Y-962200D03*
G54D34*
X150600Y-1561200D03*
X1219400Y1612200D03*
G54D52*
X2870800Y-619900D03*
Y34100D03*
G54D43*
X1475400Y-1970100D03*
X1695400D03*
Y-2145100D03*
X1475400D03*
G54D16*
X-1606200Y-1137200D03*
Y-1087200D03*
Y-1037200D03*
Y-987200D03*
Y-937200D03*
Y-887200D03*
Y-837200D03*
Y-787200D03*
X-1096200Y-887200D03*
Y-937200D03*
Y-987200D03*
Y-1037200D03*
Y-1087200D03*
Y-1137200D03*
Y-787200D03*
Y-837200D03*
G54D53*
G01X-3000000Y-2300000D02*
Y2300000D01*
G02X-2800000Y2500000I200000J0D01*
G01X2800000D01*
G02X3000000Y2300000I0J-200000D01*
G01Y-2300000D01*
G02X2800000Y-2500000I-200000J0D01*
G01X-2800000D01*
G02X-3000000Y-2300000I0J200000D01*
G54D17*
X-1816200Y-677200D03*
Y-827200D03*
X-896200Y-1708000D03*
Y-1558000D03*
G54D26*
X-1318200Y544200D03*
Y478200D03*
X1984900Y-544200D03*
Y-478200D03*
G54D44*
X1608400Y-563000D03*
X1808400D03*
G54D35*
X600Y-1636200D03*
Y-1486200D03*
Y-1536200D03*
Y-1586200D03*
X300600Y-1636200D03*
Y-1586200D03*
Y-1536200D03*
Y-1486200D03*
X1069400Y1637200D03*
Y1587200D03*
Y1537200D03*
Y1687200D03*
X1369400Y1537200D03*
Y1587200D03*
Y1637200D03*
Y1687200D03*
G54D36*
X150600Y-1561200D03*
X1219400Y1612200D03*
G54D18*
X-1797600Y-264200D03*
Y-359200D03*
Y-184200D03*
Y-89200D03*
G54D45*
X1983400Y-649600D03*
X2153400D03*
G54D27*
X-897800Y-23800D03*
X-947800D03*
Y1166200D03*
X-897800D03*
X-547800Y-23800D03*
X-597800D03*
X-647800D03*
X-697800D03*
X-747800D03*
X-797800D03*
X-847800D03*
Y1166200D03*
X-797800D03*
X-747800D03*
X-697800D03*
X-647800D03*
X-597800D03*
X-547800D03*
X-197800Y-23800D03*
X-247800D03*
X-297800D03*
X-347800D03*
X-397800D03*
X-447800D03*
X-497800D03*
Y1166200D03*
X-447800D03*
X-397800D03*
X-347800D03*
X-297800D03*
X-247800D03*
X-197800D03*
G54D37*
X211800Y807600D03*
Y727600D03*
X396800Y807600D03*
Y727600D03*
G54D46*
X1870100Y-275900D03*
Y-175900D03*
X2005100D03*
Y-225900D03*
Y-275900D03*
G54D19*
X-1699800Y181200D03*
X-1703600Y651200D03*
X-1344800Y-397200D03*
X-1372800Y1181200D03*
X-1322800Y1401200D03*
X-1064800Y-397200D03*
X-434000Y-1644600D03*
X-596200Y-1202200D03*
X-504800Y-397200D03*
X-774800D03*
X-224800D03*
X165800Y-1857600D03*
X73600Y-852200D03*
X75800Y-1054600D03*
X55200Y-397200D03*
X16400Y1372000D03*
X443800Y-1857600D03*
X342800Y-1055400D03*
X615200Y-397200D03*
X335200D03*
X397200Y1031200D03*
X441400Y1663400D03*
X747000Y-1934600D03*
X1242600Y1303400D03*
X1306800Y1888600D03*
X1056400Y2103400D03*
X1600800Y-844200D03*
X1510000Y1305400D03*
X1954800Y-2070400D03*
X2346600Y-639600D03*
X2239600Y-214300D03*
Y-445100D03*
Y16500D03*
G54D28*
X-1167800Y196200D03*
Y246200D03*
Y296200D03*
Y346200D03*
Y396200D03*
Y446200D03*
Y496200D03*
Y546200D03*
Y596200D03*
Y646200D03*
Y696200D03*
Y746200D03*
Y796200D03*
Y846200D03*
Y896200D03*
Y946200D03*
X22200Y196200D03*
Y546200D03*
Y496200D03*
Y446200D03*
Y396200D03*
Y346200D03*
Y296200D03*
Y246200D03*
Y896200D03*
Y846200D03*
Y796200D03*
Y746200D03*
Y696200D03*
Y646200D03*
Y596200D03*
Y946200D03*
G54D29*
X-1002000Y1637600D03*
Y2237600D03*
G54D38*
X931000Y-1641600D03*
Y-1067600D03*
X1312000Y-1641600D03*
X1185000D03*
X1058000D03*
Y-1067600D03*
X1185000D03*
X1312000D03*
X1566000Y-1641600D03*
X1439000D03*
Y-1067600D03*
X1566000D03*
X1820000Y-1641600D03*
X1693000D03*
Y-1067600D03*
X1820000D03*
G54D47*
X1779500Y1077400D03*
X1944500D03*
X1779500Y1240400D03*
X1944500D03*
G54D48*
X2249200Y-1999500D03*
Y-1014500D03*
X2799200Y-1999500D03*
Y-1014500D03*
G54D39*
X913200Y-870000D03*
X818200Y-670000D03*
X1008200D03*
X1215000Y-555400D03*
X1310000Y-755400D03*
X1405000Y-555400D03*
G54D49*
X2149200Y-1667000D03*
Y-1347000D03*
Y-1427000D03*
Y-1507000D03*
Y-1587000D03*
M02*
