G04 ================== begin FILE IDENTIFICATION RECORD ==================*
G04 Layout Name:  E:/application/Cadence/project/single-measure/PCB/single20210120.brd*
G04 Film Name:    art02*
G04 File Format:  Gerber RS274X*
G04 File Origin:  Cadence Allegro 17.2-S058*
G04 Origin Date:  Wed Jan 20 22:19:32 2021*
G04 *
G04 Layer:  VIA CLASS/GND*
G04 Layer:  PIN/GND*
G04 Layer:  ETCH/GND*
G04 Layer:  BOARD GEOMETRY/DESIGN_OUTLINE*
G04 *
G04 Offset:    (0.0000 0.0000)*
G04 Mirror:    No*
G04 Mode:      Positive*
G04 Rotation:  0*
G04 FullContactRelief:  No*
G04 UndefLineWidth:     0.1520*
G04 ================== end FILE IDENTIFICATION RECORD ====================*
%FSLAX55Y55*MOMM*%
%IR0*IPPOS*OFA0.00000B0.00000*MIA0B0*SFA1.00000B1.00000*%
%ADD17C,.7*%
%ADD11C,.508*%
%ADD10C,.4064*%
%ADD12C,.4572*%
%ADD16C,1.*%
%ADD14C,1.4*%
%ADD15C,1.6*%
%ADD13C,6.2*%
%ADD18C,.127*%
%ADD19C,.152*%
%ADD21C,.7116*%
%ADD20C,.6608*%
%ADD24C,.9544*%
%ADD23C,1.2544*%
%ADD22C,1.8544*%
G75*
%LPD*%
G75*
G36*
G01X-2496960Y700020D02*
G03X-2496980Y701170I-33040J1D01*
G01X-2497060Y703380D01*
X-2491890Y708530D01*
X-2486530Y703150D01*
Y399990D01*
G03X-2481690Y388300I16537J0D01*
G01X-2413760Y320370D01*
G02X-2420720Y303030I-7185J-7183D01*
G03X-2453040Y270000I718J-33030D01*
G03X-2420000Y236960I33040J0D01*
G03X-2386970Y269280I0J33038D01*
G02X-2369630Y276240I10157J-225D01*
G01X-2353760Y260370D01*
G02X-2360720Y243030I-7185J-7183D01*
G03X-2393040Y210000I718J-33030D01*
G03X-2360000Y176960I33040J0D01*
G03X-2326970Y209280I0J33038D01*
G02X-2309630Y216240I10157J-225D01*
G01X-2293760Y200370D01*
G02X-2300720Y183030I-7185J-7183D01*
G03X-2333040Y150000I718J-33030D01*
G03X-2333010Y148630I33039J38D01*
G02X-2350350Y141020I-10153J-426D01*
G01X-2371010Y161690D01*
G03X-2382700Y166530I-11690J-11697D01*
G01X-2531390D01*
G03X-2560000Y183040I-28610J-16534D01*
G03Y116960I0J-33040D01*
G03X-2531390Y133470I0J33044D01*
G01X-2389550D01*
X-2346320Y90240D01*
G02X-2352680Y72930I-7183J-7184D01*
G03X-2383040Y40000I2679J-32930D01*
G03X-2350000Y6960I33040J0D01*
G01X-2349990D01*
G03X-2332170Y12180I-4J33042D01*
G02X-2316530Y3630I5481J-8553D01*
G01Y-13630D01*
G02X-2332170Y-22180I-10159J3D01*
G03X-2349990Y-16960I-17824J-27822D01*
G01X-2350000D01*
G03Y-83040I0J-33040D01*
G01X-2349990D01*
G03X-2332170Y-77820I-4J33042D01*
G02X-2316530Y-86370I5481J-8553D01*
G01Y-103630D01*
G02X-2332170Y-112180I-10159J3D01*
G03X-2349990Y-106960I-17824J-27822D01*
G01X-2350000D01*
G03Y-173040I0J-33040D01*
G01X-2349990D01*
G03X-2332170Y-167820I-4J33042D01*
G02X-2316530Y-176370I5481J-8553D01*
G01Y-193630D01*
G02X-2332170Y-202180I-10159J3D01*
G03X-2349990Y-196960I-17824J-27822D01*
G01X-2350000D01*
G03Y-263040I0J-33040D01*
G01X-2349990D01*
G03X-2332170Y-257820I-4J33042D01*
G02X-2316530Y-266370I5481J-8553D01*
G01Y-283630D01*
G02X-2332170Y-292180I-10159J3D01*
G03X-2349990Y-286960I-17824J-27822D01*
G01X-2350000D01*
G03Y-353040I0J-33040D01*
G01X-2349990D01*
G03X-2332170Y-347820I-4J33042D01*
G02X-2316530Y-356370I5481J-8553D01*
G01Y-373630D01*
G02X-2332170Y-382180I-10159J3D01*
G03X-2349990Y-376960I-17824J-27822D01*
G01X-2350000D01*
G03Y-443040I0J-33040D01*
G01X-2349990D01*
G03X-2332170Y-437820I-4J33042D01*
G02X-2316530Y-446370I5481J-8553D01*
G01Y-463630D01*
G02X-2332170Y-472180I-10159J3D01*
G03X-2349990Y-466960I-17824J-27822D01*
G01X-2350000D01*
G03X-2382530Y-494210I0J-33042D01*
G02X-2399710Y-499610I-10000J1787D01*
G01X-2441010Y-458310D01*
G03X-2452700Y-453470I-11690J-11697D01*
G01X-2541390D01*
G03X-2570000Y-436960I-28610J-16534D01*
G03Y-503040I0J-33040D01*
G01X-2569750D01*
G02X-2560440Y-517150I-49J-10159D01*
G03X-2563040Y-529990I30441J-12847D01*
G01Y-530000D01*
G03X-2530000Y-563040I33040J0D01*
G03X-2508120Y-554760I0J33049D01*
G02X-2491660Y-559460I6728J-7610D01*
G03X-2460000Y-583040I31660J9464D01*
G03Y-516960I0J33040D01*
G03X-2481880Y-525240I0J-33049D01*
G02X-2498340Y-520540I-6728J7610D01*
G03X-2530000Y-496960I-31660J-9464D01*
G03X-2538410Y-498050I6J-33039D01*
G01X-2540810Y-498680D01*
X-2546830Y-494100D01*
X-2543740Y-490050D01*
G03X-2541390Y-486530I-26248J20068D01*
G01X-2459550D01*
X-2416530Y-529550D01*
Y-1010010D01*
G03X-2411690Y-1021700I16537J0D01*
G01X-2403760Y-1029630D01*
G02X-2410720Y-1046970I-7185J-7183D01*
G03X-2443040Y-1080000I718J-33030D01*
G01Y-1080020D01*
G03X-2443020Y-1081160I33040J9D01*
G01X-2442940Y-1083370D01*
X-2448100Y-1088530D01*
X-2458310Y-1078310D01*
G03X-2470000Y-1073470I-11690J-11697D01*
G01X-2541390D01*
G03X-2543740Y-1069950I-28598J-16548D01*
G01X-2546440Y-1066420D01*
X-2541130Y-1061110D01*
G03X-2530010Y-1063040I11127J31110D01*
G01X-2530000D01*
G03X-2497080Y-1032870I0J33045D01*
G02X-2480620Y-1025810I10121J-880D01*
G03X-2460000Y-1033040I20627J25808D01*
G03Y-966960I0J33040D01*
G03X-2492920Y-997130I0J-33045D01*
G02X-2509380Y-1004190I-10121J880D01*
G03X-2530000Y-996960I-20627J-25808D01*
G03X-2563040Y-1030000I0J-33040D01*
G01Y-1030010D01*
G03X-2560440Y-1042850I33041J7D01*
G02X-2569850Y-1056960I-9359J-3951D01*
G01X-2570000D01*
G03Y-1123040I0J-33040D01*
G01X-2569750D01*
G02X-2560440Y-1137150I-49J-10159D01*
G03X-2563040Y-1149990I30441J-12847D01*
G01Y-1150000D01*
G03X-2530000Y-1183040I33040J0D01*
G03X-2514170Y-1179000I0J33033D01*
G02X-2500060Y-1183710I4863J-8921D01*
G03X-2470000Y-1203040I30060J13708D01*
G03X-2436970Y-1170710I0J33038D01*
G02X-2419630Y-1163750I10157J-225D01*
G01X-2403750Y-1179630D01*
G02X-2410710Y-1196970I-7185J-7183D01*
G03X-2443040Y-1230000I708J-33030D01*
G03X-2410000Y-1263040I33040J0D01*
G03X-2376970Y-1230710I0J33038D01*
G02X-2359630Y-1223750I10157J-225D01*
G01X-2343750Y-1239630D01*
G02X-2350710Y-1256970I-7185J-7183D01*
G03X-2383040Y-1290000I708J-33030D01*
G03X-2350000Y-1323040I33040J0D01*
G03X-2316970Y-1290710I0J33038D01*
G02X-2299630Y-1283750I10157J-225D01*
G01X-2283750Y-1299630D01*
G02X-2290710Y-1316970I-7185J-7183D01*
G03X-2323040Y-1350000I708J-33030D01*
G03X-2290000Y-1383040I33040J0D01*
G03X-2256970Y-1350710I0J33038D01*
G02X-2239630Y-1343750I10157J-225D01*
G01X-2230140Y-1353240D01*
G02X-2233250Y-1369730I-7182J-7184D01*
G03X-2253040Y-1400000I13255J-30270D01*
G03X-2238200Y-1427570I33030J0D01*
G02X-2236610Y-1443240I-5596J-8483D01*
G01X-2249630Y-1456250D01*
G02X-2266970Y-1449290I-7183J7185D01*
G03X-2300000Y-1416960I-33030J-708D01*
G03X-2333040Y-1450000I0J-33040D01*
G03X-2300710Y-1483030I33038J0D01*
G02X-2293750Y-1500370I-225J-10157D01*
G01X-2309630Y-1516250D01*
G02X-2326970Y-1509290I-7183J7185D01*
G03X-2360000Y-1476960I-33030J-708D01*
G03X-2393040Y-1510000I0J-33040D01*
G03X-2360710Y-1543030I33038J0D01*
G02X-2353750Y-1560370I-225J-10157D01*
G01X-2369630Y-1576250D01*
G02X-2386970Y-1569290I-7183J7185D01*
G03X-2420000Y-1536960I-33030J-708D01*
G03X-2453040Y-1570000I0J-33040D01*
G03X-2420710Y-1603030I33038J0D01*
G02X-2413750Y-1620370I-225J-10157D01*
G01X-2429630Y-1636250D01*
G02X-2446970Y-1629290I-7183J7185D01*
G03X-2480000Y-1596960I-33030J-708D01*
G03X-2513040Y-1630000I0J-33040D01*
G03X-2480710Y-1663030I33038J0D01*
G02X-2473750Y-1680370I-225J-10157D01*
G01X-2476850Y-1683470D01*
X-2541390D01*
G03X-2570000Y-1666960I-28610J-16534D01*
G03Y-1733040I0J-33040D01*
G03X-2541390Y-1716530I0J33044D01*
G01X-2470000D01*
G03X-2462290Y-1714610I-21J16526D01*
G01X-2455680Y-1718580D01*
X-2458300Y-1722940D01*
G03X-2463040Y-1739980I28302J-17052D01*
G01Y-1740000D01*
G03X-2396960I33040J0D01*
G03X-2429290Y-1706970I-33038J0D01*
G02X-2436250Y-1689630I225J10157D01*
G01X-2410370Y-1663750D01*
G02X-2393030Y-1670710I7183J-7185D01*
G03X-2360000Y-1703040I33030J708D01*
G03X-2326960Y-1670000I0J33040D01*
G03X-2359290Y-1636970I-33038J0D01*
G02X-2366250Y-1619630I225J10157D01*
G01X-2350370Y-1603750D01*
G02X-2333030Y-1610710I7183J-7185D01*
G03X-2300000Y-1643040I33030J708D01*
G03X-2266960Y-1610000I0J33040D01*
G03X-2299290Y-1576970I-33038J0D01*
G02X-2306250Y-1559630I225J10157D01*
G01X-2290370Y-1543750D01*
G02X-2273030Y-1550710I7183J-7185D01*
G03X-2240000Y-1583040I33030J708D01*
G03X-2206960Y-1550000I0J33040D01*
G03X-2239290Y-1516970I-33038J0D01*
G02X-2246250Y-1499630I225J10157D01*
G01X-2213150Y-1466530D01*
X-1599430D01*
G02X-1592470Y-1484090I-4J-10161D01*
G03X-1603670Y-1510000I24370J-25910D01*
G03X-1532510I35580J0D01*
G03X-1543710Y-1484090I-35570J0D01*
G02X-1536750Y-1466530I6964J7399D01*
G01X-1486200D01*
G03X-1474510Y-1461690I0J16537D01*
G01X-1384830Y-1372010D01*
X-1382200Y-1372490D01*
G03X-1376200Y-1373040I6003J32490D01*
G03Y-1306960I0J33040D01*
G03X-1382080Y-1307490I14J-33039D01*
G02X-1393840Y-1299540I-1808J9999D01*
G03X-1399840Y-1286280I-32362J-6656D01*
G02X-1391730Y-1270000I8109J6120D01*
G01X-1330000D01*
Y-1603470D01*
X-1359890D01*
G03X-1391400Y-1584420I-31510J-16535D01*
G03X-1426980Y-1620000I0J-35580D01*
G03X-1422010Y-1638130I35578J7D01*
G02X-1430750Y-1653470I-8742J-5179D01*
G01X-1541390D01*
G03X-1570000Y-1636960I-28610J-16534D01*
G03Y-1703040I0J-33040D01*
G03X-1541390Y-1686530I0J33044D01*
G01X-1330000D01*
Y-2415660D01*
X-1333200Y-2416940D01*
G03X-1344810Y-2424480I13211J-33050D01*
G02X-1358500Y-2424910I-7081J7284D01*
G03X-1380000Y-2416960I-21500J-25097D01*
G03X-1403160Y-2426440I0J-33030D01*
G02X-1417060Y-2426230I-6838J7523D01*
G03X-1440000Y-2416960I-22947J-23767D01*
G03X-1462940Y-2426230I7J-33037D01*
G02X-1477060I-7060J7314D01*
G03X-1500000Y-2416960I-22947J-23767D01*
G03X-1522940Y-2426230I7J-33037D01*
G02X-1537060I-7060J7314D01*
G03X-1560000Y-2416960I-22947J-23767D01*
G03X-1582940Y-2426230I7J-33037D01*
G02X-1597060I-7060J7314D01*
G03X-1620000Y-2416960I-22947J-23767D01*
G03X-1642940Y-2426230I7J-33037D01*
G02X-1657060I-7060J7314D01*
G03X-1680000Y-2416960I-22947J-23767D01*
G03X-1702940Y-2426230I7J-33037D01*
G02X-1717060I-7060J7314D01*
G03X-1740000Y-2416960I-22947J-23767D01*
G03X-1762940Y-2426230I7J-33037D01*
G02X-1777060I-7060J7314D01*
G03X-1800000Y-2416960I-22947J-23767D01*
G03X-1822940Y-2426230I7J-33037D01*
G02X-1837060I-7060J7314D01*
G03X-1860000Y-2416960I-22947J-23767D01*
G03X-1882940Y-2426230I7J-33037D01*
G02X-1897060I-7060J7314D01*
G03X-1920000Y-2416960I-22947J-23767D01*
G03X-1942940Y-2426230I7J-33037D01*
G02X-1957060I-7060J7314D01*
G03X-1980000Y-2416960I-22947J-23767D01*
G03X-2002940Y-2426230I7J-33037D01*
G02X-2017060I-7060J7314D01*
G03X-2040000Y-2416960I-22947J-23767D01*
G03X-2062940Y-2426230I7J-33037D01*
G02X-2077060I-7060J7314D01*
G03X-2100000Y-2416960I-22947J-23767D01*
G03X-2122940Y-2426230I7J-33037D01*
G02X-2137060I-7060J7314D01*
G03X-2160000Y-2416960I-22947J-23767D01*
G03X-2182940Y-2426230I7J-33037D01*
G02X-2197060I-7060J7314D01*
G03X-2220000Y-2416960I-22947J-23767D01*
G03X-2242940Y-2426230I7J-33037D01*
G02X-2257060I-7060J7314D01*
G03X-2280000Y-2416960I-22947J-23767D01*
G03X-2302940Y-2426230I7J-33037D01*
G02X-2317060I-7060J7314D01*
G03X-2340000Y-2416960I-22947J-23767D01*
G03X-2362940Y-2426230I7J-33037D01*
G02X-2377060I-7060J7314D01*
G03X-2400000Y-2416960I-22947J-23767D01*
G03X-2422940Y-2426230I7J-33037D01*
G02X-2437060I-7060J7314D01*
G03X-2460000Y-2416960I-22947J-23767D01*
G03X-2482940Y-2426230I7J-33037D01*
G02X-2497060I-7060J7314D01*
G03X-2520000Y-2416960I-22947J-23767D01*
G03X-2542940Y-2426230I7J-33037D01*
G02X-2557060I-7060J7314D01*
G03X-2580000Y-2416960I-22947J-23767D01*
G03X-2602940Y-2426230I7J-33037D01*
G02X-2617060I-7060J7314D01*
G03X-2640000Y-2416960I-22947J-23767D01*
G03X-2662940Y-2426230I7J-33037D01*
G02X-2677060I-7060J7314D01*
G03X-2700000Y-2416960I-22947J-23767D01*
G03X-2722940Y-2426230I7J-33037D01*
G02X-2737060I-7060J7314D01*
G03X-2760000Y-2416960I-22947J-23767D01*
G03X-2782940Y-2426230I7J-33037D01*
G02X-2797060I-7060J7314D01*
G03X-2820000Y-2416960I-22947J-23767D01*
G03X-2835830Y-2421000I0J-33033D01*
G02X-2849940Y-2416290I-4863J8921D01*
G03X-2880000Y-2396960I-30060J-13708D01*
G01X-2880030D01*
G03X-2885700Y-2397450I-1J-33043D01*
G02X-2897450Y-2385700I-1745J10005D01*
G03X-2896960Y-2380030I-32553J5669D01*
G01Y-2380000D01*
G03X-2916290Y-2349940I-33038J0D01*
G02X-2921000Y-2335830I4211J9247D01*
G03X-2916960Y-2320000I-28993J15830D01*
G03X-2926230Y-2297060I-33037J-7D01*
G02Y-2282940I7314J7060D01*
G03X-2916960Y-2260000I-23767J22947D01*
G03X-2926230Y-2237060I-33037J-7D01*
G02Y-2222940I7314J7060D01*
G03X-2916960Y-2200000I-23767J22947D01*
G03X-2926230Y-2177060I-33037J-7D01*
G02Y-2162940I7314J7060D01*
G03X-2916960Y-2140000I-23767J22947D01*
G03X-2926230Y-2117060I-33037J-7D01*
G02Y-2102940I7314J7060D01*
G03X-2916960Y-2080000I-23767J22947D01*
G03X-2926230Y-2057060I-33037J-7D01*
G02Y-2042940I7314J7060D01*
G03X-2916960Y-2020000I-23767J22947D01*
G03X-2926230Y-1997060I-33037J-7D01*
G02Y-1982940I7314J7060D01*
G03X-2916960Y-1960000I-23767J22947D01*
G03X-2926230Y-1937060I-33037J-7D01*
G02Y-1922940I7314J7060D01*
G03X-2916960Y-1900000I-23767J22947D01*
G03X-2926230Y-1877060I-33037J-7D01*
G02Y-1862940I7314J7060D01*
G03X-2916960Y-1840000I-23767J22947D01*
G03X-2926230Y-1817060I-33037J-7D01*
G02Y-1802940I7314J7060D01*
G03X-2916960Y-1780000I-23767J22947D01*
G03X-2926230Y-1757060I-33037J-7D01*
G02Y-1742940I7314J7060D01*
G03X-2916960Y-1720000I-23767J22947D01*
G03X-2926230Y-1697060I-33037J-7D01*
G02Y-1682940I7314J7060D01*
G03X-2916960Y-1660000I-23767J22947D01*
G03X-2926230Y-1637060I-33037J-7D01*
G02Y-1622940I7314J7060D01*
G03X-2916960Y-1600000I-23767J22947D01*
G03X-2926230Y-1577060I-33037J-7D01*
G02Y-1562940I7314J7060D01*
G03X-2916960Y-1540000I-23767J22947D01*
G03X-2926230Y-1517060I-33037J-7D01*
G02Y-1502940I7314J7060D01*
G03X-2916960Y-1480000I-23767J22947D01*
G03X-2926230Y-1457060I-33037J-7D01*
G02Y-1442940I7314J7060D01*
G03X-2916960Y-1420000I-23767J22947D01*
G03X-2926230Y-1397060I-33037J-7D01*
G02Y-1382940I7314J7060D01*
G03X-2916960Y-1360000I-23767J22947D01*
G03X-2926230Y-1337060I-33037J-7D01*
G02Y-1322940I7314J7060D01*
G03X-2916960Y-1300000I-23767J22947D01*
G03X-2926230Y-1277060I-33037J-7D01*
G02Y-1262940I7314J7060D01*
G03X-2916960Y-1240000I-23767J22947D01*
G03X-2926230Y-1217060I-33037J-7D01*
G02Y-1202940I7314J7060D01*
G03X-2916960Y-1180000I-23767J22947D01*
G03X-2926230Y-1157060I-33037J-7D01*
G02Y-1142940I7314J7060D01*
G03X-2916960Y-1120000I-23767J22947D01*
G03X-2926230Y-1097060I-33037J-7D01*
G02Y-1082940I7314J7060D01*
G03X-2916960Y-1060000I-23767J22947D01*
G03X-2926230Y-1037060I-33037J-7D01*
G02Y-1022940I7314J7060D01*
G03X-2916960Y-1000000I-23767J22947D01*
G03X-2926230Y-977060I-33037J-7D01*
G02Y-962940I7314J7060D01*
G03X-2916960Y-940000I-23767J22947D01*
G03X-2926230Y-917060I-33037J-7D01*
G02Y-902940I7314J7060D01*
G03X-2916960Y-880000I-23767J22947D01*
G03X-2926230Y-857060I-33037J-7D01*
G02Y-842940I7314J7060D01*
G03X-2916960Y-820000I-23767J22947D01*
G03X-2926230Y-797060I-33037J-7D01*
G02Y-782940I7314J7060D01*
G03X-2916960Y-760000I-23767J22947D01*
G03X-2926230Y-737060I-33037J-7D01*
G02Y-722940I7314J7060D01*
G03X-2916960Y-700000I-23767J22947D01*
G03X-2926230Y-677060I-33037J-7D01*
G02Y-662940I7314J7060D01*
G03X-2916960Y-640000I-23767J22947D01*
G03X-2926230Y-617060I-33037J-7D01*
G02Y-602940I7314J7060D01*
G03X-2916960Y-580000I-23767J22947D01*
G03X-2926230Y-557060I-33037J-7D01*
G02Y-542940I7314J7060D01*
G03X-2916960Y-520000I-23767J22947D01*
G03X-2926230Y-497060I-33037J-7D01*
G02Y-482940I7314J7060D01*
G03X-2916960Y-460000I-23767J22947D01*
G03X-2926230Y-437060I-33037J-7D01*
G02Y-422940I7314J7060D01*
G03X-2916960Y-400000I-23767J22947D01*
G03X-2926230Y-377060I-33037J-7D01*
G02Y-362940I7314J7060D01*
G03X-2916960Y-340000I-23767J22947D01*
G03X-2926230Y-317060I-33037J-7D01*
G02Y-302940I7314J7060D01*
G03X-2916960Y-280000I-23767J22947D01*
G03X-2926230Y-257060I-33037J-7D01*
G02Y-242940I7314J7060D01*
G03X-2916960Y-220000I-23767J22947D01*
G03X-2926230Y-197060I-33037J-7D01*
G02Y-182940I7314J7060D01*
G03X-2916960Y-160000I-23767J22947D01*
G03X-2926230Y-137060I-33037J-7D01*
G02Y-122940I7314J7060D01*
G03X-2916960Y-100000I-23767J22947D01*
G03X-2926230Y-77060I-33037J-7D01*
G02Y-62940I7314J7060D01*
G03X-2916960Y-40000I-23767J22947D01*
G03X-2926230Y-17060I-33037J-7D01*
G02Y-2940I7314J7060D01*
G03X-2916960Y20000I-23767J22947D01*
G03X-2926230Y42940I-33037J-7D01*
G02Y57060I7314J7060D01*
G03X-2916960Y80000I-23767J22947D01*
G03X-2926230Y102940I-33037J-7D01*
G02Y117060I7314J7060D01*
G03X-2916960Y140000I-23767J22947D01*
G03X-2926230Y162940I-33037J-7D01*
G02Y177060I7314J7060D01*
G03X-2916960Y200000I-23767J22947D01*
G03X-2926230Y222940I-33037J-7D01*
G02Y237060I7314J7060D01*
G03X-2916960Y260000I-23767J22947D01*
G03X-2926230Y282940I-33037J-7D01*
G02Y297060I7314J7060D01*
G03X-2916960Y320000I-23767J22947D01*
G03X-2926230Y342940I-33037J-7D01*
G02Y357060I7314J7060D01*
G03X-2916960Y380000I-23767J22947D01*
G03X-2926230Y402940I-33037J-7D01*
G02Y417060I7314J7060D01*
G03X-2916960Y440000I-23767J22947D01*
G03X-2926230Y462940I-33037J-7D01*
G02Y477060I7314J7060D01*
G03X-2916960Y500000I-23767J22947D01*
G03X-2926230Y522940I-33037J-7D01*
G02Y537060I7314J7060D01*
G03X-2916960Y560000I-23767J22947D01*
G03X-2926230Y582940I-33037J-7D01*
G02Y597060I7314J7060D01*
G03X-2916960Y620000I-23767J22947D01*
G03X-2926230Y642940I-33037J-7D01*
G02Y657060I7314J7060D01*
G03X-2916960Y680000I-23767J22947D01*
G03X-2926230Y702940I-33037J-7D01*
G02Y717060I7314J7060D01*
G03X-2916960Y740000I-23767J22947D01*
G03X-2926230Y762940I-33037J-7D01*
G02Y777060I7314J7060D01*
G03X-2916960Y800000I-23767J22947D01*
G03X-2926230Y822940I-33037J-7D01*
G02Y837060I7314J7060D01*
G03X-2916960Y860000I-23767J22947D01*
G03X-2926230Y882940I-33037J-7D01*
G02Y897060I7314J7060D01*
G03X-2916960Y920000I-23767J22947D01*
G03X-2926230Y942940I-33037J-7D01*
G02Y957060I7314J7060D01*
G03X-2916960Y980000I-23767J22947D01*
G03X-2926230Y1002940I-33037J-7D01*
G02Y1017060I7314J7060D01*
G03X-2916960Y1040000I-23767J22947D01*
G03X-2926230Y1062940I-33037J-7D01*
G02Y1077060I7314J7060D01*
G03X-2916960Y1100000I-23767J22947D01*
G03X-2926230Y1122940I-33037J-7D01*
G02Y1137060I7314J7060D01*
G03X-2916960Y1160000I-23767J22947D01*
G03X-2926230Y1182940I-33037J-7D01*
G02Y1197060I7314J7060D01*
G03X-2916960Y1220000I-23767J22947D01*
G03X-2926230Y1242940I-33037J-7D01*
G02Y1257060I7314J7060D01*
G03X-2916960Y1280000I-23767J22947D01*
G03X-2926230Y1302940I-33037J-7D01*
G02Y1317060I7314J7060D01*
G03X-2916960Y1340000I-23767J22947D01*
G03X-2926230Y1362940I-33037J-7D01*
G02Y1377060I7314J7060D01*
G03X-2916960Y1400000I-23767J22947D01*
G03X-2926230Y1422940I-33037J-7D01*
G02Y1437060I7314J7060D01*
G03X-2916960Y1460000I-23767J22947D01*
G03X-2926230Y1482940I-33037J-7D01*
G02Y1497060I7314J7060D01*
G03X-2916960Y1520000I-23767J22947D01*
G03X-2926230Y1542940I-33037J-7D01*
G02Y1557060I7314J7060D01*
G03X-2916960Y1580000I-23767J22947D01*
G03X-2926230Y1602940I-33037J-7D01*
G02Y1617060I7314J7060D01*
G03X-2916960Y1640000I-23767J22947D01*
G03X-2926230Y1662940I-33037J-7D01*
G02Y1677060I7314J7060D01*
G03X-2916960Y1700000I-23767J22947D01*
G03X-2926230Y1722940I-33037J-7D01*
G02Y1737060I7314J7060D01*
G03X-2916960Y1760000I-23767J22947D01*
G03X-2926230Y1782940I-33037J-7D01*
G02Y1797060I7314J7060D01*
G03X-2916960Y1820000I-23767J22947D01*
G03X-2926230Y1842940I-33037J-7D01*
G02Y1857060I7314J7060D01*
G03X-2916960Y1880000I-23767J22947D01*
G03X-2926230Y1902940I-33037J-7D01*
G02Y1917060I7314J7060D01*
G03X-2916960Y1940000I-23767J22947D01*
G03X-2926230Y1962940I-33037J-7D01*
G02Y1977060I7314J7060D01*
G03X-2916960Y2000000I-23767J22947D01*
G03X-2926230Y2022940I-33037J-7D01*
G02Y2037060I7314J7060D01*
G03X-2916960Y2060000I-23767J22947D01*
G03X-2926230Y2082940I-33037J-7D01*
G02Y2097060I7314J7060D01*
G03X-2916960Y2120000I-23767J22947D01*
G03X-2926230Y2142940I-33037J-7D01*
G02Y2157060I7314J7060D01*
G03X-2916960Y2180000I-23767J22947D01*
G03X-2926230Y2202940I-33037J-7D01*
G02Y2217060I7314J7060D01*
G03X-2916960Y2240000I-23767J22947D01*
G03X-2926230Y2262940I-33037J-7D01*
G02Y2277060I7314J7060D01*
G03X-2916960Y2300000I-23767J22947D01*
G03X-2925240Y2321880I-33049J0D01*
G02X-2920540Y2338340I7610J6728D01*
G03X-2896960Y2370000I-9464J31660D01*
G03X-2897380Y2375260I-33046J8D01*
G02X-2887970Y2387020I10028J1620D01*
G03X-2859940Y2406290I-2033J32978D01*
G02X-2845830Y2411000I9247J-4211D01*
G03X-2830000Y2406960I15830J28993D01*
G03X-2803090Y2420820I0J33054D01*
G02X-2789090Y2423030I8135J-6083D01*
G03X-2770000Y2416960I19090J26984D01*
G03X-2746840Y2426440I0J33030D01*
G02X-2732940Y2426230I6838J-7523D01*
G03X-2710000Y2416960I22947J23767D01*
G03X-2686840Y2426440I0J33030D01*
G02X-2672940Y2426230I6838J-7523D01*
G03X-2650000Y2416960I22947J23767D01*
G03X-2626840Y2426440I0J33030D01*
G02X-2612940Y2426230I6838J-7523D01*
G03X-2590000Y2416960I22947J23767D01*
G03X-2566840Y2426440I0J33030D01*
G02X-2552940Y2426230I6838J-7523D01*
G03X-2530000Y2416960I22947J23767D01*
G03X-2506840Y2426440I0J33030D01*
G02X-2492940Y2426230I6838J-7523D01*
G03X-2470000Y2416960I22947J23767D01*
G03X-2446840Y2426440I0J33030D01*
G02X-2432940Y2426230I6838J-7523D01*
G03X-2410000Y2416960I22947J23767D01*
G03X-2386840Y2426440I0J33030D01*
G02X-2372940Y2426230I6838J-7523D01*
G03X-2350000Y2416960I22947J23767D01*
G03X-2326840Y2426440I0J33030D01*
G02X-2312940Y2426230I6838J-7523D01*
G03X-2290000Y2416960I22947J23767D01*
G03X-2266840Y2426440I0J33030D01*
G02X-2252940Y2426230I6838J-7523D01*
G03X-2230000Y2416960I22947J23767D01*
G03X-2206840Y2426440I0J33030D01*
G02X-2192940Y2426230I6838J-7523D01*
G03X-2170000Y2416960I22947J23767D01*
G03X-2146840Y2426440I0J33030D01*
G02X-2132940Y2426230I6838J-7523D01*
G03X-2110000Y2416960I22947J23767D01*
G03X-2086840Y2426440I0J33030D01*
G02X-2072940Y2426230I6838J-7523D01*
G03X-2050000Y2416960I22947J23767D01*
G03X-2026840Y2426440I0J33030D01*
G02X-2012940Y2426230I6838J-7523D01*
G03X-1990000Y2416960I22947J23767D01*
G03X-1966840Y2426440I0J33030D01*
G02X-1952940Y2426230I6838J-7523D01*
G03X-1930000Y2416960I22947J23767D01*
G03X-1906840Y2426440I0J33030D01*
G02X-1892940Y2426230I6838J-7523D01*
G03X-1870000Y2416960I22947J23767D01*
G03X-1846840Y2426440I0J33030D01*
G02X-1832940Y2426230I6838J-7523D01*
G03X-1810000Y2416960I22947J23767D01*
G03X-1786840Y2426440I0J33030D01*
G02X-1772940Y2426230I6838J-7523D01*
G03X-1750000Y2416960I22947J23767D01*
G03X-1726840Y2426440I0J33030D01*
G02X-1712940Y2426230I6838J-7523D01*
G03X-1690000Y2416960I22947J23767D01*
G03X-1666840Y2426440I0J33030D01*
G02X-1652940Y2426230I6838J-7523D01*
G03X-1630000Y2416960I22947J23767D01*
G03X-1606840Y2426440I0J33030D01*
G02X-1592940Y2426230I6838J-7523D01*
G03X-1570000Y2416960I22947J23767D01*
G03X-1546840Y2426440I0J33030D01*
G02X-1532940Y2426230I6838J-7523D01*
G03X-1510000Y2416960I22947J23767D01*
G03X-1486840Y2426440I0J33030D01*
G02X-1472940Y2426230I6838J-7523D01*
G03X-1450000Y2416960I22947J23767D01*
G03X-1426840Y2426440I0J33030D01*
G02X-1412940Y2426230I6838J-7523D01*
G03X-1390000Y2416960I22947J23767D01*
G01X-1389960D01*
G03X-1384920Y2417350I-22J33041D01*
G03X-1367230Y2426060I-5086J32649D01*
G02X-1352950Y2426220I7221J-7149D01*
G03X-1350000Y2423690I22951J23776D01*
G01Y1680000D01*
X-1900000Y1330000D01*
Y271230D01*
G02X-1917180Y263890I-10160J6D01*
G03X-1940000Y273040I-22820J-23881D01*
G03Y206960I0J-33040D01*
G03X-1917180Y216110I0J33031D01*
G02X-1900000Y208770I7020J-7346D01*
G01Y181230D01*
G02X-1917180Y173890I-10160J6D01*
G03X-1940000Y183040I-22820J-23881D01*
G03Y116960I0J-33040D01*
G03X-1917180Y126110I0J33031D01*
G02X-1900000Y118770I7020J-7346D01*
G01Y91230D01*
G02X-1917180Y83890I-10160J6D01*
G03X-1940000Y93040I-22820J-23881D01*
G03Y26960I0J-33040D01*
G03X-1917180Y36110I0J33031D01*
G02X-1900000Y28770I7020J-7346D01*
G01Y1230D01*
G02X-1917180Y-6110I-10160J6D01*
G03X-1940000Y3040I-22820J-23881D01*
G03Y-63040I0J-33040D01*
G03X-1917180Y-53890I0J33031D01*
G02X-1900000Y-61230I7020J-7346D01*
G01Y-88770D01*
G02X-1917180Y-96110I-10160J6D01*
G03X-1940000Y-86960I-22820J-23881D01*
G03Y-153040I0J-33040D01*
G03X-1917180Y-143890I0J33031D01*
G02X-1900000Y-151230I7020J-7346D01*
G01Y-178770D01*
G02X-1917180Y-186110I-10160J6D01*
G03X-1940000Y-176960I-22820J-23881D01*
G03Y-243040I0J-33040D01*
G03X-1917180Y-233890I0J33031D01*
G02X-1900000Y-241230I7020J-7346D01*
G01Y-268770D01*
G02X-1917180Y-276110I-10160J6D01*
G03X-1940000Y-266960I-22820J-23881D01*
G03Y-333040I0J-33040D01*
G03X-1917180Y-323890I0J33031D01*
G02X-1900000Y-331230I7020J-7346D01*
G01Y-358770D01*
G02X-1917180Y-366110I-10160J6D01*
G03X-1940000Y-356960I-22820J-23881D01*
G03Y-423040I0J-33040D01*
G03X-1911440Y-406610I0J33038D01*
G02X-1895470Y-404530I8785J-5104D01*
G01X-1860000Y-440000D01*
X-1710000D01*
X-1660000Y-490000D01*
Y-750310D01*
G02X-1676170Y-758500I-10160J1D01*
G03X-1697200Y-751620I-21030J-28701D01*
G03Y-822780I0J-35580D01*
G03X-1676170Y-815900I0J35581D01*
G02X-1660000Y-824090I6010J-8191D01*
G01Y-1230000D01*
X-1620000Y-1270000D01*
X-1460670D01*
G02X-1452560Y-1286280I1J-10160D01*
G03X-1459240Y-1306200I26361J-19920D01*
G03X-1458690Y-1312200I33040J3D01*
G01X-1458210Y-1314830D01*
X-1476850Y-1333470D01*
X-2203150D01*
X-2286250Y-1250370D01*
G02X-2279290Y-1233030I7185J7183D01*
G03X-2246960Y-1200000I-708J33030D01*
G03X-2280000Y-1166960I-33040J0D01*
G03X-2313030Y-1199290I0J-33038D01*
G02X-2330370Y-1206250I-10157J225D01*
G01X-2347370Y-1189250D01*
G02X-2342490Y-1172180I7187J7178D01*
G03X-2316970Y-1140720I-7513J32175D01*
G02X-2299630Y-1133760I10157J-225D01*
G01X-2284500Y-1148890D01*
G03X-2272810Y-1153730I11690J11697D01*
G01X-1835810D01*
G03X-1807200Y-1170240I28610J16534D01*
G03X-1774160Y-1137200I0J33040D01*
G03X-1785150Y-1112590I-33050J0D01*
G01X-1786840Y-1111080D01*
Y-1103730D01*
X-1771410D01*
G03X-1742800Y-1120240I28610J16534D01*
G03Y-1054160I0J33040D01*
G03X-1771410Y-1070670I0J-33044D01*
G01X-1784560D01*
X-1787890Y-1061960D01*
X-1785750Y-1059640D01*
G03X-1776960Y-1037200I-24249J22440D01*
G01Y-1037190D01*
G03X-1782180Y-1019370I-33042J-4D01*
G02X-1773630Y-1003730I8553J5481D01*
G01X-1768610D01*
G03X-1740000Y-1020240I28610J16534D01*
G03Y-954160I0J33040D01*
G03X-1768610Y-970670I0J-33044D01*
G01X-1781760D01*
X-1785090Y-961960D01*
X-1782950Y-959640D01*
G03X-1774160Y-937200I-24249J22440D01*
G03X-1807200Y-904160I-33040J0D01*
G03X-1835810Y-920670I0J-33044D01*
G01X-1935950D01*
X-1983470Y-873150D01*
Y260000D01*
G03X-1988310Y271690I-16537J0D01*
G01X-2001160Y284530D01*
X-1995210Y290480D01*
X-1992110Y289260D01*
G03X-1980000Y286960I12110J30731D01*
G03Y353040I0J33040D01*
G03X-2013030Y320710I0J-33038D01*
G02X-2030370Y313750I-10157J225D01*
G01X-2046250Y329630D01*
G02X-2039290Y346970I7185J7183D01*
G03X-2006960Y380000I-708J33030D01*
G03X-2040000Y413040I-33040J0D01*
G03X-2073030Y380710I0J-33038D01*
G02X-2090370Y373750I-10157J225D01*
G01X-2106250Y389630D01*
G02X-2099290Y406970I7185J7183D01*
G03X-2066960Y440000I-708J33030D01*
G03X-2100000Y473040I-33040J0D01*
G03X-2133030Y440710I0J-33038D01*
G02X-2150370Y433750I-10157J225D01*
G01X-2166250Y449630D01*
G02X-2159290Y466970I7185J7183D01*
G03X-2126960Y500000I-708J33030D01*
G03X-2160000Y533040I-33040J0D01*
G03X-2193030Y500710I0J-33038D01*
G02X-2210370Y493750I-10157J225D01*
G01X-2253470Y536850D01*
Y1920000D01*
G03X-2258310Y1931690I-16537J0D01*
G01X-2348310Y2021690D01*
G03X-2360000Y2026530I-11690J-11697D01*
G01X-2541390D01*
G03X-2570000Y2043040I-28610J-16534D01*
G03Y1976960I0J-33040D01*
G03X-2541390Y1993470I0J33044D01*
G01X-2366850D01*
X-2358840Y1985470D01*
X-2364790Y1979520D01*
X-2367890Y1980740D01*
G03X-2380000Y1983040I-12110J-30731D01*
G03Y1916960I0J-33040D01*
G03X-2346970Y1949290I0J33038D01*
G02X-2329630Y1956250I10157J-225D01*
G01X-2286530Y1913150D01*
Y1906370D01*
G02X-2302170Y1897820I-10159J3D01*
G03X-2319990Y1903040I-17824J-27822D01*
G01X-2320000D01*
G03Y1836960I0J-33040D01*
G01X-2319990D01*
G03X-2302170Y1842180I-4J33042D01*
G02X-2286530Y1833630I5481J-8553D01*
G01Y1816370D01*
G02X-2302170Y1807820I-10159J3D01*
G03X-2319990Y1813040I-17824J-27822D01*
G01X-2320000D01*
G03Y1746960I0J-33040D01*
G01X-2319990D01*
G03X-2302170Y1752180I-4J33042D01*
G02X-2286530Y1743630I5481J-8553D01*
G01Y1726370D01*
G02X-2302170Y1717820I-10159J3D01*
G03X-2319990Y1723040I-17824J-27822D01*
G01X-2320000D01*
G03Y1656960I0J-33040D01*
G01X-2319990D01*
G03X-2302170Y1662180I-4J33042D01*
G02X-2286530Y1653630I5481J-8553D01*
G01Y1636370D01*
G02X-2302170Y1627820I-10159J3D01*
G03X-2319990Y1633040I-17824J-27822D01*
G01X-2320000D01*
G03Y1566960I0J-33040D01*
G01X-2319990D01*
G03X-2302170Y1572180I-4J33042D01*
G02X-2286530Y1563630I5481J-8553D01*
G01Y1546370D01*
G02X-2302170Y1537820I-10159J3D01*
G03X-2319990Y1543040I-17824J-27822D01*
G01X-2320000D01*
G03Y1476960I0J-33040D01*
G01X-2319990D01*
G03X-2302170Y1482180I-4J33042D01*
G02X-2286530Y1473630I5481J-8553D01*
G01Y1456370D01*
G02X-2302170Y1447820I-10159J3D01*
G03X-2319990Y1453040I-17824J-27822D01*
G01X-2320000D01*
G03Y1386960I0J-33040D01*
G01X-2319990D01*
G03X-2302170Y1392180I-4J33042D01*
G02X-2286530Y1383630I5481J-8553D01*
G01Y1366370D01*
G02X-2302170Y1357820I-10159J3D01*
G03X-2319990Y1363040I-17824J-27822D01*
G01X-2320000D01*
G03X-2350270Y1343250I0J-33045D01*
G02X-2366760Y1340140I-9306J4072D01*
G01X-2417370Y1390750D01*
G02X-2412490Y1407820I7187J7178D01*
G03X-2386960Y1440000I-7516J32180D01*
G03X-2453040I-33040J0D01*
G01Y1439990D01*
G03X-2447820Y1422170I33042J4D01*
G02X-2456370Y1406530I-8553J-5481D01*
G01X-2541390D01*
G03X-2570000Y1423040I-28610J-16534D01*
G03Y1356960I0J-33040D01*
G03X-2541390Y1373470I0J33044D01*
G01X-2446850D01*
X-2386530Y1313150D01*
Y1300360D01*
X-2393880D01*
X-2395390Y1302050D01*
G03X-2420000Y1313040I-24610J-22060D01*
G03Y1246960I0J-33040D01*
G01X-2419990D01*
G03X-2402170Y1252180I-4J33042D01*
G02X-2386530Y1243630I5481J-8553D01*
G01Y1226370D01*
G02X-2402170Y1217820I-10159J3D01*
G03X-2419990Y1223040I-17824J-27822D01*
G01X-2420000D01*
G03Y1156960I0J-33040D01*
G01X-2419990D01*
G03X-2402170Y1162180I-4J33042D01*
G02X-2386530Y1153630I5481J-8553D01*
G01Y1136370D01*
G02X-2402170Y1127820I-10159J3D01*
G03X-2419990Y1133040I-17824J-27822D01*
G01X-2420000D01*
G03Y1066960I0J-33040D01*
G01X-2419990D01*
G03X-2402170Y1072180I-4J33042D01*
G02X-2386530Y1063630I5481J-8553D01*
G01Y1046370D01*
G02X-2402170Y1037820I-10159J3D01*
G03X-2419990Y1043040I-17824J-27822D01*
G01X-2420000D01*
G03Y976960I0J-33040D01*
G01X-2419990D01*
G03X-2402170Y982180I-4J33042D01*
G02X-2386530Y973630I5481J-8553D01*
G01Y956370D01*
G02X-2402170Y947820I-10159J3D01*
G03X-2419990Y953040I-17824J-27822D01*
G01X-2420000D01*
G03Y886960I0J-33040D01*
G01X-2419990D01*
G03X-2402170Y892180I-4J33042D01*
G02X-2386530Y883630I5481J-8553D01*
G01Y866370D01*
G02X-2402170Y857820I-10159J3D01*
G03X-2419990Y863040I-17824J-27822D01*
G01X-2420000D01*
G03Y796960I0J-33040D01*
G01X-2419990D01*
G03X-2402170Y802180I-4J33042D01*
G02X-2386530Y793630I5481J-8553D01*
G01Y776370D01*
G02X-2402170Y767820I-10159J3D01*
G03X-2419990Y773040I-17824J-27822D01*
G01X-2420000D01*
G03X-2453030Y740710I0J-33038D01*
G02X-2470370Y733750I-10157J225D01*
G01X-2518310Y781690D01*
G03X-2530000Y786530I-11690J-11697D01*
G01X-2541390D01*
G03X-2570000Y803040I-28610J-16534D01*
G03Y736960I0J-33040D01*
G03X-2545790Y747520I0J33032D01*
G02X-2531160Y747790I7445J-6917D01*
G01X-2521470Y738100D01*
X-2526630Y732940D01*
X-2528840Y733020D01*
G03X-2529980Y733040I-1149J-33020D01*
G01X-2530000D01*
G03X-2563040Y700000I0J-33040D01*
G03X-2549370Y673230I33047J0D01*
G02Y656770I-5952J-8230D01*
G03X-2563040Y630000I19377J-26770D01*
G03X-2496960I33040J0D01*
G03X-2510630Y656770I-33047J0D01*
G02Y673230I5952J8230D01*
G03X-2496960Y700000I-19377J26770D01*
G01Y700020D01*
G37*
G36*
G01X-1299150Y2474590D02*
X190000D01*
Y1813380D01*
X100680Y1724060D01*
X97940Y1724680D01*
G03X90000Y1725580I-7952J-34679D01*
G03X125580Y1690000I0J-35580D01*
G03X124790Y1697410I-35576J-46D01*
G01Y1697420D01*
X124710Y1697800D01*
X124060Y1700680D01*
X172660Y1749280D01*
G02X190000Y1742100I7181J-7186D01*
G01Y1685740D01*
G02X179880Y1675580I-10160J0D01*
G03Y1604420I120J-35580D01*
G02X190000Y1594260I-40J-10160D01*
G01Y1450000D01*
X226130Y1413870D01*
G02X218940Y1396530I-7188J-7180D01*
G01X-665600D01*
G03X-677290Y1391690I0J-16537D01*
G01X-737120Y1331860D01*
X-739860Y1332480D01*
G03X-747800Y1333380I-7952J-34679D01*
G03X-712220Y1297800I0J-35580D01*
G03X-713010Y1305210I-35576J-46D01*
G01Y1305220D01*
X-713090Y1305600D01*
X-713740Y1308480D01*
X-658750Y1363470D01*
X353150D01*
X490000Y1226620D01*
Y1190000D01*
X570000Y1110000D01*
X770000D01*
X779980Y1100020D01*
X775220Y1095260D01*
G03X744420Y1060000I4783J-35260D01*
G03X780000Y1024420I35580J0D01*
G03X803210Y1033030I0J35589D01*
G02X820000Y1025340I6631J-7696D01*
G01Y560000D01*
X821880Y558120D01*
Y554210D01*
X843470Y532620D01*
Y-550000D01*
X530000D01*
X-120000Y-1200000D01*
X-503470D01*
Y-556530D01*
X-262040D01*
G03X-250350Y-551690I0J16537D01*
G01X-235480Y-536820D01*
X-232740Y-537440D01*
G03X-224800Y-538340I7952J34679D01*
G03X-260380Y-502760I0J35580D01*
G03X-259590Y-510170I35576J46D01*
G01Y-510180D01*
X-259510Y-510560D01*
X-258860Y-513440D01*
X-268890Y-523470D01*
X-503470D01*
Y-347800D01*
G03X-508310Y-336110I-16537J0D01*
G01X-563720Y-280700D01*
X-563120Y-277910D01*
X-563110Y-277880D01*
G03X-562220Y-270000I-34687J7908D01*
G03X-597800Y-305580I-35580J0D01*
G03X-589860Y-304680I-12J35579D01*
G01X-587120Y-304060D01*
X-536530Y-354650D01*
Y-1203160D01*
X-801690Y-1468320D01*
G03X-806530Y-1480010I11697J-11690D01*
G01Y-1582620D01*
X-833910Y-1610000D01*
X-1165340D01*
G02X-1173030Y-1593210I6J10159D01*
G03X-1164420Y-1570000I-26979J23210D01*
G03X-1235580I-35580J0D01*
G03X-1226970Y-1593210I35589J0D01*
G02X-1234660Y-1610000I-7696J-6631D01*
G01X-1240000D01*
X-1290000Y-1560000D01*
Y-1230000D01*
X-1600000D01*
X-1620000Y-1210000D01*
Y-509770D01*
G02X-1606010Y-500360I10159J2D01*
G03X-1592620Y-502980I13401J32962D01*
G01X-1592600D01*
G03X-1557020Y-467400I0J35580D01*
G03X-1576070Y-435890I-35585J0D01*
G01Y-37050D01*
X-1326880Y212140D01*
X-1324140Y211520D01*
G03X-1316200Y210620I7952J34679D01*
G03X-1351780Y246200I0J35580D01*
G03X-1350880Y238260I35579J12D01*
G01X-1350260Y235520D01*
X-1604290Y-18510D01*
G03X-1609130Y-30200I11697J-11690D01*
G01Y-435890D01*
G03X-1623090Y-449070I16534J-31496D01*
G02X-1638980Y-451020I-8707J5237D01*
G01X-1690000Y-400000D01*
X-1840000D01*
X-1860000Y-380000D01*
Y514260D01*
G02X-1849880Y524420I10160J0D01*
G03Y595580I-120J35580D01*
G02X-1860000Y605740I40J10160D01*
G01Y650460D01*
G02X-1849880Y660620I10160J0D01*
G03Y731780I-120J35580D01*
G02X-1860000Y741940I40J10160D01*
G01Y1310000D01*
X-1559200Y1501420D01*
G02X-1544170Y1489900I5270J-8690D01*
G03X-1545580Y1480000I34168J-9917D01*
G03X-1474420I35580J0D01*
G03X-1504490Y1515150I-35579J0D01*
G02X-1508530Y1533660I1568J10038D01*
G01X-1310000Y1660000D01*
Y2423690D01*
G03X-1296950Y2450000I-19997J26310D01*
G01Y2450010D01*
G03X-1301300Y2466390I-33046J-8D01*
G01X-1301620Y2466970D01*
X-1301950Y2468190D01*
X-1302710Y2471020D01*
X-1299150Y2474590D01*
G37*
G36*
G01X-1278090Y-2474590D02*
G02X-1282700Y-2467370I-2J5080D01*
G03X-1278850Y-2450000I-37298J17379D01*
G03X-1290000Y-2421830I-41160J0D01*
G01Y-1700000D01*
X-1276110Y-1686110D01*
X-1274940Y-1685740D01*
G03X-1268310Y-1681690I-5062J15738D01*
G01X-1236620Y-1650000D01*
X-820000D01*
X-760000Y-1590000D01*
Y-1490000D01*
X-510000Y-1240000D01*
X-100000D01*
X550000Y-590000D01*
X802100D01*
G02X809280Y-607340I-6J-10159D01*
G01X730680Y-685940D01*
X727940Y-685320D01*
G03X720000Y-684420I-7952J-34679D01*
G03X755580Y-720000I0J-35580D01*
G03X754680Y-712060I-35579J-12D01*
G01X754060Y-709320D01*
X871690Y-591690D01*
G03X873160Y-590000I-11709J11669D01*
G01X1290000D01*
X1410000Y-470000D01*
Y-136530D01*
X1423150D01*
X1511500Y-224870D01*
G02X1505510Y-242150I-7185J-7188D01*
G03X1471880Y-280000I4485J-37850D01*
G03X1483740Y-307630I38115J0D01*
G02Y-322370I-6995J-7370D01*
G03X1471880Y-350000I26255J-27630D01*
G03X1510000Y-388120I38120J0D01*
G03X1537630Y-376260I0J38115D01*
G02X1552370I7370J-6995D01*
G03X1607630I27630J26255D01*
G02X1622370I7370J-6995D01*
G03X1677630I27630J26255D01*
G02X1692370I7370J-6995D01*
G03X1747630I27630J26255D01*
G02X1762370I7370J-6995D01*
G03X1790000Y-388120I27630J26255D01*
G03X1828120Y-350000I0J38120D01*
G03X1816260Y-322370I-38115J0D01*
G02Y-307630I6995J7370D01*
G03X1828120Y-280000I-26255J27630D01*
G03X1823380Y-261590I-38122J0D01*
G02X1832280Y-246530I8900J4900D01*
G01X2378490D01*
G03X2410000Y-265580I31510J16535D01*
G03Y-194420I0J35580D01*
G03X2378490Y-213470I0J-35585D01*
G01X1546850D01*
X1441690Y-108310D01*
G03X1430000Y-103470I-11690J-11697D01*
G01X1410000D01*
Y470000D01*
X1360000Y520000D01*
X910000D01*
X876530Y553470D01*
Y1076530D01*
X933470Y1133470D01*
X1253150D01*
X1313470Y1073150D01*
Y831510D01*
G03X1294420Y800000I16535J-31510D01*
G03X1365580I35580J0D01*
G03X1346530Y831510I-35585J0D01*
G01Y1080000D01*
G03X1341690Y1091690I-16537J0D01*
G01X1271690Y1161690D01*
G03X1260000Y1166530I-11690J-11697D01*
G01X596850D01*
X530000Y1233380D01*
Y1520000D01*
X581330Y1571330D01*
G03X577740Y1580000I-3594J3590D01*
G01X280000D01*
X274120Y1585880D01*
G02X278930Y1602940I7185J7182D01*
G03X308120Y1640000I-8931J37060D01*
G03X270000Y1678120I-38120J0D01*
G01X269970D01*
G03X266720Y1677980I14J-38121D01*
G02X258660Y1695280I-873J10121D01*
G01X786850Y2223470D01*
X2043150D01*
X2163470Y2103150D01*
Y1639400D01*
G03X2168310Y1627710I16537J0D01*
G01X2274540Y1521490D01*
X2272370Y1518060D01*
G03X2258080Y1468610I78432J-49455D01*
G01Y1468600D01*
G03X2350800Y1561320I92720J0D01*
G01X2350790D01*
G03X2301340Y1547030I5J-92722D01*
G01X2297910Y1544860D01*
X2196530Y1646250D01*
Y2110000D01*
G03X2191690Y2121690I-16537J0D01*
G01X2061690Y2251690D01*
G03X2050000Y2256530I-11690J-11697D01*
G01X780000D01*
G03X768310Y2251690I0J-16537D01*
G01X263310Y1746690D01*
X230000Y1780000D01*
Y1806620D01*
X736850Y2313470D01*
X2313150D01*
X2573470Y2053150D01*
Y1206650D01*
X2403690Y1036860D01*
X2400260Y1039030D01*
G03X2350810Y1053320I-49455J-78432D01*
G01X2350800D01*
G03X2443520Y960600I0J-92720D01*
G01Y960610D01*
G03X2429230Y1010060I-92722J-5D01*
G01X2427060Y1013490D01*
X2601690Y1188110D01*
G03X2606530Y1199800I-11697J11690D01*
G01Y2060000D01*
G03X2601690Y2071690I-16537J0D01*
G01X2331690Y2341690D01*
G03X2320000Y2346530I-11690J-11697D01*
G01X730000D01*
G03X718310Y2341690I0J-16537D01*
G01X247340Y1870720D01*
G02X230000Y1877900I-7181J7186D01*
G01Y2474590D01*
X2800000D01*
G02X2974590Y2300000I0J-174590D01*
G01Y-2300000D01*
G02X2800000Y-2474590I-174590J0D01*
G01X-1278090D01*
G37*
G36*
G01X876530Y475030D02*
G02X893870Y482220I10160J2D01*
G01X894210Y481880D01*
X898120D01*
X900000Y480000D01*
X1340000D01*
X1370000Y450000D01*
Y94840D01*
G02X1353260Y87100I-10159J-2D01*
G03X1330200Y95580I-23060J-27114D01*
G03X1322260Y94680I12J-35579D01*
G01X1319520Y94060D01*
X1266530Y147050D01*
Y370000D01*
G03X1261690Y381690I-16537J0D01*
G01X1221690Y421690D01*
G03X1210000Y426530I-11690J-11697D01*
G01X1131510D01*
G03X1100000Y445580I-31510J-16535D01*
G03Y374420I0J-35580D01*
G03X1131510Y393470I0J35585D01*
G01X1203150D01*
X1233470Y363150D01*
Y140200D01*
G03X1238310Y128510I16537J0D01*
G01X1296140Y70680D01*
X1295520Y67940D01*
G03X1294620Y60000I34679J-7952D01*
G03X1330200Y24420I35580J0D01*
G03X1353260Y32900I0J35594D01*
G02X1370000Y25160I6581J-7738D01*
G01Y-103470D01*
X1121510D01*
G03X1090000Y-84420I-31510J-16535D01*
G03Y-155580I0J-35580D01*
G03X1121510Y-136530I0J35585D01*
G01X1370000D01*
Y-450000D01*
X1270000Y-550000D01*
X876530D01*
Y475030D01*
G37*
%LPC*%
G75*
G36*
G01X-2205620Y1762750D02*
G03X-2194600Y1775930I1348J10070D01*
G02X-2210120Y1874800I307199J98875D01*
G02X-1887400Y1552080I322720J0D01*
G02X-2165450Y1710980I0J322722D01*
G03X-2182620Y1711510I-8752J-5159D01*
G02X-2210000Y1696960I-27380J18487D01*
G02Y1763040I0J33040D01*
G01X-2209980D01*
G02X-2205620Y1762750I-8J-33041D01*
G37*
G36*
G01X-536800Y-165940D02*
X-1412560D01*
X-1513470Y-266850D01*
Y-519360D01*
G03X-1497290Y-527540I10159J2D01*
G02X-1492730Y-524690I21085J-28662D01*
G01Y-476200D01*
G02X-1487890Y-464510I16537J0D01*
G01X-1431690Y-408310D01*
G02X-1420000Y-403470I11690J-11697D01*
G01X-1345140D01*
X-1343870Y-400260D01*
G02X-1319190Y-383470I24680J-9744D01*
G01X-1313790D01*
G02X-1297380Y-389160I-7J-26528D01*
G03X-1284800I6290J7984D01*
G02X-1268390Y-383470I16417J-20838D01*
G01X-1262990D01*
G02X-1246580Y-389160I-7J-26528D01*
G03X-1234000I6290J7984D01*
G02X-1217590Y-383470I16417J-20838D01*
G01X-1212190D01*
G02X-1195780Y-389160I-7J-26528D01*
G03X-1183200I6290J7984D01*
G02X-1166790Y-383470I16417J-20838D01*
G01X-1161390D01*
G02X-1144980Y-389160I-7J-26528D01*
G03X-1132400I6290J7984D01*
G02X-1115990Y-383470I16417J-20838D01*
G01X-1110590D01*
G02X-1085910Y-400260I0J-26534D01*
G01X-1084640Y-403470D01*
X-951510D01*
G02X-920000Y-384420I31510J-16535D01*
G02Y-455580I0J-35580D01*
G02X-951510Y-436530I0J35585D01*
G01X-1090590D01*
G02X-1107000Y-430840I7J26528D01*
G03X-1119580I-6290J-7984D01*
G02X-1135990Y-436530I-16417J20838D01*
G01X-1141390D01*
G02X-1157800Y-430840I7J26528D01*
G03X-1170380I-6290J-7984D01*
G02X-1186790Y-436530I-16417J20838D01*
G01X-1192190D01*
G02X-1208600Y-430840I7J26528D01*
G03X-1221180I-6290J-7984D01*
G02X-1237590Y-436530I-16417J20838D01*
G01X-1242990D01*
G02X-1259400Y-430840I7J26528D01*
G03X-1271980I-6290J-7984D01*
G02X-1288390Y-436530I-16417J20838D01*
G01X-1293790D01*
G02X-1310200Y-430840I7J26528D01*
G03X-1322780I-6290J-7984D01*
G02X-1339190Y-436530I-16417J20838D01*
G01X-1413150D01*
X-1459670Y-483050D01*
Y-524690D01*
G02X-1440620Y-556200I-16535J-31510D01*
G02X-1476200Y-591780I-35580J0D01*
G02X-1482480Y-591220I8J35579D01*
G03X-1494430Y-600950I-1794J-10000D01*
G02X-1530000Y-635580I-35570J953D01*
G02X-1565580Y-600000I0J35580D01*
G02X-1546530Y-568490I35585J0D01*
G01Y-260000D01*
G02X-1541690Y-248310I16537J0D01*
G01X-1431100Y-137720D01*
G02X-1419410Y-132880I11690J-11697D01*
G01X-478250D01*
G02X-446740Y-113830I31510J-16535D01*
G02X-411160Y-149410I0J-35580D01*
G02X-412060Y-157340I-35578J22D01*
G01Y-157350D01*
X-412680Y-160090D01*
X-383950Y-188820D01*
X203130D01*
G02X234640Y-169770I31510J-16535D01*
G02X270220Y-205350I0J-35580D01*
G02X267360Y-219320I-35579J6D01*
G03X276700Y-233470I9345J-3989D01*
G01X563150D01*
X665940Y-130680D01*
X665320Y-127940D01*
Y-127930D01*
G02X664420Y-120000I34678J7952D01*
G02X700000Y-155580I35580J0D01*
G02X692060Y-154680I12J35579D01*
G01X689320Y-154060D01*
X581690Y-261690D01*
G02X570000Y-266530I-11690J11697D01*
G01X-447800D01*
G02X-459490Y-261690I0J16537D01*
G01X-487120Y-234060D01*
X-489860Y-234680D01*
G02X-497800Y-235580I-7952J34679D01*
G02X-533380Y-200000I0J35580D01*
G01Y-199990D01*
G02X-528140Y-181410I35581J-6D01*
G03X-536800Y-165940I-8660J5311D01*
G37*
G36*
G01X-1323220Y393040D02*
G02X-1335580Y420000I23223J26960D01*
G02X-1264420I35580J0D01*
G02X-1281600Y389550I-35575J0D01*
G03X-1282980Y373160I5255J-8696D01*
G02X-1270620Y346200I-23223J-26960D01*
G02X-1341780I-35580J0D01*
G02X-1324600Y376650I35575J0D01*
G03X-1323220Y393040I-5255J8696D01*
G37*
G36*
G01X555200Y143470D02*
X414940D01*
G03X407590Y126300I6J-10161D01*
G02X418120Y100000I-27579J-26300D01*
G02X407430Y73530I-38117J0D01*
G03Y66470I3654J-3530D01*
G02Y13530I-27427J-26470D01*
G03Y6470I3654J-3530D01*
G02X418120Y-20000I-27427J-26470D01*
G02X380000Y-58120I-38120J0D01*
G02X353530Y-47430I0J38117D01*
G03X346470I-3530J-3654D01*
G02X320000Y-58120I-26470J27427D01*
G02X281880Y-20000I0J38120D01*
G02X292570Y6470I38117J0D01*
G03Y13530I-3654J3530D01*
G02Y66470I27427J26470D01*
G03Y73530I-3654J3530D01*
G02X281880Y100000I27427J26470D01*
G02X292410Y126300I38109J0D01*
G03X285060Y143470I-7356J7009D01*
G01X-168970D01*
G03X-175370Y125420I0J-10160D01*
G02X-162220Y97800I-22431J-27620D01*
G02X-233380I-35580J0D01*
G02X-220230Y125420I35581J0D01*
G03X-226630Y143470I-6400J7890D01*
G01X-328490D01*
G02X-360000Y124420I-31510J16535D01*
G02Y195580I0J35580D01*
G02X-328490Y176530I0J-35585D01*
G01X548350D01*
X581140Y209320D01*
X580520Y212060D01*
G02X579620Y220000I34679J7952D01*
G02X615200Y255580I35580J0D01*
G02X616250Y255560I-152J-35577D01*
G03X626200Y268890I297J10157D01*
G02X624420Y280000I33800J11113D01*
G02X660000Y244420I35580J0D01*
G02X658950Y244440I152J35577D01*
G03X649000Y231110I-297J-10157D01*
G02X650780Y220000I-33800J-11113D01*
G02X615200Y184420I-35580J0D01*
G02X607260Y185320I12J35579D01*
G01X604520Y185940D01*
X566890Y148310D01*
G02X555200Y143470I-11690J11697D01*
G37*
G36*
G01X-1006860Y1823340D02*
G03Y1836660I-7667J6660D01*
G02X-1015580Y1859990I26862J23335D01*
G01Y1860000D01*
G02X-944420I35580J0D01*
G01Y1859990D01*
G02X-953140Y1836660I-35582J5D01*
G03Y1823340I7667J-6660D01*
G02X-944420Y1800010I-26862J-23335D01*
G01Y1800000D01*
G02X-1015580I-35580J0D01*
G01Y1800010D01*
G02X-1006860Y1823340I35582J-5D01*
G37*
G36*
G01X-855580Y1580000D02*
G02X-784420I35580J0D01*
G02X-803470Y1548490I-35585J0D01*
G01Y800000D01*
G02X-808310Y788310I-16537J0D01*
G01X-939740Y656880D01*
X-939120Y654140D01*
G02X-938220Y646200I-34679J-7952D01*
G02X-973800Y610620I-35580J0D01*
G02X-1005310Y629670I0J35585D01*
G01X-1325000D01*
G02X-1336690Y634510I0J16537D01*
G01X-1479320Y777140D01*
X-1482060Y776520D01*
G02X-1490000Y775620I-7952J34679D01*
G02X-1454420Y811200I0J35580D01*
G02X-1455320Y803260I-35579J12D01*
G01X-1455940Y800520D01*
X-1318150Y662730D01*
X-1075550D01*
G03X-1066810Y678070I-2J10161D01*
G02X-1071780Y696200I30608J18137D01*
G02X-1000620I35580J0D01*
G01Y696170D01*
G02X-1001120Y690240I-35581J14D01*
G03X-987260Y679130I10017J-1704D01*
G02X-973800Y681780I13474J-32927D01*
G02X-965860Y680880I-12J-35579D01*
G01X-963120Y680260D01*
X-836530Y806850D01*
Y1548490D01*
G02X-855580Y1580000I16535J31510D01*
G37*
G36*
G01X-7430Y1516470D02*
G03Y1523530I-3654J3530D01*
G02X-18120Y1550000I27427J26470D01*
G02X58120I38120J0D01*
G02X47430Y1523530I-38117J0D01*
G03Y1516470I3654J-3530D01*
G02X58120Y1490000I-27427J-26470D01*
G02X-18120I-38120J0D01*
G02X-7430Y1516470I38117J0D01*
G37*
G36*
G01X-707230Y537090D02*
G03X-722770I-7770J-6537D01*
G02X-749990Y524420I-27224J22913D01*
G01X-750000D01*
G02Y595580I0J35580D01*
G01X-749990D01*
G02X-722770Y582910I-4J-35583D01*
G03X-707230I7770J6537D01*
G02X-680010Y595580I27224J-22913D01*
G01X-680000D01*
G02Y524420I0J-35580D01*
G01X-680010D01*
G02X-707230Y537090I4J35583D01*
G37*
G36*
G01X-1258420Y-503470D02*
X-631510D01*
G02X-600000Y-484420I31510J-16535D01*
G02Y-555580I0J-35580D01*
G02X-631510Y-536530I0J35585D01*
G01X-1251570D01*
X-1294360Y-579320D01*
X-1293740Y-582060D01*
G02X-1292840Y-590000I-34679J-7952D01*
G02X-1328420Y-554420I-35580J0D01*
G02X-1320480Y-555320I-12J-35579D01*
G01X-1317740Y-555940D01*
X-1270110Y-508310D01*
G02X-1258420Y-503470I11690J-11697D01*
G37*
G36*
G01X2126470Y-1712570D02*
G03X2133530I3530J3654D01*
G02X2186470I26470J-27427D01*
G03X2193530I3530J3654D01*
G02X2220000Y-1701880I26470J-27427D01*
G02X2258120Y-1740000I0J-38120D01*
G02X2247430Y-1766470I-38117J0D01*
G03Y-1773530I3654J-3530D01*
G02X2258120Y-1800000I-27427J-26470D01*
G02X2220000Y-1838120I-38120J0D01*
G02X2193530Y-1827430I0J38117D01*
G03X2186470I-3530J-3654D01*
G02X2133530I-26470J27427D01*
G03X2126470I-3530J-3654D01*
G02X2100000Y-1838120I-26470J27427D01*
G02X2061880Y-1800000I0J38120D01*
G02X2072570Y-1773530I38117J0D01*
G03Y-1766470I-3654J3530D01*
G02X2061880Y-1740000I27427J26470D01*
G02X2100000Y-1701880I38120J0D01*
G02X2126470Y-1712570I0J-38117D01*
G37*
G36*
G01X-667630Y-1716260D02*
G03X-682370I-7370J-6995D01*
G02X-710000Y-1728120I-27630J26255D01*
G02Y-1651880I0J38120D01*
G02X-682370Y-1663740I0J-38115D01*
G03X-667630I7370J6995D01*
G02X-640000Y-1651880I27630J-26255D01*
G02Y-1728120I0J-38120D01*
G02X-667630Y-1716260I0J38115D01*
G37*
G36*
G01Y-1626260D02*
G03X-682370I-7370J-6995D01*
G02X-710000Y-1638120I-27630J26255D01*
G02Y-1561880I0J38120D01*
G02X-682370Y-1573740I0J-38115D01*
G03X-667630I7370J6995D01*
G02X-640000Y-1561880I27630J-26255D01*
G02Y-1638120I0J-38120D01*
G02X-667630Y-1626260I0J38115D01*
G37*
G36*
G01Y-1536260D02*
G03X-682370I-7370J-6995D01*
G02X-710000Y-1548120I-27630J26255D01*
G02Y-1471880I0J38120D01*
G02X-682370Y-1483740I0J-38115D01*
G03X-667630I7370J6995D01*
G02X-640000Y-1471880I27630J-26255D01*
G02Y-1548120I0J-38120D01*
G02X-667630Y-1536260I0J38115D01*
G37*
G36*
G01X662570Y-1223530D02*
G03Y-1216470I-3654J3530D01*
G02X651880Y-1190000I27427J26470D01*
G02X690000Y-1151880I38120J0D01*
G02X716470Y-1162570I0J-38117D01*
G03X723530I3530J3654D01*
G02X750000Y-1151880I26470J-27427D01*
G02X788120Y-1190000I0J-38120D01*
G02X777430Y-1216470I-38117J0D01*
G03Y-1223530I3654J-3530D01*
G02Y-1276470I-27427J-26470D01*
G03Y-1283530I3654J-3530D01*
G02X788120Y-1310000I-27427J-26470D01*
G02X750000Y-1348120I-38120J0D01*
G02X723530Y-1337430I0J38117D01*
G03X716470I-3530J-3654D01*
G02X690000Y-1348120I-26470J27427D01*
G02X651880Y-1310000I0J38120D01*
G02X662570Y-1283530I38117J0D01*
G03Y-1276470I-3654J3530D01*
G02Y-1223530I27427J26470D01*
G37*
G36*
G01X494720Y-768070D02*
X1020530D01*
G02X1032220Y-772910I0J-16537D01*
G01X1141690Y-882380D01*
G02X1146530Y-894070I-11697J-11690D01*
G01Y-1294380D01*
G03X1157420Y-1304510I10158J2D01*
G02X1160000Y-1304420I2530J-35492D01*
G02Y-1375580I0J-35580D01*
G02X1131000Y-1360620I0J35588D01*
G03X1114450I-8275J-5888D01*
G02X1085450Y-1375580I-29000J20628D01*
G02X1049870Y-1340000I0J35580D01*
G02X1083300Y-1304490I35575J0D01*
G03X1088070Y-1299430I-311J5072D01*
G01Y-911450D01*
X1003150Y-826530D01*
X512100D01*
X509080Y-829550D01*
Y-833820D01*
X526270Y-851010D01*
G02X531110Y-862700I-11697J-11690D01*
G01Y-868490D01*
G02X550160Y-900000I-16535J-31510D01*
G02X514580Y-935580I-35580J0D01*
G02X485580Y-920620I0J35588D01*
G03X469030I-8275J-5888D01*
G02X440030Y-935580I-29000J20628D01*
G02X404450Y-900000I0J35580D01*
G02X423500Y-868490I35585J0D01*
G01Y-862690D01*
G02X428340Y-851000I16537J0D01*
G01X450620Y-828720D01*
Y-812170D01*
G02X455460Y-800480I16537J0D01*
G01X483030Y-772910D01*
G02X494720Y-768070I11690J-11697D01*
G37*
G36*
G01X2372570Y-443530D02*
G03Y-436470I-3654J3530D01*
G02X2361880Y-410000I27427J26470D01*
G02X2400000Y-371880I38120J0D01*
G02X2426470Y-382570I0J-38117D01*
G03X2433530I3530J3654D01*
G02X2460000Y-371880I26470J-27427D01*
G02X2498120Y-410000I0J-38120D01*
G02X2487430Y-436470I-38117J0D01*
G03Y-443530I3654J-3530D01*
G02Y-496470I-27427J-26470D01*
G03Y-503530I3654J-3530D01*
G02X2498120Y-530000I-27427J-26470D01*
G02X2460000Y-568120I-38120J0D01*
G02X2433530Y-557430I0J38117D01*
G03X2426470I-3530J-3654D01*
G02X2400000Y-568120I-26470J27427D01*
G02X2361880Y-530000I0J38120D01*
G02X2372570Y-503530I38117J0D01*
G03Y-496470I-3654J3530D01*
G02Y-443530I27427J26470D01*
G37*
G36*
G01X1923740Y1767630D02*
G03Y1782370I-6995J7370D01*
G02X1911880Y1810000I26255J27630D01*
G02X1950000Y1848120I38120J0D01*
G02X1977630Y1836260I0J-38115D01*
G03X1992370I7370J6995D01*
G02X2020000Y1848120I27630J-26255D01*
G02X2058120Y1810000I0J-38120D01*
G02X2046260Y1782370I-38115J0D01*
G03Y1767630I6995J-7370D01*
G02Y1712370I-26255J-27630D01*
G03Y1697630I6995J-7370D01*
G02Y1642370I-26255J-27630D01*
G03Y1627630I6995J-7370D01*
G02Y1572370I-26255J-27630D01*
G03Y1557630I6995J-7370D01*
G02X2058120Y1530000I-26255J-27630D01*
G02X2020000Y1491880I-38120J0D01*
G02X1992370Y1503740I0J38115D01*
G03X1977630I-7370J-6995D01*
G02X1950000Y1491880I-27630J26255D01*
G02X1911880Y1530000I0J38120D01*
G02X1923740Y1557630I38115J0D01*
G03Y1572370I-6995J7370D01*
G02Y1627630I26255J27630D01*
G03Y1642370I-6995J7370D01*
G02Y1697630I26255J27630D01*
G03Y1712370I-6995J7370D01*
G02Y1767630I26255J27630D01*
G37*
G54D21*
X-120000Y-1040000D03*
X-1750000Y930000D03*
X-1120000Y-710000D03*
X-1500000Y270000D03*
X-970000Y1280000D03*
X-247800Y-137800D03*
X-830000Y100000D03*
X-1226200Y-603800D03*
X133800Y946200D03*
X-1610000Y300000D03*
X390000Y-570000D03*
X-1070000Y-1510000D03*
X390000Y430000D03*
X-1140000Y1250000D03*
X-970000Y510000D03*
X-1036200Y796200D03*
X-106200Y896200D03*
X1530000Y1100000D03*
X2080000Y-100000D03*
X1660000Y470000D03*
X780000Y-980000D03*
X1530000Y2050000D03*
X1015000Y-335000D03*
G54D20*
X-2010000Y-1510000D03*
X-1880000Y-1200000D03*
X-2200000D03*
X-1980000Y-1290000D03*
X-2210000Y560000D03*
Y650000D03*
X-2120000Y-1200000D03*
X-1900000Y-1290000D03*
X-2210000Y740000D03*
Y830000D03*
X-2530000Y390000D03*
X-2210000Y920000D03*
Y1010000D03*
X-1940000Y-480000D03*
Y-570000D03*
X-1820000Y-1290000D03*
X-1740000D03*
X-2090000Y-1510000D03*
X-2140000Y-1290000D03*
X-2060000D03*
X-2210000Y1100000D03*
Y1190000D03*
Y1280000D03*
X-2490000Y320000D03*
X-2210000Y1370000D03*
Y1460000D03*
Y1550000D03*
Y1640000D03*
X-1690000Y-1510000D03*
X-2250000Y2000000D03*
X-2320000Y2060000D03*
X-2460000Y-910000D03*
X-2430000Y2070000D03*
X-2510000Y90000D03*
X-2470000Y1950000D03*
X-2420000Y90000D03*
X-2520000Y2070000D03*
Y-410000D03*
X-1850000Y-1510000D03*
X-2530000Y550000D03*
X-2480000Y1330000D03*
X-2510000Y830000D03*
X-2520000Y-1760000D03*
X-1740000Y-1200000D03*
X-2470000Y210000D03*
X-1940000Y-750000D03*
X-1930000Y-1510000D03*
X-1960000Y-1200000D03*
X-2510000Y1450000D03*
X-1770000Y-1510000D03*
X-1940000Y-840000D03*
Y-660000D03*
X-2040000Y-1200000D03*
X-2460000Y-820000D03*
Y-640000D03*
X-2170000Y-1510000D03*
X-2440000Y-410000D03*
X-2460000Y-730000D03*
G54D24*
X2656800Y-92900D03*
Y-492900D03*
G54D23*
X2499200Y-1287000D03*
Y-1727000D03*
G54D22*
X-367000Y2184000D03*
Y1930000D03*
Y1676000D03*
X-113000D03*
Y1930000D03*
Y2184000D03*
X2350800Y706600D03*
Y1722600D03*
X1788600Y411000D03*
X1534600D03*
X1788600Y665000D03*
X1534600D03*
%LPD*%
G75*
G54D10*
X-2760000Y-2450000D03*
X-2820000D03*
X-2880000Y-2430000D03*
X-2930000Y-2380000D03*
X-2950000Y-2320000D03*
Y-2080000D03*
Y-2140000D03*
Y-2200000D03*
Y-2260000D03*
Y-2020000D03*
Y-1780000D03*
Y-1720000D03*
Y-1660000D03*
Y-1960000D03*
Y-1900000D03*
Y-1840000D03*
Y-1360000D03*
Y-1420000D03*
Y-1480000D03*
Y-1540000D03*
Y-1600000D03*
Y-1300000D03*
Y-1060000D03*
Y-1000000D03*
Y-940000D03*
Y-1240000D03*
Y-1180000D03*
Y-1120000D03*
Y-700000D03*
Y-760000D03*
Y-820000D03*
Y-880000D03*
Y-640000D03*
Y-580000D03*
Y-520000D03*
Y-340000D03*
Y-280000D03*
Y-220000D03*
Y-160000D03*
Y-460000D03*
Y-400000D03*
Y20000D03*
Y-40000D03*
Y-100000D03*
Y80000D03*
Y140000D03*
Y200000D03*
Y380000D03*
Y440000D03*
Y500000D03*
Y560000D03*
Y260000D03*
Y320000D03*
Y680000D03*
Y620000D03*
Y800000D03*
Y740000D03*
Y860000D03*
Y920000D03*
Y1100000D03*
Y1160000D03*
Y1220000D03*
Y1280000D03*
Y980000D03*
Y1040000D03*
Y1340000D03*
Y1520000D03*
Y1460000D03*
Y1400000D03*
Y1640000D03*
Y1580000D03*
Y1760000D03*
Y1700000D03*
Y2000000D03*
Y1940000D03*
Y1880000D03*
Y1820000D03*
Y2060000D03*
Y2120000D03*
Y2180000D03*
Y2240000D03*
X-2930000Y2370000D03*
X-2950000Y2300000D03*
X-2710000Y2450000D03*
X-2770000D03*
X-2830000Y2440000D03*
X-2890000Y2420000D03*
X-2700000Y-2450000D03*
X-2520000D03*
X-2460000D03*
X-2400000D03*
X-2340000D03*
X-2640000D03*
X-2580000D03*
X-2360000Y-1670000D03*
X-2430000Y-1740000D03*
X-2480000Y-1630000D03*
X-2520000Y-1760000D03*
X-2570000Y-1700000D03*
X-2360000Y-1510000D03*
X-2420000Y-1570000D03*
X-2350000Y-1290000D03*
X-2410000Y-1230000D03*
X-2350000Y-1140000D03*
X-2470000Y-1170000D03*
X-2530000Y-1150000D03*
Y-1030000D03*
X-2350000Y-950000D03*
X-2460000Y-1000000D03*
Y-910000D03*
X-2410000Y-1080000D03*
X-2570000Y-1090000D03*
X-2350000Y-680000D03*
Y-770000D03*
Y-860000D03*
X-2460000Y-820000D03*
Y-730000D03*
X-2350000Y-590000D03*
X-2460000Y-640000D03*
Y-550000D03*
X-2530000Y-530000D03*
X-2350000Y-230000D03*
Y-320000D03*
Y-410000D03*
Y-500000D03*
X-2440000Y-410000D03*
X-2520000D03*
X-2570000Y-470000D03*
X-2350000Y-50000D03*
Y-140000D03*
Y40000D03*
X-2420000Y90000D03*
X-2510000D03*
X-2560000Y150000D03*
X-2420000Y560000D03*
Y470000D03*
X-2380000Y390000D03*
X-2420000Y270000D03*
X-2360000Y210000D03*
X-2470000D03*
X-2490000Y320000D03*
X-2530000Y390000D03*
Y550000D03*
X-2420000Y650000D03*
Y920000D03*
Y830000D03*
Y740000D03*
X-2530000Y630000D03*
Y700000D03*
X-2510000Y830000D03*
X-2570000Y770000D03*
X-2420000Y1100000D03*
Y1010000D03*
Y1190000D03*
Y1280000D03*
X-2480000Y1330000D03*
X-2420000Y1440000D03*
X-2510000Y1450000D03*
X-2570000Y1390000D03*
X-2380000Y1950000D03*
X-2470000D03*
X-2570000Y2010000D03*
X-2430000Y2070000D03*
X-2520000D03*
X-2350000Y2450000D03*
X-2410000D03*
X-2470000D03*
X-2530000D03*
X-2590000D03*
X-2650000D03*
X-2280000Y-2450000D03*
X-2220000D03*
X-2100000D03*
X-2160000D03*
X-1980000D03*
X-2040000D03*
X-2220000Y-1400000D03*
X-2140000D03*
X-2060000D03*
X-1980000D03*
X-2090000Y-1510000D03*
X-2010000D03*
X-2290000Y-1350000D03*
X-2170000Y-1510000D03*
X-2240000Y-1550000D03*
X-2300000Y-1610000D03*
Y-1450000D03*
X-2140000Y-1290000D03*
X-2060000D03*
X-1980000D03*
X-2040000Y-1200000D03*
X-2120000D03*
X-2200000D03*
X-2280000D03*
X-2050000Y-890000D03*
X-2250000Y-900000D03*
X-2120000Y-960000D03*
X-2220000Y-990000D03*
X-2310000Y-1030000D03*
X-2050000Y-800000D03*
Y-710000D03*
X-2150000Y-670000D03*
Y-760000D03*
Y-850000D03*
X-2250000Y-720000D03*
Y-810000D03*
X-2050000Y-620000D03*
Y-530000D03*
X-2150000Y-580000D03*
X-2250000Y-540000D03*
Y-630000D03*
X-2050000Y-440000D03*
Y-350000D03*
Y-260000D03*
Y-170000D03*
X-2150000Y-220000D03*
Y-310000D03*
Y-400000D03*
Y-490000D03*
X-2250000Y-180000D03*
Y-270000D03*
Y-360000D03*
Y-450000D03*
X-2050000Y-80000D03*
X-2150000Y-40000D03*
Y-130000D03*
X-2250000Y-90000D03*
X-2050000Y10000D03*
Y100000D03*
Y190000D03*
X-2150000Y140000D03*
Y50000D03*
X-2250000Y0D03*
Y90000D03*
X-2300000Y150000D03*
X-2090000Y270000D03*
X-2150000Y330000D03*
X-2210000Y390000D03*
X-2270000Y450000D03*
X-2320000Y520000D03*
X-2210000Y560000D03*
X-2160000Y500000D03*
X-2100000Y440000D03*
X-2040000Y380000D03*
X-1980000Y320000D03*
X-2320000Y330000D03*
X-2260000Y270000D03*
X-2200000Y210000D03*
X-2320000Y610000D03*
X-2210000Y650000D03*
X-2320000Y700000D03*
Y790000D03*
Y880000D03*
X-2210000Y920000D03*
Y830000D03*
Y740000D03*
X-2320000Y970000D03*
Y1060000D03*
X-2210000Y1100000D03*
Y1010000D03*
X-2320000Y1150000D03*
Y1240000D03*
X-2210000Y1280000D03*
Y1190000D03*
X-2320000Y1330000D03*
Y1420000D03*
Y1510000D03*
Y1600000D03*
X-2210000Y1640000D03*
Y1550000D03*
Y1460000D03*
Y1370000D03*
X-2320000Y1690000D03*
Y1780000D03*
Y1870000D03*
X-2250000Y2000000D03*
X-2210000Y1730000D03*
X-2320000Y2060000D03*
X-1990000Y2450000D03*
X-2050000D03*
X-2110000D03*
X-2170000D03*
X-2230000D03*
X-2290000D03*
X-1740000Y-2450000D03*
X-1800000D03*
X-1860000D03*
X-1620000D03*
X-1680000D03*
X-1920000D03*
X-1900000Y-1400000D03*
X-1820000D03*
X-1930000Y-1510000D03*
X-1770000D03*
X-1690000D03*
X-1850000D03*
X-1740000Y-1400000D03*
X-1820000Y-1290000D03*
X-1740000D03*
X-1900000D03*
X-1880000Y-1200000D03*
X-1740000D03*
X-1960000D03*
X-1807200Y-937200D03*
X-1740000Y-987200D03*
X-1810000Y-1037200D03*
X-1742800Y-1087200D03*
X-1807200Y-1137200D03*
X-1940000Y-660000D03*
Y-750000D03*
Y-840000D03*
Y-570000D03*
Y-210000D03*
Y-300000D03*
Y-390000D03*
Y-480000D03*
Y-30000D03*
Y-120000D03*
Y150000D03*
Y60000D03*
Y240000D03*
X-1630000Y2450000D03*
X-1690000D03*
X-1750000D03*
X-1810000D03*
X-1870000D03*
X-1930000D03*
X-1380000Y-2450000D03*
X-1440000D03*
X-1500000D03*
X-1560000D03*
X-1260000D03*
X-1570000Y-1670000D03*
X-1426200Y-1306200D03*
X-1376200Y-1340000D03*
X-1330000Y2450000D03*
X-1390000D03*
X-1450000D03*
X-1510000D03*
X-1570000D03*
X-1270000D03*
X-1140000Y-2450000D03*
X-1200000D03*
X-900000D03*
X-960000D03*
X-1020000D03*
X-1080000D03*
X-1150000Y2450000D03*
X-1090000D03*
X-1030000D03*
X-970000D03*
X-910000D03*
X-1210000D03*
X-720000Y-2450000D03*
X-660000D03*
X-780000D03*
X-840000D03*
X-540000D03*
X-600000D03*
X-850000Y2450000D03*
X-730000D03*
X-790000D03*
X-670000D03*
X-550000D03*
X-610000D03*
X-480000Y-2450000D03*
X-240000D03*
X-180000D03*
X-420000D03*
X-360000D03*
X-300000D03*
X-370000Y2450000D03*
X-430000D03*
X-490000D03*
X-250000D03*
X-310000D03*
X-190000D03*
X-120000Y-2450000D03*
X-60000D03*
X0D03*
X120000D03*
X180000D03*
X60000D03*
X-10000Y2450000D03*
X-70000D03*
X-130000D03*
X170000D03*
X110000D03*
X50000D03*
X300000Y-2450000D03*
X240000D03*
X540000D03*
X480000D03*
X420000D03*
X360000D03*
X290000Y2450000D03*
X350000D03*
X410000D03*
X470000D03*
X530000D03*
X230000D03*
X660000Y-2450000D03*
X600000D03*
X840000D03*
X900000D03*
X780000D03*
X720000D03*
X590000Y2450000D03*
X650000D03*
X710000D03*
X890000D03*
X830000D03*
X770000D03*
X960000Y-2450000D03*
X1200000D03*
X1260000D03*
X1020000D03*
X1080000D03*
X1140000D03*
X1070000Y2450000D03*
X1010000D03*
X950000D03*
X1190000D03*
X1130000D03*
X1250000D03*
X1320000Y-2450000D03*
X1440000D03*
X1500000D03*
X1560000D03*
X1620000D03*
X1380000D03*
X1310000Y2450000D03*
X1610000D03*
X1550000D03*
X1490000D03*
X1430000D03*
X1370000D03*
X1980000Y-2450000D03*
X1920000D03*
X1860000D03*
X1800000D03*
X1740000D03*
X1680000D03*
X1730000Y2450000D03*
X1790000D03*
X1850000D03*
X1910000D03*
X1970000D03*
X1670000D03*
X2280000Y-2450000D03*
X2340000D03*
X2160000D03*
X2220000D03*
X2100000D03*
X2040000D03*
X2390000Y2450000D03*
X2030000D03*
X2150000D03*
X2090000D03*
X2330000D03*
X2270000D03*
X2210000D03*
X2400000Y-2450000D03*
X2640000D03*
X2460000D03*
X2520000D03*
X2580000D03*
X2700000D03*
X2510000Y2450000D03*
X2450000D03*
X2630000D03*
X2570000D03*
X2750000D03*
X2690000D03*
X2830000Y-2440000D03*
X2900000Y-2410000D03*
X2940000Y-2350000D03*
X2760000Y-2450000D03*
X2950000Y-2290000D03*
Y290000D03*
Y230000D03*
Y530000D03*
Y470000D03*
Y410000D03*
Y350000D03*
Y590000D03*
Y650000D03*
Y890000D03*
Y830000D03*
Y710000D03*
Y770000D03*
Y1010000D03*
Y950000D03*
Y1250000D03*
Y1190000D03*
Y1130000D03*
Y1070000D03*
Y1310000D03*
Y1550000D03*
Y1610000D03*
Y1370000D03*
Y1430000D03*
Y1490000D03*
Y1790000D03*
Y1850000D03*
Y1910000D03*
Y1970000D03*
Y1670000D03*
Y1730000D03*
Y2210000D03*
Y2150000D03*
Y2090000D03*
Y2030000D03*
Y2270000D03*
Y2330000D03*
X2920000Y2390000D03*
X2870000Y2430000D03*
X2810000Y2450000D03*
G54D11*
X-2540000Y-2015120D03*
Y-1395120D03*
Y-775120D03*
Y-155120D03*
X-2545120Y464880D03*
Y1084880D03*
Y1704880D03*
X-710000Y-1690000D03*
X-640000D03*
X-710000Y-1510000D03*
Y-1600000D03*
X-640000Y-1510000D03*
Y-1600000D03*
X150600Y-1561200D03*
X20000Y1550000D03*
Y1490000D03*
X320000Y-20000D03*
X380000D03*
X320000Y100000D03*
X380000D03*
X320000Y40000D03*
X380000D03*
X270000Y1450000D03*
X340000D03*
X480000D03*
X410000D03*
Y1520000D03*
X480000D03*
X340000D03*
X270000D03*
Y1640000D03*
X690000Y-1310000D03*
X750000D03*
X690000Y-1250000D03*
X750000D03*
X690000Y-1190000D03*
X750000D03*
X1219400Y1612200D03*
X1650000Y-280000D03*
Y-350000D03*
X1580000Y-280000D03*
Y-350000D03*
X1510000Y-280000D03*
Y-350000D03*
X1993000Y-957000D03*
X1790000Y-280000D03*
Y-350000D03*
X1720000Y-280000D03*
Y-350000D03*
X1950000Y1600000D03*
X2020000D03*
X1950000Y1530000D03*
X2020000D03*
X1950000Y1670000D03*
X2020000D03*
X1950000Y1810000D03*
X2020000D03*
X1950000Y1740000D03*
X2020000D03*
X2100000Y-1800000D03*
Y-1740000D03*
X2160000Y-1800000D03*
Y-1740000D03*
X2220000Y-1800000D03*
Y-1740000D03*
X2460000Y-530000D03*
X2400000D03*
X2460000Y-470000D03*
X2400000D03*
X2460000Y-410000D03*
X2400000D03*
G54D12*
X-2060000Y-2120000D03*
X-2020000Y500000D03*
X-1697200Y-787200D03*
X-1816200Y-596200D03*
X-1700000Y-560000D03*
X-1610000Y300000D03*
X-1820200Y310000D03*
X-1850000Y560000D03*
X-1750000Y930000D03*
X-1820000Y870000D03*
X-1628800Y921200D03*
X-1850000Y696200D03*
X-1320000Y-2450000D03*
X-1480000Y-2120000D03*
X-1380000Y-1910000D03*
X-1391400Y-1620000D03*
X-1568090Y-1510000D03*
X-1476200Y-556200D03*
X-1328420Y-590000D03*
X-1530000Y-600000D03*
X-1592600Y-467400D03*
X-1300000Y420000D03*
X-1306200Y346200D03*
X-1500000Y270000D03*
X-1421170Y271170D03*
X-1316200Y246200D03*
X-1318200Y770000D03*
X-1590000D03*
X-1490000Y811200D03*
X-1510000Y1480000D03*
X-1131600Y-2121600D03*
X-896200Y-1796200D03*
X-1070000Y-1510000D03*
X-1200000Y-1570000D03*
X-1180000Y-1420000D03*
X-896200Y-1466200D03*
X-980000Y-1420000D03*
X-1226200Y-603800D03*
X-1120000Y-710000D03*
X-1051910Y-707360D03*
X-920000Y-420000D03*
X-910000Y91760D03*
X-970000Y510000D03*
X-980000Y580000D03*
X-973800Y646200D03*
X-1036200Y796200D03*
Y696200D03*
X-970000Y1280000D03*
X-1190000Y1120000D03*
X-897800Y1281760D03*
X-1140000Y1250000D03*
X-1180000Y1620000D03*
X-980000Y1860000D03*
Y1800000D03*
X-540000Y-1860000D03*
X-826200Y-1213800D03*
X-701200Y-821200D03*
X-603400Y-636600D03*
X-600000Y-520000D03*
X-597800Y-270000D03*
X-830000Y100000D03*
X-680000Y560000D03*
X-750000D03*
X-747800Y1297800D03*
X-750000Y1417000D03*
X-820000Y1580000D03*
X-830000Y1700000D03*
X-782400Y2237600D03*
X-200000Y-840000D03*
X-497800Y-200000D03*
X-224800Y-502760D03*
X-197800Y97800D03*
X-247800Y-137800D03*
X-360000Y160000D03*
X-446740Y-149410D03*
X-95720Y-1636200D03*
X-100000Y-1310000D03*
X-120000Y-1040000D03*
X190000Y-1230000D03*
X-90000Y-530000D03*
X-106200Y896200D03*
X133800Y946200D03*
X-70000Y1480000D03*
X180000Y1640000D03*
X90000Y1690000D03*
X54400Y2095600D03*
X514580Y-900000D03*
X440030D03*
X550000Y-1190000D03*
X390000Y-570000D03*
X234640Y-205350D03*
X300000Y-110000D03*
X390000Y430000D03*
Y320000D03*
X370000Y2095600D03*
X579600Y-1710400D03*
X780000Y-980000D03*
X720000Y-720000D03*
X700000Y-120000D03*
X660000Y280000D03*
X790000Y451910D03*
X928090D03*
X615200Y220000D03*
X780000Y1060000D03*
X690000Y1200000D03*
X860000Y1940000D03*
X1042200Y-1837800D03*
X1085450Y-1340000D03*
X1160000D03*
X1026200Y-196200D03*
X1015000Y-335000D03*
X1093800Y206200D03*
X1090000Y-120000D03*
X1100000Y410000D03*
X1009000Y601000D03*
X1009600Y929600D03*
X1010000Y1470000D03*
X1580000Y-2060000D03*
X1610000Y-690000D03*
X1330200Y60000D03*
X1660000Y470000D03*
X1330000Y800000D03*
X1530000Y1100000D03*
X1630000Y1960000D03*
X1530000Y2050000D03*
X1695400Y-2254600D03*
X1810000Y-1920000D03*
X1950000D03*
X1977000Y-1347000D03*
X1984900Y-414900D03*
X1795900Y-175900D03*
X1990000Y50000D03*
X1840200Y860200D03*
X1843000Y1460000D03*
X1696400Y1446400D03*
X2080000Y-100000D03*
X2452900Y-162900D03*
X2410000Y-230000D03*
G54D13*
X-1887400Y1874800D03*
G54D14*
X-1351200Y-962200D03*
G54D15*
X-367000Y1676000D03*
X-113000D03*
X-367000Y1930000D03*
X-113000D03*
X-367000Y2184000D03*
X-113000D03*
X1534600Y157000D03*
Y411000D03*
Y665000D03*
X1788600Y157000D03*
Y411000D03*
Y665000D03*
X2350800Y960600D03*
Y706600D03*
Y1214600D03*
Y1722600D03*
Y1468600D03*
G54D16*
X2499200Y-1727000D03*
Y-1287000D03*
G54D17*
X2656800Y-492900D03*
Y-92900D03*
G54D18*
G01X-1376200Y-1340000D02*
X-1486200Y-1450000D01*
X-2220000D01*
X-2470000Y-1700000D01*
X-2570000D01*
G01X-1426200Y-1306200D02*
X-1470000Y-1350000D01*
X-2210000D01*
X-2470000Y-1090000D01*
X-2570000D01*
G01X-1807200Y-1137200D02*
X-2272810D01*
X-2400000Y-1010010D01*
Y-522700D01*
X-2452700Y-470000D01*
X-2570000D01*
G01X-1742800Y-1087200D02*
X-2182800D01*
X-2300000Y-970000D01*
Y67300D01*
X-2382700Y150000D01*
X-2560000D01*
G01X-2570000Y1390000D02*
X-2440000D01*
X-2370000Y1320000D01*
Y460000D01*
X-2100000Y190000D01*
Y-910010D01*
X-2022810Y-987200D01*
X-1740000D01*
G01X-2570000Y770000D02*
X-2530000D01*
X-2470000Y710000D01*
Y399990D01*
X-2200000Y129990D01*
Y-940000D01*
X-2102800Y-1037200D01*
X-1810000D01*
G01X-2570000Y2010000D02*
X-2360000D01*
X-2270000Y1920000D01*
Y530000D01*
X-2000000Y260000D01*
Y-880000D01*
X-1942800Y-937200D01*
X-1807200D01*
G01X-1570000Y-1670000D02*
X-1280000D01*
X-1242150Y-1632150D01*
X-832150D01*
X-790000Y-1590000D01*
Y-1480010D01*
X-520000Y-1210010D01*
Y-540000D01*
G01X-1260000Y-1560000D02*
X-1320000Y-1620000D01*
X-1391400D01*
G01X-920000Y-420000D02*
X-1090590D01*
G02X-1100590Y-410000I0J10000D01*
G03X-1110590Y-400000I-10000J0D01*
G01X-1115990D01*
G03X-1125990Y-410000I0J-10000D01*
G02X-1135990Y-420000I-10000J0D01*
G01X-1141390D01*
G02X-1151390Y-410000I0J10000D01*
G03X-1161390Y-400000I-10000J0D01*
G01X-1166790D01*
G03X-1176790Y-410000I0J-10000D01*
G02X-1186790Y-420000I-10000J0D01*
G01X-1192190D01*
G02X-1202190Y-410000I0J10000D01*
G03X-1212190Y-400000I-10000J0D01*
G01X-1217590D01*
G03X-1227590Y-410000I0J-10000D01*
G02X-1237590Y-420000I-10000J0D01*
G01X-1242990D01*
G02X-1252990Y-410000I0J10000D01*
G03X-1262990Y-400000I-10000J0D01*
G01X-1268390D01*
G03X-1278390Y-410000I0J-10000D01*
G02X-1288390Y-420000I-10000J0D01*
G01X-1293790D01*
G02X-1303790Y-410000I0J10000D01*
G03X-1313790Y-400000I-10000J0D01*
G01X-1319190D01*
G03X-1329190Y-410000I0J-10000D01*
G02X-1339190Y-420000I-10000J0D01*
G01X-1420000D01*
X-1476200Y-476200D01*
Y-556200D01*
G01X-1328420Y-590000D02*
X-1258420Y-520000D01*
X-600000D01*
G01X-1530000Y-600000D02*
Y-260000D01*
X-1419410Y-149410D01*
X-446740D01*
G01X-1592600Y-467400D02*
Y-30200D01*
X-1316200Y246200D01*
G01X-1490000Y811200D02*
X-1325000Y646200D01*
X-973800D01*
G01D02*
X-820000Y800000D01*
Y1580000D01*
G01X-597800Y-270000D02*
X-520000Y-347800D01*
Y-540000D01*
G01X860000Y1150000D02*
X590000D01*
X360000Y1380000D01*
X-665600D01*
X-747800Y1297800D01*
G01X-520000Y-540000D02*
X-262040D01*
X-224800Y-502760D01*
G01X700000Y-120000D02*
X570000Y-250000D01*
X-447800D01*
X-497800Y-200000D01*
G01X234640Y-205350D02*
X-390800D01*
X-446740Y-149410D01*
G01X-360000Y160000D02*
X555200D01*
X615200Y220000D01*
G01X180000Y1640000D02*
X780000Y2240000D01*
X2050000D01*
X2180000Y2110000D01*
Y1639400D01*
X2350800Y1468600D01*
G01Y960600D02*
X2590000Y1199800D01*
Y2060000D01*
X2320000Y2330000D01*
X730000D01*
X90000Y1690000D01*
G01X514580Y-900000D02*
Y-862700D01*
X492550Y-840670D01*
Y-822700D01*
X505250Y-810000D01*
X1010000D01*
X1104600Y-904600D01*
Y-1320850D01*
X1085450Y-1340000D01*
G01X440030Y-900000D02*
Y-862690D01*
X467150Y-835570D01*
Y-812170D01*
X494720Y-784600D01*
X1020530D01*
X1130000Y-894070D01*
Y-1318870D01*
X1151130Y-1340000D01*
X1160000D01*
G01X860000Y1150000D02*
Y-580000D01*
X720000Y-720000D01*
G01X1330000Y800000D02*
Y1080000D01*
X1260000Y1150000D01*
X860000D01*
G01X1330200Y60000D02*
X1250000Y140200D01*
Y370000D01*
X1210000Y410000D01*
X1100000D01*
G01X1090000Y-120000D02*
X1430000D01*
X1540000Y-230000D01*
X2410000D01*
G54D19*
G01X-3000000Y-2300000D02*
Y2300000D01*
G02X-2800000Y2500000I200000J0D01*
G01X2800000D01*
G02X3000000Y2300000I0J-200000D01*
G01Y-2300000D01*
G02X2800000Y-2500000I-200000J0D01*
G01X-2800000D01*
G02X-3000000Y-2300000I0J200000D01*
M02*
